<svg xmlns="http://www.w3.org/2000/svg" viewBox="0 0 52.8 173.51"><defs><style>.cls-1{fill:#f29203;}.cls-1,.cls-2,.cls-3,.cls-4,.cls-5,.cls-6{fill-rule:evenodd;}.cls-1,.cls-2,.cls-3,.cls-4,.cls-5,.cls-6,.cls-7{opacity:0.64;}.cls-2{fill:#174226;}.cls-3{fill:#fba200;}.cls-4{fill:#2b653f;}.cls-5,.cls-7{fill:#fdc300;}.cls-6{fill:#418057;}.cls-7{stroke:#fdc300;stroke-linecap:round;stroke-linejoin:round;stroke-width:0.25px;}</style></defs><title>資產 2</title><g id="圖層_2" data-name="圖層 2"><g id="Objects"><path class="cls-1" d="M11.09,173.51c-6.1,0-11.09-3.59-11.09-8V76c0-17.56,15.35-19,15.77-25.15L18.18,0H34.62L37,50.88C37.33,57.07,52.8,58.47,52.8,76v89.5c0,4.39-5,8-11.08,8Z"/><path class="cls-2" d="M2.52,94.34c13.79-15.2,33.31-15.36,47.76,0l-5.7,42.85H8.22Z"/><path class="cls-3" d="M37,50.88l0,.29a2.8,2.8,0,0,0,.06.28,2.68,2.68,0,0,0,.07.27c0,.09.06.18.09.27a2,2,0,0,0,.11.26,2.1,2.1,0,0,0,.13.26l.15.26.16.25.18.24.2.25.21.24.22.24.24.24h0l.26.24.26.24.27.24h0l.29.24.3.24.3.24.32.25.32.24.33.25.34.26.34.25h0l.35.27.35.26.35.28.36.27.36.29h0l.37.29.36.3.37.31.36.31.36.33.37.33h0l.36.34h0l.35.36.35.36h0c.12.13.24.25.35.38s.23.25.34.39l.34.39.33.42.33.42.31.44h0l.31.45c.1.16.2.31.29.47s.2.32.29.48l.28.5c.09.17.18.34.26.51l.26.53.24.55.22.57h0c.08.19.15.38.22.58s.13.4.2.6l.18.62c.06.21.11.42.16.64s.11.44.15.66h0c.05.22.09.45.13.68l.12.7q0,.35.09.72h0c0,.24,0,.49.08.74s0,.51,0,.77,0,.52,0,.78,0,.54,0,.82v89.5c0,4.39-5,8-11.08,8H22.52c-5.12,0-8.2-4.52-8.2-7.47V76c0-17.56,10.21-19,10.23-25.15L24.69,0h9.93Z"/><path class="cls-3" d="M5.94,165.53V76c0-10.16,4-14.91,7.39-18.31l1.25-1.22c1.64-1.58,3.73-1.67,2.77,0-.27.48-.66.92-1,1.41C14,61.32,11.58,66.18,11.58,75.7v90c0,4.14-5.64,2.64-5.64-.21ZM18.26,49,20,0h1.7L20.47,49A1.12,1.12,0,1,1,18.26,49Z"/><path class="cls-4" d="M5.94,120V91a35.9,35.9,0,0,1,5.64-4.06v50.27H8.22Z"/><path class="cls-5" d="M31.07,0h1.7l1.78,49a1.11,1.11,0,1,1-2.22,0L31.07,0Zm7.15,56.5a15.92,15.92,0,0,1,1.44,1.41C43,61.3,46.87,66.06,46.87,76v89.5c0,4.54-5.64,4-5.64.49V75.7c0-9.38-2.38-14.23-4.67-17.64-.38-.55-1-1-1.11-1.56C35.06,54.74,36.61,55.24,38.22,56.5Z"/><path class="cls-4" d="M14.32,137.19V85.51c11.85-5.39,25.29-2.51,36,8.83l-5.7,42.85Z"/><path class="cls-6" d="M41.23,87.06a37,37,0,0,1,5.64,4V120l-2.29,17.18H41.23Z"/><path class="cls-2" d="M17,24.37l.7-15.31H35.05l.73,15.31Z"/><polygon class="cls-6" points="33.65 24.36 31.7 24.36 31.3 9.06 33.01 9.06 33.65 24.36"/><polygon class="cls-4" points="33.06 10.29 31.33 10.29 31.3 9.06 33.01 9.06 33.06 10.29"/><rect class="cls-7" x="17.02" y="7.17" width="18.76" height="0.55" transform="translate(-0.21 0.79) rotate(-1.72)"/><rect class="cls-7" x="17.19" y="4.55" width="18.38" height="0.55" transform="translate(-0.13 0.79) rotate(-1.72)"/><rect class="cls-7" x="17.4" y="1.94" width="18.03" height="0.55" transform="translate(-0.05 0.79) rotate(-1.72)"/></g></g></svg>