<svg xmlns="http://www.w3.org/2000/svg" viewBox="0 0 119.19 169.71"><defs><style>.cls-1{fill:#e3d9bf;}.cls-2{fill:#873f26;}.cls-3{fill:#b05331;}.cls-4{fill:#c2c2c2;}.cls-5{fill:#fff;opacity:0.3;}.cls-6{opacity:0.1;}.cls-7{fill:#e6e6e6;}.cls-8{fill:#999;}</style></defs><title>資產 1</title><g id="圖層_2" data-name="圖層 2"><g id="Layer_9" data-name="Layer 9"><path class="cls-1" d="M11.52,18.53S9.63,2.46,21.42.42,44.63,4.35,53,5.22s16-3.85,20.7-1.74c7.35,3.27,5.62,15.7,5.62,15.7Z"/><polygon class="cls-1" points="79.5 34.45 11.42 34.38 11.42 16.88 79.5 16.99 79.5 34.45"/><path class="cls-2" d="M79.5,34.56c.36,34,1.38,86.32,4.19,118.36H7.57c2.73-33.13,3.59-84.83,3.85-118.5Z"/><path class="cls-3" d="M52,95.79c0,2.09-1.29,3.78-2.89,3.78s-2.89-1.69-2.89-3.78S47.52,92,49.12,92,52,93.7,52,95.79Z"/><path class="cls-3" d="M74.25,80.78c0,1.59-1,2.88-2.2,2.88s-2.21-1.29-2.21-2.88,1-2.88,2.21-2.88S74.25,79.19,74.25,80.78Z"/><path class="cls-3" d="M31.85,131a1.74,1.74,0,0,1-1.47,1.92,2,2,0,0,1,0-3.84A1.74,1.74,0,0,1,31.85,131Z"/><path class="cls-3" d="M31,72.17c0,1.8-1.11,3.25-2.49,3.25S26,74,26,72.17s1.11-3.25,2.48-3.25S31,70.37,31,72.17Z"/><path class="cls-3" d="M31.29,80.54a2.3,2.3,0,0,1-1.93,2.54,2.63,2.63,0,0,1,0-5.07A2.29,2.29,0,0,1,31.29,80.54Z"/><path class="cls-4" d="M102.38,33.17H83.86c.1-10.54.27-17,.27-17H6.68S9.35,116.19,0,169.71H90.81c-2.35-13.48-4-29.91-5-46.95h16.58c9.27,0,16.81-9.22,16.81-20.55V53.72C119.19,42.39,111.65,33.17,102.38,33.17ZM7.57,152.92c4.33-46.51,3.95-134.39,3.95-134.39H79.29s-.05,89.37,4.4,134.39Zm103.6-50.71c0,5.56-3.94,10.08-8.79,10.08H85.22C84,87.27,83.73,62,83.79,43.64h18.59c4.85,0,8.79,4.52,8.79,10.08Z"/><path class="cls-5" d="M79.5,169.71H54.09C50.3,158.37,51,16.13,51,16.13H71.48S70.15,129.57,79.5,169.71Z"/><path class="cls-6" d="M0,169.71H43.83V16.13H6.68S9.76,118.15,0,169.71Z"/><path class="cls-7" d="M84.24,34.45s21.29,0,23.6,1.46C116,40.56,117.63,51,117.63,51s1,7.31-.14,52.8c0,0-.17-49.63-1.59-53.23-2.14-9.06-5.17-10.84-8.84-13S84.24,34.45,84.24,34.45Z"/><polygon class="cls-8" points="86.02 121.28 85.47 117.65 103.72 120.41 86.02 121.28"/><polygon class="cls-8" points="83.69 41.73 83.69 39.55 103.72 42.16 83.69 41.73"/></g></g></svg>