<svg xmlns="http://www.w3.org/2000/svg" viewBox="0 0 119.2 153.58"><defs><style>.cls-1{fill:#e3d9bf;}.cls-2{fill:#873f26;}.cls-3{fill:#b05331;}.cls-4{fill:#c2c2c2;}.cls-5{fill:#fff;opacity:0.3;}.cls-5,.cls-6{isolation:isolate;}.cls-6{opacity:0.1;}.cls-7{fill:#e6e6e6;}.cls-8{fill:#999;}</style></defs><title>chart_5</title><g id="chart1" data-name="chart1_1"><g id="chart1-2" data-name="chart1"><g id="Layer_9" data-name="Layer 9"><polygon class="cls-1" points="80.75 82.76 10.51 82.74 10.51 76.79 80.75 76.83 80.75 82.76"/><path class="cls-2" d="M81.09,82.82c.37,15.51,1.44,39.36,4.38,54H5.85c2.86-15.11,3.76-38.68,4-54Z"/><path class="cls-3" d="M53.87,87.87c0,2.09-1.29,3.78-2.89,3.78S48.09,90,48.09,87.87s1.3-3.79,2.9-3.79S53.87,85.78,53.87,87.87Z"/><path class="cls-3" d="M31.85,114.87a1.74,1.74,0,0,1-1.47,1.92A2,2,0,0,1,29,114.31,2,2,0,0,1,30.38,113,1.74,1.74,0,0,1,31.85,114.87Z"/><path class="cls-4" d="M102.38,17H83.86c.1-10.54.27-17,.27-17H6.68S9.35,100.06,0,153.58H90.81a431.25,431.25,0,0,1-5-47h16.58c9.27,0,16.81-9.22,16.81-20.55V37.59C119.19,26.26,111.65,17,102.38,17ZM7.57,136.79C11.9,90.28,11.52,2.4,11.52,2.4H79.29s-.05,89.37,4.4,134.39Zm103.6-50.71c0,5.56-3.94,10.08-8.79,10.08H85.22c-1.22-25-1.49-50.29-1.43-68.65h18.59c4.85,0,8.79,4.52,8.79,10.08Z"/><path class="cls-5" d="M79.5,153.58H54.09C50.3,142.24,51,0,51,0H71.48S70.15,113.44,79.5,153.58Z"/><path class="cls-6" d="M0,153.58H43.83V0H6.68S9.76,102,0,153.58Z"/><path class="cls-7" d="M84.24,18.32s21.29,0,23.6,1.46c8.16,4.65,9.79,15.09,9.79,15.09s1,7.31-.14,52.8c0,0-.17-49.63-1.59-53.23-2.14-9.06-5.17-10.84-8.84-13S84.24,18.32,84.24,18.32Z"/><polygon class="cls-8" points="86.02 105.15 85.47 101.52 103.72 104.28 86.02 105.15"/><polygon class="cls-8" points="83.69 25.6 83.69 23.42 103.72 26.03 83.69 25.6"/></g></g></g></svg>
