<svg xmlns="http://www.w3.org/2000/svg" viewBox="0 0 119.19 153.59"><defs><style>.cls-1{fill:#c2c2c2;}.cls-2{fill:#fff;opacity:0.3;}.cls-3{opacity:0.1;}.cls-4{fill:#e6e6e6;}.cls-5{fill:#999;}</style></defs><title>chart_7</title><g id="chart1" data-name="chart1_1"><g id="Layer_9" data-name="Layer 9"><path class="cls-1" d="M102.38,17H83.86c.1-10.54.27-17,.27-17H6.68S9.35,100.06,0,153.59H90.81c-2.35-13.48-4-29.92-5-47h16.58c9.27,0,16.81-9.22,16.81-20.55V37.59C119.19,26.26,111.65,17,102.38,17ZM7.57,136.79C11.9,90.28,11.52,2.4,11.52,2.4H79.29s-.05,89.37,4.4,134.39Zm103.6-50.71c0,5.56-3.94,10.08-8.79,10.08H85.22c-1.25-25-1.49-50.28-1.43-68.65h18.59c4.85,0,8.79,4.52,8.79,10.08Z"/><path class="cls-2" d="M79.5,153.59H54.09C50.3,142.24,51,0,51,0H71.48S70.15,113.44,79.5,153.59Z"/><path class="cls-3" d="M0,153.59H43.83V0H6.68S9.76,102,0,153.59Z"/><path class="cls-4" d="M84.24,18.33s21.29,0,23.6,1.45c8.15,4.65,9.79,15.13,9.79,15.13s1,7.3-.14,52.79c0,0-.17-49.63-1.59-53.23-2.14-9.06-5.17-10.84-8.84-13S84.24,18.33,84.24,18.33Z"/><polygon class="cls-5" points="86.02 105.15 85.47 101.52 103.72 104.28 86.02 105.15"/><polygon class="cls-5" points="83.69 25.6 83.69 23.42 103.72 26.03 83.69 25.6"/></g></g></svg>
