<svg xmlns="http://www.w3.org/2000/svg" viewBox="0 0 119.2 153.58"><defs><style>.cls-1{fill:#e3d9bf;}.cls-2{fill:#873f26;}.cls-3{fill:#c2c2c2;}.cls-4{fill:#fff;opacity:0.3;}.cls-4,.cls-5{isolation:isolate;}.cls-5{opacity:0.1;}.cls-6{fill:#e6e6e6;}.cls-7{fill:#999;}</style></defs><title>資產 8</title><g id="圖層_2" data-name="圖層 2"><g id="圖層_1-2" data-name="圖層 1"><g id="Layer_9" data-name="Layer 9"><polygon class="cls-1" points="85.22 120.06 6.04 120.05 6.04 116.44 85.22 116.46 85.22 120.06"/><path class="cls-2" d="M82.77,120.08c.39,4.8,1.5,12.19,4.57,16.71H4.26c3-4.68,3.92-12,4.2-16.73Z"/><path class="cls-3" d="M102.38,17H83.86c.1-10.54.27-17,.27-17H6.68S9.35,100.06,0,153.58H90.81a431.25,431.25,0,0,1-5-47h16.58c9.27,0,16.81-9.22,16.81-20.55V37.59C119.19,26.26,111.65,17,102.38,17ZM7.57,136.79C11.9,90.28,11.52,2.4,11.52,2.4H79.29s-.05,89.37,4.4,134.39Zm103.6-50.71c0,5.56-3.94,10.08-8.79,10.08H85.22c-1.22-25-1.49-50.29-1.43-68.65h18.59c4.85,0,8.79,4.52,8.79,10.08Z"/><path class="cls-4" d="M79.5,153.58H54.09C50.3,142.24,51,0,51,0H71.48S70.15,113.44,79.5,153.58Z"/><path class="cls-5" d="M0,153.58H43.83V0H6.68S9.76,102,0,153.58Z"/><path class="cls-6" d="M84.24,18.32s21.29,0,23.6,1.46c8.16,4.65,9.79,15.09,9.79,15.09s1,7.31-.14,52.8c0,0-.17-49.63-1.59-53.23-2.14-9.06-5.17-10.84-8.84-13S84.24,18.32,84.24,18.32Z"/><polygon class="cls-7" points="86.02 105.15 85.47 101.52 103.72 104.28 86.02 105.15"/><polygon class="cls-7" points="83.69 25.6 83.69 23.42 103.72 26.03 83.69 25.6"/></g></g></g></svg>