<svg xmlns="http://www.w3.org/2000/svg" viewBox="0 0 743.67 97.9"><defs><style>.cls-1{fill:#fff;}.cls-2{fill:#fbb03b;}.cls-3{fill:red;}</style></defs><title>chart_3</title><g id="chart1" data-name="chart1_1"><g id="chart2" data-name="chart2_1"><circle class="cls-1" cx="517.2" cy="48.95" r="48.95"/><path class="cls-2" d="M175.21,30.78a11.36,11.36,0,0,0-8.65-4.11c-7.34,0-13.57,5.65-13.86,22.37,3.3-4,8-6.53,12.24-6.53,9.1,0,14.89,5.65,14.89,16.87,0,10.41-7,17.45-15.4,17.45-10.34,0-18-8.87-18-26.62,0-21,9.46-29.11,19.88-29.11a16.51,16.51,0,0,1,12.54,5.5Zm-1.69,28.6c0-7.26-3.15-11.88-9.68-11.88-3.37,0-7.48,1.9-11,6.89.81,11.15,4.84,17.23,11.59,17.23C169.56,71.62,173.52,66.71,173.52,59.38Z"/><path class="cls-2" d="M186.65,48.82c0-18.7,6.53-27.72,16.79-27.72s16.72,9.09,16.72,27.72-6.52,28-16.72,28S186.65,67.52,186.65,48.82Zm27,0c0-15.7-4.11-22.3-10.2-22.3s-10.26,6.6-10.26,22.3,4.1,22.66,10.26,22.66S213.64,64.66,213.64,48.82Z"/><path class="cls-2" d="M254.41,55.12l-12.1-19.06h7.18l5.36,8.8c1.24,2.2,2.64,4.4,4,6.6h.29c1.25-2.2,2.42-4.4,3.59-6.6l4.92-8.8h7l-12.1,19.72,13.13,20.1h-7.33l-5.87-9.32c-1.32-2.42-2.79-4.84-4.25-7.11h-.37c-1.39,2.27-2.71,4.69-4.11,7.11l-5.35,9.32h-7Z"/><path class="cls-2" d="M296.72,48.82c0-18.7,6.52-27.72,16.79-27.72s16.72,9.09,16.72,27.72-6.53,28-16.72,28S296.72,67.52,296.72,48.82Zm27,0c0-15.7-4.1-22.3-10.19-22.3s-10.27,6.6-10.27,22.3,4.11,22.66,10.27,22.66S323.7,64.66,323.7,48.82Z"/><path class="cls-2" d="M339.17,71.77a4.85,4.85,0,1,1,9.68,0,4.84,4.84,0,1,1-9.68,0Z"/><path class="cls-2" d="M357.51,62.53c0-7.19,5-12.17,9.9-14.81v-.37c-4-2.71-7.26-6.75-7.26-12.39,0-8.22,6.3-13.64,14.74-13.64,9.16,0,14.74,5.86,14.74,14.15,0,5.65-4,10.49-7.19,13v.37c4.69,2.71,9.09,6.74,9.09,14.08,0,7.84-6.74,13.93-16.86,13.93C364.77,76.83,357.51,70.82,357.51,62.53Zm27.64.22c0-7.19-6.6-9.9-14.22-13-4.33,2.79-7.34,7-7.34,12.17,0,5.72,4.77,9.9,11.22,9.9C381,71.84,385.15,68.1,385.15,62.75Zm-1.24-26.91c0-5.28-3.38-9.61-9.17-9.61-4.91,0-8.51,3.52-8.51,8.73,0,6.45,5.8,9.24,12.1,11.73C382,43.46,383.91,39.8,383.91,35.84Z"/><path class="cls-2" d="M414.12,37.6h35.12v5H414.12Zm0,17.52h35.12v5H414.12Z"/><path class="cls-3" d="M525.65,33.49c0-4.4-2.71-7.92-7.92-7.92a12.53,12.53,0,0,0-9.46,4.69l-3.81-3.52a18.32,18.32,0,0,1,14-6.74c8.28,0,13.71,5.06,13.71,13,0,10.78-13.2,15.11-11.88,26.62h-5.94C512.67,46.91,525.65,42.22,525.65,33.49Zm-13,38.28a4.89,4.89,0,1,1,9.76,0,4.88,4.88,0,1,1-9.76,0Z"/><path class="cls-2" d="M599.57,55.12l-12.1-19.06h7.19l5.35,8.8c1.25,2.2,2.64,4.4,4,6.6h.29c1.25-2.2,2.42-4.4,3.6-6.6l4.91-8.8h7l-12.1,19.72,13.12,20.1h-7.33l-5.87-9.32c-1.32-2.42-2.78-4.84-4.25-7.11h-.37c-1.39,2.27-2.71,4.69-4.1,7.11l-5.36,9.32h-7Z"/><path class="cls-2" d="M640.34,69.72l3.3-4.4c3.08,3.08,7,5.94,13.2,5.94s11.44-4.84,11.44-12.69-4.4-12.25-11.15-12.25c-3.59,0-5.86,1.1-8.94,3.16l-3.6-2.2,1.69-25.16h26.18v5.72H652.15l-1.32,15.55a15.4,15.4,0,0,1,8-2.13c8.95,0,16.21,5.28,16.21,17.09s-8.51,18.48-17.6,18.48A22.85,22.85,0,0,1,640.34,69.72Z"/><path class="cls-2" d="M681.84,38c0-10.78,4.85-16.86,12.18-16.86S706.27,27.18,706.27,38,701.42,55.05,694,55.05,681.84,48.82,681.84,38Zm19.37,0c0-8.58-2.94-12.76-7.19-12.76S686.9,29.38,686.9,38s2.94,12.91,7.12,12.91S701.21,46.54,701.21,38Zm24-16.86h4.55l-29.7,55.73h-4.48Zm-6,38.72C719.25,49,724.16,43,731.49,43S743.67,49,743.67,59.82s-4.84,17-12.18,17S719.25,70.67,719.25,59.82Zm19.36,0c0-8.58-2.94-12.76-7.12-12.76s-7.18,4.18-7.18,12.76,2.93,12.9,7.18,12.9S738.61,68.4,738.61,59.82Z"/><path class="cls-1" d="M41,57.3H15L8.07,76H0L23.31,14.77h9.4L56.27,76H47.86Zm-1.75-6-3.66-9.74C33,34.66,30.63,28,28.13,21H27.8C25.47,28.08,23,34.74,20.48,41.57l-3.67,9.74Z"/><path class="cls-1" d="M74.91,24.42a6.33,6.33,0,1,1,6.33,6.24A6.15,6.15,0,0,1,74.91,24.42Zm0,40.79a6.33,6.33,0,1,1,6.33,6.24A6.22,6.22,0,0,1,74.91,65.21Z"/></g></g></svg>
