<svg xmlns="http://www.w3.org/2000/svg" xmlns:xlink="http://www.w3.org/1999/xlink" viewBox="0 0 311.07 222.27"><defs><style>.cls-1{fill:none;}.cls-2{fill:#fff;}.cls-3{fill:#ff7bac;opacity:0.4;}.cls-4{clip-path:url(#clip-path);}.cls-5{fill:#f2f2f2;}.cls-6{font-size:30.08px;fill:#1d4158;font-family:PingFangTC-Semibold-B5pc-H, PingFang TC;}</style><clipPath id="clip-path" transform="translate(-0.03)"><rect class="cls-1" x="44.8" y="-43.8" width="221.41" height="310.56" transform="matrix(0, -1, 1, 0, 43.71, 266.76)"/></clipPath></defs><title>資產 2</title><g id="圖層_2" data-name="圖層 2"><g id="圖層_2-2" data-name="圖層 2"><circle class="cls-2" cx="108.52" cy="49.56" r="28.5"/><circle class="cls-2" cx="198.03" cy="50.79" r="28.5"/><rect class="cls-2" x="98.17" y="70.01" width="18.88" height="23.78" rx="9.44" transform="translate(0.14 -0.22) rotate(0.12)"/><rect class="cls-2" x="189.08" y="68.8" width="18.88" height="23.78" rx="9.44" transform="translate(0.14 -0.41) rotate(0.12)"/><rect class="cls-2" x="77.17" y="79.45" width="59.79" height="23.43" rx="11.71" transform="translate(0.16 -0.22) rotate(0.12)"/><rect class="cls-2" x="168.78" y="81.04" width="59.79" height="23.43" rx="11.71" transform="translate(0.16 -0.41) rotate(0.12)"/><ellipse class="cls-3" cx="183.09" cy="55.31" rx="2.09" ry="5.84" transform="translate(127.37 238.29) rotate(-89.88)"/><ellipse class="cls-3" cx="213.86" cy="55.6" rx="2.09" ry="5.84" transform="translate(157.8 269.34) rotate(-89.88)"/><path d="M198.7,57.36A28.31,28.31,0,1,0,227,85.73,28.3,28.3,0,0,0,198.7,57.36Zm0,7.07a21.21,21.21,0,0,1,19.9,14.2l-39.86-.08a21.19,21.19,0,0,1,20-14.12Zm-.05,24.77a3.54,3.54,0,1,1,3.54-3.53,3.54,3.54,0,0,1-3.54,3.53ZM177.4,85.62c9.67,0,17.49,9.35,17.63,20.91A21.25,21.25,0,0,1,177.4,85.62Zm24.76,20.93c.19-11.56,8-20.86,17.7-20.84a21.23,21.23,0,0,1-17.7,20.84Z" transform="translate(-0.03)"/><g class="cls-4"><path class="cls-5" d="M311.1,123.68a31.15,31.15,0,0,0-3.84-14.9c-.25-1.18-.55-2.34-.91-3.52l-26.88-57.7-.19-.52C269.89,22.78,256.48.34,222.38.27L92.05,0C57.1-.07,44.72,22.88,35,46.41L6.64,104.12A32.23,32.23,0,0,0,.2,123.05L.17,141a30.1,30.1,0,0,0,1.08,8.11,12.25,12.25,0,0,0-1.11,5.06L0,207.51c0,7.82,7.33,14.17,16.41,14.19l34.14.07c9.07,0,16.45-6.3,16.47-14.12l0-26.68,178.82.37,0,26.67c0,7.82,7.32,14.17,16.4,14.19l32.19.07c9.09,0,16.45-6.3,16.47-14.13l.11-53.35a12.44,12.44,0,0,0-1.09-5.07,30.46,30.46,0,0,0,1.12-8.1ZM55,52.23c10.8-26.1,19.47-34.07,37-34l130.34.26c17.36,0,27,9,36.77,34.07L278.76,87a69,69,0,0,0-20.95-3.23L53.66,83.32a70.25,70.25,0,0,0-19,2.56ZM71.77,148l-36-.07c-6.48,0-11.73-4.56-11.72-10.15s5.28-10.11,11.76-10.09l36,.07c6.49,0,11.73,4.56,11.72,10.14S78.27,148,71.77,148ZM199,146.18,115.23,146c-4.1,0-7.42-2.88-7.41-6.43s3.33-6.39,7.44-6.38l83.77.17c4.1,0,7.42,2.88,7.41,6.41s-3.34,6.41-7.44,6.4Zm75.53,2.19-36-.08c-6.48,0-11.73-4.55-11.72-10.15s5.28-10.1,11.76-10.09l36,.07c6.48,0,11.73,4.56,11.72,10.14s-5.28,10.12-11.76,10.11Z" transform="translate(-0.03)"/></g><text class="cls-6" transform="translate(93.55 62.62) rotate(0.12)">陪</text></g></g></svg>