<svg xmlns="http://www.w3.org/2000/svg" xmlns:xlink="http://www.w3.org/1999/xlink" viewBox="0 0 821.27 586.81"><defs><style>.cls-1{fill:none;}.cls-2{fill:#913e22;}.cls-10,.cls-11,.cls-12,.cls-13,.cls-14,.cls-15,.cls-16,.cls-2,.cls-3,.cls-4,.cls-5,.cls-6,.cls-7,.cls-8,.cls-9{fill-rule:evenodd;}.cls-3{fill:#a9bcc7;}.cls-4{fill:#98c0d4;}.cls-5{fill:#f5b67e;}.cls-6{fill:#b5ccd8;}.cls-7{fill:#f6c085;}.cls-8{fill:#f8c997;}.cls-9{fill:#abc3cf;}.cls-10{fill:#c9e1ed;}.cls-11{fill:#3e3b3a;}.cls-12{fill:#d6825b;}.cls-13{fill:#e5b17d;}.cls-14{fill:#443d47;}.cls-15{fill:#4d4351;}.cls-16{fill:#a95c40;}.cls-17{clip-path:url(#clip-path);}.cls-18{fill:#f2f2f2;}.cls-19{fill:#ff7bac;opacity:0.4;}</style><clipPath id="clip-path" transform="translate(-0.08)"><rect class="cls-1" x="118.29" y="-115.64" width="584.53" height="819.91" transform="translate(115.4 704.26) rotate(-89.88)"/></clipPath></defs><title>chart_1</title><g id="chart1" data-name="chart1_1"><g id="chart2" data-name="chart2_1"><path class="cls-2" d="M230.74,123.68c3.07,30.69-.17,89.93,23.65,106,36.28,24.41,26.42,26.18,60.43,1.13S344.39,164.83,344.18,120Z" transform="translate(-0.08)"/><path class="cls-2" d="M316.66,61.26c71.3-14.1,25.47,147.26,17.68,181.12-3.38,14.69-8.32,11-21.19-10.39,0,0,24.72-60.67,26.42-95.09s-10.43-46.25-17.83-59.25S316.66,61.26,316.66,61.26Z" transform="translate(-0.08)"/><path class="cls-2" d="M324.12,63c2.21,19.5-3,21.87-18.7,32.28s-22.51,10.41-20,9.14,14.65-22.31,14.65-22.31-16.35,13.17-32.92,19.76-22.52,4-22.52,4,14.66-19.11,12.75-17.63-15.93,10.62-17.84,14.87-6,23.35-3.66,44.37c1.56,14.09,29.9,58.15,30.4,78.86.25,10.44-15.13,25.82-19.66,20.6C228.28,225.74,225.11,98.53,226,92.49,228.21,77,236.94,65.75,246.7,58,267.59,41.32,321.71,41.79,324.12,63Z" transform="translate(-0.08)"/><path class="cls-3" d="M311.72,236l28.12-21.23c12.31,4.06,15.86,39,17.12,55.28H327.53Z" transform="translate(-0.08)"/><path class="cls-4" d="M265,217.86c.29-2.23,2-17.31,2-17.31l40-.27-.54,12.41Z" transform="translate(-0.08)"/><path class="cls-5" d="M286.51,191.7h-13v8.2c0,5.09-.84,4-5.6,6.68,0,0-4.59,3.77-6,4.21,5.77,18.58,9.95,42.47,21.23,59.23h6.7c11.28-16.76,15.45-40.65,21.22-59.23-1.4-.44-6-4.21-6-4.21-4.76-2.64-5.61-1.59-5.6-6.68v-8.2Z" transform="translate(-0.08)"/><path class="cls-3" d="M262,236l-28.11-21.23c-12.31,4.06-15.87,39-17.12,55.28h29.42Z" transform="translate(-0.08)"/><path class="cls-6" d="M278.46,224.89c-11.43-4.19-12.86-16.44-10.54-18.24-6.93,3.16-32.39,6.27-35.22,8.72,2.3,5,6,32.45,9,54.65H332c3-22.2,6.71-49.63,9-54.65-2.82-2.45-28.29-5.56-35.21-8.72,2.32,1.8.89,14-10.54,18.24h0l-9,30.65-7.78-30.65Z" transform="translate(-0.08)"/><path class="cls-7" d="M248.34,134.29c2.15,9.68-2.13,17.74-9.45,19.47s-14.92-3.51-17.07-13.18,2-18.93,9.36-20.67S246.19,124.61,248.34,134.29Z" transform="translate(-0.08)"/><path class="cls-7" d="M327.53,134.29C325.38,144,329.66,152,337,153.76s14.92-3.51,17.07-13.18-2-18.93-9.36-20.67S329.68,124.61,327.53,134.29Z" transform="translate(-0.08)"/><path class="cls-8" d="M287.94,49h-.17l-7.64-.31,0,.61-.8,0c-15.5.62-30.1,9-39.46,21.68S229.28,99.74,230,115.09c1.9,39.45,24,83.74,57.92,84.06,33.92-.32,56-44.61,57.91-84.06.74-15.35-.5-31.38-9.87-44.11S312,49.92,296.52,49.3l-.8,0,0-.61L288.1,49Z" transform="translate(-0.08)"/><path class="cls-2" d="M312,64.24c-.46,2.17-.05,13.78,13.32,31.58s14.39,19.35,14.39,19.35c3.8-6.6,2.39-9.78,6.16-1.49,0,0,3.44-14.92,0-28.85s-7.7-19.18-13.6-21.53S312,64.24,312,64.24Z" transform="translate(-0.08)"/><path class="cls-2" d="M237.59,101.86c-2.32,2.63-11.2-9.65-9.57,5.35s4.75,32.57,9.21,44.16C235.07,136.86,231.18,119.91,237.59,101.86Z" transform="translate(-0.08)"/><path class="cls-2" d="M343.16,116.57c.6-10.18,2.42-34.79-.14-41.13-7.37-18.28-20.88-25.68-43.56-27.94-7-.7,3.6,11,3.6,11C321.83,85.12,312.54,105.47,343.16,116.57Z" transform="translate(-0.08)"/><path class="cls-2" d="M317.89,69.77c-52.28,7.63-45.19,52.53-86.77,46-2.4-.38-5.22-13-5.22-13s4.51-20.86,12.65-32.83,17.21-15.07,26.32-18.81,33.35-6.51,37.48-1.23Z" transform="translate(-0.08)"/><polygon class="cls-9" points="276.27 217.9 282.82 220.36 281.36 236.64 272.71 226.29 276.27 217.9"/><polygon class="cls-10" points="260.83 206.73 266.88 200.55 282.82 220.36 267.57 233.76 260.83 206.73"/><polygon class="cls-9" points="297.44 217.63 290.89 220.09 291.94 235.91 301 226.03 297.44 217.63"/><polygon class="cls-10" points="312.88 206.46 306.83 200.28 290.89 220.09 306.14 233.49 312.88 206.46"/><path class="cls-6" d="M238.93,213.3c-3.15.73-5.48,1.43-6.23,2.07,14.06,26.69-6.69,37.4,1,54.65h106.4c7.65-17.25-13.11-28,.95-54.65-.75-.64-3.08-1.34-6.23-2.07-4,20.62-26.88,46.78-48.81,46.8S243,234,238.93,213.3Z" transform="translate(-0.08)"/><path class="cls-11" d="M264,141.73a4.49,4.49,0,1,0-4.49-4.49A4.5,4.5,0,0,0,264,141.73Z" transform="translate(-0.08)"/><path class="cls-11" d="M314.59,141.73a4.49,4.49,0,1,0-4.49-4.49A4.5,4.5,0,0,0,314.59,141.73Z" transform="translate(-0.08)"/><path class="cls-12" d="M305.28,168c-2.74,15.42-27.6,15.42-30.34,0C283.18,179,297,179,305.28,168Z" transform="translate(-0.08)"/><path class="cls-13" d="M280,160c-.05,0-.06-.06,0-.14a.92.92,0,0,1,.36-.65c1.85-3.55,5.48-13.9,7.14-25.29,1.82.11-1.81,19.38-3.37,24a33.78,33.78,0,0,1,5.58-.44c5.37,0,9.71,1.08,9.71,2.4s-4.34,2.4-9.71,2.4C284.49,162.24,280.26,161.24,280,160Z" transform="translate(-0.08)"/><path class="cls-2" d="M301.2,125.74c-2.66,1.1,1.76-6.11,14.83-6.39,15.24-.33,19.87,7,13.87,4.89C317,119.7,305.41,124,301.2,125.74Z" transform="translate(-0.08)"/><path class="cls-2" d="M277.36,125.74c2.66,1.1-1.76-6.11-14.83-6.39-15.24-.33-19.88,7-13.87,4.89C261.61,119.7,273.14,124,277.36,125.74Z" transform="translate(-0.08)"/><path class="cls-2" d="M338,102.47c2.32,2.63,11.19-9.65,9.57,5.36s-4.76,32.57-9.22,44.16C340.54,137.48,344.43,120.53,338,102.47Z" transform="translate(-0.08)"/><path class="cls-14" d="M502.32,240.52c-1.28-1-29.75-14.36-29.75-14.36-12.68,4.18-15.52,32.65-16.81,49.41h30.29Z" transform="translate(-0.08)"/><path class="cls-14" d="M552.78,240.52c1.28-1,29.75-14.36,29.75-14.36,12.68,4.18,15.52,32.65,16.81,49.41H569.06Z" transform="translate(-0.08)"/><path class="cls-5" d="M527.55,195H514.19v8.44c0,5.24-.87,4.15-5.77,6.88,0,0-4.72,3.87-6.16,4.33,5.94,19.12,10.23,43.71,21.84,61H531c11.61-17.25,15.9-41.84,21.84-61-1.43-.46-6.16-4.33-6.16-4.33-4.9-2.73-5.77-1.64-5.76-6.88V195Z" transform="translate(-0.08)"/><path class="cls-15" d="M527.55,240.92c-22.07-1.74-18.88-30.43-19.13-30.57-7.13,3.25-33.11,13.42-36,15.94,2.36,5.17,5.94,26.43,9,49.28h92.22c3.1-22.85,6.68-44.11,9-49.28-2.91-2.52-28.89-12.69-36-15.94C546.44,210.49,549.62,239.18,527.55,240.92Z" transform="translate(-0.08)"/><path class="cls-7" d="M563.31,135.44c-1.91,10.88,4.54,19.93,14.41,21.88s19.41-3.94,21.32-14.82-4.53-21.26-14.4-23.21S565.23,124.57,563.31,135.44Z" transform="translate(-0.08)"/><path class="cls-7" d="M494.46,135.44c1.92,10.88-4.53,19.93-14.4,21.88s-19.41-3.94-21.32-14.82,4.53-21.26,14.4-23.21S492.55,124.57,494.46,135.44Z" transform="translate(-0.08)"/><path class="cls-8" d="M578.13,70.7C568.5,57.62,553.47,49,537.52,48.39l-.83,0,0-.62-7.86.31L521,47.73l0,.62-.83,0c-15.95.63-31,9.23-40.61,22.31s-10.92,29.61-10.16,45.41c.57,11.94,2.69,31.21,3.28,43.16,15.33,57.35,98,58.29,112.32,0,.6-12,2.71-31.22,3.28-43.16C589.05,100.31,587.77,83.8,578.13,70.7Z" transform="translate(-0.08)"/><path class="cls-16" d="M480,92.7c-.76,1.65,3.62-14.92,13.23-15.2,10.06-.3,72.56,3.5,75.76-.68,10.59,13.4,18.33,66.56,18.93,66.44,1.41-.28,1.57-5.49,1.71-6.6a185.15,185.15,0,0,0,1.28-23.77c0-14.58,4.22-42.63-22.15-60.11C552.57,42,519.05,41,500.39,47c-13,4.24-25.46,15.29-30.09,28.16-5.09,14.13-5,25.18-3.28,53.17.18,3,.54,6.07,1,9.08a61,61,0,0,0,1,6C471.64,154.13,471.89,105.29,480,92.7Z" transform="translate(-0.08)"/><path class="cls-16" d="M578.73,65.79c-2,20.43-28.53,36.25-48.19,36.25l5.73-5.42c-22.11,6.73-34.45,2.15-34.42,2.15.8.16,9.17-3.74,9.17-3.74-12.57.38-25.27.56-35-8.55l14.05-25Z" transform="translate(-0.08)"/><path class="cls-11" d="M498.66,144.37a4.63,4.63,0,1,0-4.62-4.63A4.64,4.64,0,0,0,498.66,144.37Z" transform="translate(-0.08)"/><path class="cls-11" d="M559.05,144.37a4.63,4.63,0,1,0-4.63-4.63A4.64,4.64,0,0,0,559.05,144.37Z" transform="translate(-0.08)"/><path class="cls-16" d="M482.76,126.79c-1.69-2.43,6.2-4.26,14.3-4.84,13.58-1,21.36,5.11,14.81,5.33C507,127.45,483.26,127.51,482.76,126.79Z" transform="translate(-0.08)"/><path class="cls-16" d="M572.25,127.15c1.78-2.37-6-4.5-14.1-5.39-13.54-1.49-21.55,4.26-15,4.74C548,126.87,571.72,127.84,572.25,127.15Z" transform="translate(-0.08)"/><path class="cls-12" d="M544.14,172.49c-2.82,15.88-28.4,15.88-31.23,0C520.54,174.25,534.81,174.26,544.14,172.49Z" transform="translate(-0.08)"/><path class="cls-13" d="M518.57,163.16c-.05,0-.06-.07,0-.14a.92.92,0,0,1,.38-.68c1.89-3.65,5.63-14.31,7.34-26,1.87.11-1.86,19.95-3.47,24.68a34.77,34.77,0,0,1,5.75-.44c5.52,0,10,1.1,10,2.47s-4.47,2.46-10,2.46C523.22,165.48,518.87,164.45,518.57,163.16Z" transform="translate(-0.08)"/><path d="M528,157.21a74.75,74.75,0,1,0,74.59,74.9A74.75,74.75,0,0,0,528,157.21Zm0,18.68a56,56,0,0,1,52.54,37.49l-105.24-.21A56,56,0,0,1,528,175.89Zm-.13,65.39a9.34,9.34,0,1,1,9.34-9.3,9.33,9.33,0,0,1-9.34,9.3Zm-56.05-9.44c25.52,0,46.16,24.68,46.53,55.2a56.07,56.07,0,0,1-46.53-55.2Zm65.37,55.24c.5-30.52,21.21-55.06,46.73-55a56,56,0,0,1-46.73,55Z" transform="translate(-0.08)"/><g class="cls-17"><path class="cls-18" d="M821.34,326.53a82.21,82.21,0,0,0-10.15-39.34c-.65-3.11-1.44-6.19-2.38-9.3l-71-152.32-.49-1.38C712.53,60.15,677.12.89,587.12.7L243,0C150.76-.19,118.06,60.4,92.45,122.53L17.54,274.89c-10.81,14.89-17,31.9-17,50L.44,372.21a79.7,79.7,0,0,0,2.87,21.4A32.45,32.45,0,0,0,.37,407L.08,547.85c0,20.65,19.34,37.41,43.32,37.46l90.14.18c23.94,0,43.44-16.63,43.48-37.28l.14-70.43,472.09,1-.14,70.42c0,20.65,19.34,37.42,43.32,37.47l85,.17c24,.05,43.43-16.64,43.47-37.29l.29-140.86a32.85,32.85,0,0,0-2.88-13.39,80.38,80.38,0,0,0,3-21.39Zm-676-188.64C173.84,69,196.7,47.94,242.91,48l344.11.7c45.85.1,71.3,23.65,97.09,89.95L736,229.62a182.12,182.12,0,0,0-55.31-8.54l-539-1.1a184.46,184.46,0,0,0-50.2,6.76Zm44.19,252.72-95.08-.19c-17.11,0-31-12-30.95-26.81S77.41,336.94,94.52,337l95.08.2c17.16,0,31,12,31,26.76s-13.9,26.72-31.06,26.68Zm335.89-4.68-221.15-.45c-10.84,0-19.6-7.59-19.58-17s8.81-16.87,19.65-16.85l221.15.45c10.84,0,19.59,7.59,19.57,16.93s-8.8,16.92-19.64,16.89Zm199.4,5.78-95.06-.2c-17.11,0-31-12-31-26.81s14-26.67,31.06-26.63l95.06.19c17.11,0,31,12,31,26.76s-14,26.72-31.06,26.69Z" transform="translate(-0.08)"/></g><ellipse class="cls-19" cx="486.81" cy="156.03" rx="5.51" ry="15.43" transform="translate(329.71 642.51) rotate(-89.88)"/><ellipse class="cls-19" cx="568.04" cy="156.78" rx="5.51" ry="15.43" transform="translate(410.02 724.5) rotate(-89.88)"/></g></g></svg>
