<svg xmlns="http://www.w3.org/2000/svg" viewBox="0 0 1259.97 980.73"><defs><style>.cls-1,.cls-5{font-size:35px;font-family:MicrosoftJhengHeiRegular, Microsoft JhengHei;}.cls-1,.cls-4{fill:#fff;}.cls-2{fill:#fbb03b;}.cls-3{fill:#cc4040;}.cls-5,.cls-6{fill:#efa543;}.cls-7{fill:#c7cbcd;}.cls-8{fill:#9caba8;}.cls-9{fill:#2e465f;}.cls-10{fill:#e4462e;}.cls-11{fill:#263c51;}.cls-12{fill:#c5341e;}.cls-13{fill:#f3f6f7;}</style></defs><title>資產 91</title><g id="圖層_2" data-name="圖層 2"><g id="圖層_11" data-name="圖層 11"><text class="cls-1" transform="translate(2 33.32)"><tspan xml:space="preserve">2011    </tspan></text><text class="cls-1" transform="translate(0 141.32)"><tspan xml:space="preserve">2012    </tspan></text><text class="cls-1" transform="translate(2 248.32)"><tspan xml:space="preserve">2013    </tspan></text><text class="cls-1" transform="translate(0 350.32)"><tspan xml:space="preserve">2014    </tspan></text><text class="cls-1" transform="translate(2 452.32)"><tspan xml:space="preserve">2015    </tspan></text><text class="cls-1" transform="translate(0 555.32)"><tspan xml:space="preserve">2016    </tspan></text><text class="cls-1" transform="translate(2 661.32)"><tspan xml:space="preserve">2017    </tspan></text><text class="cls-1" transform="translate(0 772.32)"><tspan xml:space="preserve">2018    </tspan></text><rect class="cls-2" x="135.31" y="7.55" width="679.04" height="31.86"/><rect class="cls-2" x="135.31" y="113.11" width="808.93" height="30.34"/><rect class="cls-2" x="135.31" y="216.11" width="757.42" height="30.34"/><rect class="cls-2" x="135.31" y="318.11" width="727" height="30.34"/><rect class="cls-2" x="135.31" y="425.11" width="706.72" height="30.34"/><rect class="cls-2" x="135.31" y="524.11" width="678.03" height="30.34"/><rect class="cls-2" x="135.31" y="637.11" width="671.97" height="30.34"/><rect class="cls-3" x="136.31" y="752.11" width="584.61" height="30.34"/><rect class="cls-4" x="106.31" y="886.47" width="1153.65" height="8"/><rect class="cls-4" x="-333.18" y="441.08" width="886.47" height="4.3" transform="translate(-333.18 553.29) rotate(-90)"/><text class="cls-5" transform="translate(103.54 968.86)">0</text><text class="cls-5" transform="translate(368.94 968.86)">50,000</text><text class="cls-5" transform="translate(710.79 968.86)">100,000</text><text class="cls-5" transform="translate(1023.79 968.86)">150,000</text><text/><rect class="cls-6" x="421.31" y="863.37" width="8" height="58.63"/><rect class="cls-6" x="764.31" y="863.37" width="8" height="58.63"/><rect class="cls-6" x="1085.31" y="864.84" width="8" height="58.63"/><polygon class="cls-7" points="760.55 753.78 765.6 753.78 765.6 776.93 760.55 776.93 760.55 753.78 760.55 753.78"/><polygon class="cls-8" points="760.55 753.78 765.6 753.78 765.6 761.98 760.55 761.98 760.55 753.78 760.55 753.78"/><polygon class="cls-7" points="721.98 753.78 727.03 753.78 727.03 776.93 721.98 776.93 721.98 753.78 721.98 753.78"/><polygon class="cls-8" points="721.98 753.78 727.03 753.78 727.03 761.98 721.98 761.98 721.98 753.78 721.98 753.78"/><path class="cls-9" d="M770.38,755.52S755.4,740,739.09,740l27.15,18.07,4.14-2.56Z"/><path class="cls-10" d="M699.57,745.2c5.89-5.73,29.67-5.15,41.4-5.15s27.11,15.45,27.11,15.45c28.91,0,30.91,8.31,30.91,8.31a64.68,64.68,0,0,1-2.57,17.74h-13a10.75,10.75,0,0,0-21.5,0h-42a10.75,10.75,0,1,0-21.49,0h-7.63s-.58-2.29-1.72-8.88,4.58-21.75,10.48-27.47Z"/><path class="cls-11" d="M772.63,771.53a10,10,0,1,1-10,10,10,10,0,0,1,10-10Z"/><path class="cls-9" d="M772.63,775.16a6.39,6.39,0,1,1-6.39,6.39,6.39,6.39,0,0,1,6.39-6.39Z"/><path class="cls-7" d="M772.63,776.51a5,5,0,1,1-5,5,5,5,0,0,1,5-5Z"/><path class="cls-11" d="M709.18,771.53a10,10,0,1,1-10,10,10,10,0,0,1,10-10Z"/><path class="cls-9" d="M709.18,775.16a6.39,6.39,0,1,1-6.38,6.39,6.39,6.39,0,0,1,6.38-6.39Z"/><path class="cls-7" d="M709.18,776.51a5,5,0,1,1-5,5,5,5,0,0,1,5-5Z"/><path class="cls-12" d="M791.56,762.79l-.3.49c-10-6.19-23.07-7.48-23.2-7.49l0-.29,2.3,0c4.23.66,13.58,2.57,21.18,7.27Z"/><path class="cls-13" d="M798.85,767.66s-6.08-.85-7-1.78-1.24-3.33-1.24-3.33l8.39,1.26q0,2-.12,3.81l0,0Z"/><path class="cls-9" d="M701.28,746.28c5.28-5.13,26.57-4.61,37.07-4.61s24.26,13.83,24.26,13.83-1.11,2.58-5.5,2.58H696.42l-1-2.58a31.33,31.33,0,0,1,5.89-9.22Z"/><polygon class="cls-10" points="733.52 740.03 735.29 759.39 731.45 759.39 730.83 740.03 733.52 740.03 733.52 740.03"/><polygon class="cls-10" points="712.84 740.97 711.08 759.39 707.62 759.39 710.23 741.33 712.84 740.97 712.84 740.97"/><path class="cls-12" d="M733.08,778.72l.57-.05c0-.15-1.25-14.71-1.25-16.12a6.4,6.4,0,0,1,1.2-3l.06-.08v-.11L732.4,740l-.57,0,1.24,19.26a6.76,6.76,0,0,0-1.24,3.24c0,1.44,1.2,15.57,1.25,16.17Z"/><path class="cls-12" d="M707,769.56c0-.08.77-7.28.88-8.75a4.39,4.39,0,0,1,1.47-2.51l.08-.07,2.72-17.09-.56-.09-2.69,16.88a4.8,4.8,0,0,0-1.59,2.84c-.11,1.46-.87,8.65-.88,8.73l.57.06Z"/><path class="cls-12" d="M742.33,760.79h0c0,.55-.89,1-2,1h-2.52c-1.09,0-2-.44-2-1h6.48Z"/><path class="cls-12" d="M717.86,760.79h0c0,.55-.89,1-2,1h-2.51c-1.1,0-2-.44-2-1h6.49Z"/><path class="cls-12" d="M764.46,759.42c-.23,2,.2,9.16.57,14.52-.18.19-.36.39-.53.59-.39-5.42-.86-13.08-.61-15.17a30.79,30.79,0,0,1,1.62-6.26c.16.14.32.28.46.42a30,30,0,0,0-1.51,5.9Z"/><path class="cls-12" d="M794.4,772.52v6.19a3.1,3.1,0,1,1,0-6.19Z"/><text class="cls-1" transform="translate(670.18 36.32)">103,670</text><text class="cls-1" transform="translate(788.18 140.32)">124,620</text><text class="cls-1" transform="translate(740.18 244.32)">118,864</text><text class="cls-1" transform="translate(706.18 345.32)">115,253</text><text class="cls-1" transform="translate(704.18 452.32)">107,372</text><text class="cls-1" transform="translate(670.18 553.32)">104,756</text><text class="cls-1" transform="translate(659.18 665.32)">103,476</text><text class="cls-1" transform="translate(518.18 779.32)">101,202</text></g></g></svg>