<svg xmlns="http://www.w3.org/2000/svg" viewBox="0 0 1347.35 1266.93"><defs><style>.cls-1,.cls-2{font-size:35px;font-family:NotoSansCJKtc-Medium-B5pc-H, Noto Sans CJK TC;}.cls-1,.cls-5{fill:#efa543;}.cls-2,.cls-6{fill:#fff;}.cls-3{fill:none;stroke:#fff;stroke-miterlimit:10;stroke-width:2px;}.cls-4{fill:#cc4040;}.cls-7{fill:#454442;}.cls-8{fill:#292726;}.cls-9{fill:#e03931;}.cls-10{fill:#dcdbd9;}.cls-11{fill:#3e3c3a;}.cls-12{fill:#6c6b68;}.cls-13{fill:#e6625b;}.cls-14{fill:#cbcac7;}.cls-15{fill:#8f8d89;}</style></defs><title>資產 3</title><g id="圖層_2" data-name="圖層 2"><g id="圖層_11" data-name="圖層 11"><text class="cls-1" transform="translate(120.29 1230.29)">0</text><text class="cls-1" transform="translate(350.17 1230.29)">20,000</text><text class="cls-1" transform="translate(637.17 1230.29)">40,000</text><text class="cls-1" transform="translate(935.17 1230.29)">60,000</text><text class="cls-1" transform="translate(1237.17 1230.29)">80,000</text><text class="cls-2" transform="translate(0 32.8)"><tspan xml:space="preserve">2011    </tspan></text><text class="cls-2" transform="translate(0 165.47)"><tspan xml:space="preserve">2012    </tspan></text><text class="cls-2" transform="translate(0 298.8)"><tspan xml:space="preserve">2013    </tspan></text><text class="cls-2" transform="translate(0 438.8)"><tspan xml:space="preserve">2014    </tspan></text><text class="cls-2" transform="translate(0 575.13)"><tspan xml:space="preserve">2015    </tspan></text><line class="cls-3" x1="678.89" y1="1128.85" x2="678.89" y2="8.05"/><text class="cls-2" transform="translate(0 710.8)"><tspan xml:space="preserve">2016    </tspan></text><text class="cls-2" transform="translate(0 849.13)"><tspan xml:space="preserve">2017    </tspan></text><line class="cls-3" x1="378.89" y1="1131.74" x2="378.89" y2="7.23"/><text class="cls-2" transform="translate(0 1001.13)"><tspan xml:space="preserve">2018    </tspan></text><rect class="cls-4" x="134.89" y="972.99" width="683.14" height="32.39"/><rect class="cls-5" x="136.89" y="136.69" width="735.62" height="32.39"/><line class="cls-3" x1="977.89" y1="1129.02" x2="977.89" y2="8.85"/><rect class="cls-6" x="106.32" y="1127.9" width="1175.23" height="8"/><rect class="cls-6" x="-451.81" y="563.23" width="1119.09" height="4.3" transform="translate(-457.58 673.5) rotate(-90.04)"/><text/><line class="cls-3" x1="1281.89" y1="1131.9" x2="1281.89" y2="4.96"/><rect class="cls-5" x="136.89" y="4.88" width="760.82" height="32.39"/><text class="cls-2" transform="translate(577.81 30.8)"><tspan xml:space="preserve">52,604    </tspan></text><text class="cls-2" transform="translate(560.56 162.47)">52,432</text><text class="cls-2" transform="translate(650.56 1000.13)">57,826</text><rect class="cls-5" x="137.89" y="268.12" width="849.91" height="32.39"/><text class="cls-2" transform="translate(715.56 293.8)">60,865</text><rect class="cls-5" x="136.89" y="405.27" width="965.25" height="32.39"/><text class="cls-2" transform="translate(825.56 430.8)">67,932</text><rect class="cls-5" x="136.89" y="546.21" width="914.22" height="31.86"/><text class="cls-2" transform="translate(779.56 571.13)">65,449</text><rect class="cls-5" x="136.89" y="680.9" width="883.8" height="32.39"/><text class="cls-2" transform="translate(747.56 706.8)">62,959</text><rect class="cls-5" x="136.89" y="821.52" width="854.84" height="32.39"/><text class="cls-2" transform="translate(710.56 847.13)">60,993</text><path class="cls-7" d="M918.5,1007.86H794.86a15.25,15.25,0,0,1-15.25-15.25v-3.28A5.42,5.42,0,0,1,785,983.9V959.49a12.44,12.44,0,0,1,12.43-12.43H847a26.57,26.57,0,0,1,18.8,7.79l12.33,12.33h21.53a15.64,15.64,0,0,1,14.51,9.8l3.51,8.73a8.37,8.37,0,0,1,8.37,8.37v6.21a7.57,7.57,0,0,1-7.57,7.57"/><path class="cls-6" d="M809.89,949.32H798.78a11.45,11.45,0,0,0-11.45,11.46v8.66h22.56V949.32"/><path class="cls-6" d="M875.44,967.63V1004H828.65a18.18,18.18,0,0,0-18.19-18.19h-.57V949.32h37.4a22.3,22.3,0,0,1,15.4,6.17l12.75,12.14"/><path class="cls-7" d="M872.05,967.63l-9.28-9.27A21.54,21.54,0,0,0,847.52,952H798.85a9.22,9.22,0,0,0-9.22,9.23v6.36h82.42"/><path class="cls-8" d="M821.89,975.24a3,3,0,0,1-1.19,2.51,4.69,4.69,0,0,1-3,.88H814.2v5.14h-1.67v-11.9h5.22a4.87,4.87,0,0,1,3,.83A3,3,0,0,1,821.89,975.24Zm-1.73,0c0-1.22-.81-1.82-2.44-1.82H814.2v3.64h3.52C819.35,977.06,820.16,976.46,820.16,975.24Z"/><path class="cls-8" d="M834,977.8a6.61,6.61,0,0,1-1.37,4.28,4.76,4.76,0,0,1-3.94,1.82,4.81,4.81,0,0,1-4-1.82,7.43,7.43,0,0,1,0-8.57,4.85,4.85,0,0,1,4-1.8,4.79,4.79,0,0,1,3.94,1.8A6.62,6.62,0,0,1,834,977.8Zm-1.73,0a5.07,5.07,0,0,0-1-3.28,3.42,3.42,0,0,0-5.2,0,5.12,5.12,0,0,0-1,3.28,5,5,0,0,0,1,3.27,3.32,3.32,0,0,0,5.18,0A5,5,0,0,0,832.26,977.8Z"/><path class="cls-8" d="M845.18,983.77h-9.56v-11.9h1.66v10.34h7.9Z"/><path class="cls-8" d="M849,983.77h-1.71v-11.9H849Z"/><path class="cls-8" d="M861.45,974.75l-1.53.6a3.23,3.23,0,0,0-3.23-2,3.51,3.51,0,0,0-2.64,1.12,4.92,4.92,0,0,0-1.22,3.52,4.56,4.56,0,0,0,1.17,3.39,3.28,3.28,0,0,0,2.4.94,3.58,3.58,0,0,0,3.45-2.36l1.42.63a6.12,6.12,0,0,1-1.79,2.45,5.13,5.13,0,0,1-3.08.89,5,5,0,0,1-3.75-1.48,6.21,6.21,0,0,1-1.53-4.46,6.51,6.51,0,0,1,1.6-4.48,5.11,5.11,0,0,1,4-1.79A4.77,4.77,0,0,1,861.45,974.75Z"/><path class="cls-8" d="M871.9,983.77h-8.83v-11.9h8.83v1.55h-7.18v3.48h6.51v1.56h-6.51v3.75h7.18Z"/><path class="cls-6" d="M912.93,974.51H900.75v.36a10.92,10.92,0,0,0,10.92,10.92h6l-4.77-11.28Z"/><polygon class="cls-6" points="844.04 947.06 844.04 943.6 829.58 943.6 829.58 947.06 844.04 947.06 844.04 947.06"/><path class="cls-9" d="M844,943.6s-.66-6.86-7.23-7.24-7.23,7.24-7.23,7.24H844"/><polygon class="cls-9" points="785.14 971.02 789.49 971.02 789.49 983.9 785.09 983.9 785.14 971.02 785.14 971.02"/><path class="cls-10" d="M794.86,1007.86H918.5a7.57,7.57,0,0,0,7.57-7.57h0a7.57,7.57,0,0,1-7.57,7.57H794.86m0,0h0m0,0h0m0,0h0m0,0h0m0,0h0m0,0h0m0,0h0m0,0h0m0,0h0m-.14,0h0"/><path class="cls-11" d="M794.86,1007.86H918.5a7.57,7.57,0,0,0,7.57-7.57v-5s-1.66,2.15-7.67,2.15h0c-6,0-20.65-4.82-24.64-5.72-2.55-.58-8.3-2.9-14.28-2.9a19.51,19.51,0,0,0-4,.4V1004H828.65a18.15,18.15,0,0,0-6.94-14.3,29.2,29.2,0,0,0-8.8,2.25,68.15,68.15,0,0,1-24.59,5.34,15.23,15.23,0,0,1-4.65-.52,17.57,17.57,0,0,1-3.91-2.13,15.24,15.24,0,0,0,14.74,13.2h.36"/><path class="cls-10" d="M828.65,1004h46.79V989.17a14.79,14.79,0,0,0-5.73,2.5A32.62,32.62,0,0,1,851.35,998a17,17,0,0,1-8.68-2.13c-4.95-2.91-11.08-6.26-18.68-6.26-.74,0-1.51,0-2.28.1a18.15,18.15,0,0,1,6.94,14.3"/><path class="cls-6" d="M847.57,952h0m0,0h0"/><path class="cls-12" d="M853.07,967.63h13.32L851.1,952.34a21.84,21.84,0,0,0-3.53-.3H837.48l15.59,15.59"/><polyline class="cls-12" points="841.67 967.63 849.29 967.63 833.7 952.04 826.08 952.04 841.67 967.63"/><polyline class="cls-12" points="816.71 967.63 830.02 967.63 814.43 952.04 801.11 952.04 816.71 967.63"/><path class="cls-12" d="M805.31,967.63h7.61l-15.47-15.48a9.27,9.27,0,0,0-5.08,2.55l12.94,12.93"/><path class="cls-12" d="M908.56,972.83a8.31,8.31,0,0,0-.92-.91,12.83,12.83,0,0,0-2.89-1.9,11.68,11.68,0,0,0-2.21-.75A12.6,12.6,0,0,0,900,969h0c-1.76,0-3.65,0-5.53,0H891.6c-.92,0-1.83,0-2.72,0-1.76,0-3.41.08-4.82.14s-2.59.13-3.41.17l-1.29.09,1.29.09c.82,0,2,.12,3.41.17s3.06.11,4.82.14c.89,0,1.8,0,2.72,0h2.81c1.88,0,3.77,0,5.53,0h.77a10.41,10.41,0,0,1,1.7.11,11.94,11.94,0,0,1,2.14.56,14.31,14.31,0,0,1,3,1.55,12,12,0,0,1,1,.78"/><path class="cls-13" d="M842,942.26a3,3,0,0,0-.08-1.07,4.61,4.61,0,0,0-1.12-2.1,3.34,3.34,0,0,0-.48-.44,4.49,4.49,0,0,0-.52-.37,4.43,4.43,0,0,0-.54-.26,2.42,2.42,0,0,0-.5-.16,2.84,2.84,0,0,0-.77-.12h-.3l.25.17a2.51,2.51,0,0,0,.27.18c.11.06.21.16.34.24s.25.17.38.28.28.2.41.33a4.61,4.61,0,0,1,.4.37,3.78,3.78,0,0,1,.4.4,5,5,0,0,1,.38.42c.12.14.22.3.34.43s.22.29.31.43.19.27.27.4c.33.5.56.87.56.87"/><path class="cls-12" d="M781.3,989.89a6.47,6.47,0,0,1,1-.84l.51-.33c.17-.12.39-.21.58-.33l.65-.31c.23-.09.45-.2.69-.28s.46-.17.7-.24a6.28,6.28,0,0,1,.7-.22l.66-.2.6-.16c.38-.11.7-.17.92-.25l.36-.11-.37-.07a8.3,8.3,0,0,0-.91-.08h-.25a8.69,8.69,0,0,0-1.19.09,7.54,7.54,0,0,0-.77.16,5.88,5.88,0,0,0-.78.25,5.46,5.46,0,0,0-.74.34,5.23,5.23,0,0,0-.69.41,5.54,5.54,0,0,0-.57.48,4.13,4.13,0,0,0-.46.49,3.46,3.46,0,0,0-.51.86,1.73,1.73,0,0,0-.11.35"/><path class="cls-8" d="M843.59,947.06V943.6a6.78,6.78,0,1,0-13.56,0v3.46h-.91V943.6a7.69,7.69,0,1,1,15.37,0v3.46Z"/><polyline class="cls-8" points="844.04 944.05 829.58 944.05 829.58 943.15 844.04 943.15"/><path class="cls-8" d="M918.5,1007.86v.46H794.86a15.72,15.72,0,0,1-15.71-15.71v-3.28a5.88,5.88,0,0,1,5.88-5.88v.45h-.45V959.49a12.88,12.88,0,0,1,12.88-12.88H847a27,27,0,0,1,19.12,7.92l12.2,12.2h21.34a16.09,16.09,0,0,1,14.93,10.08l3.51,8.73-.42.17v-.45a8.82,8.82,0,0,1,8.82,8.82v6.21a8,8,0,0,1-8,8v-.91a7.12,7.12,0,0,0,7.12-7.12v-6.21a7.9,7.9,0,0,0-7.92-7.91h-.3l-3.63-9a15.19,15.19,0,0,0-14.09-9.52H878L865.5,955.17A26.14,26.14,0,0,0,847,947.52H797.46a12,12,0,0,0-12,12v24.87H785a5,5,0,0,0-5,5v3.28a14.78,14.78,0,0,0,14.8,14.8H918.5v.45Z"/><path class="cls-7" d="M791.21,1005.84A16.8,16.8,0,1,0,808,989a16.8,16.8,0,0,0-16.8,16.8Z"/><path class="cls-14" d="M797.41,1005.84a10.6,10.6,0,1,0,10.6-10.6,10.61,10.61,0,0,0-10.6,10.6Z"/><path class="cls-15" d="M799.57,1005.84a8.44,8.44,0,1,0,8.44-8.45,8.44,8.44,0,0,0-8.44,8.45Z"/><path class="cls-14" d="M803.79,1005.84a4.22,4.22,0,1,0,4.22-4.22,4.22,4.22,0,0,0-4.22,4.22Z"/><path class="cls-8" d="M791.21,1005.84h.51a16.29,16.29,0,1,0,4.77-11.52,16.25,16.25,0,0,0-4.77,11.52h-1A17.32,17.32,0,1,1,808,1023.16a17.31,17.31,0,0,1-17.32-17.32Z"/><path class="cls-7" d="M881.16,1005.84A16.81,16.81,0,1,0,898,989a16.81,16.81,0,0,0-16.81,16.8Z"/><path class="cls-14" d="M887.37,1005.84a10.6,10.6,0,1,0,10.6-10.6,10.6,10.6,0,0,0-10.6,10.6Z"/><path class="cls-15" d="M889.52,1005.84a8.45,8.45,0,1,0,8.45-8.45,8.44,8.44,0,0,0-8.45,8.45Z"/><path class="cls-14" d="M893.74,1005.84a4.23,4.23,0,1,0,4.23-4.22,4.22,4.22,0,0,0-4.23,4.22Z"/><path class="cls-8" d="M881.16,1005.84h.52a16.29,16.29,0,1,0,4.77-11.52,16.21,16.21,0,0,0-4.77,11.52h-1A17.32,17.32,0,1,1,898,1023.16a17.31,17.31,0,0,1-17.32-17.32Z"/><path class="cls-8" d="M912.92,975H900.75v-.45h.46A10.82,10.82,0,0,0,912,985.34h5.67v.9H912a11.73,11.73,0,0,1-11.73-11.73v-.45h12.62v.9Z"/><path class="cls-8" d="M872.05,967.63l-.32.32-9.28-9.27a21.08,21.08,0,0,0-14.93-6.19H798.85a8.77,8.77,0,0,0-8.77,8.78v5.91h82v.45l-.32.32.32-.32v.45H789.17v-6.81a9.69,9.69,0,0,1,9.68-9.69h48.67A22,22,0,0,1,863.09,958l10,10h-1.09v-.45Z"/><path class="cls-8" d="M875.44,967.63h.45v36.84H828.2V1004a17.74,17.74,0,0,0-17.74-17.74h-1V948.87h37.85A22.79,22.79,0,0,1,863,955.16l12.88,12.28v.19h-.45l-.31.33-12.75-12.14a21.84,21.84,0,0,0-15.09-6H810.34v35.59h.12A18.64,18.64,0,0,1,829.1,1004h-.45v-.45H875V967.63h.45l-.31.33.31-.33Z"/><polyline class="cls-8" points="838.52 949.32 838.52 1004.02 837.62 1004.02 837.62 949.32"/><polygon class="cls-8" points="785.03 983.45 789.17 983.45 789.17 971.47 785.03 971.47 785.03 970.57 790.08 970.57 790.08 984.36 785.03 984.36 785.03 983.45 785.03 983.45"/></g></g></svg>