<svg xmlns="http://www.w3.org/2000/svg" viewBox="0 0 1256.43 1005.54"><defs><style>.cls-1,.cls-5{font-size:35px;font-family:NotoSansCJKtc-Regular-B5pc-H, Noto Sans CJK TC;}.cls-1,.cls-4{fill:#fff;}.cls-2{fill:#fbb03b;}.cls-3{fill:#cc4040;}.cls-5,.cls-6{fill:#efa543;}.cls-7{fill:#c7cbcd;}.cls-8{fill:#9caba8;}.cls-9{fill:#2e465f;}.cls-10{fill:#e4462e;}.cls-11{fill:#263c51;}.cls-12{fill:#c5341e;}.cls-13{fill:#f3f6f7;}</style></defs><title>資產 2</title><g id="圖層_2" data-name="圖層 2"><g id="圖層_11" data-name="圖層 11"><text class="cls-1" transform="translate(2 33.32)"><tspan xml:space="preserve">2011    </tspan></text><text class="cls-1" transform="translate(0 141.32)"><tspan xml:space="preserve">2012    </tspan></text><text class="cls-1" transform="translate(2 248.32)"><tspan xml:space="preserve">2013    </tspan></text><text class="cls-1" transform="translate(0 350.32)"><tspan xml:space="preserve">2014    </tspan></text><text class="cls-1" transform="translate(2 452.32)"><tspan xml:space="preserve">2015    </tspan></text><text class="cls-1" transform="translate(0 555.32)"><tspan xml:space="preserve">2016    </tspan></text><text class="cls-1" transform="translate(2 661.32)"><tspan xml:space="preserve">2017    </tspan></text><text class="cls-1" transform="translate(0 772.32)"><tspan xml:space="preserve">2018    </tspan></text><rect class="cls-2" x="131.77" y="7.55" width="679.04" height="31.86"/><rect class="cls-2" x="131.77" y="113.11" width="808.93" height="30.34"/><rect class="cls-2" x="131.77" y="216.11" width="757.42" height="30.34"/><rect class="cls-2" x="131.77" y="318.11" width="727" height="30.34"/><rect class="cls-2" x="131.77" y="425.11" width="706.72" height="30.34"/><rect class="cls-2" x="131.77" y="524.11" width="678.03" height="30.34"/><rect class="cls-2" x="131.77" y="637.11" width="671.97" height="30.34"/><rect class="cls-3" x="132.77" y="752.11" width="584.61" height="30.34"/><rect class="cls-4" x="102.77" y="886.47" width="1153.65" height="8"/><rect class="cls-4" x="-336.72" y="441.08" width="886.47" height="4.3" transform="translate(-336.72 549.75) rotate(-90)"/><text class="cls-5" transform="translate(100.43 968.86)">0</text><text class="cls-5" transform="translate(366.72 968.86)">50,000</text><text class="cls-5" transform="translate(709 968.86)">100,000</text><text class="cls-5" transform="translate(1022 968.86)">150,000</text><text/><rect class="cls-6" x="417.77" y="863.37" width="8" height="58.63"/><rect class="cls-6" x="760.77" y="863.37" width="8" height="58.63"/><rect class="cls-6" x="1081.77" y="864.84" width="8" height="58.63"/><polygon class="cls-7" points="757.01 753.78 762.06 753.78 762.06 776.93 757.01 776.93 757.01 753.78 757.01 753.78"/><polygon class="cls-8" points="757.01 753.78 762.06 753.78 762.06 761.98 757.01 761.98 757.01 753.78 757.01 753.78"/><polygon class="cls-7" points="718.44 753.78 723.49 753.78 723.49 776.93 718.44 776.93 718.44 753.78 718.44 753.78"/><polygon class="cls-8" points="718.44 753.78 723.49 753.78 723.49 761.98 718.44 761.98 718.44 753.78 718.44 753.78"/><path class="cls-9" d="M766.83,755.52S751.86,740,735.55,740l27.15,18.07,4.13-2.56Z"/><path class="cls-10" d="M696,745.2c5.9-5.73,29.68-5.15,41.41-5.15s27.11,15.45,27.11,15.45c28.91,0,30.91,8.31,30.91,8.31a64.45,64.45,0,0,1-2.58,17.74h-13a10.75,10.75,0,1,0-21.49,0h-42a10.75,10.75,0,0,0-21.5,0h-7.62s-.58-2.29-1.72-8.88,4.57-21.75,10.47-27.47Z"/><path class="cls-11" d="M769.09,771.53a10,10,0,1,1-10,10,10,10,0,0,1,10-10Z"/><path class="cls-9" d="M769.09,775.16a6.39,6.39,0,1,1-6.39,6.39,6.39,6.39,0,0,1,6.39-6.39Z"/><path class="cls-7" d="M769.09,776.51a5,5,0,1,1-5,5,5,5,0,0,1,5-5Z"/><path class="cls-11" d="M705.64,771.53a10,10,0,1,1-10,10,10,10,0,0,1,10-10Z"/><path class="cls-9" d="M705.64,775.16a6.39,6.39,0,1,1-6.38,6.39,6.39,6.39,0,0,1,6.38-6.39Z"/><path class="cls-7" d="M705.64,776.51a5,5,0,1,1-5,5,5,5,0,0,1,5-5Z"/><path class="cls-12" d="M788,762.79l-.3.49c-10-6.19-23.08-7.48-23.21-7.49l0-.29,2.29,0c4.23.66,13.59,2.57,21.19,7.27Z"/><path class="cls-13" d="M795.31,767.66s-6.08-.85-7-1.78-1.24-3.33-1.24-3.33l8.39,1.26c0,1.31-.05,2.58-.13,3.81v0Z"/><path class="cls-9" d="M697.74,746.28c5.28-5.13,26.56-4.61,37.07-4.61s24.26,13.83,24.26,13.83-1.11,2.58-5.5,2.58H692.88l-1-2.58a31.54,31.54,0,0,1,5.9-9.22Z"/><polygon class="cls-10" points="729.98 740.03 731.75 759.39 727.91 759.39 727.29 740.03 729.98 740.03 729.98 740.03"/><polygon class="cls-10" points="709.3 740.97 707.54 759.39 704.07 759.39 706.69 741.33 709.3 740.97 709.3 740.97"/><path class="cls-12" d="M729.54,778.72l.57-.05c0-.15-1.25-14.71-1.25-16.12a6.54,6.54,0,0,1,1.19-3l.06-.08v-.11L728.86,740l-.57,0,1.24,19.26a6.76,6.76,0,0,0-1.24,3.24c0,1.44,1.2,15.57,1.25,16.17Z"/><path class="cls-12" d="M703.48,769.56c0-.08.77-7.28.88-8.75a4.33,4.33,0,0,1,1.47-2.51l.08-.07,2.72-17.09-.57-.09-2.68,16.88a4.8,4.8,0,0,0-1.59,2.84c-.12,1.46-.87,8.65-.88,8.73l.57.06Z"/><path class="cls-12" d="M738.79,760.79h0c0,.55-.89,1-2,1h-2.51c-1.1,0-2-.44-2-1h6.49Z"/><path class="cls-12" d="M714.32,760.79h0c0,.55-.89,1-2,1h-2.51c-1.1,0-2-.44-2-1h6.49Z"/><path class="cls-12" d="M760.91,759.42c-.23,2,.21,9.16.58,14.52-.19.19-.36.39-.53.59-.39-5.42-.86-13.08-.62-15.17A30.76,30.76,0,0,1,762,753.1l.46.42a30.66,30.66,0,0,0-1.52,5.9Z"/><path class="cls-12" d="M790.86,772.52v6.19a3.1,3.1,0,1,1,0-6.19Z"/><text class="cls-1" transform="translate(668.39 33.32)">103,670</text><text class="cls-1" transform="translate(786.39 140.32)">124,620</text><text class="cls-1" transform="translate(738.39 244.32)">118,864</text><text class="cls-1" transform="translate(704.39 345.32)">115,253</text><text class="cls-1" transform="translate(702.39 452.32)">107,372</text><text class="cls-1" transform="translate(668.39 553.32)">104,756</text><text class="cls-1" transform="translate(657.39 665.32)">103,476</text><text class="cls-1" transform="translate(516.39 778.32)">101,202</text></g></g></svg>