<svg xmlns="http://www.w3.org/2000/svg" viewBox="0 0 272 491.12"><defs><style>.cls-1{fill:#cc4040;}.cls-2,.cls-3,.cls-4{fill:#fff;}.cls-3{font-size:32.74px;}.cls-3,.cls-4{font-family:Microsoft JhengHei;}.cls-4{font-size:57.92px;}</style></defs><title>chart_7</title><g id="chart1" data-name="chart1_1"><g id="chart2" data-name="chart2_1"><rect class="cls-1" y="336.54" width="272" height="135" rx="12"/><rect class="cls-2" x="90" y="37.54" width="85" height="114"/><path class="cls-1" d="M253.27,210.9a15.81,15.81,0,0,0-15.82-15.81H31.82A15.81,15.81,0,0,0,16,210.9v23.73a7.91,7.91,0,0,0,7.91,7.91H245.36a7.91,7.91,0,0,0,7.91-7.91V210.9Z"/><path class="cls-1" d="M166.27,94.91H142.54v39.54a7.91,7.91,0,0,1-15.82,0V94.91H103a7.91,7.91,0,0,1,0-15.82h23.72V55.36a7.91,7.91,0,1,1,15.82,0V79.09h23.73a7.91,7.91,0,1,1,0,15.82ZM221.63,87a87,87,0,0,0-87-87h0a87,87,0,0,0-87,87v92.27h174V87Z"/><text class="cls-3" transform="translate(70.89 289.93)">死亡人數</text><text class="cls-4" transform="translate(73.31 430.42)">77.2%</text><polygon class="cls-2" points="36.95 464.35 51.75 440.1 41.11 439.84 42.98 363.23 35.85 363.06 33.98 439.67 23.34 439.41 36.95 464.35"/></g></g></svg>
