<svg xmlns="http://www.w3.org/2000/svg" viewBox="0 0 1490.98 990.45"><defs><style>.cls-1,.cls-6{font-size:35px;font-family:NotoSansCJKtc-Medium-B5pc-H, Noto Sans CJK TC;}.cls-1,.cls-5{fill:#fff;}.cls-2{fill:none;stroke:#fff;stroke-miterlimit:10;stroke-width:2px;}.cls-3,.cls-6{fill:#efa543;}.cls-4{fill:#cc4040;}.cls-7{fill:#454442;}.cls-8{fill:#292726;}.cls-9{fill:#e03931;}.cls-10{fill:#dcdbd9;}.cls-11{fill:#3e3c3a;}.cls-12{fill:#6c6b68;}.cls-13{fill:#e6625b;}.cls-14{fill:#cbcac7;}.cls-15{fill:#8f8d89;}</style></defs><title>資產 4</title><g id="圖層_2" data-name="圖層 2"><g id="圖層_11" data-name="圖層 11"><text class="cls-1" transform="translate(2.71 46.32)"><tspan xml:space="preserve">2013    </tspan></text><text class="cls-1" transform="translate(2.71 188.99)"><tspan xml:space="preserve">2014    </tspan></text><text class="cls-1" transform="translate(2.71 339.32)"><tspan xml:space="preserve">2015    </tspan></text><text class="cls-1" transform="translate(0.82 492.32)"><tspan xml:space="preserve">2016   </tspan></text><text class="cls-1" transform="translate(0 638.66)"><tspan xml:space="preserve">2017   </tspan></text><line class="cls-2" x1="743.51" y1="904.71" x2="743.52" y2="23.62"/><text class="cls-1" transform="translate(2.71 794.32)"><tspan xml:space="preserve">2018    </tspan></text><line class="cls-2" x1="403.52" y1="907.94" x2="403.52" y2="18.05"/><rect class="cls-3" x="119.52" y="15.87" width="732.43" height="35.3"/><rect class="cls-4" x="119.52" y="15.87" width="161.41" height="35.3"/><line class="cls-2" x1="1082.52" y1="906.34" x2="1082.52" y2="12.77"/><rect class="cls-5" x="112.21" y="901.42" width="1302.1" height="8"/><rect class="cls-5" x="-331.64" y="456.33" width="890.03" height="3.72" transform="translate(-344.74 571.89) rotate(-90.04)"/><text class="cls-6" transform="translate(124.91 953.81)">0</text><text class="cls-6" transform="translate(344.8 953.81)">20,000</text><text class="cls-6" transform="translate(691.8 953.81)">40,000</text><text class="cls-6" transform="translate(1049.8 953.81)">60,000</text><line class="cls-2" x1="1413.52" y1="906.34" x2="1413.52" y2="15.91"/><text class="cls-6" transform="translate(1380.8 953.81)">80,000</text><text/><text class="cls-1" transform="translate(546.19 45.99)">45,030</text><text class="cls-1" transform="translate(272.19 97.99)">16,818</text><rect class="cls-3" x="120.52" y="159.09" width="1102.33" height="35.3"/><rect class="cls-4" x="118.52" y="159.09" width="493.48" height="35.3"/><text class="cls-1" transform="translate(1099.19 188.32)">67,965</text><rect class="cls-3" x="119.52" y="308.55" width="1057.75" height="35.3"/><rect class="cls-4" x="119.52" y="308.55" width="440.94" height="35.3"/><text class="cls-1" transform="translate(1060.19 339.32)">64,828</text><rect class="cls-3" x="119.52" y="462.13" width="904.22" height="34.72"/><rect class="cls-4" x="119.52" y="462.13" width="380.25" height="34.72"/><text class="cls-1" transform="translate(906.19 491.66)">58,388</text><rect class="cls-3" x="119.52" y="608.9" width="874.45" height="35.3"/><rect class="cls-4" x="119.52" y="608.9" width="403.84" height="35.3"/><text/><rect class="cls-3" x="119.52" y="762.14" width="822.9" height="35.3"/><rect class="cls-4" x="118.52" y="762.14" width="444.42" height="35.3"/><text class="cls-1" transform="translate(820.19 791.66)">56,167</text><text class="cls-1" transform="translate(878.19 638.66)">58,332</text><text class="cls-1" transform="translate(310.7 186.99)">38.9%</text><text class="cls-1" transform="translate(604.19 240.99)">26,455</text><text class="cls-1" transform="translate(307.7 335.99)">39.9%</text><text class="cls-1" transform="translate(267.7 489.99)">41.3%</text><text class="cls-1" transform="translate(268.7 635.99)">42.4%</text><text class="cls-1" transform="translate(296.7 792.99)">46.2%</text><text class="cls-1" transform="translate(155.17 44.44)">37.3%</text><path class="cls-7" d="M379.28,53.36H287.59a11.32,11.32,0,0,1-11.32-11.31V39.62a4,4,0,0,1,4-4V17.49a9.21,9.21,0,0,1,9.21-9.22h36.76A19.73,19.73,0,0,1,340.21,14l9.15,9.15h16a11.57,11.57,0,0,1,10.75,7.27l2.61,6.47a6.2,6.2,0,0,1,6.2,6.21v4.61a5.61,5.61,0,0,1-5.61,5.61"/><path class="cls-5" d="M298.73,10h-8.24A8.49,8.49,0,0,0,282,18.44v6.42h16.73V10"/><path class="cls-5" d="M347.35,23.52v27h-34.7A13.49,13.49,0,0,0,299.15,37h-.42V10h27.74a16.51,16.51,0,0,1,11.42,4.57l9.46,9"/><path class="cls-7" d="M344.83,23.52,338,16.64A16,16,0,0,0,326.64,12H290.55a6.85,6.85,0,0,0-6.85,6.84v4.72h61.13"/><path class="cls-8" d="M307.63,29.17a2.23,2.23,0,0,1-.88,1.86,3.48,3.48,0,0,1-2.19.65h-2.63v3.81h-1.24V26.67h3.87a3.57,3.57,0,0,1,2.2.61A2.23,2.23,0,0,1,307.63,29.17Zm-1.28,0c0-.91-.6-1.36-1.81-1.36h-2.61v2.71h2.61C305.75,30.52,306.35,30.07,306.35,29.17Z"/><path class="cls-8" d="M316.61,31.06a4.89,4.89,0,0,1-1,3.18,3.54,3.54,0,0,1-2.92,1.35,3.59,3.59,0,0,1-2.94-1.35,4.94,4.94,0,0,1-1-3.18,4.89,4.89,0,0,1,1-3.17,3.58,3.58,0,0,1,2.94-1.34,3.53,3.53,0,0,1,2.92,1.34A4.84,4.84,0,0,1,316.61,31.06Zm-1.28,0a3.77,3.77,0,0,0-.74-2.43,2.53,2.53,0,0,0-3.85,0,3.76,3.76,0,0,0-.73,2.43,3.73,3.73,0,0,0,.74,2.43,2.46,2.46,0,0,0,3.84,0A3.73,3.73,0,0,0,315.33,31.06Z"/><path class="cls-8" d="M324.9,35.49h-7.09V26.67h1.24v7.67h5.85Z"/><path class="cls-8" d="M327.74,35.49h-1.27V26.67h1.27Z"/><path class="cls-8" d="M337,28.8l-1.14.45a2.37,2.37,0,0,0-2.39-1.51,2.64,2.64,0,0,0-2,.83,3.66,3.66,0,0,0-.9,2.61,3.36,3.36,0,0,0,.87,2.51,2.42,2.42,0,0,0,1.77.71,2.64,2.64,0,0,0,2.56-1.76l1.06.47a4.63,4.63,0,0,1-1.33,1.82,3.81,3.81,0,0,1-2.29.66,3.68,3.68,0,0,1-2.77-1.1,4.61,4.61,0,0,1-1.14-3.31,4.87,4.87,0,0,1,1.18-3.32,3.82,3.82,0,0,1,2.95-1.33A3.54,3.54,0,0,1,337,28.8Z"/><path class="cls-8" d="M344.72,35.49h-6.54V26.67h6.54v1.14H339.4V30.4h4.83v1.16H339.4v2.78h5.32Z"/><path class="cls-5" d="M375.15,28.63h-9v.26a8.09,8.09,0,0,0,8.1,8.1h4.47l-3.54-8.36Z"/><polygon class="cls-5" points="324.06 8.27 324.06 5.7 313.33 5.7 313.33 8.27 324.06 8.27 324.06 8.27"/><path class="cls-9" d="M324.06,5.7S323.57.61,318.7.34s-5.37,5.36-5.37,5.36h10.73"/><polygon class="cls-9" points="280.38 26.04 283.61 26.04 283.61 35.59 280.34 35.59 280.38 26.04 280.38 26.04"/><path class="cls-10" d="M287.59,53.36h91.69a5.61,5.61,0,0,0,5.61-5.61h0a5.61,5.61,0,0,1-5.61,5.61H287.59m0,0h0m0,0h0m0,0h0m0,0h0m0,0h0m0,0h0m0,0h0m0,0h0m0,0h0m-.1,0h0"/><path class="cls-11" d="M287.59,53.36h91.69a5.61,5.61,0,0,0,5.61-5.61V44s-1.22,1.6-5.69,1.6h0c-4.47,0-15.31-3.58-18.27-4.25-1.9-.43-6.16-2.15-10.59-2.15a14.28,14.28,0,0,0-3,.3v11h-34.7a13.48,13.48,0,0,0-5.15-10.6A21.79,21.79,0,0,0,301,41.57a50.51,50.51,0,0,1-18.23,4,11.47,11.47,0,0,1-3.45-.38,13.13,13.13,0,0,1-2.9-1.58,11.3,11.3,0,0,0,10.93,9.79h.27"/><path class="cls-10" d="M312.65,50.51h34.7v-11a10.83,10.83,0,0,0-4.25,1.85,24.2,24.2,0,0,1-13.62,4.7A12.63,12.63,0,0,1,323,44.48c-3.67-2.17-8.22-4.65-13.85-4.65-.55,0-1.12,0-1.69.08a13.48,13.48,0,0,1,5.15,10.6"/><path class="cls-5" d="M326.68,12h0m0,0h0"/><path class="cls-12" d="M330.76,23.52h9.88L329.3,12.18a16.35,16.35,0,0,0-2.62-.22h-7.49l11.57,11.56"/><polyline class="cls-12" points="322.3 23.52 327.95 23.52 316.39 11.96 310.74 11.96 322.3 23.52"/><polyline class="cls-12" points="303.79 23.52 313.67 23.52 302.1 11.96 292.22 11.96 303.79 23.52"/><path class="cls-12" d="M295.33,23.52H301L289.5,12.05a6.79,6.79,0,0,0-3.76,1.88l9.59,9.59"/><path class="cls-12" d="M371.91,27.38a6.72,6.72,0,0,0-.68-.68,9.16,9.16,0,0,0-2.15-1.4,7.88,7.88,0,0,0-1.64-.56,9.67,9.67,0,0,0-1.88-.17h0c-1.31,0-2.71,0-4.1,0h-2.09c-.68,0-1.36,0-2,0-1.31,0-2.53.06-3.58.1s-1.92.1-2.53.13l-1,.06,1,.07c.61,0,1.48.09,2.53.13s2.27.08,3.58.1c.65,0,1.33,0,2,0h2.09c1.39,0,2.79,0,4.1,0h.57a8.61,8.61,0,0,1,1.26.08,9.23,9.23,0,0,1,1.59.42,11,11,0,0,1,2.21,1.15,9.37,9.37,0,0,1,.76.58"/><path class="cls-13" d="M322.54,4.71a2.33,2.33,0,0,0-.06-.8,3.43,3.43,0,0,0-.83-1.55,2.82,2.82,0,0,0-.36-.33,2.48,2.48,0,0,0-.39-.27,1.75,1.75,0,0,0-.39-.19,1.36,1.36,0,0,0-.37-.13,2,2,0,0,0-.57-.08h-.22a1.08,1.08,0,0,0,.17.13l.21.14a2.79,2.79,0,0,1,.25.17c.09.07.19.13.28.21a2.34,2.34,0,0,1,.3.25c.1.09.21.17.31.27s.2.19.29.3a2.8,2.8,0,0,1,.28.31c.09.1.17.22.26.32s.16.21.23.32.13.2.2.29c.24.37.41.65.41.65"/><path class="cls-12" d="M277.53,40a4.61,4.61,0,0,1,.73-.62l.37-.25c.13-.09.29-.15.44-.24s.31-.16.48-.23.33-.15.51-.21.34-.13.52-.18a5,5,0,0,1,.51-.16l.49-.15c.16,0,.31-.08.45-.12l.68-.18.27-.09-.27,0a4.94,4.94,0,0,0-.68-.07h-.18a5.78,5.78,0,0,0-.89.07,4.48,4.48,0,0,0-.57.12,4.17,4.17,0,0,0-.57.18,3.53,3.53,0,0,0-.56.25,4.14,4.14,0,0,0-.5.3,3.15,3.15,0,0,0-.43.36,3.75,3.75,0,0,0-.34.36,2.92,2.92,0,0,0-.38.64,1.87,1.87,0,0,0-.08.26"/><path class="cls-8" d="M323.72,8.27V5.7a5,5,0,1,0-10.05,0V8.27H313V5.7a5.7,5.7,0,1,1,11.4,0V8.27Z"/><polyline class="cls-8" points="324.06 6.03 313.33 6.03 313.33 5.36 324.06 5.36"/><path class="cls-8" d="M379.28,53.36v.34H287.59a11.65,11.65,0,0,1-11.65-11.65V39.62a4.36,4.36,0,0,1,4.36-4.36v.33H280V17.49a9.56,9.56,0,0,1,9.55-9.56h36.76a20.06,20.06,0,0,1,14.18,5.88l9.05,9h15.83a11.93,11.93,0,0,1,11.07,7.48l2.6,6.48-.31.12V36.6a6.54,6.54,0,0,1,6.54,6.54v4.61a6,6,0,0,1-6,6V53a5.29,5.29,0,0,0,5.28-5.28V43.14a5.87,5.87,0,0,0-5.87-5.87h-.22l-2.7-6.69a11.26,11.26,0,0,0-10.44-7.06H349.22L340,14.28A19.43,19.43,0,0,0,326.27,8.6H289.51a8.89,8.89,0,0,0-8.88,8.89V35.93h-.33a3.69,3.69,0,0,0-3.69,3.69v2.43a11,11,0,0,0,11,11h91.69v.33Z"/><path class="cls-7" d="M284.88,51.86A12.46,12.46,0,1,0,297.34,39.4a12.46,12.46,0,0,0-12.46,12.46Z"/><path class="cls-14" d="M289.48,51.86A7.86,7.86,0,1,0,297.34,44a7.86,7.86,0,0,0-7.86,7.86Z"/><path class="cls-15" d="M291.08,51.86a6.26,6.26,0,1,0,6.26-6.26,6.26,6.26,0,0,0-6.26,6.26Z"/><path class="cls-14" d="M294.21,51.86a3.13,3.13,0,1,0,3.13-3.13,3.13,3.13,0,0,0-3.13,3.13Z"/><path class="cls-8" d="M284.88,51.86h.38a12.09,12.09,0,1,0,3.54-8.54,12,12,0,0,0-3.54,8.54h-.77A12.85,12.85,0,1,1,297.34,64.7a12.86,12.86,0,0,1-12.85-12.84Z"/><path class="cls-7" d="M351.59,51.86A12.46,12.46,0,1,0,364.05,39.4a12.46,12.46,0,0,0-12.46,12.46Z"/><path class="cls-14" d="M356.19,51.86A7.86,7.86,0,1,0,364.05,44a7.86,7.86,0,0,0-7.86,7.86Z"/><path class="cls-15" d="M357.79,51.86a6.26,6.26,0,1,0,6.26-6.26,6.26,6.26,0,0,0-6.26,6.26Z"/><path class="cls-14" d="M360.92,51.86a3.13,3.13,0,1,0,3.13-3.13,3.13,3.13,0,0,0-3.13,3.13Z"/><path class="cls-8" d="M351.59,51.86H352a12.07,12.07,0,1,0,3.53-8.54A12.07,12.07,0,0,0,352,51.86h-.77A12.85,12.85,0,1,1,364.05,64.7a12.86,12.86,0,0,1-12.84-12.84Z"/><path class="cls-8" d="M375.14,29h-9v-.33h.34a8,8,0,0,0,8,8h4.21v.67h-4.21a8.7,8.7,0,0,1-8.7-8.69v-.34h9.36V29Z"/><path class="cls-8" d="M344.83,23.52l-.24.24-6.87-6.88a15.68,15.68,0,0,0-11.08-4.59H290.55A6.52,6.52,0,0,0,284,18.8v4.39h60.79v.33l-.24.24.24-.24v.34H283.37V18.8a7.18,7.18,0,0,1,7.18-7.18h36.09a16.31,16.31,0,0,1,11.55,4.79l7.45,7.45h-.81v-.34Z"/><path class="cls-8" d="M347.35,23.52h.33V50.85H312.31v-.34a13.16,13.16,0,0,0-13.16-13.16h-.75V9.61h28.07a16.94,16.94,0,0,1,11.66,4.66l9.55,9.11v.14h-.33l-.24.25-9.45-9a16.18,16.18,0,0,0-11.19-4.48h-27.4v26.4h.08A13.83,13.83,0,0,1,313,50.51h-.33v-.33H347V23.52h.34l-.24.25.24-.25Z"/><polyline class="cls-8" points="319.97 9.95 319.97 50.51 319.3 50.51 319.3 9.95"/><polygon class="cls-8" points="280.3 35.26 283.37 35.26 283.37 26.37 280.3 26.37 280.3 25.7 284.04 25.7 284.04 35.93 280.3 35.93 280.3 35.26 280.3 35.26"/><path class="cls-7" d="M708.28,195.36H616.59a11.32,11.32,0,0,1-11.32-11.31v-2.43a4,4,0,0,1,4-4v-18.1a9.21,9.21,0,0,1,9.21-9.22h36.76A19.73,19.73,0,0,1,669.21,156l9.15,9.15h16a11.57,11.57,0,0,1,10.75,7.27l2.61,6.47a6.2,6.2,0,0,1,6.2,6.21v4.61a5.61,5.61,0,0,1-5.61,5.61"/><path class="cls-5" d="M627.73,152h-8.24a8.49,8.49,0,0,0-8.49,8.49v6.42h16.73V152"/><path class="cls-5" d="M676.35,165.52v27h-34.7A13.49,13.49,0,0,0,628.15,179h-.42V152h27.74a16.51,16.51,0,0,1,11.42,4.57l9.46,9"/><path class="cls-7" d="M673.83,165.52,667,158.64A16,16,0,0,0,655.64,154H619.55a6.85,6.85,0,0,0-6.85,6.84v4.72h61.13"/><path class="cls-8" d="M636.63,171.17a2.23,2.23,0,0,1-.88,1.86,3.48,3.48,0,0,1-2.19.65h-2.63v3.81h-1.24v-8.82h3.87a3.57,3.57,0,0,1,2.2.61A2.23,2.23,0,0,1,636.63,171.17Zm-1.28,0c0-.91-.6-1.36-1.81-1.36h-2.61v2.71h2.61C634.75,172.52,635.35,172.07,635.35,171.17Z"/><path class="cls-8" d="M645.61,173.06a4.89,4.89,0,0,1-1,3.18,3.54,3.54,0,0,1-2.92,1.35,3.59,3.59,0,0,1-2.94-1.35,5.5,5.5,0,0,1,0-6.35,3.58,3.58,0,0,1,2.94-1.34,3.53,3.53,0,0,1,2.92,1.34A4.84,4.84,0,0,1,645.61,173.06Zm-1.28,0a3.77,3.77,0,0,0-.74-2.43,2.53,2.53,0,0,0-3.85,0,4.38,4.38,0,0,0,0,4.86,2.46,2.46,0,0,0,3.84,0A3.73,3.73,0,0,0,644.33,173.06Z"/><path class="cls-8" d="M653.9,177.49h-7.09v-8.82h1.24v7.67h5.85Z"/><path class="cls-8" d="M656.74,177.49h-1.27v-8.82h1.27Z"/><path class="cls-8" d="M666,170.8l-1.14.45a2.37,2.37,0,0,0-2.39-1.51,2.64,2.64,0,0,0-2,.83,3.66,3.66,0,0,0-.9,2.61,3.36,3.36,0,0,0,.87,2.51,2.42,2.42,0,0,0,1.77.71,2.64,2.64,0,0,0,2.56-1.76l1.06.47a4.63,4.63,0,0,1-1.33,1.82,3.81,3.81,0,0,1-2.29.66,3.68,3.68,0,0,1-2.77-1.1,4.61,4.61,0,0,1-1.14-3.31,4.87,4.87,0,0,1,1.18-3.32,3.82,3.82,0,0,1,3-1.33A3.54,3.54,0,0,1,666,170.8Z"/><path class="cls-8" d="M673.72,177.49h-6.54v-8.82h6.54v1.14H668.4v2.59h4.83v1.16H668.4v2.78h5.32Z"/><path class="cls-5" d="M704.15,170.63h-9v.26a8.09,8.09,0,0,0,8.1,8.1h4.47l-3.54-8.36Z"/><polygon class="cls-5" points="653.06 150.27 653.06 147.7 642.33 147.7 642.33 150.27 653.06 150.27 653.06 150.27"/><path class="cls-9" d="M653.06,147.7s-.49-5.09-5.36-5.36-5.37,5.36-5.37,5.36h10.73"/><polygon class="cls-9" points="609.38 168.04 612.61 168.04 612.61 177.59 609.34 177.59 609.38 168.04 609.38 168.04"/><path class="cls-10" d="M616.59,195.36h91.69a5.61,5.61,0,0,0,5.61-5.61h0a5.61,5.61,0,0,1-5.61,5.61H616.59m0,0h0m0,0h0m0,0h0m0,0h0m0,0h0m0,0h0m0,0h0m0,0h0m0,0h0m-.1,0h0"/><path class="cls-11" d="M616.59,195.36h91.69a5.61,5.61,0,0,0,5.61-5.61V186s-1.22,1.6-5.69,1.6h0c-4.47,0-15.31-3.58-18.27-4.25-1.9-.43-6.16-2.15-10.59-2.15a14.28,14.28,0,0,0-3,.3v11h-34.7a13.48,13.48,0,0,0-5.15-10.6,21.79,21.79,0,0,0-6.53,1.66,50.51,50.51,0,0,1-18.23,4,11.47,11.47,0,0,1-3.45-.38,13.13,13.13,0,0,1-2.9-1.58,11.3,11.3,0,0,0,10.93,9.79h.27"/><path class="cls-10" d="M641.65,192.51h34.7v-11a10.83,10.83,0,0,0-4.25,1.85,24.2,24.2,0,0,1-13.62,4.7,12.63,12.63,0,0,1-6.44-1.57c-3.67-2.17-8.22-4.65-13.85-4.65-.55,0-1.12,0-1.69.08a13.48,13.48,0,0,1,5.15,10.6"/><path class="cls-5" d="M655.68,154h0m0,0h0"/><path class="cls-12" d="M659.76,165.52h9.88L658.3,154.18a16.35,16.35,0,0,0-2.62-.22h-7.49l11.57,11.56"/><polyline class="cls-12" points="651.3 165.52 656.95 165.52 645.39 153.96 639.74 153.96 651.3 165.52"/><polyline class="cls-12" points="632.79 165.52 642.66 165.52 631.1 153.96 621.22 153.96 632.79 165.52"/><path class="cls-12" d="M624.33,165.52H630L618.5,154.05a6.79,6.79,0,0,0-3.76,1.88l9.59,9.59"/><path class="cls-12" d="M700.91,169.38a6.72,6.72,0,0,0-.68-.68,9.16,9.16,0,0,0-2.15-1.4,7.88,7.88,0,0,0-1.64-.56,9.67,9.67,0,0,0-1.88-.17h0c-1.31,0-2.71,0-4.1,0h-2.09c-.68,0-1.36,0-2,0-1.31,0-2.53.06-3.58.1s-1.92.1-2.53.13l-1,.06,1,.07c.61,0,1.48.09,2.53.13s2.27.08,3.58.1c.65,0,1.33,0,2,0h2.09c1.39,0,2.79,0,4.1,0h.57a8.61,8.61,0,0,1,1.26.08,9.23,9.23,0,0,1,1.59.42,11,11,0,0,1,2.21,1.15,9.37,9.37,0,0,1,.76.58"/><path class="cls-13" d="M651.54,146.71a2.33,2.33,0,0,0-.06-.8,3.43,3.43,0,0,0-.83-1.55,2.82,2.82,0,0,0-.36-.33,2.48,2.48,0,0,0-.39-.27,1.75,1.75,0,0,0-.39-.19,1.36,1.36,0,0,0-.37-.13,2,2,0,0,0-.57-.08h-.22a1.08,1.08,0,0,0,.17.13l.21.14a2.79,2.79,0,0,1,.25.17c.09.07.19.13.28.21a2.34,2.34,0,0,1,.3.25c.1.09.21.17.31.27s.2.19.29.3a2.8,2.8,0,0,1,.28.31c.09.1.17.22.26.32s.16.21.23.32.13.2.2.29c.24.37.41.65.41.65"/><path class="cls-12" d="M606.53,182a4.61,4.61,0,0,1,.73-.62l.37-.25c.13-.09.29-.15.44-.24s.31-.16.48-.23.33-.15.51-.21.34-.13.52-.18a5,5,0,0,1,.51-.16l.49-.15c.16,0,.31-.08.45-.12l.68-.18.27-.09-.27,0a4.94,4.94,0,0,0-.68-.07h-.18a5.78,5.78,0,0,0-.89.07,4.48,4.48,0,0,0-.57.12,4.17,4.17,0,0,0-.57.18,3.53,3.53,0,0,0-.56.25,4.14,4.14,0,0,0-.5.3,3.15,3.15,0,0,0-.43.36,3.75,3.75,0,0,0-.34.36,2.92,2.92,0,0,0-.38.64,1.87,1.87,0,0,0-.08.26"/><path class="cls-8" d="M652.72,150.27V147.7a5,5,0,1,0-10.05,0v2.57H642V147.7a5.7,5.7,0,1,1,11.4,0v2.57Z"/><polyline class="cls-8" points="653.06 148.03 642.33 148.03 642.33 147.36 653.06 147.36"/><path class="cls-8" d="M708.28,195.36v.34H616.59a11.65,11.65,0,0,1-11.65-11.65v-2.43a4.36,4.36,0,0,1,4.36-4.36v.33H609v-18.1a9.56,9.56,0,0,1,9.55-9.56h36.76a20.06,20.06,0,0,1,14.18,5.88l9,9h15.83a11.93,11.93,0,0,1,11.07,7.48l2.6,6.48-.31.12v-.33a6.54,6.54,0,0,1,6.54,6.54v4.61a6,6,0,0,1-6,5.95V195a5.29,5.29,0,0,0,5.28-5.28v-4.61a5.87,5.87,0,0,0-5.87-5.87h-.22l-2.7-6.69a11.26,11.26,0,0,0-10.44-7.06H678.22L669,156.28a19.43,19.43,0,0,0-13.71-5.68H618.51a8.89,8.89,0,0,0-8.88,8.89v18.44h-.33a3.69,3.69,0,0,0-3.69,3.69v2.43a11,11,0,0,0,11,11h91.69v.33Z"/><path class="cls-7" d="M613.88,193.86a12.46,12.46,0,1,0,12.46-12.46,12.46,12.46,0,0,0-12.46,12.46Z"/><path class="cls-14" d="M618.48,193.86a7.86,7.86,0,1,0,7.86-7.86,7.86,7.86,0,0,0-7.86,7.86Z"/><path class="cls-15" d="M620.08,193.86a6.26,6.26,0,1,0,6.26-6.26,6.26,6.26,0,0,0-6.26,6.26Z"/><path class="cls-14" d="M623.21,193.86a3.13,3.13,0,1,0,3.13-3.13,3.13,3.13,0,0,0-3.13,3.13Z"/><path class="cls-8" d="M613.88,193.86h.38a12.09,12.09,0,1,0,3.54-8.54,12,12,0,0,0-3.54,8.54h-.77a12.85,12.85,0,1,1,12.85,12.84,12.86,12.86,0,0,1-12.85-12.84Z"/><path class="cls-7" d="M680.59,193.86a12.46,12.46,0,1,0,12.46-12.46,12.46,12.46,0,0,0-12.46,12.46Z"/><path class="cls-14" d="M685.19,193.86a7.86,7.86,0,1,0,7.86-7.86,7.86,7.86,0,0,0-7.86,7.86Z"/><path class="cls-15" d="M686.79,193.86a6.26,6.26,0,1,0,6.26-6.26,6.26,6.26,0,0,0-6.26,6.26Z"/><path class="cls-14" d="M689.92,193.86a3.13,3.13,0,1,0,3.13-3.13,3.13,3.13,0,0,0-3.13,3.13Z"/><path class="cls-8" d="M680.59,193.86H681a12.07,12.07,0,1,0,3.53-8.54,12.07,12.07,0,0,0-3.53,8.54h-.77a12.85,12.85,0,1,1,12.84,12.84,12.86,12.86,0,0,1-12.84-12.84Z"/><path class="cls-8" d="M704.14,171h-9v-.33h.34a8,8,0,0,0,8,8h4.21v.67h-4.21a8.7,8.7,0,0,1-8.7-8.69v-.34h9.36V171Z"/><path class="cls-8" d="M673.83,165.52l-.24.24-6.87-6.88a15.68,15.68,0,0,0-11.08-4.59H619.55A6.52,6.52,0,0,0,613,160.8v4.39h60.79v.33l-.24.24.24-.24v.34H612.37V160.8a7.18,7.18,0,0,1,7.18-7.18h36.09a16.31,16.31,0,0,1,11.55,4.79l7.45,7.45h-.81v-.34Z"/><path class="cls-8" d="M676.35,165.52h.33v27.33H641.31v-.34a13.16,13.16,0,0,0-13.16-13.16h-.75V151.61h28.07a16.94,16.94,0,0,1,11.66,4.66l9.55,9.11v.14h-.33l-.24.25-9.45-9a16.18,16.18,0,0,0-11.19-4.48h-27.4v26.4h.08A13.83,13.83,0,0,1,642,192.51h-.33v-.33H676V165.52h.34l-.24.25.24-.25Z"/><polyline class="cls-8" points="648.97 151.95 648.97 192.51 648.3 192.51 648.3 151.95"/><polygon class="cls-8" points="609.29 177.26 612.37 177.26 612.37 168.37 609.29 168.37 609.29 167.7 613.04 167.7 613.04 177.93 609.29 177.93 609.29 177.26 609.29 177.26"/><text class="cls-1" transform="translate(547.19 387.99)">25,865</text><path class="cls-7" d="M654.28,343.36H562.59a11.32,11.32,0,0,1-11.32-11.31v-2.43a4,4,0,0,1,4-4v-18.1a9.21,9.21,0,0,1,9.21-9.22h36.76A19.73,19.73,0,0,1,615.21,304l9.15,9.15h16a11.57,11.57,0,0,1,10.75,7.27l2.61,6.47a6.2,6.2,0,0,1,6.2,6.21v4.61a5.61,5.61,0,0,1-5.61,5.61"/><path class="cls-5" d="M573.73,300h-8.24a8.49,8.49,0,0,0-8.49,8.49v6.42h16.73V300"/><path class="cls-5" d="M622.35,313.52v27h-34.7A13.49,13.49,0,0,0,574.15,327h-.42V300h27.74a16.51,16.51,0,0,1,11.42,4.57l9.46,9"/><path class="cls-7" d="M619.83,313.52,613,306.64A16,16,0,0,0,601.64,302H565.55a6.85,6.85,0,0,0-6.85,6.84v4.72h61.13"/><path class="cls-8" d="M582.63,319.17a2.23,2.23,0,0,1-.88,1.86,3.48,3.48,0,0,1-2.19.65h-2.63v3.81h-1.24v-8.82h3.87a3.57,3.57,0,0,1,2.2.61A2.23,2.23,0,0,1,582.63,319.17Zm-1.28,0c0-.91-.6-1.36-1.81-1.36h-2.61v2.71h2.61C580.75,320.52,581.35,320.07,581.35,319.17Z"/><path class="cls-8" d="M591.61,321.06a4.89,4.89,0,0,1-1,3.18,3.54,3.54,0,0,1-2.92,1.35,3.59,3.59,0,0,1-2.94-1.35,5.5,5.5,0,0,1,0-6.35,3.58,3.58,0,0,1,2.94-1.34,3.53,3.53,0,0,1,2.92,1.34A4.84,4.84,0,0,1,591.61,321.06Zm-1.28,0a3.77,3.77,0,0,0-.74-2.43,2.53,2.53,0,0,0-3.85,0,4.38,4.38,0,0,0,0,4.86,2.46,2.46,0,0,0,3.84,0A3.73,3.73,0,0,0,590.33,321.06Z"/><path class="cls-8" d="M599.9,325.49h-7.09v-8.82h1.24v7.67h5.85Z"/><path class="cls-8" d="M602.74,325.49h-1.27v-8.82h1.27Z"/><path class="cls-8" d="M612,318.8l-1.14.45a2.37,2.37,0,0,0-2.39-1.51,2.64,2.64,0,0,0-2,.83,3.66,3.66,0,0,0-.9,2.61,3.36,3.36,0,0,0,.87,2.51,2.42,2.42,0,0,0,1.77.71,2.64,2.64,0,0,0,2.56-1.76l1.06.47a4.63,4.63,0,0,1-1.33,1.82,3.81,3.81,0,0,1-2.29.66,3.68,3.68,0,0,1-2.77-1.1,4.61,4.61,0,0,1-1.14-3.31,4.87,4.87,0,0,1,1.18-3.32,3.82,3.82,0,0,1,3-1.33A3.54,3.54,0,0,1,612,318.8Z"/><path class="cls-8" d="M619.72,325.49h-6.54v-8.82h6.54v1.14H614.4v2.59h4.83v1.16H614.4v2.78h5.32Z"/><path class="cls-5" d="M650.15,318.63h-9v.26a8.09,8.09,0,0,0,8.1,8.1h4.47l-3.54-8.36Z"/><polygon class="cls-5" points="599.06 298.27 599.06 295.7 588.33 295.7 588.33 298.27 599.06 298.27 599.06 298.27"/><path class="cls-9" d="M599.06,295.7s-.49-5.09-5.36-5.36-5.37,5.36-5.37,5.36h10.73"/><polygon class="cls-9" points="555.38 316.04 558.61 316.04 558.61 325.59 555.34 325.59 555.38 316.04 555.38 316.04"/><path class="cls-10" d="M562.59,343.36h91.69a5.61,5.61,0,0,0,5.61-5.61h0a5.61,5.61,0,0,1-5.61,5.61H562.59m0,0h0m0,0h0m0,0h0m0,0h0m0,0h0m0,0h0m0,0h0m0,0h0m0,0h0m-.1,0h0"/><path class="cls-11" d="M562.59,343.36h91.69a5.61,5.61,0,0,0,5.61-5.61V334s-1.22,1.6-5.69,1.6h0c-4.47,0-15.31-3.58-18.27-4.25-1.9-.43-6.16-2.15-10.59-2.15a14.28,14.28,0,0,0-3,.3v11h-34.7a13.48,13.48,0,0,0-5.15-10.6,21.79,21.79,0,0,0-6.53,1.66,50.51,50.51,0,0,1-18.23,4,11.47,11.47,0,0,1-3.45-.38,13.13,13.13,0,0,1-2.9-1.58,11.3,11.3,0,0,0,10.93,9.79h.27"/><path class="cls-10" d="M587.65,340.51h34.7v-11a10.83,10.83,0,0,0-4.25,1.85,24.2,24.2,0,0,1-13.62,4.7,12.63,12.63,0,0,1-6.44-1.57c-3.67-2.17-8.22-4.65-13.85-4.65-.55,0-1.12,0-1.69.08a13.48,13.48,0,0,1,5.15,10.6"/><path class="cls-5" d="M601.68,302h0m0,0h0"/><path class="cls-12" d="M605.76,313.52h9.88L604.3,302.18a16.35,16.35,0,0,0-2.62-.22h-7.49l11.57,11.56"/><polyline class="cls-12" points="597.3 313.52 602.95 313.52 591.39 301.96 585.74 301.96 597.3 313.52"/><polyline class="cls-12" points="578.79 313.52 588.66 313.52 577.1 301.96 567.22 301.96 578.79 313.52"/><path class="cls-12" d="M570.33,313.52H576L564.5,302.05a6.79,6.79,0,0,0-3.76,1.88l9.59,9.59"/><path class="cls-12" d="M646.91,317.38a6.72,6.72,0,0,0-.68-.68,9.16,9.16,0,0,0-2.15-1.4,7.88,7.88,0,0,0-1.64-.56,9.67,9.67,0,0,0-1.88-.17h0c-1.31,0-2.71,0-4.1,0h-2.09c-.68,0-1.36,0-2,0-1.31,0-2.53.06-3.58.1s-1.92.1-2.53.13l-1,.06,1,.07c.61,0,1.48.09,2.53.13s2.27.08,3.58.1c.65,0,1.33,0,2,0h2.09c1.39,0,2.79,0,4.1,0h.57a8.61,8.61,0,0,1,1.26.08,9.23,9.23,0,0,1,1.59.42,11,11,0,0,1,2.21,1.15,9.37,9.37,0,0,1,.76.58"/><path class="cls-13" d="M597.54,294.71a2.33,2.33,0,0,0-.06-.8,3.43,3.43,0,0,0-.83-1.55,2.82,2.82,0,0,0-.36-.33,2.48,2.48,0,0,0-.39-.27,1.75,1.75,0,0,0-.39-.19,1.36,1.36,0,0,0-.37-.13,2,2,0,0,0-.57-.08h-.22a1.08,1.08,0,0,0,.17.13l.21.14a2.79,2.79,0,0,1,.25.17c.09.07.19.13.28.21a2.34,2.34,0,0,1,.3.25c.1.09.21.17.31.27s.2.19.29.3a2.8,2.8,0,0,1,.28.31c.09.1.17.22.26.32s.16.21.23.32.13.2.2.29c.24.37.41.65.41.65"/><path class="cls-12" d="M552.53,330a4.61,4.61,0,0,1,.73-.62l.37-.25c.13-.09.29-.15.44-.24s.31-.16.48-.23.33-.15.51-.21.34-.13.52-.18a5,5,0,0,1,.51-.16l.49-.15c.16,0,.31-.08.45-.12l.68-.18.27-.09-.27,0a4.94,4.94,0,0,0-.68-.07h-.18a5.78,5.78,0,0,0-.89.07,4.48,4.48,0,0,0-.57.12,4.17,4.17,0,0,0-.57.18,3.53,3.53,0,0,0-.56.25,4.14,4.14,0,0,0-.5.3,3.15,3.15,0,0,0-.43.36,3.75,3.75,0,0,0-.34.36,2.92,2.92,0,0,0-.38.64,1.87,1.87,0,0,0-.08.26"/><path class="cls-8" d="M598.72,298.27V295.7a5,5,0,1,0-10.05,0v2.57H588V295.7a5.7,5.7,0,1,1,11.4,0v2.57Z"/><polyline class="cls-8" points="599.06 296.03 588.33 296.03 588.33 295.36 599.06 295.36"/><path class="cls-8" d="M654.28,343.36v.34H562.59a11.65,11.65,0,0,1-11.65-11.65v-2.43a4.36,4.36,0,0,1,4.36-4.36v.33H555v-18.1a9.56,9.56,0,0,1,9.55-9.56h36.76a20.06,20.06,0,0,1,14.18,5.88l9,9h15.83a11.93,11.93,0,0,1,11.07,7.48l2.6,6.48-.31.12v-.33a6.54,6.54,0,0,1,6.54,6.54v4.61a6,6,0,0,1-6,5.95V343a5.29,5.29,0,0,0,5.28-5.28v-4.61a5.87,5.87,0,0,0-5.87-5.87h-.22l-2.7-6.69a11.26,11.26,0,0,0-10.44-7.06H624.22L615,304.28a19.43,19.43,0,0,0-13.71-5.68H564.51a8.89,8.89,0,0,0-8.88,8.89v18.44h-.33a3.69,3.69,0,0,0-3.69,3.69v2.43a11,11,0,0,0,11,11h91.69v.33Z"/><path class="cls-7" d="M559.88,341.86a12.46,12.46,0,1,0,12.46-12.46,12.46,12.46,0,0,0-12.46,12.46Z"/><path class="cls-14" d="M564.48,341.86a7.86,7.86,0,1,0,7.86-7.86,7.86,7.86,0,0,0-7.86,7.86Z"/><path class="cls-15" d="M566.08,341.86a6.26,6.26,0,1,0,6.26-6.26,6.26,6.26,0,0,0-6.26,6.26Z"/><path class="cls-14" d="M569.21,341.86a3.13,3.13,0,1,0,3.13-3.13,3.13,3.13,0,0,0-3.13,3.13Z"/><path class="cls-8" d="M559.88,341.86h.38a12.09,12.09,0,1,0,3.54-8.54,12,12,0,0,0-3.54,8.54h-.77a12.85,12.85,0,1,1,12.85,12.84,12.86,12.86,0,0,1-12.85-12.84Z"/><path class="cls-7" d="M626.59,341.86a12.46,12.46,0,1,0,12.46-12.46,12.46,12.46,0,0,0-12.46,12.46Z"/><path class="cls-14" d="M631.19,341.86a7.86,7.86,0,1,0,7.86-7.86,7.86,7.86,0,0,0-7.86,7.86Z"/><path class="cls-15" d="M632.79,341.86a6.26,6.26,0,1,0,6.26-6.26,6.26,6.26,0,0,0-6.26,6.26Z"/><path class="cls-14" d="M635.92,341.86a3.13,3.13,0,1,0,3.13-3.13,3.13,3.13,0,0,0-3.13,3.13Z"/><path class="cls-8" d="M626.59,341.86H627a12.07,12.07,0,1,0,3.53-8.54,12.07,12.07,0,0,0-3.53,8.54h-.77a12.85,12.85,0,1,1,12.84,12.84,12.86,12.86,0,0,1-12.84-12.84Z"/><path class="cls-8" d="M650.14,319h-9v-.33h.34a8,8,0,0,0,8,8h4.21v.67h-4.21a8.7,8.7,0,0,1-8.7-8.69v-.34h9.36V319Z"/><path class="cls-8" d="M619.83,313.52l-.24.24-6.87-6.88a15.68,15.68,0,0,0-11.08-4.59H565.55A6.52,6.52,0,0,0,559,308.8v4.39h60.79v.33l-.24.24.24-.24v.34H558.37V308.8a7.18,7.18,0,0,1,7.18-7.18h36.09a16.31,16.31,0,0,1,11.55,4.79l7.45,7.45h-.81v-.34Z"/><path class="cls-8" d="M622.35,313.52h.33v27.33H587.31v-.34a13.16,13.16,0,0,0-13.16-13.16h-.75V299.61h28.07a16.94,16.94,0,0,1,11.66,4.66l9.55,9.11v.14h-.33l-.24.25-9.45-9a16.18,16.18,0,0,0-11.19-4.48h-27.4v26.4h.08A13.83,13.83,0,0,1,588,340.51h-.33v-.33H622V313.52h.34l-.24.25.24-.25Z"/><polyline class="cls-8" points="594.97 299.95 594.97 340.51 594.3 340.51 594.3 299.95"/><polygon class="cls-8" points="555.29 325.26 558.37 325.26 558.37 316.37 555.29 316.37 555.29 315.7 559.04 315.7 559.04 325.93 555.29 325.93 555.29 325.26 555.29 325.26"/><text class="cls-1" transform="translate(489.19 545.99)">24,165</text><path class="cls-7" d="M596.28,501.36H504.59a11.32,11.32,0,0,1-11.32-11.31v-2.43a4,4,0,0,1,4-4v-18.1a9.21,9.21,0,0,1,9.21-9.22h36.76A19.73,19.73,0,0,1,557.21,462l9.15,9.15h16a11.57,11.57,0,0,1,10.75,7.27l2.61,6.47a6.2,6.2,0,0,1,6.2,6.21v4.61a5.61,5.61,0,0,1-5.61,5.61"/><path class="cls-5" d="M515.73,458h-8.24a8.49,8.49,0,0,0-8.49,8.49v6.42h16.73V458"/><path class="cls-5" d="M564.35,471.52v27h-34.7A13.49,13.49,0,0,0,516.15,485h-.42V458h27.74a16.51,16.51,0,0,1,11.42,4.57l9.46,9"/><path class="cls-7" d="M561.83,471.52,555,464.64A16,16,0,0,0,543.64,460H507.55a6.85,6.85,0,0,0-6.85,6.84v4.72h61.13"/><path class="cls-8" d="M524.63,477.17a2.23,2.23,0,0,1-.88,1.86,3.48,3.48,0,0,1-2.19.65h-2.63v3.81h-1.24v-8.82h3.87a3.57,3.57,0,0,1,2.2.61A2.23,2.23,0,0,1,524.63,477.17Zm-1.28,0c0-.91-.6-1.36-1.81-1.36h-2.61v2.71h2.61C522.75,478.52,523.35,478.07,523.35,477.17Z"/><path class="cls-8" d="M533.61,479.06a4.89,4.89,0,0,1-1,3.18,3.54,3.54,0,0,1-2.92,1.35,3.59,3.59,0,0,1-2.94-1.35,5.5,5.5,0,0,1,0-6.35,3.58,3.58,0,0,1,2.94-1.34,3.53,3.53,0,0,1,2.92,1.34A4.84,4.84,0,0,1,533.61,479.06Zm-1.28,0a3.77,3.77,0,0,0-.74-2.43,2.53,2.53,0,0,0-3.85,0,4.38,4.38,0,0,0,0,4.86,2.46,2.46,0,0,0,3.84,0A3.73,3.73,0,0,0,532.33,479.06Z"/><path class="cls-8" d="M541.9,483.49h-7.09v-8.82h1.24v7.67h5.85Z"/><path class="cls-8" d="M544.74,483.49h-1.27v-8.82h1.27Z"/><path class="cls-8" d="M554,476.8l-1.14.45a2.37,2.37,0,0,0-2.39-1.51,2.64,2.64,0,0,0-2,.83,3.66,3.66,0,0,0-.9,2.61,3.36,3.36,0,0,0,.87,2.51,2.42,2.42,0,0,0,1.77.71,2.64,2.64,0,0,0,2.56-1.76l1.06.47a4.63,4.63,0,0,1-1.33,1.82,3.81,3.81,0,0,1-2.29.66,3.68,3.68,0,0,1-2.77-1.1,4.61,4.61,0,0,1-1.14-3.31,4.87,4.87,0,0,1,1.18-3.32,3.82,3.82,0,0,1,3-1.33A3.54,3.54,0,0,1,554,476.8Z"/><path class="cls-8" d="M561.72,483.49h-6.54v-8.82h6.54v1.14H556.4v2.59h4.83v1.16H556.4v2.78h5.32Z"/><path class="cls-5" d="M592.15,476.63h-9v.26a8.09,8.09,0,0,0,8.1,8.1h4.47l-3.54-8.36Z"/><polygon class="cls-5" points="541.06 456.27 541.06 453.7 530.33 453.7 530.33 456.27 541.06 456.27 541.06 456.27"/><path class="cls-9" d="M541.06,453.7s-.49-5.09-5.36-5.36-5.37,5.36-5.37,5.36h10.73"/><polygon class="cls-9" points="497.38 474.04 500.61 474.04 500.61 483.59 497.34 483.59 497.38 474.04 497.38 474.04"/><path class="cls-10" d="M504.59,501.36h91.69a5.61,5.61,0,0,0,5.61-5.61h0a5.61,5.61,0,0,1-5.61,5.61H504.59m0,0h0m0,0h0m0,0h0m0,0h0m0,0h0m0,0h0m0,0h0m0,0h0m0,0h0m-.1,0h0"/><path class="cls-11" d="M504.59,501.36h91.69a5.61,5.61,0,0,0,5.61-5.61V492s-1.22,1.6-5.69,1.6h0c-4.47,0-15.31-3.58-18.27-4.25-1.9-.43-6.16-2.15-10.59-2.15a14.28,14.28,0,0,0-3,.3v11h-34.7a13.48,13.48,0,0,0-5.15-10.6,21.79,21.79,0,0,0-6.53,1.66,50.51,50.51,0,0,1-18.23,4,11.47,11.47,0,0,1-3.45-.38,13.13,13.13,0,0,1-2.9-1.58,11.3,11.3,0,0,0,10.93,9.79h.27"/><path class="cls-10" d="M529.65,498.51h34.7v-11a10.83,10.83,0,0,0-4.25,1.85,24.2,24.2,0,0,1-13.62,4.7,12.63,12.63,0,0,1-6.44-1.57c-3.67-2.17-8.22-4.65-13.85-4.65-.55,0-1.12,0-1.69.08a13.48,13.48,0,0,1,5.15,10.6"/><path class="cls-5" d="M543.68,460h0m0,0h0"/><path class="cls-12" d="M547.76,471.52h9.88L546.3,460.18a16.35,16.35,0,0,0-2.62-.22h-7.49l11.57,11.56"/><polyline class="cls-12" points="539.3 471.52 544.95 471.52 533.39 459.96 527.74 459.96 539.3 471.52"/><polyline class="cls-12" points="520.79 471.52 530.66 471.52 519.1 459.96 509.22 459.96 520.79 471.52"/><path class="cls-12" d="M512.33,471.52H518L506.5,460.05a6.79,6.79,0,0,0-3.76,1.88l9.59,9.59"/><path class="cls-12" d="M588.91,475.38a6.72,6.72,0,0,0-.68-.68,9.16,9.16,0,0,0-2.15-1.4,7.88,7.88,0,0,0-1.64-.56,9.67,9.67,0,0,0-1.88-.17h0c-1.31,0-2.71,0-4.1,0h-2.09c-.68,0-1.36,0-2,0-1.31,0-2.53.06-3.58.1s-1.92.1-2.53.13l-1,.06,1,.07c.61,0,1.48.09,2.53.13s2.27.08,3.58.1c.65,0,1.33,0,2,0h2.09c1.39,0,2.79,0,4.1,0h.57a8.61,8.61,0,0,1,1.26.08,9.23,9.23,0,0,1,1.59.42,11,11,0,0,1,2.21,1.15,9.37,9.37,0,0,1,.76.58"/><path class="cls-13" d="M539.54,452.71a2.33,2.33,0,0,0-.06-.8,3.43,3.43,0,0,0-.83-1.55,2.82,2.82,0,0,0-.36-.33,2.48,2.48,0,0,0-.39-.27,1.75,1.75,0,0,0-.39-.19,1.36,1.36,0,0,0-.37-.13,2,2,0,0,0-.57-.08h-.22a1.08,1.08,0,0,0,.17.13l.21.14a2.79,2.79,0,0,1,.25.17c.09.07.19.13.28.21a2.34,2.34,0,0,1,.3.25c.1.09.21.17.31.27s.2.19.29.3a2.8,2.8,0,0,1,.28.31c.09.1.17.22.26.32s.16.21.23.32.13.2.2.29c.24.37.41.65.41.65"/><path class="cls-12" d="M494.53,488a4.61,4.61,0,0,1,.73-.62l.37-.25c.13-.09.29-.15.44-.24s.31-.16.48-.23.33-.15.51-.21.34-.13.52-.18a5,5,0,0,1,.51-.16l.49-.15c.16,0,.31-.08.45-.12l.68-.18.27-.09-.27,0a4.94,4.94,0,0,0-.68-.07h-.18a5.78,5.78,0,0,0-.89.07,4.48,4.48,0,0,0-.57.12,4.17,4.17,0,0,0-.57.18,3.53,3.53,0,0,0-.56.25,4.14,4.14,0,0,0-.5.3,3.15,3.15,0,0,0-.43.36,3.75,3.75,0,0,0-.34.36,2.92,2.92,0,0,0-.38.64,1.87,1.87,0,0,0-.08.26"/><path class="cls-8" d="M540.72,456.27V453.7a5,5,0,1,0-10.05,0v2.57H530V453.7a5.7,5.7,0,1,1,11.4,0v2.57Z"/><polyline class="cls-8" points="541.06 454.03 530.33 454.03 530.33 453.36 541.06 453.36"/><path class="cls-8" d="M596.28,501.36v.34H504.59a11.65,11.65,0,0,1-11.65-11.65v-2.43a4.36,4.36,0,0,1,4.36-4.36v.33H497v-18.1a9.56,9.56,0,0,1,9.55-9.56h36.76a20.06,20.06,0,0,1,14.18,5.88l9,9h15.83a11.93,11.93,0,0,1,11.07,7.48l2.6,6.48-.31.12v-.33a6.54,6.54,0,0,1,6.54,6.54v4.61a6,6,0,0,1-6,5.95V501a5.29,5.29,0,0,0,5.28-5.28v-4.61a5.87,5.87,0,0,0-5.87-5.87h-.22l-2.7-6.69a11.26,11.26,0,0,0-10.44-7.06H566.22L557,462.28a19.43,19.43,0,0,0-13.71-5.68H506.51a8.89,8.89,0,0,0-8.88,8.89v18.44h-.33a3.69,3.69,0,0,0-3.69,3.69v2.43a11,11,0,0,0,11,11h91.69v.33Z"/><path class="cls-7" d="M501.88,499.86a12.46,12.46,0,1,0,12.46-12.46,12.46,12.46,0,0,0-12.46,12.46Z"/><path class="cls-14" d="M506.48,499.86a7.86,7.86,0,1,0,7.86-7.86,7.86,7.86,0,0,0-7.86,7.86Z"/><path class="cls-15" d="M508.08,499.86a6.26,6.26,0,1,0,6.26-6.26,6.26,6.26,0,0,0-6.26,6.26Z"/><path class="cls-14" d="M511.21,499.86a3.13,3.13,0,1,0,3.13-3.13,3.13,3.13,0,0,0-3.13,3.13Z"/><path class="cls-8" d="M501.88,499.86h.38a12.09,12.09,0,1,0,3.54-8.54,12,12,0,0,0-3.54,8.54h-.77a12.85,12.85,0,1,1,12.85,12.84,12.86,12.86,0,0,1-12.85-12.84Z"/><path class="cls-7" d="M568.59,499.86a12.46,12.46,0,1,0,12.46-12.46,12.46,12.46,0,0,0-12.46,12.46Z"/><path class="cls-14" d="M573.19,499.86a7.86,7.86,0,1,0,7.86-7.86,7.86,7.86,0,0,0-7.86,7.86Z"/><path class="cls-15" d="M574.79,499.86a6.26,6.26,0,1,0,6.26-6.26,6.26,6.26,0,0,0-6.26,6.26Z"/><path class="cls-14" d="M577.92,499.86a3.13,3.13,0,1,0,3.13-3.13,3.13,3.13,0,0,0-3.13,3.13Z"/><path class="cls-8" d="M568.59,499.86H569a12.07,12.07,0,1,0,3.53-8.54,12.07,12.07,0,0,0-3.53,8.54h-.77a12.85,12.85,0,1,1,12.84,12.84,12.86,12.86,0,0,1-12.84-12.84Z"/><path class="cls-8" d="M592.14,477h-9v-.33h.34a8,8,0,0,0,8,8h4.21v.67h-4.21a8.7,8.7,0,0,1-8.7-8.69v-.34h9.36V477Z"/><path class="cls-8" d="M561.83,471.52l-.24.24-6.87-6.88a15.68,15.68,0,0,0-11.08-4.59H507.55A6.52,6.52,0,0,0,501,466.8v4.39h60.79v.33l-.24.24.24-.24v.34H500.37V466.8a7.18,7.18,0,0,1,7.18-7.18h36.09a16.31,16.31,0,0,1,11.55,4.79l7.45,7.45h-.81v-.34Z"/><path class="cls-8" d="M564.35,471.52h.33v27.33H529.31v-.34a13.16,13.16,0,0,0-13.16-13.16h-.75V457.61h28.07a16.94,16.94,0,0,1,11.66,4.66l9.55,9.11v.14h-.33l-.24.25-9.45-9a16.18,16.18,0,0,0-11.19-4.48h-27.4v26.4h.08A13.83,13.83,0,0,1,530,498.51h-.33v-.33H564V471.52h.34l-.24.25.24-.25Z"/><polyline class="cls-8" points="536.97 457.95 536.97 498.51 536.3 498.51 536.3 457.95"/><polygon class="cls-8" points="497.3 483.26 500.37 483.26 500.37 474.37 497.3 474.37 497.3 473.7 501.04 473.7 501.04 483.93 497.3 483.93 497.3 483.26 497.3 483.26"/><text class="cls-1" transform="translate(506.19 690.99)">24,769</text><path class="cls-7" d="M613.28,646.36H521.59a11.32,11.32,0,0,1-11.32-11.31v-2.43a4,4,0,0,1,4-4v-18.1a9.21,9.21,0,0,1,9.21-9.22h36.76A19.73,19.73,0,0,1,574.21,607l9.15,9.15h16a11.57,11.57,0,0,1,10.75,7.27l2.61,6.47a6.2,6.2,0,0,1,6.2,6.21v4.61a5.61,5.61,0,0,1-5.61,5.61"/><path class="cls-5" d="M532.73,603h-8.24a8.49,8.49,0,0,0-8.49,8.49v6.42h16.73V603"/><path class="cls-5" d="M581.35,616.52v27h-34.7A13.49,13.49,0,0,0,533.15,630h-.42V603h27.74a16.51,16.51,0,0,1,11.42,4.57l9.46,9"/><path class="cls-7" d="M578.83,616.52,572,609.64A16,16,0,0,0,560.64,605H524.55a6.85,6.85,0,0,0-6.85,6.84v4.72h61.13"/><path class="cls-8" d="M541.63,622.17a2.23,2.23,0,0,1-.88,1.86,3.48,3.48,0,0,1-2.19.65h-2.63v3.81h-1.24v-8.82h3.87a3.57,3.57,0,0,1,2.2.61A2.23,2.23,0,0,1,541.63,622.17Zm-1.28,0c0-.91-.6-1.36-1.81-1.36h-2.61v2.71h2.61C539.75,623.52,540.35,623.07,540.35,622.17Z"/><path class="cls-8" d="M550.61,624.06a4.89,4.89,0,0,1-1,3.18,3.54,3.54,0,0,1-2.92,1.35,3.59,3.59,0,0,1-2.94-1.35,5.5,5.5,0,0,1,0-6.35,3.58,3.58,0,0,1,2.94-1.34,3.53,3.53,0,0,1,2.92,1.34A4.84,4.84,0,0,1,550.61,624.06Zm-1.28,0a3.77,3.77,0,0,0-.74-2.43,2.53,2.53,0,0,0-3.85,0,4.38,4.38,0,0,0,0,4.86,2.46,2.46,0,0,0,3.84,0A3.73,3.73,0,0,0,549.33,624.06Z"/><path class="cls-8" d="M558.9,628.49h-7.09v-8.82h1.24v7.67h5.85Z"/><path class="cls-8" d="M561.74,628.49h-1.27v-8.82h1.27Z"/><path class="cls-8" d="M571,621.8l-1.14.45a2.37,2.37,0,0,0-2.39-1.51,2.64,2.64,0,0,0-2,.83,3.66,3.66,0,0,0-.9,2.61,3.36,3.36,0,0,0,.87,2.51,2.42,2.42,0,0,0,1.77.71,2.64,2.64,0,0,0,2.56-1.76l1.06.47a4.63,4.63,0,0,1-1.33,1.82,3.81,3.81,0,0,1-2.29.66,3.68,3.68,0,0,1-2.77-1.1,4.61,4.61,0,0,1-1.14-3.31,4.87,4.87,0,0,1,1.18-3.32,3.82,3.82,0,0,1,3-1.33A3.54,3.54,0,0,1,571,621.8Z"/><path class="cls-8" d="M578.72,628.49h-6.54v-8.82h6.54v1.14H573.4v2.59h4.83v1.16H573.4v2.78h5.32Z"/><path class="cls-5" d="M609.15,621.63h-9v.26a8.09,8.09,0,0,0,8.1,8.1h4.47l-3.54-8.36Z"/><polygon class="cls-5" points="558.06 601.27 558.06 598.7 547.33 598.7 547.33 601.27 558.06 601.27 558.06 601.27"/><path class="cls-9" d="M558.06,598.7s-.49-5.09-5.36-5.36-5.37,5.36-5.37,5.36h10.73"/><polygon class="cls-9" points="514.38 619.04 517.61 619.04 517.61 628.59 514.34 628.59 514.38 619.04 514.38 619.04"/><path class="cls-10" d="M521.59,646.36h91.69a5.61,5.61,0,0,0,5.61-5.61h0a5.61,5.61,0,0,1-5.61,5.61H521.59m0,0h0m0,0h0m0,0h0m0,0h0m0,0h0m0,0h0m0,0h0m0,0h0m0,0h0m-.1,0h0"/><path class="cls-11" d="M521.59,646.36h91.69a5.61,5.61,0,0,0,5.61-5.61V637s-1.22,1.6-5.69,1.6h0c-4.47,0-15.31-3.58-18.27-4.25-1.9-.43-6.16-2.15-10.59-2.15a14.28,14.28,0,0,0-3,.3v11h-34.7a13.48,13.48,0,0,0-5.15-10.6,21.79,21.79,0,0,0-6.53,1.66,50.51,50.51,0,0,1-18.23,4,11.47,11.47,0,0,1-3.45-.38,13.13,13.13,0,0,1-2.9-1.58,11.3,11.3,0,0,0,10.93,9.79h.27"/><path class="cls-10" d="M546.65,643.51h34.7v-11a10.83,10.83,0,0,0-4.25,1.85,24.2,24.2,0,0,1-13.62,4.7,12.63,12.63,0,0,1-6.44-1.57c-3.67-2.17-8.22-4.65-13.85-4.65-.55,0-1.12,0-1.69.08a13.48,13.48,0,0,1,5.15,10.6"/><path class="cls-5" d="M560.68,605h0m0,0h0"/><path class="cls-12" d="M564.76,616.52h9.88L563.3,605.18a16.35,16.35,0,0,0-2.62-.22h-7.49l11.57,11.56"/><polyline class="cls-12" points="556.3 616.52 561.95 616.52 550.39 604.96 544.74 604.96 556.3 616.52"/><polyline class="cls-12" points="537.79 616.52 547.66 616.52 536.1 604.96 526.22 604.96 537.79 616.52"/><path class="cls-12" d="M529.33,616.52H535L523.5,605.05a6.79,6.79,0,0,0-3.76,1.88l9.59,9.59"/><path class="cls-12" d="M605.91,620.38a6.72,6.72,0,0,0-.68-.68,9.16,9.16,0,0,0-2.15-1.4,7.88,7.88,0,0,0-1.64-.56,9.67,9.67,0,0,0-1.88-.17h0c-1.31,0-2.71,0-4.1,0h-2.09c-.68,0-1.36,0-2,0-1.31,0-2.53.06-3.58.1s-1.92.1-2.53.13l-1,.06,1,.07c.61,0,1.48.09,2.53.13s2.27.08,3.58.1c.65,0,1.33,0,2,0h2.09c1.39,0,2.79,0,4.1,0h.57a8.61,8.61,0,0,1,1.26.08,9.23,9.23,0,0,1,1.59.42,11,11,0,0,1,2.21,1.15,9.37,9.37,0,0,1,.76.58"/><path class="cls-13" d="M556.54,597.71a2.33,2.33,0,0,0-.06-.8,3.43,3.43,0,0,0-.83-1.55,2.82,2.82,0,0,0-.36-.33,2.48,2.48,0,0,0-.39-.27,1.75,1.75,0,0,0-.39-.19,1.36,1.36,0,0,0-.37-.13,2,2,0,0,0-.57-.08h-.22a1.08,1.08,0,0,0,.17.13l.21.14a2.79,2.79,0,0,1,.25.17c.09.07.19.13.28.21a2.34,2.34,0,0,1,.3.25c.1.09.21.17.31.27s.2.19.29.3a2.8,2.8,0,0,1,.28.31c.09.1.17.22.26.32s.16.21.23.32.13.2.2.29c.24.37.41.65.41.65"/><path class="cls-12" d="M511.53,633a4.61,4.61,0,0,1,.73-.62l.37-.25c.13-.09.29-.15.44-.24s.31-.16.48-.23.33-.15.51-.21.34-.13.52-.18a5,5,0,0,1,.51-.16l.49-.15c.16,0,.31-.08.45-.12l.68-.18.27-.09-.27,0a4.94,4.94,0,0,0-.68-.07h-.18a5.78,5.78,0,0,0-.89.07,4.48,4.48,0,0,0-.57.12,4.17,4.17,0,0,0-.57.18,3.53,3.53,0,0,0-.56.25,4.14,4.14,0,0,0-.5.3,3.15,3.15,0,0,0-.43.36,3.75,3.75,0,0,0-.34.36,2.92,2.92,0,0,0-.38.64,1.87,1.87,0,0,0-.08.26"/><path class="cls-8" d="M557.72,601.27V598.7a5,5,0,1,0-10.05,0v2.57H547V598.7a5.7,5.7,0,1,1,11.4,0v2.57Z"/><polyline class="cls-8" points="558.06 599.03 547.33 599.03 547.33 598.36 558.06 598.36"/><path class="cls-8" d="M613.28,646.36v.34H521.59a11.65,11.65,0,0,1-11.65-11.65v-2.43a4.36,4.36,0,0,1,4.36-4.36v.33H514v-18.1a9.56,9.56,0,0,1,9.55-9.56h36.76a20.06,20.06,0,0,1,14.18,5.88l9,9h15.83a11.93,11.93,0,0,1,11.07,7.48l2.6,6.48-.31.12v-.33a6.54,6.54,0,0,1,6.54,6.54v4.61a6,6,0,0,1-6,6V646a5.29,5.29,0,0,0,5.28-5.28v-4.61a5.87,5.87,0,0,0-5.87-5.87h-.22l-2.7-6.69a11.26,11.26,0,0,0-10.44-7.06H583.22L574,607.28a19.43,19.43,0,0,0-13.71-5.68H523.51a8.89,8.89,0,0,0-8.88,8.89v18.44h-.33a3.69,3.69,0,0,0-3.69,3.69v2.43a11,11,0,0,0,11,11h91.69v.33Z"/><path class="cls-7" d="M518.88,644.86a12.46,12.46,0,1,0,12.46-12.46,12.46,12.46,0,0,0-12.46,12.46Z"/><path class="cls-14" d="M523.48,644.86a7.86,7.86,0,1,0,7.86-7.86,7.86,7.86,0,0,0-7.86,7.86Z"/><path class="cls-15" d="M525.08,644.86a6.26,6.26,0,1,0,6.26-6.26,6.26,6.26,0,0,0-6.26,6.26Z"/><path class="cls-14" d="M528.21,644.86a3.13,3.13,0,1,0,3.13-3.13,3.13,3.13,0,0,0-3.13,3.13Z"/><path class="cls-8" d="M518.88,644.86h.38a12.09,12.09,0,1,0,3.54-8.54,12,12,0,0,0-3.54,8.54h-.77a12.85,12.85,0,1,1,12.85,12.84,12.86,12.86,0,0,1-12.85-12.84Z"/><path class="cls-7" d="M585.59,644.86a12.46,12.46,0,1,0,12.46-12.46,12.46,12.46,0,0,0-12.46,12.46Z"/><path class="cls-14" d="M590.19,644.86a7.86,7.86,0,1,0,7.86-7.86,7.86,7.86,0,0,0-7.86,7.86Z"/><path class="cls-15" d="M591.79,644.86a6.26,6.26,0,1,0,6.26-6.26,6.26,6.26,0,0,0-6.26,6.26Z"/><path class="cls-14" d="M594.92,644.86a3.13,3.13,0,1,0,3.13-3.13,3.13,3.13,0,0,0-3.13,3.13Z"/><path class="cls-8" d="M585.59,644.86H586a12.07,12.07,0,1,0,3.53-8.54,12.07,12.07,0,0,0-3.53,8.54h-.77a12.85,12.85,0,1,1,12.84,12.84,12.86,12.86,0,0,1-12.84-12.84Z"/><path class="cls-8" d="M609.14,622h-9v-.33h.34a8,8,0,0,0,8,8h4.21v.67h-4.21a8.7,8.7,0,0,1-8.7-8.69v-.34h9.36V622Z"/><path class="cls-8" d="M578.83,616.52l-.24.24-6.87-6.88a15.68,15.68,0,0,0-11.08-4.59H524.55A6.52,6.52,0,0,0,518,611.8v4.39h60.79v.33l-.24.24.24-.24v.34H517.37V611.8a7.18,7.18,0,0,1,7.18-7.18h36.09a16.31,16.31,0,0,1,11.55,4.79l7.45,7.45h-.81v-.34Z"/><path class="cls-8" d="M581.35,616.52h.33v27.33H546.31v-.34a13.16,13.16,0,0,0-13.16-13.16h-.75V602.61h28.07a16.94,16.94,0,0,1,11.66,4.66l9.55,9.11v.14h-.33l-.24.25-9.45-9a16.18,16.18,0,0,0-11.19-4.48h-27.4v26.4h.08A13.83,13.83,0,0,1,547,643.51h-.33v-.33H581V616.52h.34l-.24.25.24-.25Z"/><polyline class="cls-8" points="553.97 602.95 553.97 643.51 553.3 643.51 553.3 602.95"/><polygon class="cls-8" points="514.29 628.26 517.37 628.26 517.37 619.37 514.29 619.37 514.29 618.7 518.04 618.7 518.04 628.93 514.29 628.93 514.29 628.26 514.29 628.26"/><text class="cls-1" transform="translate(553.19 841.99)">25,967</text><path class="cls-7" d="M660.28,797.36H568.59a11.32,11.32,0,0,1-11.32-11.31v-2.43a4,4,0,0,1,4-4v-18.1a9.21,9.21,0,0,1,9.21-9.22h36.76A19.73,19.73,0,0,1,621.21,758l9.15,9.15h16a11.57,11.57,0,0,1,10.75,7.27l2.61,6.47a6.2,6.2,0,0,1,6.2,6.21v4.61a5.61,5.61,0,0,1-5.61,5.61"/><path class="cls-5" d="M579.73,754h-8.24a8.49,8.49,0,0,0-8.49,8.49v6.42h16.73V754"/><path class="cls-5" d="M628.35,767.52v27h-34.7A13.49,13.49,0,0,0,580.15,781h-.42V754h27.74a16.51,16.51,0,0,1,11.42,4.57l9.46,9"/><path class="cls-7" d="M625.83,767.52,619,760.64A16,16,0,0,0,607.64,756H571.55a6.85,6.85,0,0,0-6.85,6.84v4.72h61.13"/><path class="cls-8" d="M588.63,773.17a2.23,2.23,0,0,1-.88,1.86,3.48,3.48,0,0,1-2.19.65h-2.63v3.81h-1.24v-8.82h3.87a3.57,3.57,0,0,1,2.2.61A2.23,2.23,0,0,1,588.63,773.17Zm-1.28,0c0-.91-.6-1.36-1.81-1.36h-2.61v2.71h2.61C586.75,774.52,587.35,774.07,587.35,773.17Z"/><path class="cls-8" d="M597.61,775.06a4.89,4.89,0,0,1-1,3.18,3.54,3.54,0,0,1-2.92,1.35,3.59,3.59,0,0,1-2.94-1.35,5.5,5.5,0,0,1,0-6.35,3.58,3.58,0,0,1,2.94-1.34,3.53,3.53,0,0,1,2.92,1.34A4.84,4.84,0,0,1,597.61,775.06Zm-1.28,0a3.77,3.77,0,0,0-.74-2.43,2.53,2.53,0,0,0-3.85,0,4.38,4.38,0,0,0,0,4.86,2.46,2.46,0,0,0,3.84,0A3.73,3.73,0,0,0,596.33,775.06Z"/><path class="cls-8" d="M605.9,779.49h-7.09v-8.82h1.24v7.67h5.85Z"/><path class="cls-8" d="M608.74,779.49h-1.27v-8.82h1.27Z"/><path class="cls-8" d="M618,772.8l-1.14.45a2.37,2.37,0,0,0-2.39-1.51,2.64,2.64,0,0,0-2,.83,3.66,3.66,0,0,0-.9,2.61,3.36,3.36,0,0,0,.87,2.51,2.42,2.42,0,0,0,1.77.71,2.64,2.64,0,0,0,2.56-1.76l1.06.47a4.63,4.63,0,0,1-1.33,1.82,3.81,3.81,0,0,1-2.29.66,3.68,3.68,0,0,1-2.77-1.1,4.61,4.61,0,0,1-1.14-3.31,4.87,4.87,0,0,1,1.18-3.32,3.82,3.82,0,0,1,3-1.33A3.54,3.54,0,0,1,618,772.8Z"/><path class="cls-8" d="M625.72,779.49h-6.54v-8.82h6.54v1.14H620.4v2.59h4.83v1.16H620.4v2.78h5.32Z"/><path class="cls-5" d="M656.15,772.63h-9v.26a8.09,8.09,0,0,0,8.1,8.1h4.47l-3.54-8.36Z"/><polygon class="cls-5" points="605.06 752.27 605.06 749.7 594.33 749.7 594.33 752.27 605.06 752.27 605.06 752.27"/><path class="cls-9" d="M605.06,749.7s-.49-5.09-5.36-5.36-5.37,5.36-5.37,5.36h10.73"/><polygon class="cls-9" points="561.38 770.04 564.61 770.04 564.61 779.59 561.34 779.59 561.38 770.04 561.38 770.04"/><path class="cls-10" d="M568.59,797.36h91.69a5.61,5.61,0,0,0,5.61-5.61h0a5.61,5.61,0,0,1-5.61,5.61H568.59m0,0h0m0,0h0m0,0h0m0,0h0m0,0h0m0,0h0m0,0h0m0,0h0m0,0h0m-.1,0h0"/><path class="cls-11" d="M568.59,797.36h91.69a5.61,5.61,0,0,0,5.61-5.61V788s-1.22,1.6-5.69,1.6h0c-4.47,0-15.31-3.58-18.27-4.25-1.9-.43-6.16-2.15-10.59-2.15a14.28,14.28,0,0,0-3,.3v11h-34.7a13.48,13.48,0,0,0-5.15-10.6,21.79,21.79,0,0,0-6.53,1.66,50.51,50.51,0,0,1-18.23,4,11.47,11.47,0,0,1-3.45-.38,13.13,13.13,0,0,1-2.9-1.58,11.3,11.3,0,0,0,10.93,9.79h.27"/><path class="cls-10" d="M593.65,794.51h34.7v-11a10.83,10.83,0,0,0-4.25,1.85,24.2,24.2,0,0,1-13.62,4.7,12.63,12.63,0,0,1-6.44-1.57c-3.67-2.17-8.22-4.65-13.85-4.65-.55,0-1.12,0-1.69.08a13.48,13.48,0,0,1,5.15,10.6"/><path class="cls-5" d="M607.68,756h0m0,0h0"/><path class="cls-12" d="M611.76,767.52h9.88L610.3,756.18a16.35,16.35,0,0,0-2.62-.22h-7.49l11.57,11.56"/><polyline class="cls-12" points="603.3 767.52 608.95 767.52 597.39 755.96 591.74 755.96 603.3 767.52"/><polyline class="cls-12" points="584.79 767.52 594.66 767.52 583.1 755.96 573.22 755.96 584.79 767.52"/><path class="cls-12" d="M576.33,767.52H582L570.5,756.05a6.79,6.79,0,0,0-3.76,1.88l9.59,9.59"/><path class="cls-12" d="M652.91,771.38a6.72,6.72,0,0,0-.68-.68,9.16,9.16,0,0,0-2.15-1.4,7.88,7.88,0,0,0-1.64-.56,9.67,9.67,0,0,0-1.88-.17h0c-1.31,0-2.71,0-4.1,0h-2.09c-.68,0-1.36,0-2,0-1.31,0-2.53.06-3.58.1s-1.92.1-2.53.13l-1,.06,1,.07c.61,0,1.48.09,2.53.13s2.27.08,3.58.1c.65,0,1.33,0,2,0h2.09c1.39,0,2.79,0,4.1,0h.57a8.61,8.61,0,0,1,1.26.08,9.23,9.23,0,0,1,1.59.42,11,11,0,0,1,2.21,1.15,9.37,9.37,0,0,1,.76.58"/><path class="cls-13" d="M603.54,748.71a2.33,2.33,0,0,0-.06-.8,3.43,3.43,0,0,0-.83-1.55,2.82,2.82,0,0,0-.36-.33,2.48,2.48,0,0,0-.39-.27,1.75,1.75,0,0,0-.39-.19,1.36,1.36,0,0,0-.37-.13,2,2,0,0,0-.57-.08h-.22a1.08,1.08,0,0,0,.17.13l.21.14a2.79,2.79,0,0,1,.25.17c.09.07.19.13.28.21a2.34,2.34,0,0,1,.3.25c.1.09.21.17.31.27s.2.19.29.3a2.8,2.8,0,0,1,.28.31c.09.1.17.22.26.32s.16.21.23.32.13.2.2.29c.24.37.41.65.41.65"/><path class="cls-12" d="M558.53,784a4.61,4.61,0,0,1,.73-.62l.37-.25c.13-.09.29-.15.44-.24s.31-.16.48-.23.33-.15.51-.21.34-.13.52-.18a5,5,0,0,1,.51-.16l.49-.15c.16,0,.31-.08.45-.12l.68-.18.27-.09-.27,0a4.94,4.94,0,0,0-.68-.07h-.18a5.78,5.78,0,0,0-.89.07,4.48,4.48,0,0,0-.57.12,4.17,4.17,0,0,0-.57.18,3.53,3.53,0,0,0-.56.25,4.14,4.14,0,0,0-.5.3,3.15,3.15,0,0,0-.43.36,3.75,3.75,0,0,0-.34.36,2.92,2.92,0,0,0-.38.64,1.87,1.87,0,0,0-.08.26"/><path class="cls-8" d="M604.72,752.27V749.7a5,5,0,1,0-10.05,0v2.57H594V749.7a5.7,5.7,0,1,1,11.4,0v2.57Z"/><polyline class="cls-8" points="605.06 750.03 594.33 750.03 594.33 749.36 605.06 749.36"/><path class="cls-8" d="M660.28,797.36v.34H568.59a11.65,11.65,0,0,1-11.65-11.65v-2.43a4.36,4.36,0,0,1,4.36-4.36v.33H561v-18.1a9.56,9.56,0,0,1,9.55-9.56h36.76a20.06,20.06,0,0,1,14.18,5.88l9,9h15.83a11.93,11.93,0,0,1,11.07,7.48l2.6,6.48-.31.12v-.33a6.54,6.54,0,0,1,6.54,6.54v4.61a6,6,0,0,1-6,6V797a5.29,5.29,0,0,0,5.28-5.28v-4.61a5.87,5.87,0,0,0-5.87-5.87h-.22l-2.7-6.69a11.26,11.26,0,0,0-10.44-7.06H630.22L621,758.28a19.43,19.43,0,0,0-13.71-5.68H570.51a8.89,8.89,0,0,0-8.88,8.89v18.44h-.33a3.69,3.69,0,0,0-3.69,3.69v2.43a11,11,0,0,0,11,11h91.69v.33Z"/><path class="cls-7" d="M565.88,795.86a12.46,12.46,0,1,0,12.46-12.46,12.46,12.46,0,0,0-12.46,12.46Z"/><path class="cls-14" d="M570.48,795.86a7.86,7.86,0,1,0,7.86-7.86,7.86,7.86,0,0,0-7.86,7.86Z"/><path class="cls-15" d="M572.08,795.86a6.26,6.26,0,1,0,6.26-6.26,6.26,6.26,0,0,0-6.26,6.26Z"/><path class="cls-14" d="M575.21,795.86a3.13,3.13,0,1,0,3.13-3.13,3.13,3.13,0,0,0-3.13,3.13Z"/><path class="cls-8" d="M565.88,795.86h.38a12.09,12.09,0,1,0,3.54-8.54,12,12,0,0,0-3.54,8.54h-.77a12.85,12.85,0,1,1,12.85,12.84,12.86,12.86,0,0,1-12.85-12.84Z"/><path class="cls-7" d="M632.59,795.86a12.46,12.46,0,1,0,12.46-12.46,12.46,12.46,0,0,0-12.46,12.46Z"/><path class="cls-14" d="M637.19,795.86a7.86,7.86,0,1,0,7.86-7.86,7.86,7.86,0,0,0-7.86,7.86Z"/><path class="cls-15" d="M638.79,795.86a6.26,6.26,0,1,0,6.26-6.26,6.26,6.26,0,0,0-6.26,6.26Z"/><path class="cls-14" d="M641.92,795.86a3.13,3.13,0,1,0,3.13-3.13,3.13,3.13,0,0,0-3.13,3.13Z"/><path class="cls-8" d="M632.59,795.86H633a12.07,12.07,0,1,0,3.53-8.54,12.07,12.07,0,0,0-3.53,8.54h-.77a12.85,12.85,0,1,1,12.84,12.84,12.86,12.86,0,0,1-12.84-12.84Z"/><path class="cls-8" d="M656.14,773h-9v-.33h.34a8,8,0,0,0,8,8h4.21v.67h-4.21a8.7,8.7,0,0,1-8.7-8.69v-.34h9.36V773Z"/><path class="cls-8" d="M625.83,767.52l-.24.24-6.87-6.88a15.68,15.68,0,0,0-11.08-4.59H571.55A6.52,6.52,0,0,0,565,762.8v4.39h60.79v.33l-.24.24.24-.24v.34H564.37V762.8a7.18,7.18,0,0,1,7.18-7.18h36.09a16.31,16.31,0,0,1,11.55,4.79l7.45,7.45h-.81v-.34Z"/><path class="cls-8" d="M628.35,767.52h.33v27.33H593.31v-.34a13.16,13.16,0,0,0-13.16-13.16h-.75V753.61h28.07a16.94,16.94,0,0,1,11.66,4.66l9.55,9.11v.14h-.33l-.24.25-9.45-9a16.18,16.18,0,0,0-11.19-4.48h-27.4v26.4h.08A13.83,13.83,0,0,1,594,794.51h-.33v-.33H628V767.52h.34l-.24.25.24-.25Z"/><polyline class="cls-8" points="600.97 753.95 600.97 794.51 600.3 794.51 600.3 753.95"/><polygon class="cls-8" points="561.29 779.26 564.37 779.26 564.37 770.37 561.29 770.37 561.29 769.7 565.04 769.7 565.04 779.93 561.29 779.93 561.29 779.26 561.29 779.26"/></g></g></svg>