<svg xmlns="http://www.w3.org/2000/svg" viewBox="0 0 1280.43 1129.91"><defs><style>.cls-1,.cls-5{font-size:35px;}.cls-1,.cls-4{fill:#fff;}.cls-1,.cls-5,.cls-9{font-family:NotoSansCJKtc-Regular-B5pc-H, Noto Sans CJK TC;}.cls-2{fill:none;stroke:#fff;stroke-miterlimit:10;stroke-width:2px;}.cls-3,.cls-5{fill:#efa543;}.cls-6{fill:#cc4040;}.cls-7{fill:#454442;}.cls-8{fill:#e03931;}.cls-9{font-size:8.34px;}.cls-14,.cls-9{fill:#292726;}.cls-10{fill:#6c6b68;}.cls-11{fill:#3e3c3a;}.cls-12{fill:#dcdbd9;}.cls-13{fill:#e6625b;}.cls-15{fill:#cbcac7;}.cls-16{fill:#8f8d89;}</style></defs><title>資產 12</title><g id="圖層_2" data-name="圖層 2"><g id="圖層_11" data-name="圖層 11"><text class="cls-1" transform="translate(0 65.74)"><tspan xml:space="preserve">2011    </tspan></text><text class="cls-1" transform="translate(0 198.41)"><tspan xml:space="preserve">2012    </tspan></text><text class="cls-1" transform="translate(0 331.74)"><tspan xml:space="preserve">2013    </tspan></text><text class="cls-1" transform="translate(0 471.74)"><tspan xml:space="preserve">2014    </tspan></text><text class="cls-1" transform="translate(0 608.08)"><tspan xml:space="preserve">2015    </tspan></text><line class="cls-2" x1="797.77" y1="1004.96" x2="797.77" y2="44.38"/><text class="cls-1" transform="translate(0 743.74)"><tspan xml:space="preserve">2016    </tspan></text><text class="cls-1" transform="translate(0 882.08)"><tspan xml:space="preserve">2017    </tspan></text><line class="cls-2" x1="457.77" y1="1008.36" x2="457.77" y2="50.54"/><rect class="cls-3" x="135.77" y="169.64" width="546.31" height="32.39"/><line class="cls-2" x1="1136.77" y1="1006.68" x2="1136.78" y2="45.19"/><rect class="cls-4" x="105.2" y="1000.84" width="1175.23" height="8"/><rect class="cls-4" x="-382.1" y="511.79" width="979.46" height="3.72" transform="translate(-405.95 621.61) rotate(-90.04)"/><text class="cls-5" transform="translate(119.43 1093.23)">0</text><text class="cls-5" transform="translate(400.72 1093.23)">10,000</text><text class="cls-5" transform="translate(747.72 1093.23)">20,000</text><text class="cls-5" transform="translate(1105.72 1093.23)">30,000</text><text/><rect class="cls-6" x="135.77" y="37.82" width="333.25" height="32.39"/><text class="cls-1" transform="translate(301.26 63.74)"><tspan xml:space="preserve">14,263  </tspan></text><text class="cls-1" transform="translate(561.1 195.41)">17,095</text><rect class="cls-3" x="136.77" y="301.06" width="537.15" height="32.39"/><text class="cls-1" transform="translate(544.1 326.74)">16,818</text><rect class="cls-3" x="135.77" y="438.22" width="870.19" height="32.39"/><text class="cls-1" transform="translate(826.1 463.74)">26,455</text><rect class="cls-3" x="135.77" y="579.16" width="845.05" height="31.86"/><text class="cls-1" transform="translate(780.1 604.08)">25,865</text><rect class="cls-3" x="135.77" y="713.84" width="769.82" height="32.39"/><text/><rect class="cls-6" x="135.77" y="854.47" width="666.86" height="32.39"/><text class="cls-1" transform="translate(622.1 881.08)">24,765</text><text class="cls-1" transform="translate(780.1 740.08)">24,165</text><path class="cls-7" d="M586.93,69.9H447.41a6.7,6.7,0,0,1-6.69-6.69V54.33a4.14,4.14,0,0,1,4.14-4.13V42.41a9,9,0,0,1,9-9h19.95A21.41,21.41,0,0,1,495.22,12h29.92a22.38,22.38,0,0,1,22.38,22.38h21.65a17.76,17.76,0,0,1,17.76,17.76h0A6.81,6.81,0,0,1,593.74,59v4.14a6.81,6.81,0,0,1-6.81,6.81"/><path class="cls-4" d="M544.72,34.38A19.7,19.7,0,0,0,525,14.68H494.24a16.78,16.78,0,0,0-16.78,16.78V45.09A15.81,15.81,0,0,1,493.27,60.9v5.35h45.86V50.92a5.59,5.59,0,0,1,5.59-5.59V34.38"/><path class="cls-7" d="M541.93,34.38a17.63,17.63,0,0,0-17.64-17.63h-26.4a17.63,17.63,0,0,0-17.63,17.63h61.67"/><path class="cls-8" d="M519.79,11.88s.87-6.1-2.21-9a7.94,7.94,0,0,0-9.33-1.39,7.37,7.37,0,0,0-3.76,4.79c-.25,1.44-.27,6-.27,6l15.57-.36"/><polygon class="cls-4" points="519.9 8.27 503.98 8.27 504.22 12.24 519.79 11.88 519.9 8.27 519.9 8.27"/><path class="cls-4" d="M585.44,45s-4.16-.47-6.54.56S575,49.83,575,49.83l-.36,2.31h12.28s-.25-6.43-1.49-7.13Z"/><path class="cls-8" d="M445.39,40.91l3.81.16a2.81,2.81,0,0,1,.89,1.71c.2,1.17.12,6.2.12,6.2s-.93,1.17-1.25,1.17h-3.9V41l.33,0Z"/><text class="cls-9" transform="matrix(-1, 0, 0, 1, 509.41, 60.59)">911</text><path class="cls-10" d="M528.16,34.38h13.77c0-.2,0-.4,0-.6l-17-17c-.2,0-.4,0-.6,0H510.53l17.63,17.63"/><polyline class="cls-10" points="515.89 34.38 524.09 34.38 506.46 16.75 498.26 16.75 515.89 34.38"/><path class="cls-10" d="M495.32,34.38h14.34L492.78,17.51a17.58,17.58,0,0,0-8.57,5.76l11.11,11.11"/><path class="cls-10" d="M483.05,34.38h8.2l-8.69-8.69a17.51,17.51,0,0,0-2.09,6.11l2.58,2.58"/><path class="cls-11" d="M447.41,69.9H586.93a6.81,6.81,0,0,0,6.81-6.81V59a6.52,6.52,0,0,0-.17-1.48,13.29,13.29,0,0,1-7.29,3.12,64.2,64.2,0,0,1-8.58.46c-6.1,0-12-.46-12-.46l-11.93-9.18a24.8,24.8,0,0,1-14.63,7.45v7.39H493.27V60.9a15.66,15.66,0,0,0-1.36-6.43,41.26,41.26,0,0,1-12.34,4.64,73.83,73.83,0,0,1-15.3,1.53c-9.44,0-18.72-1.65-23.55-5.17v7.74h0a6.69,6.69,0,0,0,6.52,6.69h.17"/><path class="cls-12" d="M493.27,66.25V60.9a15.66,15.66,0,0,0-1.36-6.43c3.26-1.76,5.86-3.17,11.57-3.17.92,0,1.92,0,3,.11,13.78,1,13.62,7,26.92,7.7.55,0,1.09,0,1.62,0a28,28,0,0,0,4.1-.3v7.39H493.27"/><path class="cls-10" d="M582.15,42.9a9,9,0,0,0-1-1.24,15.69,15.69,0,0,0-1.34-1.26A14.68,14.68,0,0,0,577.86,39c-.37-.23-.78-.44-1.2-.67s-.86-.42-1.34-.59-1-.37-1.47-.51c-.25-.07-.51-.16-.77-.22l-.8-.18a24.74,24.74,0,0,0-3.35-.43c-1.14-.08-2.3-.14-3.46-.18s-2.31-.05-3.44-.05h-.5c-1,0-1.92,0-2.84,0-2.16.05-4.18.15-5.91.26s-3.16.24-4.17.32L547,37l1.59,0,4.18,0,5.9,0c2.15,0,4.45,0,6.74.12,1.16,0,2.29.07,3.42.14a30.17,30.17,0,0,1,3.26.34l.77.15.75.18c.5.11,1,.27,1.43.42s.89.34,1.32.5.82.37,1.2.56a19.58,19.58,0,0,1,2,1.19,16.22,16.22,0,0,1,1.43,1.1,11.89,11.89,0,0,1,1.13,1.11"/><path class="cls-10" d="M447.65,39.17l.2-.22a5.06,5.06,0,0,1,.63-.54,5.36,5.36,0,0,1,1.13-.61,8.12,8.12,0,0,1,1.59-.44,11.83,11.83,0,0,1,1.95-.19h.18c.29,0,.57,0,.9,0l1.15,0c1.56,0,3.22,0,4.88.06h2.49c.81,0,1.62,0,2.4,0,1.56,0,3-.08,4.26-.14s2.29-.15,3-.19l1.15-.09s-.42,0-1.15-.1-1.76-.13-3-.19-2.7-.11-4.26-.14c-.78,0-1.59,0-2.4,0l-2.49,0c-1.66,0-3.32,0-4.88.06l-1.15,0h-.13c-.32,0-.67,0-1,0a11.08,11.08,0,0,0-2,.36,6.52,6.52,0,0,0-2.71,1.44,4.29,4.29,0,0,0-.56.65l-.16.26"/><path class="cls-13" d="M517.6,7a3.58,3.58,0,0,0-.24-1.23,5.17,5.17,0,0,0-.58-1.15,6.14,6.14,0,0,0-.45-.59,5.5,5.5,0,0,0-.54-.54,5.72,5.72,0,0,0-.61-.46c-.2-.14-.43-.24-.64-.36a6.48,6.48,0,0,0-.64-.25,3.65,3.65,0,0,0-.59-.15,3.44,3.44,0,0,0-.51-.07h-.74l.3.18.33.17c.14.06.27.17.42.25s.32.17.49.28.34.22.51.34.36.24.53.38.35.27.51.43a9.22,9.22,0,0,1,1,.92c.29.31.55.62.77.89.44.55.73,1,.73,1"/><path class="cls-14" d="M586.93,69.9v.49H447.41a7.18,7.18,0,0,1-7.17-7.18V54.33a4.62,4.62,0,0,1,4.62-4.62v.48h-.49V42.41a9.49,9.49,0,0,1,9.49-9.49h19.95v.49h-.49a21.9,21.9,0,0,1,21.9-21.89h29.92A22.86,22.86,0,0,1,548,34.38h-.49V33.9h21.65a18.24,18.24,0,0,1,18.25,18.24h-.49v-.49h0a7.3,7.3,0,0,1,7.3,7.3v4.14a7.3,7.3,0,0,1-7.3,7.3v-1a6.33,6.33,0,0,0,6.33-6.32V59a6.33,6.33,0,0,0-6.33-6.32h-.49v-.49a17.26,17.26,0,0,0-17.27-17.27H547v-.49a21.89,21.89,0,0,0-21.89-21.89H495.22A20.91,20.91,0,0,0,474.3,33.41h0v.49H453.86a8.5,8.5,0,0,0-8.51,8.51v8.27h-.49a3.65,3.65,0,0,0-3.65,3.65v8.88a6.2,6.2,0,0,0,6.2,6.2H586.93v.49Z"/><path class="cls-14" d="M519.3,12V8.27A7.31,7.31,0,0,0,512,1h0a7.29,7.29,0,0,0-7.29,7.3V12h-1V8.27A8.27,8.27,0,0,1,512,0h0a8.27,8.27,0,0,1,8.27,8.27V12Z"/><path class="cls-14" d="M541.93,34.38h-.49a17.16,17.16,0,0,0-17.15-17.15h-26.4a17.17,17.17,0,0,0-17.15,17.15h-.48V33.9h61.67v.48h0v.49H479.77v-.49a18.12,18.12,0,0,1,18.12-18.12h26.4a18.12,18.12,0,0,1,18.12,18.12h0v.49h-.48v-.49Z"/><path class="cls-14" d="M544.72,34.38h-.48A19.22,19.22,0,0,0,525,15.16H494.24A16.3,16.3,0,0,0,478,31.46V45.09h-.49V44.6h0a16.3,16.3,0,0,1,16.3,16.3v4.86h44.88V50.92a6.08,6.08,0,0,1,6.08-6.08h0v.49h-.48V34.38h1V45.82h-.49a5.1,5.1,0,0,0-5.11,5.1V66.74H492.79V60.9a15.33,15.33,0,0,0-15.33-15.33H477V31.46a17.27,17.27,0,0,1,17.27-17.27H525a20.19,20.19,0,0,1,20.19,20.19h-.49Z"/><polyline class="cls-14" points="512.49 14.68 512.49 66.25 511.52 66.25 511.52 14.68"/><path class="cls-14" d="M586.93,52.63H574.28v-.49a7.62,7.62,0,0,1,7.62-7.62h3.54v1H581.9a6.66,6.66,0,0,0-6.65,6.65h-.48v-.49h12.16v1Z"/><polyline class="cls-14" points="519.79 8.76 504.22 8.76 504.22 7.79 519.79 7.79"/><path class="cls-7" d="M541.93,63.09a15.81,15.81,0,1,0,15.81-15.81,15.81,15.81,0,0,0-15.81,15.81Z"/><path class="cls-15" d="M547.76,63.09a10,10,0,1,0,10-10,10,10,0,0,0-10,10Z"/><path class="cls-16" d="M549.79,63.09a8,8,0,1,0,8-8,8,8,0,0,0-8,8Z"/><path class="cls-15" d="M553.76,63.09a4,4,0,1,0,4-4,4,4,0,0,0-4,4Z"/><path class="cls-14" d="M541.93,63.09h.48a15.33,15.33,0,1,0,4.49-10.84,15.32,15.32,0,0,0-4.49,10.84h-1a16.3,16.3,0,1,1,16.3,16.3,16.3,16.3,0,0,1-16.3-16.3Z"/><path class="cls-7" d="M459.05,63.09a15.82,15.82,0,1,0,15.81-15.81,15.81,15.81,0,0,0-15.81,15.81Z"/><path class="cls-15" d="M464.89,63.09a10,10,0,1,0,10-10,10,10,0,0,0-10,10Z"/><path class="cls-16" d="M466.92,63.09a7.95,7.95,0,1,0,7.94-8,7.94,7.94,0,0,0-7.94,8Z"/><path class="cls-15" d="M470.89,63.09a4,4,0,1,0,4-4,4,4,0,0,0-4,4Z"/><path class="cls-14" d="M459.05,63.09h.49A15.33,15.33,0,1,0,464,52.25a15.27,15.27,0,0,0-4.49,10.84h-1a16.3,16.3,0,1,1,16.3,16.3,16.3,16.3,0,0,1-16.3-16.3Z"/><path class="cls-14" d="M444.86,49.71h3.77a1.1,1.1,0,0,0,1.1-1.1V42.53a1.1,1.1,0,0,0-1.1-1.09h-3.69v-1h3.69a2.07,2.07,0,0,1,2.07,2.07v6.08a2.07,2.07,0,0,1-2.07,2.07h-3.77v-1Z"/><path class="cls-7" d="M923.93,885.9H784.41a6.7,6.7,0,0,1-6.69-6.69v-8.88a4.14,4.14,0,0,1,4.14-4.13v-7.79a9,9,0,0,1,9-9h19.95A21.41,21.41,0,0,1,832.22,828h29.92a22.38,22.38,0,0,1,22.38,22.38h21.65a17.76,17.76,0,0,1,17.76,17.76h0a6.81,6.81,0,0,1,6.81,6.81v4.14a6.81,6.81,0,0,1-6.81,6.81"/><path class="cls-4" d="M881.72,850.38a19.7,19.7,0,0,0-19.7-19.7H831.24a16.78,16.78,0,0,0-16.78,16.78v13.63a15.81,15.81,0,0,1,15.81,15.81v5.35h45.86V866.92a5.59,5.59,0,0,1,5.59-5.59v-11"/><path class="cls-7" d="M878.93,850.38a17.63,17.63,0,0,0-17.64-17.63h-26.4a17.63,17.63,0,0,0-17.63,17.63h61.67"/><path class="cls-8" d="M856.79,827.88s.87-6.1-2.21-9a7.94,7.94,0,0,0-9.33-1.39,7.37,7.37,0,0,0-3.76,4.79c-.25,1.44-.27,6-.27,6l15.57-.36"/><polygon class="cls-4" points="856.9 824.27 840.98 824.27 841.22 828.25 856.79 827.88 856.9 824.27 856.9 824.27"/><path class="cls-4" d="M922.44,861s-4.16-.47-6.54.56-3.89,4.26-3.89,4.26l-.36,2.31h12.28s-.25-6.43-1.49-7.13Z"/><path class="cls-8" d="M782.39,856.91l3.81.16a2.81,2.81,0,0,1,.89,1.71c.2,1.17.12,6.2.12,6.2s-.93,1.17-1.25,1.17h-3.9V857l.33,0Z"/><text class="cls-9" transform="matrix(-1, 0, 0, 1, 846.41, 876.59)">911</text><path class="cls-10" d="M865.16,850.38h13.77c0-.2,0-.4,0-.6l-17-17-.6,0H847.53l17.63,17.63"/><polyline class="cls-10" points="852.89 850.38 861.09 850.38 843.46 832.75 835.26 832.75 852.89 850.38"/><path class="cls-10" d="M832.32,850.38h14.34l-16.88-16.87a17.58,17.58,0,0,0-8.57,5.76l11.11,11.11"/><path class="cls-10" d="M820.05,850.38h8.2l-8.69-8.69a17.51,17.51,0,0,0-2.09,6.11l2.58,2.58"/><path class="cls-11" d="M784.41,885.9H923.93a6.81,6.81,0,0,0,6.81-6.81V875a6.52,6.52,0,0,0-.17-1.48,13.29,13.29,0,0,1-7.29,3.12,64.2,64.2,0,0,1-8.58.46c-6.1,0-12-.46-12-.46l-11.93-9.18a24.8,24.8,0,0,1-14.63,7.45v7.39H830.27V876.9a15.66,15.66,0,0,0-1.36-6.43,41.26,41.26,0,0,1-12.34,4.64,73.83,73.83,0,0,1-15.3,1.53c-9.44,0-18.72-1.65-23.55-5.17v7.74h0a6.69,6.69,0,0,0,6.52,6.69h.17"/><path class="cls-12" d="M830.27,882.25V876.9a15.66,15.66,0,0,0-1.36-6.43c3.26-1.76,5.86-3.17,11.57-3.17.92,0,1.92,0,3,.11,13.78,1,13.62,7,26.92,7.7.55,0,1.09,0,1.62,0a28,28,0,0,0,4.1-.3v7.39H830.27"/><path class="cls-10" d="M919.15,858.9a9,9,0,0,0-1-1.24,15.69,15.69,0,0,0-1.34-1.26,14.68,14.68,0,0,0-1.95-1.38c-.37-.23-.78-.44-1.2-.67s-.86-.42-1.34-.59-1-.37-1.47-.51c-.25-.07-.51-.16-.77-.22l-.8-.18a24.74,24.74,0,0,0-3.35-.43c-1.14-.08-2.3-.14-3.46-.18s-2.31,0-3.44,0h-.5c-1,0-1.92,0-2.84,0-2.16,0-4.18.15-5.91.26s-3.16.24-4.17.32L884,853l1.59,0,4.18,0,5.9,0c2.15,0,4.45,0,6.74.12,1.16,0,2.29.07,3.42.14a30.17,30.17,0,0,1,3.26.34l.77.15.75.18c.5.11,1,.27,1.43.42s.89.34,1.32.5.82.37,1.2.56a19.58,19.58,0,0,1,2,1.19,16.22,16.22,0,0,1,1.43,1.1,11.89,11.89,0,0,1,1.13,1.11"/><path class="cls-10" d="M784.65,855.17l.2-.22a5.06,5.06,0,0,1,.63-.54,5.36,5.36,0,0,1,1.13-.61,8.12,8.12,0,0,1,1.59-.44,11.83,11.83,0,0,1,1.95-.19h.18c.29,0,.57,0,.9,0l1.15,0c1.56,0,3.22,0,4.88.06h2.49c.81,0,1.62,0,2.4,0,1.56,0,3-.08,4.26-.14s2.29-.15,3-.19l1.15-.09s-.42-.05-1.15-.1-1.76-.13-3-.19-2.7-.11-4.26-.14c-.78,0-1.59,0-2.4,0l-2.49,0c-1.66,0-3.32,0-4.88.06l-1.15,0h-.13c-.32,0-.67,0-1,0a11.08,11.08,0,0,0-2,.36,6.52,6.52,0,0,0-2.71,1.44,4.29,4.29,0,0,0-.56.65l-.16.26"/><path class="cls-13" d="M854.6,823a3.58,3.58,0,0,0-.24-1.23,5.17,5.17,0,0,0-.58-1.15,6.14,6.14,0,0,0-.45-.59,5.5,5.5,0,0,0-.54-.54,5.72,5.72,0,0,0-.61-.46c-.2-.14-.43-.24-.64-.36a6.48,6.48,0,0,0-.64-.25,3.65,3.65,0,0,0-.59-.15,3.44,3.44,0,0,0-.51-.07h-.74l.3.18.33.17c.14.06.27.17.42.25s.32.17.49.28.34.22.51.34.36.24.53.38.35.27.51.43a9.22,9.22,0,0,1,1,.92c.29.31.55.62.77.89.44.55.73,1,.73,1"/><path class="cls-14" d="M923.93,885.9v.49H784.41a7.18,7.18,0,0,1-7.17-7.18v-8.88a4.62,4.62,0,0,1,4.62-4.62v.48h-.49v-7.78a9.49,9.49,0,0,1,9.49-9.49h19.95v.49h-.49a21.9,21.9,0,0,1,21.9-21.89h29.92A22.86,22.86,0,0,1,885,850.38h-.49v-.48h21.65a18.24,18.24,0,0,1,18.25,18.24h-.49v-.49h0a7.3,7.3,0,0,1,7.3,7.3v4.14a7.3,7.3,0,0,1-7.3,7.3v-1a6.33,6.33,0,0,0,6.33-6.32V875a6.33,6.33,0,0,0-6.33-6.32h-.49v-.49a17.26,17.26,0,0,0-17.27-17.27H884v-.49a21.89,21.89,0,0,0-21.89-21.89H832.22a20.91,20.91,0,0,0-20.92,20.92h0v.49H790.86a8.5,8.5,0,0,0-8.51,8.51v8.27h-.49a3.65,3.65,0,0,0-3.65,3.65v8.88a6.2,6.2,0,0,0,6.2,6.2H923.93v.49Z"/><path class="cls-14" d="M856.3,828v-3.73A7.31,7.31,0,0,0,849,817h0a7.29,7.29,0,0,0-7.29,7.3V828h-1v-3.73A8.27,8.27,0,0,1,849,816h0a8.27,8.27,0,0,1,8.27,8.27V828Z"/><path class="cls-14" d="M878.93,850.38h-.49a17.16,17.16,0,0,0-17.15-17.15h-26.4a17.17,17.17,0,0,0-17.15,17.15h-.48v-.48h61.67v.48h0v.49H816.77v-.49a18.12,18.12,0,0,1,18.12-18.12h26.4a18.12,18.12,0,0,1,18.12,18.12h0v.49h-.48v-.49Z"/><path class="cls-14" d="M881.72,850.38h-.48A19.22,19.22,0,0,0,862,831.16H831.24A16.3,16.3,0,0,0,815,847.46v13.63h-.49v-.49h0a16.3,16.3,0,0,1,16.3,16.3v4.86h44.88V866.92a6.08,6.08,0,0,1,6.08-6.08h0v.49h-.48v-11h1v11.44h-.49a5.1,5.1,0,0,0-5.11,5.1v15.82H829.79V876.9a15.33,15.33,0,0,0-15.33-15.33H814V847.46a17.27,17.27,0,0,1,17.27-17.27H862a20.19,20.19,0,0,1,20.19,20.19h-.49Z"/><polyline class="cls-14" points="849.49 830.68 849.49 882.25 848.52 882.25 848.52 830.68"/><path class="cls-14" d="M923.93,868.63H911.28v-.49a7.62,7.62,0,0,1,7.62-7.62h3.54v1H918.9a6.66,6.66,0,0,0-6.65,6.65h-.48v-.49h12.16v1Z"/><polyline class="cls-14" points="856.79 824.76 841.22 824.76 841.22 823.78 856.79 823.78"/><path class="cls-7" d="M878.93,879.09a15.81,15.81,0,1,0,15.81-15.81,15.81,15.81,0,0,0-15.81,15.81Z"/><path class="cls-15" d="M884.76,879.09a10,10,0,1,0,10-10,10,10,0,0,0-10,10Z"/><path class="cls-16" d="M886.79,879.09a8,8,0,1,0,8-8,8,8,0,0,0-8,8Z"/><path class="cls-15" d="M890.76,879.09a4,4,0,1,0,4-4,4,4,0,0,0-4,4Z"/><path class="cls-14" d="M878.93,879.09h.48a15.33,15.33,0,1,0,4.49-10.84,15.32,15.32,0,0,0-4.49,10.84h-1a16.3,16.3,0,1,1,16.3,16.3,16.3,16.3,0,0,1-16.3-16.3Z"/><path class="cls-7" d="M796.05,879.09a15.82,15.82,0,1,0,15.81-15.81,15.81,15.81,0,0,0-15.81,15.81Z"/><path class="cls-15" d="M801.89,879.09a10,10,0,1,0,10-10,10,10,0,0,0-10,10Z"/><path class="cls-16" d="M803.92,879.09a7.95,7.95,0,1,0,7.94-8,7.94,7.94,0,0,0-7.94,8Z"/><path class="cls-15" d="M807.89,879.09a4,4,0,1,0,4-4,4,4,0,0,0-4,4Z"/><path class="cls-14" d="M796.05,879.09h.49A15.33,15.33,0,1,0,801,868.25a15.27,15.27,0,0,0-4.49,10.84h-1a16.3,16.3,0,1,1,16.3,16.3,16.3,16.3,0,0,1-16.3-16.3Z"/><path class="cls-14" d="M781.86,865.71h3.77a1.1,1.1,0,0,0,1.1-1.1v-6.08a1.1,1.1,0,0,0-1.1-1.09h-3.69v-1h3.69a2.07,2.07,0,0,1,2.07,2.07v6.08a2.07,2.07,0,0,1-2.07,2.07h-3.77v-1Z"/><path class="cls-14" d="M490.77,39.18a3,3,0,0,1-1.19,2.51,4.63,4.63,0,0,1-2.95.88h-3.55v5.15h-1.67V35.81h5.22a4.87,4.87,0,0,1,3,.83A3,3,0,0,1,490.77,39.18Zm-1.73,0c0-1.21-.81-1.82-2.44-1.82h-3.52V41h3.52C488.23,41,489,40.4,489,39.18Z"/><path class="cls-14" d="M502.87,41.74A6.61,6.61,0,0,1,501.5,46a4.75,4.75,0,0,1-3.94,1.83,4.81,4.81,0,0,1-4-1.83,6.61,6.61,0,0,1-1.36-4.28,6.59,6.59,0,0,1,1.36-4.28,4.83,4.83,0,0,1,4-1.81,4.76,4.76,0,0,1,3.94,1.81A6.6,6.6,0,0,1,502.87,41.74Zm-1.73,0a5,5,0,0,0-1-3.27,3.19,3.19,0,0,0-2.59-1.21,3.15,3.15,0,0,0-2.6,1.21,5,5,0,0,0-1,3.27A5,5,0,0,0,495,45a3.32,3.32,0,0,0,5.18,0A5,5,0,0,0,501.14,41.74Z"/><path class="cls-14" d="M514.06,47.72H504.5V35.81h1.66V46.15h7.9Z"/><path class="cls-14" d="M517.89,47.72h-1.71V35.81h1.71Z"/><path class="cls-14" d="M530.33,38.69l-1.53.61a3.22,3.22,0,0,0-3.23-2,3.51,3.51,0,0,0-2.64,1.12,4.92,4.92,0,0,0-1.22,3.52,4.56,4.56,0,0,0,1.17,3.39,3.28,3.28,0,0,0,2.4.94,3.57,3.57,0,0,0,3.45-2.36l1.42.64A6.15,6.15,0,0,1,528.36,47a5.06,5.06,0,0,1-3.08.9,5,5,0,0,1-3.75-1.49A6.21,6.21,0,0,1,520,41.9a6.51,6.51,0,0,1,1.6-4.48,5.11,5.11,0,0,1,4-1.79A4.77,4.77,0,0,1,530.33,38.69Z"/><path class="cls-14" d="M540.78,47.72H532V35.81h8.82v1.55H533.6v3.48h6.51v1.57H533.6v3.74h7.18Z"/><path class="cls-14" d="M828.5,855a3,3,0,0,1-1.19,2.51,4.63,4.63,0,0,1-2.95.88h-3.55v5.15h-1.68V851.66h5.23a4.81,4.81,0,0,1,3,.83A3,3,0,0,1,828.5,855Zm-1.73,0c0-1.21-.81-1.82-2.44-1.82h-3.52v3.65h3.52C826,856.86,826.77,856.25,826.77,855Z"/><path class="cls-14" d="M840.6,857.59a6.6,6.6,0,0,1-1.37,4.28,4.76,4.76,0,0,1-3.94,1.83,4.81,4.81,0,0,1-4-1.83,7.37,7.37,0,0,1,0-8.56,4.83,4.83,0,0,1,4-1.81,4.77,4.77,0,0,1,3.94,1.81A6.6,6.6,0,0,1,840.6,857.59Zm-1.73,0a5,5,0,0,0-1-3.27,3.4,3.4,0,0,0-5.2,0,5.08,5.08,0,0,0-1,3.27,5,5,0,0,0,1,3.27,3.32,3.32,0,0,0,5.18,0A5,5,0,0,0,838.87,857.59Z"/><path class="cls-14" d="M851.78,863.57h-9.56V851.66h1.67V862h7.89Z"/><path class="cls-14" d="M855.61,863.57H853.9V851.66h1.71Z"/><path class="cls-14" d="M868.05,854.54l-1.53.61a3.21,3.21,0,0,0-3.22-2,3.55,3.55,0,0,0-2.64,1.12,4.92,4.92,0,0,0-1.22,3.52,4.56,4.56,0,0,0,1.17,3.39,3.28,3.28,0,0,0,2.4.94,3.57,3.57,0,0,0,3.45-2.36l1.41.64a6,6,0,0,1-1.79,2.44,5,5,0,0,1-3.07.9,5,5,0,0,1-3.75-1.49,6.21,6.21,0,0,1-1.53-4.46,6.55,6.55,0,0,1,1.59-4.48,5.13,5.13,0,0,1,4-1.79A4.76,4.76,0,0,1,868.05,854.54Z"/><path class="cls-14" d="M878.51,863.57h-8.83V851.66h8.83v1.55h-7.18v3.48h6.51v1.57h-6.51V862h7.18Z"/></g></g></svg>