<svg xmlns="http://www.w3.org/2000/svg" viewBox="0 0 1345.57 1580.48"><defs><style>.cls-1,.cls-6,.cls-7{font-size:35px;font-family:Microsoft JhengHei;}.cls-1,.cls-5{fill:#fff;}.cls-2{fill:none;stroke:#fff;stroke-miterlimit:10;stroke-width:2px;}.cls-3,.cls-7{fill:#cc4040;}.cls-4,.cls-6{fill:#efa543;}</style></defs><title>chart_9</title><g id="chart1" data-name="chart1_1"><g id="chart2" data-name="chart2_1"><text class="cls-1" transform="translate(2 138.26)"><tspan xml:space="preserve">2011    </tspan></text><text class="cls-1" transform="translate(0 319.26)"><tspan xml:space="preserve">2012    </tspan></text><text class="cls-1" transform="translate(2 473.26)"><tspan xml:space="preserve">2013    </tspan></text><text class="cls-1" transform="translate(0 635.26)"><tspan xml:space="preserve">2014    </tspan></text><text class="cls-1" transform="translate(2 803.26)"><tspan xml:space="preserve">2015    </tspan></text><line class="cls-2" x1="678.77" y1="1464.15" x2="678.77" y2="77.41"/><text class="cls-1" transform="translate(0 973.26)"><tspan xml:space="preserve">2016    </tspan></text><text class="cls-1" transform="translate(2 1141.26)"><tspan xml:space="preserve">2017    </tspan></text><line class="cls-2" x1="378.77" y1="1467.74" x2="378.77" y2="76.41"/><text class="cls-1" transform="translate(0 1312.26)"><tspan xml:space="preserve">2018    </tspan></text><rect class="cls-3" x="136.77" y="152.49" width="439.63" height="31.86"/><rect class="cls-4" x="136.77" y="579.49" width="484.27" height="31.86"/><rect class="cls-4" x="136.77" y="749.49" width="461.39" height="31.86"/><rect class="cls-4" x="136.77" y="918.49" width="389.42" height="31.86"/><rect class="cls-4" x="136.77" y="1087.49" width="366.96" height="31.86"/><rect class="cls-4" x="134.77" y="1261.49" width="347.44" height="31.86"/><rect class="cls-4" x="136.77" y="262.49" width="725.59" height="31.86"/><rect class="cls-4" x="137.77" y="419.49" width="596.51" height="31.86"/><rect class="cls-3" x="136.77" y="318.05" width="386.78" height="30.34"/><rect class="cls-3" x="136.77" y="471.05" width="223.73" height="30.34"/><rect class="cls-3" x="136.77" y="633.05" width="120.72" height="30.34"/><line class="cls-2" x1="977.77" y1="1464.36" x2="977.77" y2="78.41"/><rect class="cls-3" x="136.77" y="800.05" width="81.53" height="30.34"/><rect class="cls-3" x="136.77" y="969.05" width="63.69" height="30.34"/><rect class="cls-3" x="136.77" y="1138.05" width="50.9" height="30.34"/><rect class="cls-3" x="137.77" y="1309.05" width="71.75" height="30.34"/><rect class="cls-5" x="106.2" y="1461.41" width="1175.23" height="8"/><rect class="cls-5" x="-584.7" y="764.84" width="1384.62" height="4.3" transform="translate(-659.32 875.02) rotate(-90.03)"/><text class="cls-6" transform="translate(120.43 1543.8)">0</text><text class="cls-6" transform="translate(361.43 1543.8)">4,500</text><text class="cls-6" transform="translate(648.43 1543.8)">9,000</text><text class="cls-6" transform="translate(936.72 1543.8)">13,500</text><text class="cls-6" transform="translate(1238.72 1543.8)">18,000</text><text class="cls-7" transform="translate(356.01 30.8)">250</text><text class="cls-7" transform="translate(658.01 30.8)">500</text><text class="cls-7" transform="translate(941.01 30.8)">750</text><text class="cls-7" transform="translate(1213.29 31.8)">1000</text><text/><line class="cls-2" x1="1261.77" y1="1467.92" x2="1261.77" y2="73.59"/><rect class="cls-4" x="136.77" y="100.49" width="921.65" height="31.86"/><text class="cls-1" transform="translate(957.29 128.26)"><tspan xml:space="preserve">14281    </tspan></text><text class="cls-1" transform="translate(501.71 180.26)"><tspan xml:space="preserve">439    </tspan></text><text class="cls-1" transform="translate(458.71 345.26)"><tspan xml:space="preserve">376    </tspan></text><text class="cls-1" transform="translate(300.71 499.26)"><tspan xml:space="preserve">245    </tspan></text><text class="cls-1" transform="translate(198.71 660.26)"><tspan xml:space="preserve">169    </tspan></text><text class="cls-1" transform="translate(158.39 827.26)">142</text><text class="cls-1" transform="translate(139.39 997.26)">102</text><text class="cls-1" transform="translate(142.1 1165.26)">87</text><text class="cls-1" transform="translate(143.39 1337.26)">100</text><text class="cls-1" transform="translate(756.97 289.26)">12193</text><text class="cls-1" transform="translate(641.68 449.26)">9798</text><text class="cls-1" transform="translate(531.68 608.26)">9135</text><text class="cls-1" transform="translate(505.68 778.26)">8120</text><text class="cls-1" transform="translate(433.68 948.26)">6993</text><text class="cls-1" transform="translate(415.68 1116.26)">6160</text><text class="cls-1" transform="translate(396.68 1290.26)">5595</text></g></g></svg>
