<svg xmlns="http://www.w3.org/2000/svg" viewBox="0 0 733.64 642.32"><defs><style>.cls-1{fill:#cc4040;}.cls-2{fill:#fff;}.cls-3{font-size:99.1px;fill:#4d4d4d;font-family:NotoSansCJKtc-Medium-B5pc-H, Noto Sans CJK TC;}</style></defs><title>資產 9</title><g id="圖層_2" data-name="圖層 2"><g id="圖層_11" data-name="圖層 11"><polygon class="cls-1" points="119.62 180.71 119.62 213.39 373.16 213.39 373.16 180.71 119.62 180.71 119.62 180.71"/><path class="cls-1" d="M554.29,378.42A179.35,179.35,0,1,1,733.64,199.07,179.34,179.34,0,0,1,554.29,378.42"/><path class="cls-2" d="M554.29,339.44A140.37,140.37,0,1,1,694.66,199.07,140.37,140.37,0,0,1,554.29,339.44Z"/><path class="cls-1" d="M84.11,246.69a49.64,49.64,0,1,1,49.64-49.64,49.64,49.64,0,0,1-49.64,49.64Z"/><path class="cls-1" d="M90,349.12V265.18c-.83,0-1.63.12-2.46.12a68.25,68.25,0,0,1,0-136.5c.83,0,1.63.1,2.46.13V0H0V349.12Z"/><text class="cls-3" transform="translate(455.2 230.85)">2013</text><rect class="cls-1" x="0.14" y="269.63" width="89.98" height="372.69"/></g></g></svg>