<svg xmlns="http://www.w3.org/2000/svg" viewBox="0 0 272 135"><defs><style>.cls-1{fill:#efa543;}.cls-2{fill:#cc4040;}</style></defs><title>chart_10</title><g id="chart1" data-name="chart1_1"><g id="chart2" data-name="chart2_1"><rect class="cls-1" width="272" height="135" rx="12"/><path class="cls-2" d="M80.43,86a12.33,12.33,0,0,0,9.17,4.17c7.08,0,13.19-5.81,13.71-22.8-3.28,4.1-8,6.78-12.59,6.78-9.1,0-15.06-5.89-15.06-17.22,0-10.58,7.16-17.73,15.65-17.73,10.51,0,18.34,8.64,18.34,26,0,22.13-9.54,30.63-19.83,30.63a17.37,17.37,0,0,1-13.11-5.59Zm22.81-24.22c-.75-11.26-4.92-17.22-11.93-17.22-5.21,0-9.24,4.92-9.24,12.37s3.28,12.15,9.76,12.15C95.49,69.12,99.58,67,103.24,61.82Z"/><path class="cls-2" d="M119.19,90.73a4.93,4.93,0,1,1,9.83,0,4.92,4.92,0,1,1-9.83,0Z"/><path class="cls-2" d="M142.51,86a12.33,12.33,0,0,0,9.17,4.17c7.08,0,13.19-5.81,13.71-22.8-3.28,4.1-8,6.78-12.59,6.78-9.09,0-15.06-5.89-15.06-17.22,0-10.58,7.16-17.73,15.65-17.73,10.51,0,18.34,8.64,18.34,26,0,22.13-9.54,30.63-19.83,30.63a17.39,17.39,0,0,1-13.11-5.59Zm22.81-24.22c-.75-11.26-4.92-17.22-11.93-17.22-5.21,0-9.24,4.92-9.24,12.37s3.28,12.15,9.77,12.15C157.57,69.12,161.67,67,165.32,61.82Z"/><path class="cls-2" d="M181.64,55.41c0-11,4.92-17.22,12.45-17.22s12.44,6.26,12.44,17.22-5,17.36-12.44,17.36S181.64,66.44,181.64,55.41Zm19.68,0c0-8.79-2.91-13-7.23-13s-7.31,4.18-7.31,13,3,13.12,7.31,13.12S201.32,64.13,201.32,55.41Zm24.59-17.22h4.54L200.2,95h-4.55ZM219.8,77.62c0-11,4.92-17.22,12.37-17.22s12.44,6.26,12.44,17.22S239.7,95,232.17,95,219.8,88.65,219.8,77.62Zm19.67,0c0-8.72-2.9-13-7.3-13s-7.23,4.25-7.23,13,2.91,13.11,7.23,13.11S239.47,86.34,239.47,77.62Z"/><polygon class="cls-2" points="40.4 20.94 26.42 45.7 37.06 45.61 37.73 122.37 44.85 122.31 44.18 45.56 54.83 45.47 40.4 20.94"/></g></g></svg>
