<svg xmlns="http://www.w3.org/2000/svg" viewBox="0 0 272 135"><defs><style>.cls-1{fill:#efa543;}.cls-2{fill:#cc4040;}</style></defs><title>chart_10</title><g id="chart1" data-name="chart1_1"><g id="chart2" data-name="chart2_1"><rect class="cls-1" width="272" height="135" rx="12"/><path class="cls-2" d="M115.85,51.09H89.39V45.28H123.6v4.1c-12.82,16.47-15.2,29.14-16,50.53H100.5C101.39,79.19,105.19,66,115.85,51.09Z"/><path class="cls-2" d="M129.27,93.42,132.7,89c3.2,3.36,7.37,6.26,13.56,6.26,6.48,0,11.1-3.87,11.1-10.13,0-6.56-4.39-11-17-11V68.9c11.25,0,15.13-4.54,15.13-10.43,0-5.29-3.58-8.64-9.24-8.79-4.4.15-8.27,2.38-11.33,5.44l-3.65-4.32c4.1-3.81,8.94-6.56,15.28-6.56,9.16,0,15.87,4.92,15.87,13.71,0,6.63-4,11-9.76,13.19v.3c6.48,1.49,11.62,6.41,11.62,13.86,0,9.76-7.82,15.58-17.51,15.58A22.58,22.58,0,0,1,129.27,93.42Z"/><path class="cls-2" d="M174.28,60.41c0-11,4.92-17.22,12.45-17.22s12.44,6.26,12.44,17.22-5,17.36-12.44,17.36S174.28,71.44,174.28,60.41Zm19.68,0c0-8.79-2.91-13-7.23-13s-7.31,4.18-7.31,13,3,13.12,7.31,13.12S194,69.13,194,60.41Zm24.59-17.22h4.55L192.84,100h-4.55Zm-6.11,39.43c0-11,4.92-17.22,12.37-17.22s12.44,6.26,12.44,17.22S232.34,100,224.81,100,212.44,93.65,212.44,82.62Zm19.67,0c0-8.72-2.9-13-7.3-13s-7.23,4.25-7.23,13,2.91,13.11,7.23,13.11S232.11,91.34,232.11,82.62Z"/><polygon class="cls-2" points="40.4 20.94 26.42 45.7 37.06 45.61 37.73 110.99 44.85 110.93 44.18 45.56 54.83 45.47 40.4 20.94"/></g></g></svg>
