<svg xmlns="http://www.w3.org/2000/svg" viewBox="0 0 272 491.79"><defs><style>.cls-1{fill:#efa543;}.cls-2{font-size:32.74px;}.cls-2,.cls-3,.cls-4{fill:#fff;}.cls-2,.cls-3{font-family:Microsoft JhengHei;}.cls-3{font-size:57.92px;}</style></defs><title>chart_8</title><g id="chart1" data-name="chart1_1"><g id="chart2" data-name="chart2_1"><rect class="cls-1" y="337.01" width="272" height="135" rx="12"/><path class="cls-1" d="M150.38,24.81c0,13.71-10.83,24.82-24.27,24.82a24.6,24.6,0,0,1-24.44-24.82A24.6,24.6,0,0,1,126.11,0c13.44,0,24.27,11.11,24.27,24.81ZM126.65,226.09c-32.32,0-58.53-26.7-58.53-59.63a59.65,59.65,0,0,1,29.69-51.61V96.9a75.51,75.51,0,0,0-45.3,69.56c0,41.66,33.25,75.54,74.14,75.54,27.13,0,50.72-15.12,63.63-37.41l-8-20.41c-7.5,24.18-29.39,41.91-55.59,41.91Zm108.69-36.32H217.81s-10.69-31-13.62-39.15a13.85,13.85,0,0,0-13-9.37H148.54V110.76H189a9.93,9.93,0,0,0,0-19.85H148.54S146.2,54.83,126,54.83c-13.75,0-18.48,11.42-18.48,25.43V144a25.25,25.25,0,0,0,25,25.43c.38,0,.78-.22,1.17-.22a4.89,4.89,0,0,0,1.15.22H187l17.32,44.21h31.07a11.94,11.94,0,0,0,0-23.88Z"/><text class="cls-2" transform="translate(70.89 290.4)">受傷人數</text><text class="cls-3" transform="translate(67.22 431.09)">60.8％</text><polygon class="cls-4" points="38.95 459.82 53.75 435.57 43.11 435.31 44.98 358.7 37.85 358.53 35.98 435.14 25.34 434.88 38.95 459.82"/></g></g></svg>
