<svg xmlns="http://www.w3.org/2000/svg" viewBox="0 0 1344.57 1262.05"><defs><style>.cls-1,.cls-6{font-size:35px;font-family:NotoSansCJKtc-Regular-B5pc-H, Noto Sans CJK TC;}.cls-1,.cls-5{fill:#fff;}.cls-2{fill:none;stroke:#fff;stroke-miterlimit:10;stroke-width:2px;}.cls-3{fill:#cc4040;}.cls-4,.cls-6{fill:#efa543;}.cls-7{fill:#454442;}.cls-8{fill:#292726;}.cls-9{fill:#e03931;}.cls-10{fill:#dcdbd9;}.cls-11{fill:#3e3c3a;}.cls-12{fill:#6c6b68;}.cls-13{fill:#e6625b;}.cls-14{fill:#cbcac7;}.cls-15{fill:#8f8d89;}</style></defs><title>資產 11</title><g id="圖層_2" data-name="圖層 2"><g id="圖層_11" data-name="圖層 11"><text class="cls-1" transform="translate(0 47.89)"><tspan xml:space="preserve">2011    </tspan></text><text class="cls-1" transform="translate(0 180.55)"><tspan xml:space="preserve">2012    </tspan></text><text class="cls-1" transform="translate(0 313.89)"><tspan xml:space="preserve">2013    </tspan></text><text class="cls-1" transform="translate(0 453.89)"><tspan xml:space="preserve">2014    </tspan></text><text class="cls-1" transform="translate(0 590.22)"><tspan xml:space="preserve">2015    </tspan></text><line class="cls-2" x1="677.77" y1="1143.89" x2="677.77" y2="8.29"/><text class="cls-1" transform="translate(0 725.89)"><tspan xml:space="preserve">2016    </tspan></text><text class="cls-1" transform="translate(0 864.22)"><tspan xml:space="preserve">2017    </tspan></text><line class="cls-2" x1="377.77" y1="1146.83" x2="377.77" y2="7.47"/><text class="cls-1" transform="translate(0 1016.22)"><tspan xml:space="preserve">2018    </tspan></text><rect class="cls-3" x="133.77" y="988.08" width="683.14" height="32.39"/><rect class="cls-4" x="135.77" y="151.78" width="735.62" height="32.39"/><line class="cls-2" x1="976.77" y1="1144.07" x2="976.77" y2="9.11"/><rect class="cls-5" x="105.2" y="1142.98" width="1175.23" height="8"/><rect class="cls-5" x="-460.32" y="570.84" width="1133.87" height="4.3" transform="translate(-466.3 679.98) rotate(-90.04)"/><text class="cls-6" transform="translate(119.43 1225.37)">0</text><text class="cls-6" transform="translate(350.72 1225.37)">20,000</text><text class="cls-6" transform="translate(637.72 1225.37)">40,000</text><text class="cls-6" transform="translate(935.72 1225.37)">60,000</text><text class="cls-6" transform="translate(1237.72 1225.37)">80,000</text><text/><line class="cls-2" x1="1280.77" y1="1146.98" x2="1280.77" y2="5.16"/><rect class="cls-3" x="135.77" y="19.97" width="704.12" height="32.39"/><text class="cls-1" transform="translate(578.42 45.89)"><tspan xml:space="preserve">52,604    </tspan></text><text class="cls-1" transform="translate(561.1 177.55)">52,432</text><text class="cls-1" transform="translate(651.1 1015.22)">57,826</text><rect class="cls-4" x="136.77" y="283.21" width="849.91" height="32.39"/><text class="cls-1" transform="translate(716.1 308.89)">60,865</text><rect class="cls-4" x="135.77" y="420.36" width="965.25" height="32.39"/><text class="cls-1" transform="translate(826.1 445.89)">67,932</text><rect class="cls-4" x="135.77" y="561.3" width="914.22" height="31.86"/><text class="cls-1" transform="translate(780.1 586.22)">65,449</text><rect class="cls-4" x="135.77" y="695.98" width="883.8" height="32.39"/><text class="cls-1" transform="translate(748.1 721.89)">62,959</text><rect class="cls-4" x="135.77" y="836.61" width="854.84" height="32.39"/><text class="cls-1" transform="translate(711.1 862.22)">60,993</text><path class="cls-7" d="M886.38,72H762.74a15.26,15.26,0,0,1-15.25-15.26V53.42A5.42,5.42,0,0,1,752.91,48V23.58a12.44,12.44,0,0,1,12.43-12.43h49.57a26.56,26.56,0,0,1,18.79,7.79L846,31.27h21.53a15.62,15.62,0,0,1,14.51,9.8l3.52,8.73A8.36,8.36,0,0,1,894,58.16v6.22A7.57,7.57,0,0,1,886.38,72"/><path class="cls-5" d="M777.77,13.41H766.66a11.45,11.45,0,0,0-11.45,11.45v8.67h22.56V13.41"/><path class="cls-5" d="M843.32,31.72V68.11H796.53a18.19,18.19,0,0,0-18.19-18.2h-.57V13.41h37.4a22.38,22.38,0,0,1,15.41,6.16l12.74,12.15"/><path class="cls-7" d="M839.93,31.72l-9.28-9.28a21.58,21.58,0,0,0-15.25-6.32H766.74a9.23,9.23,0,0,0-9.23,9.23v6.37h82.42"/><path class="cls-8" d="M789.77,39.33a3,3,0,0,1-1.19,2.5,4.63,4.63,0,0,1-3,.88h-3.55v5.15h-1.67V36h5.22a4.8,4.8,0,0,1,3,.84A3,3,0,0,1,789.77,39.33Zm-1.73,0c0-1.22-.81-1.83-2.44-1.83h-3.52v3.65h3.52C787.23,41.15,788,40.54,788,39.33Z"/><path class="cls-8" d="M801.87,41.88a6.62,6.62,0,0,1-1.37,4.29A4.77,4.77,0,0,1,796.56,48a4.83,4.83,0,0,1-4-1.82,6.62,6.62,0,0,1-1.36-4.29,6.61,6.61,0,0,1,1.36-4.28,4.85,4.85,0,0,1,4-1.81,4.79,4.79,0,0,1,3.94,1.81A6.61,6.61,0,0,1,801.87,41.88Zm-1.73,0a5,5,0,0,0-1-3.27,3.21,3.21,0,0,0-2.59-1.21,3.18,3.18,0,0,0-2.6,1.21,5,5,0,0,0-1,3.27,5.07,5.07,0,0,0,1,3.28,3.34,3.34,0,0,0,5.18,0A5.07,5.07,0,0,0,800.14,41.88Z"/><path class="cls-8" d="M813.06,47.86H803.5V36h1.66V46.3h7.9Z"/><path class="cls-8" d="M816.89,47.86h-1.71V36h1.71Z"/><path class="cls-8" d="M829.33,38.84l-1.53.6a3.22,3.22,0,0,0-3.23-2,3.52,3.52,0,0,0-2.64,1.13,4.92,4.92,0,0,0-1.22,3.52,4.55,4.55,0,0,0,1.17,3.38,3.29,3.29,0,0,0,2.4,1A3.58,3.58,0,0,0,827.73,44l1.42.63a6.08,6.08,0,0,1-1.79,2.44,5.06,5.06,0,0,1-3.08.9,5,5,0,0,1-3.75-1.48A6.22,6.22,0,0,1,819,42.05a6.49,6.49,0,0,1,1.6-4.48,5.08,5.08,0,0,1,4-1.79A4.77,4.77,0,0,1,829.33,38.84Z"/><path class="cls-8" d="M839.78,47.86H831V36h8.82V37.5H832.6V41h6.51v1.56H832.6V46.3h7.18Z"/><path class="cls-5" d="M880.81,38.6H868.63V39a10.92,10.92,0,0,0,10.92,10.92h6L880.81,38.6Z"/><polygon class="cls-5" points="811.92 11.15 811.92 7.68 797.46 7.68 797.46 11.15 811.92 11.15 811.92 11.15"/><path class="cls-9" d="M811.92,7.68S811.26.83,804.69.45s-7.23,7.23-7.23,7.23h14.46"/><polygon class="cls-9" points="753.02 35.11 757.37 35.11 757.37 47.99 752.97 47.99 753.02 35.11 753.02 35.11"/><path class="cls-10" d="M762.74,72H886.38A7.57,7.57,0,0,0,894,64.38h0A7.57,7.57,0,0,1,886.38,72H762.74m0,0h0m0,0h0m0,0h0m0,0h0m0,0h0m0,0h0m0,0h0m0,0h0m0,0h0m-.14,0h0"/><path class="cls-11" d="M762.74,72H886.38A7.57,7.57,0,0,0,894,64.38v-5s-1.66,2.15-7.67,2.15h0c-6,0-20.65-4.82-24.64-5.73-2.55-.58-8.3-2.89-14.28-2.89a19.51,19.51,0,0,0-4,.4V68.11H796.53a18.15,18.15,0,0,0-6.94-14.3,29.47,29.47,0,0,0-8.8,2.24A68.2,68.2,0,0,1,756.2,61.4a15.2,15.2,0,0,1-4.65-.53,17.17,17.17,0,0,1-3.91-2.13A15.26,15.26,0,0,0,762.38,72h.36"/><path class="cls-10" d="M796.53,68.11h46.79V53.26a14.62,14.62,0,0,0-5.73,2.49,32.54,32.54,0,0,1-18.36,6.34A17,17,0,0,1,810.55,60c-4.95-2.91-11.08-6.26-18.68-6.26-.74,0-1.5,0-2.28.1a18.15,18.15,0,0,1,6.94,14.3"/><path class="cls-5" d="M815.45,16.12h0m0,0h0"/><path class="cls-12" d="M821,31.72h13.32L819,16.43a21.85,21.85,0,0,0-3.53-.31H805.36L821,31.72"/><polyline class="cls-12" points="809.55 31.72 817.17 31.72 801.58 16.12 793.96 16.12 809.55 31.72"/><polyline class="cls-12" points="784.59 31.72 797.9 31.72 782.31 16.12 768.99 16.12 784.59 31.72"/><path class="cls-12" d="M773.19,31.72h7.61L765.33,16.24a9.14,9.14,0,0,0-5.08,2.55l12.94,12.93"/><path class="cls-12" d="M876.44,36.92a7.68,7.68,0,0,0-.92-.92,12.85,12.85,0,0,0-2.89-1.89,11,11,0,0,0-2.21-.75,12.51,12.51,0,0,0-2.54-.23h-.06c-1.76,0-3.65-.05-5.53-.05h-2.81c-.92,0-1.83,0-2.72,0-1.76,0-3.41.08-4.82.14s-2.59.13-3.41.17l-1.29.09s.47,0,1.29.08,2,.13,3.41.18,3.06.1,4.82.13c.89,0,1.8,0,2.72,0l2.81,0c1.88,0,3.77,0,5.53-.06h.77a11.66,11.66,0,0,1,1.7.11,11.93,11.93,0,0,1,2.14.57,13.85,13.85,0,0,1,3,1.55,9.84,9.84,0,0,1,1,.78"/><path class="cls-13" d="M809.87,6.35a3.08,3.08,0,0,0-.08-1.08,4.53,4.53,0,0,0-1.12-2.09,3.41,3.41,0,0,0-.48-.45,4.4,4.4,0,0,0-.52-.36,3.33,3.33,0,0,0-.54-.26,2.42,2.42,0,0,0-.5-.16,2.84,2.84,0,0,0-.77-.12h-.29a2,2,0,0,0,.24.17,2.51,2.51,0,0,0,.27.18c.11.06.21.16.34.24a4.07,4.07,0,0,1,.38.28c.13.11.28.2.41.33s.28.23.41.36.27.26.39.41a5,5,0,0,1,.38.42c.12.14.23.29.34.43s.22.29.31.43l.27.39.56.88"/><path class="cls-12" d="M749.18,54a6.47,6.47,0,0,1,1-.84l.51-.33c.17-.12.39-.21.58-.33s.42-.22.65-.31.45-.2.69-.28.46-.18.7-.25.47-.16.7-.22.44-.14.66-.19l.6-.16c.38-.11.7-.18.92-.25l.36-.12-.37-.06a6,6,0,0,0-.91-.09H755a7.35,7.35,0,0,0-1.19.09,5.56,5.56,0,0,0-.77.16,5.88,5.88,0,0,0-.78.25,7,7,0,0,0-.74.33,6.66,6.66,0,0,0-.69.42,5.35,5.35,0,0,0-.57.48,3.48,3.48,0,0,0-.46.49,3.43,3.43,0,0,0-.51.85,1.91,1.91,0,0,0-.11.36"/><path class="cls-8" d="M811.47,11.15V7.68a6.78,6.78,0,1,0-13.56,0v3.47H797V7.68a7.69,7.69,0,0,1,15.37,0v3.47Z"/><polyline class="cls-8" points="811.92 8.14 797.46 8.14 797.46 7.23 811.92 7.23"/><path class="cls-8" d="M886.38,72v.45H762.74A15.71,15.71,0,0,1,747,56.69V53.42a5.88,5.88,0,0,1,5.88-5.88V48h-.45V23.58A12.88,12.88,0,0,1,765.34,10.7h49.57A27,27,0,0,1,834,18.62l12.2,12.19h21.34A16.1,16.1,0,0,1,882.49,40.9L886,49.63l-.41.17v-.45a8.81,8.81,0,0,1,8.81,8.81v6.22a8,8,0,0,1-8,8v-.9a7.14,7.14,0,0,0,7.12-7.12V58.16a7.92,7.92,0,0,0-7.91-7.91h-.31l-3.63-9a15.18,15.18,0,0,0-14.09-9.51H845.84L833.38,19.26a26.12,26.12,0,0,0-18.47-7.66H765.34a12,12,0,0,0-12,12V48.44h-.45a5,5,0,0,0-5,5v3.27a14.8,14.8,0,0,0,14.8,14.81H886.38V72Z"/><path class="cls-7" d="M759.09,69.92a16.8,16.8,0,1,0,16.8-16.8,16.81,16.81,0,0,0-16.8,16.8Z"/><path class="cls-14" d="M765.29,69.92a10.6,10.6,0,1,0,10.6-10.59,10.6,10.6,0,0,0-10.6,10.59Z"/><path class="cls-15" d="M767.45,69.92a8.44,8.44,0,1,0,8.44-8.44,8.44,8.44,0,0,0-8.44,8.44Z"/><path class="cls-14" d="M771.67,69.92a4.22,4.22,0,1,0,4.22-4.22,4.22,4.22,0,0,0-4.22,4.22Z"/><path class="cls-8" d="M759.09,69.92h.52a16.27,16.27,0,1,0,4.76-11.51,16.27,16.27,0,0,0-4.76,11.51h-1a17.32,17.32,0,1,1,17.32,17.32,17.31,17.31,0,0,1-17.32-17.32Z"/><path class="cls-7" d="M849.05,69.92a16.8,16.8,0,1,0,16.8-16.8,16.81,16.81,0,0,0-16.8,16.8Z"/><path class="cls-14" d="M855.25,69.92a10.6,10.6,0,1,0,10.6-10.59,10.59,10.59,0,0,0-10.6,10.59Z"/><path class="cls-15" d="M857.4,69.92a8.45,8.45,0,1,0,8.45-8.44,8.45,8.45,0,0,0-8.45,8.44Z"/><path class="cls-14" d="M861.62,69.92a4.23,4.23,0,1,0,4.23-4.22,4.23,4.23,0,0,0-4.23,4.22Z"/><path class="cls-8" d="M849.05,69.92h.51a16.29,16.29,0,1,0,4.77-11.51,16.23,16.23,0,0,0-4.77,11.51h-1a17.32,17.32,0,1,1,17.32,17.32,17.31,17.31,0,0,1-17.32-17.32Z"/><path class="cls-8" d="M880.8,39.05H868.63V38.6h.46a10.82,10.82,0,0,0,10.82,10.82h5.68v.91h-5.68A11.73,11.73,0,0,1,868.18,38.6v-.45H880.8v.9Z"/><path class="cls-8" d="M839.93,31.72l-.32.32-9.28-9.28a21.12,21.12,0,0,0-14.93-6.19H766.74A8.79,8.79,0,0,0,758,25.35v5.92h82v.45l-.32.32.32-.32v.45H757.05V25.35a9.69,9.69,0,0,1,9.69-9.68H815.4A22,22,0,0,1,831,22.12l10,10.05h-1.09v-.45Z"/><path class="cls-8" d="M843.32,31.72h.45V68.56H796.08v-.45a17.74,17.74,0,0,0-17.74-17.74h-1V13h37.85a22.79,22.79,0,0,1,15.72,6.29l12.88,12.27v.2h-.45l-.31.33L830.26,19.9a21.89,21.89,0,0,0-15.09-6H778.22v35.6h.12A18.64,18.64,0,0,1,797,68.11h-.45v-.45h46.34V31.72h.45l-.31.33.31-.33Z"/><polyline class="cls-8" points="806.4 13.41 806.4 68.11 805.5 68.11 805.5 13.41"/><polygon class="cls-8" points="752.91 47.54 757.05 47.54 757.05 35.56 752.91 35.56 752.91 34.66 757.96 34.66 757.96 48.44 752.91 48.44 752.91 47.54 752.91 47.54"/><path class="cls-7" d="M917.38,1023H793.74a15.26,15.26,0,0,1-15.25-15.26v-3.27a5.42,5.42,0,0,1,5.42-5.43V974.58a12.44,12.44,0,0,1,12.43-12.43h49.57a26.56,26.56,0,0,1,18.79,7.79L877,982.27h21.53a15.62,15.62,0,0,1,14.51,9.8l3.52,8.73a8.36,8.36,0,0,1,8.36,8.36v6.22a7.57,7.57,0,0,1-7.57,7.57"/><path class="cls-5" d="M808.77,964.41H797.66a11.45,11.45,0,0,0-11.45,11.45v8.67h22.56V964.41"/><path class="cls-5" d="M874.32,982.72v36.39H827.53a18.19,18.19,0,0,0-18.19-18.2h-.57v-36.5h37.4a22.38,22.38,0,0,1,15.41,6.16l12.74,12.15"/><path class="cls-7" d="M870.93,982.72l-9.28-9.28a21.58,21.58,0,0,0-15.25-6.32H797.74a9.23,9.23,0,0,0-9.23,9.23v6.37h82.42"/><path class="cls-8" d="M820.77,990.33a3,3,0,0,1-1.19,2.5,4.63,4.63,0,0,1-3,.88h-3.55v5.15h-1.67V987h5.22a4.8,4.8,0,0,1,3,.84A3,3,0,0,1,820.77,990.33Zm-1.73,0c0-1.22-.81-1.83-2.44-1.83h-3.52v3.65h3.52C818.23,992.15,819,991.54,819,990.33Z"/><path class="cls-8" d="M832.87,992.88a6.62,6.62,0,0,1-1.37,4.29,4.77,4.77,0,0,1-3.94,1.82,4.83,4.83,0,0,1-4-1.82,7.43,7.43,0,0,1,0-8.57,4.85,4.85,0,0,1,4-1.81,4.79,4.79,0,0,1,3.94,1.81A6.61,6.61,0,0,1,832.87,992.88Zm-1.73,0a5,5,0,0,0-1-3.27,3.21,3.21,0,0,0-2.59-1.21,3.18,3.18,0,0,0-2.6,1.21,5.94,5.94,0,0,0,0,6.55,3.34,3.34,0,0,0,5.18,0A5.07,5.07,0,0,0,831.14,992.88Z"/><path class="cls-8" d="M844.06,998.86H834.5V987h1.66V997.3h7.9Z"/><path class="cls-8" d="M847.89,998.86h-1.71V987h1.71Z"/><path class="cls-8" d="M860.33,989.84l-1.53.6a3.22,3.22,0,0,0-3.23-2,3.52,3.52,0,0,0-2.64,1.13,4.92,4.92,0,0,0-1.22,3.52,4.55,4.55,0,0,0,1.17,3.38,3.29,3.29,0,0,0,2.4,1,3.58,3.58,0,0,0,3.45-2.36l1.42.63a6.08,6.08,0,0,1-1.79,2.44,5.06,5.06,0,0,1-3.08.9,5,5,0,0,1-3.75-1.48,6.22,6.22,0,0,1-1.53-4.46,6.49,6.49,0,0,1,1.6-4.48,5.08,5.08,0,0,1,4-1.79A4.77,4.77,0,0,1,860.33,989.84Z"/><path class="cls-8" d="M870.78,998.86H862V987h8.82v1.55H863.6V992h6.51v1.56H863.6v3.75h7.18Z"/><path class="cls-5" d="M911.81,989.6H899.63V990a10.92,10.92,0,0,0,10.92,10.92h6l-4.78-11.28Z"/><polygon class="cls-5" points="842.92 962.15 842.92 958.68 828.46 958.68 828.46 962.15 842.92 962.15 842.92 962.15"/><path class="cls-9" d="M842.92,958.68s-.66-6.85-7.23-7.23-7.23,7.23-7.23,7.23h14.46"/><polygon class="cls-9" points="784.02 986.11 788.37 986.11 788.37 998.99 783.97 998.99 784.02 986.11 784.02 986.11"/><path class="cls-10" d="M793.74,1023H917.38a7.57,7.57,0,0,0,7.57-7.57h0a7.57,7.57,0,0,1-7.57,7.57H793.74m0,0h0m0,0h0m0,0h0m0,0h0m0,0h0m0,0h0m0,0h0m0,0h0m0,0h0m-.14,0h0"/><path class="cls-11" d="M793.74,1023H917.38a7.57,7.57,0,0,0,7.57-7.57v-5s-1.66,2.15-7.67,2.15h0c-6,0-20.65-4.82-24.64-5.73-2.55-.58-8.3-2.89-14.28-2.89a19.51,19.51,0,0,0-4,.4v14.85H827.53a18.15,18.15,0,0,0-6.94-14.3,29.47,29.47,0,0,0-8.8,2.24,68.2,68.2,0,0,1-24.59,5.35,15.2,15.2,0,0,1-4.65-.53,17.17,17.17,0,0,1-3.91-2.13A15.26,15.26,0,0,0,793.38,1023h.36"/><path class="cls-10" d="M827.53,1019.11h46.79v-14.85a14.62,14.62,0,0,0-5.73,2.49,32.54,32.54,0,0,1-18.36,6.34,17,17,0,0,1-8.68-2.12c-4.95-2.91-11.08-6.26-18.68-6.26-.74,0-1.5,0-2.28.1a18.15,18.15,0,0,1,6.94,14.3"/><path class="cls-5" d="M846.45,967.12h0m0,0h0"/><path class="cls-12" d="M852,982.72h13.32L850,967.43a21.85,21.85,0,0,0-3.53-.31H836.36L852,982.72"/><polyline class="cls-12" points="840.55 982.72 848.17 982.72 832.58 967.12 824.96 967.12 840.55 982.72"/><polyline class="cls-12" points="815.59 982.72 828.9 982.72 813.31 967.12 799.99 967.12 815.59 982.72"/><path class="cls-12" d="M804.19,982.72h7.61l-15.47-15.48a9.14,9.14,0,0,0-5.08,2.55l12.94,12.93"/><path class="cls-12" d="M907.44,987.92a7.68,7.68,0,0,0-.92-.92,12.85,12.85,0,0,0-2.89-1.89,11,11,0,0,0-2.21-.75,12.51,12.51,0,0,0-2.54-.23h-.06c-1.76,0-3.65,0-5.53,0h-2.81c-.92,0-1.83,0-2.72,0-1.76,0-3.41.08-4.82.14s-2.59.13-3.41.17l-1.29.09s.47,0,1.29.08,2,.13,3.41.18,3.06.1,4.82.13c.89,0,1.8,0,2.72,0l2.81,0c1.88,0,3.77,0,5.53-.06h.77a11.66,11.66,0,0,1,1.7.11,11.93,11.93,0,0,1,2.14.57,13.85,13.85,0,0,1,3,1.55,9.84,9.84,0,0,1,1,.78"/><path class="cls-13" d="M840.87,957.35a3.08,3.08,0,0,0-.08-1.08,4.53,4.53,0,0,0-1.12-2.09,3.41,3.41,0,0,0-.48-.45,4.4,4.4,0,0,0-.52-.36,3.33,3.33,0,0,0-.54-.26,2.42,2.42,0,0,0-.5-.16,2.84,2.84,0,0,0-.77-.12h-.29a2,2,0,0,0,.24.17,2.51,2.51,0,0,0,.27.18c.11.06.21.16.34.24a4.07,4.07,0,0,1,.38.28c.13.11.28.2.41.33s.28.23.41.36.27.26.39.41a5,5,0,0,1,.38.42c.12.14.23.29.34.43s.22.29.31.43l.27.39.56.88"/><path class="cls-12" d="M780.18,1005a6.47,6.47,0,0,1,1-.84l.51-.33c.17-.12.39-.21.58-.33s.42-.22.65-.31.45-.2.69-.28.46-.18.7-.25.47-.16.7-.22.44-.14.66-.19l.6-.16c.38-.11.7-.18.92-.25l.36-.12-.37-.06a6,6,0,0,0-.91-.09H786a7.35,7.35,0,0,0-1.19.09,5.56,5.56,0,0,0-.77.16,5.88,5.88,0,0,0-.78.25,7,7,0,0,0-.74.33,6.66,6.66,0,0,0-.69.42,5.35,5.35,0,0,0-.57.48,3.48,3.48,0,0,0-.46.49,3.43,3.43,0,0,0-.51.85,1.91,1.91,0,0,0-.11.36"/><path class="cls-8" d="M842.47,962.15v-3.47a6.78,6.78,0,1,0-13.56,0v3.47H828v-3.47a7.69,7.69,0,0,1,15.37,0v3.47Z"/><polyline class="cls-8" points="842.92 959.14 828.46 959.14 828.46 958.23 842.92 958.23"/><path class="cls-8" d="M917.38,1023v.45H793.74A15.71,15.71,0,0,1,778,1007.69v-3.27a5.88,5.88,0,0,1,5.88-5.88V999h-.45V974.58a12.88,12.88,0,0,1,12.88-12.88h49.57A27,27,0,0,1,865,969.62l12.2,12.19h21.34a16.1,16.1,0,0,1,14.93,10.09l3.51,8.73-.41.17v-.45a8.81,8.81,0,0,1,8.81,8.81v6.22a8,8,0,0,1-8,8v-.9a7.14,7.14,0,0,0,7.12-7.12v-6.22a7.92,7.92,0,0,0-7.91-7.91h-.31l-3.63-9a15.18,15.18,0,0,0-14.09-9.51H876.84l-12.46-12.46a26.12,26.12,0,0,0-18.47-7.66H796.34a12,12,0,0,0-12,12v24.86h-.45a5,5,0,0,0-5,5v3.27a14.8,14.8,0,0,0,14.8,14.81H917.38v.45Z"/><path class="cls-7" d="M790.09,1020.92a16.8,16.8,0,1,0,16.8-16.8,16.81,16.81,0,0,0-16.8,16.8Z"/><path class="cls-14" d="M796.29,1020.92a10.6,10.6,0,1,0,10.6-10.59,10.6,10.6,0,0,0-10.6,10.59Z"/><path class="cls-15" d="M798.45,1020.92a8.44,8.44,0,1,0,8.44-8.44,8.44,8.44,0,0,0-8.44,8.44Z"/><path class="cls-14" d="M802.67,1020.92a4.22,4.22,0,1,0,4.22-4.22,4.22,4.22,0,0,0-4.22,4.22Z"/><path class="cls-8" d="M790.09,1020.92h.52a16.27,16.27,0,1,0,4.76-11.51,16.27,16.27,0,0,0-4.76,11.51h-1a17.32,17.32,0,1,1,17.32,17.32,17.31,17.31,0,0,1-17.32-17.32Z"/><path class="cls-7" d="M880.05,1020.92a16.8,16.8,0,1,0,16.8-16.8,16.81,16.81,0,0,0-16.8,16.8Z"/><path class="cls-14" d="M886.25,1020.92a10.6,10.6,0,1,0,10.6-10.59,10.59,10.59,0,0,0-10.6,10.59Z"/><path class="cls-15" d="M888.4,1020.92a8.45,8.45,0,1,0,8.45-8.44,8.45,8.45,0,0,0-8.45,8.44Z"/><path class="cls-14" d="M892.62,1020.92a4.23,4.23,0,1,0,4.23-4.22,4.23,4.23,0,0,0-4.23,4.22Z"/><path class="cls-8" d="M880.05,1020.92h.51a16.29,16.29,0,1,0,4.77-11.51,16.23,16.23,0,0,0-4.77,11.51h-1a17.32,17.32,0,1,1,17.32,17.32,17.31,17.31,0,0,1-17.32-17.32Z"/><path class="cls-8" d="M911.8,990.05H899.63v-.45h.46a10.82,10.82,0,0,0,10.82,10.82h5.68v.91h-5.68a11.73,11.73,0,0,1-11.73-11.73v-.45H911.8v.9Z"/><path class="cls-8" d="M870.93,982.72l-.32.32-9.28-9.28a21.12,21.12,0,0,0-14.93-6.19H797.74a8.79,8.79,0,0,0-8.78,8.78v5.92h82v.45l-.32.32.32-.32v.45H788.05v-6.82a9.69,9.69,0,0,1,9.69-9.68H846.4A22,22,0,0,1,862,973.12l10,10h-1.09v-.45Z"/><path class="cls-8" d="M874.32,982.72h.45v36.84H827.08v-.45a17.74,17.74,0,0,0-17.74-17.74h-1V964h37.85a22.79,22.79,0,0,1,15.72,6.29l12.88,12.27v.2h-.45l-.31.33L861.26,970.9a21.89,21.89,0,0,0-15.09-6H809.22v35.6h.12A18.64,18.64,0,0,1,828,1019.11h-.45v-.45h46.34V982.72h.45l-.31.33.31-.33Z"/><polyline class="cls-8" points="837.4 964.41 837.4 1019.11 836.5 1019.11 836.5 964.41"/><polygon class="cls-8" points="783.91 998.54 788.05 998.54 788.05 986.56 783.91 986.56 783.91 985.66 788.96 985.66 788.96 999.44 783.91 999.44 783.91 998.54 783.91 998.54"/></g></g></svg>