<svg xmlns="http://www.w3.org/2000/svg" viewBox="0 0 1311.95 438.25"><defs><style>.cls-1,.cls-17,.cls-2,.cls-4{fill:#fff;}.cls-2{font-size:54.54px;}.cls-17,.cls-2{font-family:NotoSansCJKtc-Medium-B5pc-H, Noto Sans CJK TC;}.cls-3{fill:#2e465f;}.cls-4{opacity:0.44;}.cls-5{fill:#3d95d2;}.cls-6{fill:#177cba;}.cls-7{fill:#263c51;}.cls-8{fill:#c7cbcd;}.cls-9{fill:#f3f6f7;}.cls-10{fill:#e4462e;}.cls-11{fill:#9caba8;}.cls-12{fill:#c5341e;}.cls-13{fill:#f2a200;}.cls-14{fill:#f2ca00;}.cls-15{fill:#e57f00;}.cls-16{fill:none;stroke:#e57f00;stroke-miterlimit:10;}.cls-17{font-size:32.74px;}</style></defs><title>資產 3</title><g id="圖層_2" data-name="圖層 2"><g id="圖層_11" data-name="圖層 11"><rect class="cls-1" x="144.51" width="5.66" height="438.25"/><text class="cls-2" transform="translate(0 64.16)">2016</text><text class="cls-2" transform="translate(0 218.16)">2017</text><text class="cls-2" transform="translate(0 374.16)">2018</text><polygon class="cls-3" points="1267.5 30 1267.5 64.94 173.01 64.94 173.01 30.01 1267.5 30 1267.5 30"/><polygon class="cls-3" points="1238.47 180 1238.47 214.94 173.01 214.94 173.01 180 1238.47 180 1238.47 180"/><polygon class="cls-3" points="1311.95 333 1311.95 367.94 173.01 367.94 173.01 333 1311.95 333 1311.95 333"/><text/><rect class="cls-4" x="172.65" y="181.15" width="270" height="35"/><rect class="cls-4" x="172.65" y="30.15" width="270" height="35"/><rect class="cls-4" x="172.65" y="332.15" width="428.74" height="35"/><path class="cls-5" d="M409.52,34l5.81-6.55a14.9,14.9,0,0,1,11.16-5h35A14.93,14.93,0,0,1,472.22,27l12.49,13c21.45,2.79,21.45,8,21.45,8V62.67a1.92,1.92,0,0,1-1.92,1.92h-6.5c0-.1,0-.2,0-.31a12.16,12.16,0,0,0-24.31,0c0,.11,0,.21,0,.31H433.08c0-.1,0-.2,0-.31a12.15,12.15,0,1,0-24.3,0c0,.11,0,.21,0,.31h-1.13a1.92,1.92,0,0,1-1.92-1.92V43.92a14.87,14.87,0,0,1,3.76-9.9Z"/><path class="cls-6" d="M501.54,57.88V56.42a1.28,1.28,0,0,1,1.28-1.28h1v4"/><path class="cls-3" d="M421.18,34.76,426.29,29a13.09,13.09,0,0,1,9.79-4.41h22a13.1,13.1,0,0,1,9.44,4l11,11.42H418.34a13.16,13.16,0,0,1,2.84-5.29Z"/><path class="cls-3" d="M417.68,27.47,411.86,34a14.94,14.94,0,0,0-3.24,6h-2.34a14.82,14.82,0,0,1,3.24-6l5.81-6.55a14.93,14.93,0,0,1,3.44-2.87h2.35a14.72,14.72,0,0,0-3.44,2.87Z"/><path class="cls-3" d="M469.22,27a15,15,0,0,0-3-2.43h3a15,15,0,0,1,3,2.43l12.49,13h-3L469.22,27Z"/><path class="cls-6" d="M458.29,42.6h0c0,.61-1,1.11-2.22,1.11h-2.81c-1.22,0-2.22-.5-2.22-1.11h7.25Z"/><path class="cls-6" d="M427.46,42.6h0c0,.61-1,1.11-2.22,1.11h-2.81c-1.23,0-2.22-.5-2.22-1.11h7.25Z"/><polygon class="cls-5" points="449.37 23.75 449.37 42.6 446.52 42.6 446.52 23.75 449.37 23.75 449.37 23.75"/><polygon class="cls-6" points="447.62 64.59 448.26 64.59 448.26 24.6 447.62 24.6 447.62 64.59 447.62 64.59"/><path class="cls-6" d="M418,52.5V40.05h.64v12.3c-.22,0-.43.1-.64.15Z"/><path class="cls-6" d="M478.77,54.24c-.22.15-.43.31-.64.47V40.05h.64V54.24Z"/><path class="cls-7" d="M485.61,53.09a11.19,11.19,0,1,1-11.2,11.19,11.19,11.19,0,0,1,11.2-11.19Z"/><path class="cls-3" d="M485.6,57.15a7.13,7.13,0,1,1-7.13,7.13,7.14,7.14,0,0,1,7.13-7.13Z"/><path class="cls-8" d="M485.6,58.66A5.63,5.63,0,1,1,480,64.28a5.62,5.62,0,0,1,5.62-5.62Z"/><path class="cls-7" d="M420.94,53.09a11.19,11.19,0,1,1-11.19,11.19,11.18,11.18,0,0,1,11.19-11.19Z"/><path class="cls-3" d="M420.94,57.15a7.13,7.13,0,1,1-7.13,7.13,7.14,7.14,0,0,1,7.13-7.13Z"/><path class="cls-8" d="M420.94,58.66a5.63,5.63,0,1,1-5.62,5.62,5.62,5.62,0,0,1,5.62-5.62Z"/><path class="cls-6" d="M503,50.29l.32-.55a222.7,222.7,0,0,0-21.47-10l-.25.59A225.31,225.31,0,0,1,503,50.29Z"/><path class="cls-9" d="M506.16,48l-7.52-.67a.65.65,0,0,0-.65.88l1.38,3.36a.62.62,0,0,0,.52.39l6.27.72V48Z"/><path class="cls-10" d="M408.65,46.18v3.63a1.83,1.83,0,0,1-1.83,1.83h-1.06v-7.3h1.06a1.83,1.83,0,0,1,1.83,1.84Z"/><polygon class="cls-8" points="506.54 187.69 511.59 187.69 511.59 210.83 506.54 210.83 506.54 187.69 506.54 187.69"/><polygon class="cls-11" points="506.54 187.69 511.59 187.69 511.59 195.89 506.54 195.89 506.54 187.69 506.54 187.69"/><polygon class="cls-8" points="467.97 187.69 473.02 187.69 473.02 210.83 467.97 210.83 467.97 187.69 467.97 187.69"/><polygon class="cls-11" points="467.97 187.69 473.02 187.69 473.02 195.89 467.97 195.89 467.97 187.69 467.97 187.69"/><path class="cls-3" d="M516.36,189.43s-15-15.51-31.28-15.51L512.23,192l4.13-2.55Z"/><path class="cls-10" d="M445.55,179.1c5.9-5.72,29.68-5.15,41.41-5.15s27.11,15.46,27.11,15.46c28.91,0,30.91,8.31,30.91,8.31a64.56,64.56,0,0,1-2.57,17.73h-13a10.75,10.75,0,1,0-21.5,0H465.92a10.75,10.75,0,1,0-21.49,0H436.8s-.58-2.29-1.72-8.87,4.58-21.75,10.47-27.48Z"/><path class="cls-7" d="M518.62,205.43a10,10,0,1,1-10,10,10,10,0,0,1,10-10Z"/><path class="cls-3" d="M518.62,209.07a6.39,6.39,0,1,1-6.39,6.38,6.38,6.38,0,0,1,6.39-6.38Z"/><path class="cls-8" d="M518.62,210.42a5,5,0,1,1-5,5,5,5,0,0,1,5-5Z"/><path class="cls-7" d="M455.17,205.43a10,10,0,1,1-10,10,10,10,0,0,1,10-10Z"/><path class="cls-3" d="M455.17,209.07a6.39,6.39,0,1,1-6.38,6.38,6.39,6.39,0,0,1,6.38-6.38Z"/><path class="cls-8" d="M455.17,210.42a5,5,0,1,1-5,5,5,5,0,0,1,5-5Z"/><path class="cls-12" d="M537.55,196.7l-.3.49c-10-6.19-23.07-7.49-23.21-7.5l0-.28c.79,0,1.55,0,2.29,0,4.23.66,13.59,2.56,21.19,7.27Z"/><path class="cls-9" d="M544.84,201.57s-6.08-.86-7-1.79-1.24-3.32-1.24-3.32l8.39,1.26c0,1.3-.05,2.58-.13,3.81v0Z"/><path class="cls-3" d="M447.27,180.18c5.28-5.12,26.56-4.61,37.07-4.61s24.26,13.84,24.26,13.84-1.11,2.57-5.5,2.57H442.41l-1-2.57a31.39,31.39,0,0,1,5.89-9.23Z"/><polygon class="cls-10" points="479.51 173.94 481.28 193.3 477.44 193.3 476.82 173.94 479.51 173.94 479.51 173.94"/><polygon class="cls-10" points="458.83 174.88 457.07 193.3 453.61 193.3 456.22 175.24 458.83 174.88 458.83 174.88"/><path class="cls-12" d="M479.07,212.63l.57,0c0-.15-1.25-14.71-1.25-16.12a6.49,6.49,0,0,1,1.19-3l.07-.09v-.1l-1.25-19.36-.57,0,1.24,19.26a6.76,6.76,0,0,0-1.24,3.25c0,1.43,1.2,15.56,1.25,16.17Z"/><path class="cls-12" d="M453,203.46c0-.07.77-7.27.88-8.74a4.33,4.33,0,0,1,1.47-2.52l.08-.07,2.72-17.08-.56-.09-2.69,16.88a4.77,4.77,0,0,0-1.59,2.83c-.11,1.47-.87,8.66-.88,8.73l.57.06Z"/><path class="cls-12" d="M488.32,194.69h0c0,.55-.89,1-2,1h-2.51c-1.1,0-2-.45-2-1h6.49Z"/><path class="cls-12" d="M463.85,194.69h0c0,.55-.89,1-2,1h-2.51c-1.1,0-2-.45-2-1h6.49Z"/><path class="cls-12" d="M510.44,193.33c-.22,1.95.21,9.16.58,14.52-.19.19-.36.39-.53.59-.39-5.42-.86-13.09-.61-15.18A30.69,30.69,0,0,1,511.5,187l.46.41a30.77,30.77,0,0,0-1.52,5.91Z"/><path class="cls-12" d="M540.39,206.42v6.2a3.1,3.1,0,0,1,0-6.2Z"/><path class="cls-13" d="M544.77,337.8h0a32.33,32.33,0,0,1,22.86-9.47h15.59a38.82,38.82,0,0,1,18.87,4.89l10.85,6a42,42,0,0,0,14,4.8c7.85,1.19,19.66,3.61,21.32,7.57l1.09,5.28a23.23,23.23,0,0,1,0,9.54H635.84a10.58,10.58,0,1,0-20.32,0H560.71a10.27,10.27,0,0,0,.43-2.95,10.59,10.59,0,0,0-21.17,0,10.48,10.48,0,0,0,.24,2.25L527,363.49V344.56a26.87,26.87,0,0,0,17.82-6.76Z"/><path class="cls-14" d="M640.8,351.63l-.15.51A82.28,82.28,0,0,1,621.1,343l.15-.22.83.24a82.74,82.74,0,0,0,18.72,8.64Z"/><polygon class="cls-9" points="648.3 351.62 638.45 350.56 640.73 354.11 649.13 355.61 648.3 351.62 648.3 351.62"/><path class="cls-15" d="M644.83,358.6v5.55a2.78,2.78,0,1,1,0-5.55Z"/><path class="cls-16" d="M612.17,366.44c3.44-12.7-2.29-25.73-2.29-25.73m-56.36,16.58a72.78,72.78,0,0,1-8.12-17.2"/><path class="cls-7" d="M625.68,353.75a9.74,9.74,0,1,1-9.74,9.74,9.74,9.74,0,0,1,9.74-9.74Z"/><path class="cls-3" d="M625.68,357.29a6.21,6.21,0,1,1-6.21,6.2,6.2,6.2,0,0,1,6.21-6.2Z"/><path class="cls-8" d="M625.68,358.6a4.9,4.9,0,1,1-4.9,4.89,4.89,4.89,0,0,1,4.9-4.89Z"/><path class="cls-7" d="M550.55,353.75a9.74,9.74,0,1,1-9.74,9.74,9.74,9.74,0,0,1,9.74-9.74Z"/><path class="cls-3" d="M550.55,357.29a6.21,6.21,0,1,1-6.21,6.2,6.2,6.2,0,0,1,6.21-6.2Z"/><path class="cls-8" d="M550.55,358.6a4.9,4.9,0,1,1-4.89,4.89,4.89,4.89,0,0,1,4.89-4.89Z"/><path class="cls-7" d="M545.4,340.09h0a31.73,31.73,0,0,1,22.44-9.29h15.3a38.06,38.06,0,0,1,18.51,4.8s12.79,8.15,15.17,8.95l-6,2.83-72.45-2.83a26.25,26.25,0,0,0,7-4.46Z"/><path class="cls-3" d="M548.59,339.34a29.91,29.91,0,0,1,19.25-6.95h15.3a36.63,36.63,0,0,1,17.7,4.57c1.15.73,8,5.11,12.37,7.55l-2.69,1.27-61.08-2.38-.85-4.06Z"/><polygon class="cls-7" points="581.41 346.23 575.89 346.02 573.98 330.8 578.39 330.8 581.41 346.23 581.41 346.23"/><path class="cls-16" d="M576.36,330.8s4.92,18.17,2.37,35.64"/><path class="cls-10" d="M527,347.38l6.61,1.31s-1,4.39-6.61,4.39v-5.7Z"/><text class="cls-17" transform="translate(408.72 103.89)">2795件</text><text class="cls-17" transform="translate(441.72 252.89)">2854件</text><text class="cls-17" transform="translate(541.72 401.89)">4068件</text><text class="cls-17" transform="translate(249.72 61.89)">22.95%</text><text class="cls-17" transform="translate(257.72 209.89)">25.19%</text><text class="cls-17" transform="translate(323.72 362.89)">32.05%</text><text class="cls-17" transform="translate(1173.77 60.63)">12177</text><text class="cls-17" transform="translate(1145.77 210.63)">11332</text><text class="cls-17" transform="translate(1215.77 361.63)">12692</text></g></g></svg>