<svg xmlns="http://www.w3.org/2000/svg" viewBox="0 0 924.92 1460.1"><defs><style>.cls-1{font-size:35px;}.cls-1,.cls-2,.cls-4,.cls-5,.cls-6{fill:#fff;}.cls-1,.cls-2,.cls-4,.cls-5,.cls-7{font-family:NotoSansCJKtc-Medium-B5pc-H, Noto Sans CJK TC;}.cls-2{font-size:52.65px;}.cls-3{fill:#fbb03b;fill-rule:evenodd;}.cls-4,.cls-5{font-size:44.55px;}.cls-5{letter-spacing:-0.12em;}.cls-7{font-size:43.76px;}</style></defs><title>資產 11</title><g id="圖層_2" data-name="圖層 2"><g id="圖層_11" data-name="圖層 11"><text class="cls-1" transform="translate(247.26 1251.64)">修法</text><text class="cls-2" transform="translate(419.9 803.26)">18萬</text><text class="cls-2" transform="translate(598.92 408.34)">36萬</text><text class="cls-2" transform="translate(776.92 46.34)">54萬</text><path class="cls-3" d="M101.63,1030.55a10.77,10.77,0,0,1,7.22,7.76c21.61-4.33,20.68,6.59,12.53,20.1a74.61,74.61,0,0,0-6.57,14.26l-13.18.09v-5.56c10.23-13,7.59-25.38,0-32.13v-4.52Zm0,32.6a36.52,36.52,0,0,0,0-21.65Zm-23.4,9.65a72.88,72.88,0,0,0-7.7-15.67C62,1043.84,62.7,1032.71,82.11,1039c2.17-8.21,12.3-11.07,19.52-8.45v4.52a20.74,20.74,0,0,0-6.72-4,22.55,22.55,0,0,1,6.72,10.44v21.65a38,38,0,0,1-3.38,7.88,46.19,46.19,0,0,0,3.38-3.83v5.56C91.18,1072.82,78.31,1072.89,78.23,1072.8Z"/><path class="cls-3" d="M138.41,1205.39h32.08a7.14,7.14,0,0,0,7.13-7.12v-6.58a7.15,7.15,0,0,0-7.13-7.13h-8.71c2.78-27.68-1.94-54-23.37-75.22v10.44c16.7,20.22,28.69,54,3.19,76.83,11.78-21.4,6.41-47.59-3.19-67.21ZM77.19,1093s-52,24-47.53,91.55H21.39a7.15,7.15,0,0,0-7.13,7.13v6.58a7.14,7.14,0,0,0,7.13,7.12h117v-76c-5.4-11.05-12.14-20-17.91-24.88,5.6,2.72,12.05,8.16,17.91,15.26v-10.44A105.91,105.91,0,0,0,116.66,1093Z"/><text class="cls-4" transform="translate(61.49 1169.25)">9萬</text><path class="cls-3" d="M480.48,860.67a10.76,10.76,0,0,1,7.21,7.75c21.62-4.32,20.69,6.59,12.54,20.11a74.81,74.81,0,0,0-6.58,14.25l-13.17.09v-5.55c10.22-13,7.59-25.38,0-32.14v-4.51Zm0,32.6a36.52,36.52,0,0,0,0-21.65Zm-23.4,9.65a72.88,72.88,0,0,0-7.7-15.67c-8.57-13.29-7.83-24.42,11.57-18.14,2.18-8.21,12.31-11.07,19.53-8.44v4.51a21,21,0,0,0-6.72-4,22.64,22.64,0,0,1,6.72,10.45v21.65a37.49,37.49,0,0,1-3.39,7.88,46.37,46.37,0,0,0,3.39-3.83v5.55C470,902.94,457.16,903,457.08,902.92Z"/><path class="cls-3" d="M517.26,1035.51h32.08a7.14,7.14,0,0,0,7.12-7.12v-6.58a7.14,7.14,0,0,0-7.12-7.13h-8.71c2.78-27.68-1.94-54-23.37-75.22V949.9c16.7,20.22,28.69,54,3.19,76.83,11.78-21.4,6.4-47.59-3.19-67.21ZM456,923.13s-52.05,24-47.53,91.55h-8.27a7.15,7.15,0,0,0-7.13,7.13v6.58a7.14,7.14,0,0,0,7.13,7.12h117v-76c-5.41-11-12.15-20-17.92-24.88,5.61,2.72,12.05,8.16,17.92,15.26V939.46a106,106,0,0,0-21.76-16.33Z"/><text class="cls-5" transform="translate(453.21 999.37)">＄</text><path class="cls-3" d="M485.5,1038.93a10.77,10.77,0,0,1,7.22,7.76c21.61-4.33,20.68,6.59,12.53,20.1a74.61,74.61,0,0,0-6.57,14.26l-13.18.09v-5.56c10.23-13,7.59-25.38,0-32.13v-4.52Zm0,32.6a36.52,36.52,0,0,0,0-21.65Zm-23.4,9.65a72.88,72.88,0,0,0-7.7-15.67c-8.57-13.29-7.83-24.42,11.58-18.13,2.17-8.21,12.3-11.07,19.52-8.45v4.52a20.74,20.74,0,0,0-6.72-4,22.55,22.55,0,0,1,6.72,10.44v21.65a38,38,0,0,1-3.38,7.88,46.19,46.19,0,0,0,3.38-3.83v5.56C475.05,1081.2,462.18,1081.27,462.1,1081.18Z"/><path class="cls-3" d="M522.28,1213.77h32.08a7.14,7.14,0,0,0,7.13-7.12v-6.58a7.15,7.15,0,0,0-7.13-7.13h-8.71c2.78-27.68-1.94-54-23.37-75.22v10.44c16.7,20.22,28.69,54,3.19,76.83,11.78-21.4,6.41-47.59-3.19-67.21Zm-61.22-112.38s-52.05,24-47.53,91.55h-8.27a7.15,7.15,0,0,0-7.13,7.13v6.58a7.14,7.14,0,0,0,7.13,7.12h117v-76c-5.41-11-12.14-20-17.91-24.88,5.6,2.72,12,8.16,17.91,15.26v-10.44a105.91,105.91,0,0,0-21.75-16.33Z"/><text class="cls-5" transform="translate(458.23 1177.63)">＄</text><path class="cls-3" d="M661.88,479a10.77,10.77,0,0,1,7.22,7.75c21.61-4.32,20.68,6.59,12.53,20.11a74.81,74.81,0,0,0-6.58,14.25l-13.17.09v-5.55c10.22-13,7.59-25.38,0-32.14V479Zm0,32.6a36.52,36.52,0,0,0,0-21.65Zm-23.4,9.65a72.88,72.88,0,0,0-7.7-15.67c-8.57-13.29-7.83-24.42,11.58-18.14,2.17-8.21,12.3-11.07,19.52-8.44v4.51a20.92,20.92,0,0,0-6.72-4A22.64,22.64,0,0,1,661.88,490V511.6a37.49,37.49,0,0,1-3.39,7.88,44.6,44.6,0,0,0,3.39-3.83v5.55C651.43,521.27,638.56,521.33,638.48,521.25Z"/><path class="cls-3" d="M698.66,653.84h32.08a7.14,7.14,0,0,0,7.13-7.12v-6.58a7.15,7.15,0,0,0-7.13-7.13H722c2.78-27.68-1.94-54-23.37-75.22v10.44c16.7,20.22,28.69,54,3.19,76.83,11.78-21.4,6.41-47.59-3.19-67.22ZM637.44,541.46s-52.05,24-47.53,91.55h-8.27a7.15,7.15,0,0,0-7.13,7.13v6.58a7.14,7.14,0,0,0,7.13,7.12h117v-76c-5.41-11-12.14-20-17.91-24.87,5.6,2.71,12,8.16,17.91,15.26V557.79a105.91,105.91,0,0,0-21.75-16.33Z"/><text class="cls-5" transform="translate(634.61 617.7)">＄</text><path class="cls-3" d="M666.9,667.93a10.77,10.77,0,0,1,7.22,7.76c21.61-4.33,20.68,6.59,12.53,20.1a74.61,74.61,0,0,0-6.57,14.26l-13.18.09v-5.56c10.23-13,7.59-25.38,0-32.13v-4.52Zm0,32.6a36.52,36.52,0,0,0,0-21.65Zm-23.4,9.65a72.88,72.88,0,0,0-7.7-15.67c-8.57-13.29-7.83-24.42,11.58-18.13,2.17-8.21,12.3-11.07,19.52-8.45v4.52a20.74,20.74,0,0,0-6.72-4,22.55,22.55,0,0,1,6.72,10.44v21.65a38,38,0,0,1-3.38,7.88,46.19,46.19,0,0,0,3.38-3.83v5.56C656.45,710.2,643.58,710.27,643.5,710.18Z"/><path class="cls-3" d="M703.68,842.77h32.08a7.14,7.14,0,0,0,7.13-7.12v-6.58a7.15,7.15,0,0,0-7.13-7.13h-8.71c2.78-27.68-1.94-54-23.37-75.22v10.44c16.7,20.22,28.69,54,3.19,76.83,11.78-21.4,6.41-47.59-3.19-67.21ZM642.46,730.39s-52.05,24-47.53,91.55h-8.27a7.15,7.15,0,0,0-7.13,7.13v6.58a7.14,7.14,0,0,0,7.13,7.12h117v-76c-5.4-11-12.14-20-17.91-24.88,5.6,2.72,12.05,8.16,17.91,15.26V746.72a105.91,105.91,0,0,0-21.75-16.33Z"/><text class="cls-5" transform="translate(639.64 806.63)">＄</text><path class="cls-3" d="M666.9,846.2a10.76,10.76,0,0,1,7.22,7.75c21.61-4.32,20.68,6.59,12.53,20.1a74.61,74.61,0,0,0-6.57,14.26l-13.18.09v-5.56c10.23-13,7.59-25.37,0-32.13V846.2Zm0,32.59a36.49,36.49,0,0,0,0-21.64Zm-23.4,9.65a72.69,72.69,0,0,0-7.7-15.66c-8.57-13.29-7.83-24.43,11.58-18.14,2.17-8.21,12.3-11.07,19.52-8.44v4.51a20.74,20.74,0,0,0-6.72-4,22.64,22.64,0,0,1,6.72,10.45v21.64a37.52,37.52,0,0,1-3.38,7.88,43.16,43.16,0,0,0,3.38-3.83v5.56C656.45,888.47,643.58,888.53,643.5,888.44Z"/><path class="cls-3" d="M703.68,1021h32.08a7.15,7.15,0,0,0,7.13-7.13v-6.58a7.15,7.15,0,0,0-7.13-7.13h-8.71c2.78-27.68-1.94-54-23.37-75.22v10.44c16.7,20.23,28.69,54,3.19,76.84,11.78-21.41,6.41-47.6-3.19-67.22ZM642.46,908.65s-52.05,24-47.53,91.55h-8.27a7.15,7.15,0,0,0-7.13,7.13v6.58a7.15,7.15,0,0,0,7.13,7.13h117V945c-5.4-11-12.14-20-17.91-24.87,5.6,2.71,12.05,8.15,17.91,15.25V925a106.27,106.27,0,0,0-21.75-16.33Z"/><text class="cls-5" transform="translate(639.64 984.9)">＄</text><path class="cls-3" d="M666.9,1041.41a10.76,10.76,0,0,1,7.22,7.75c21.61-4.32,20.68,6.59,12.53,20.1a74.61,74.61,0,0,0-6.57,14.26l-13.18.09v-5.56c10.23-13,7.59-25.37,0-32.13v-4.51Zm0,32.59a36.49,36.49,0,0,0,0-21.64Zm-23.4,9.65a72.69,72.69,0,0,0-7.7-15.66c-8.57-13.29-7.83-24.43,11.58-18.14,2.17-8.21,12.3-11.07,19.52-8.44v4.51a20.74,20.74,0,0,0-6.72-4,22.64,22.64,0,0,1,6.72,10.45V1074a37.52,37.52,0,0,1-3.38,7.88,43.16,43.16,0,0,0,3.38-3.83v5.56C656.45,1083.68,643.58,1083.74,643.5,1083.65Z"/><path class="cls-3" d="M703.68,1216.25h32.08a7.15,7.15,0,0,0,7.13-7.13v-6.58a7.15,7.15,0,0,0-7.13-7.13h-8.71c2.78-27.68-1.94-54-23.37-75.22v10.44c16.7,20.23,28.69,54,3.19,76.84,11.78-21.41,6.41-47.6-3.19-67.22Zm-61.22-112.39s-52.05,24-47.53,91.55h-8.27a7.15,7.15,0,0,0-7.13,7.13v6.58a7.15,7.15,0,0,0,7.13,7.13h117v-76c-5.4-11-12.14-20-17.91-24.87,5.6,2.71,12.05,8.15,17.91,15.25v-10.44a106.27,106.27,0,0,0-21.75-16.33Z"/><text class="cls-5" transform="translate(639.64 1180.11)">＄</text><path class="cls-3" d="M838.89,111.47a10.76,10.76,0,0,1,7.21,7.75c21.62-4.32,20.68,6.59,12.54,20.1a75,75,0,0,0-6.58,14.26l-13.17.09v-5.56c10.22-13,7.59-25.37,0-32.13v-4.51Zm0,32.6a36.68,36.68,0,0,0,0-21.65Zm-23.41,9.65a72.52,72.52,0,0,0-7.69-15.67c-8.58-13.29-7.83-24.42,11.57-18.14,2.18-8.21,12.31-11.07,19.53-8.44V116a20.85,20.85,0,0,0-6.72-4,22.64,22.64,0,0,1,6.72,10.45v21.65a37.19,37.19,0,0,1-3.39,7.87,43.33,43.33,0,0,0,3.39-3.83v5.56C828.44,153.74,815.57,153.8,815.48,153.72Z"/><path class="cls-3" d="M875.67,286.31h32.08a7.14,7.14,0,0,0,7.12-7.13V272.6a7.14,7.14,0,0,0-7.12-7.12H899c2.78-27.68-1.94-54-23.37-75.23v10.44c16.69,20.23,28.69,54,3.19,76.84,11.78-21.41,6.4-47.6-3.19-67.22ZM814.45,173.92s-52.05,24-47.53,91.56h-8.27a7.14,7.14,0,0,0-7.13,7.12v6.58a7.15,7.15,0,0,0,7.13,7.13h117v-76c-5.41-11.05-12.15-20-17.92-24.87,5.61,2.71,12,8.15,17.92,15.25V190.25a106.71,106.71,0,0,0-21.76-16.33Z"/><text class="cls-5" transform="translate(811.62 250.17)">＄</text><path class="cls-3" d="M843.91,300.4a10.79,10.79,0,0,1,7.22,7.75c21.61-4.32,20.68,6.59,12.53,20.11a74.81,74.81,0,0,0-6.58,14.25l-13.17.09v-5.55c10.22-13,7.59-25.38,0-32.14V300.4Zm0,32.6a36.52,36.52,0,0,0,0-21.65Zm-23.4,9.65a72.88,72.88,0,0,0-7.7-15.67c-8.57-13.29-7.83-24.42,11.57-18.13,2.18-8.22,12.31-11.08,19.53-8.45v4.51a21,21,0,0,0-6.72-4,22.64,22.64,0,0,1,6.72,10.45V333a37.49,37.49,0,0,1-3.39,7.88,46.37,46.37,0,0,0,3.39-3.83v5.55C833.46,342.67,820.59,342.73,820.51,342.65Z"/><path class="cls-3" d="M880.69,475.24h32.08a7.14,7.14,0,0,0,7.12-7.12v-6.58a7.14,7.14,0,0,0-7.12-7.13h-8.71c2.78-27.68-1.94-54-23.37-75.22v10.44c16.7,20.22,28.69,54,3.19,76.83,11.78-21.4,6.4-47.59-3.19-67.21ZM819.47,362.86s-52.05,24-47.53,91.55h-8.27a7.15,7.15,0,0,0-7.13,7.13v6.58a7.14,7.14,0,0,0,7.13,7.12h117v-76c-5.41-11.05-12.15-20-17.92-24.88,5.61,2.72,12.05,8.16,17.92,15.26V379.19a106,106,0,0,0-21.76-16.33Z"/><text class="cls-5" transform="translate(816.64 439.1)">＄</text><path class="cls-3" d="M843.91,478.66a10.79,10.79,0,0,1,7.22,7.76c21.61-4.33,20.68,6.59,12.53,20.1a75,75,0,0,0-6.58,14.26l-13.17.09v-5.56c10.22-13,7.59-25.38,0-32.13v-4.52Zm0,32.6a36.52,36.52,0,0,0,0-21.65Zm-23.4,9.65a72.88,72.88,0,0,0-7.7-15.67c-8.57-13.29-7.83-24.42,11.57-18.13,2.18-8.21,12.31-11.07,19.53-8.45v4.52a20.85,20.85,0,0,0-6.72-4,22.55,22.55,0,0,1,6.72,10.44v21.65a37.49,37.49,0,0,1-3.39,7.88,46.37,46.37,0,0,0,3.39-3.83v5.56C833.46,520.93,820.59,521,820.51,520.91Z"/><path class="cls-3" d="M880.69,653.5h32.08a7.14,7.14,0,0,0,7.12-7.12V639.8a7.14,7.14,0,0,0-7.12-7.13h-8.71c2.78-27.68-1.94-54-23.37-75.22v10.44c16.7,20.22,28.69,54,3.19,76.83,11.78-21.4,6.4-47.59-3.19-67.21ZM819.47,541.12s-52.05,24-47.53,91.55h-8.27a7.15,7.15,0,0,0-7.13,7.13v6.58a7.14,7.14,0,0,0,7.13,7.12h117v-76c-5.41-11-12.15-20-17.92-24.88,5.61,2.72,12.05,8.16,17.92,15.26V557.45a106,106,0,0,0-21.76-16.33Z"/><text class="cls-5" transform="translate(816.64 617.36)">＄</text><path class="cls-3" d="M843.91,673.87a10.79,10.79,0,0,1,7.22,7.76c21.61-4.33,20.68,6.59,12.53,20.1A75,75,0,0,0,857.08,716l-13.17.09v-5.56c10.22-13,7.59-25.38,0-32.13v-4.52Zm0,32.6a36.52,36.52,0,0,0,0-21.65Zm-23.4,9.65a72.88,72.88,0,0,0-7.7-15.67c-8.57-13.29-7.83-24.42,11.57-18.13,2.18-8.21,12.31-11.07,19.53-8.45v4.52a20.85,20.85,0,0,0-6.72-4,22.55,22.55,0,0,1,6.72,10.44v21.65a37.49,37.49,0,0,1-3.39,7.88,46.37,46.37,0,0,0,3.39-3.83v5.56C833.46,716.14,820.59,716.21,820.51,716.12Z"/><path class="cls-3" d="M880.69,848.71h32.08a7.14,7.14,0,0,0,7.12-7.12V835a7.14,7.14,0,0,0-7.12-7.13h-8.71c2.78-27.68-1.94-54-23.37-75.22V763.1c16.7,20.22,28.69,54,3.19,76.84,11.78-21.41,6.4-47.6-3.19-67.22ZM819.47,736.33s-52.05,24-47.53,91.55h-8.27a7.15,7.15,0,0,0-7.13,7.13v6.58a7.14,7.14,0,0,0,7.13,7.12h117v-76c-5.41-11.05-12.15-20-17.92-24.88,5.61,2.72,12.05,8.16,17.92,15.26V752.66a106,106,0,0,0-21.76-16.33Z"/><text class="cls-5" transform="translate(816.64 812.57)">＄</text><path class="cls-3" d="M843.91,854.65a10.77,10.77,0,0,1,7.22,7.75c21.61-4.32,20.68,6.59,12.53,20.1a75,75,0,0,0-6.58,14.26l-13.17.09v-5.56c10.22-13,7.59-25.37,0-32.13v-4.51Zm0,32.6a36.52,36.52,0,0,0,0-21.65Zm-23.4,9.65a72.88,72.88,0,0,0-7.7-15.67c-8.57-13.29-7.83-24.42,11.57-18.14,2.18-8.21,12.31-11.07,19.53-8.44v4.51a20.85,20.85,0,0,0-6.72-4,22.64,22.64,0,0,1,6.72,10.45v21.65a37.19,37.19,0,0,1-3.39,7.87,43.33,43.33,0,0,0,3.39-3.83v5.56C833.46,896.92,820.59,897,820.51,896.9Z"/><path class="cls-3" d="M880.69,1029.49h32.08a7.14,7.14,0,0,0,7.12-7.13v-6.58a7.14,7.14,0,0,0-7.12-7.12h-8.71c2.78-27.68-1.94-54-23.37-75.23v10.44c16.7,20.23,28.69,54,3.19,76.84,11.78-21.41,6.4-47.6-3.19-67.22ZM819.47,917.1s-52.05,24-47.53,91.56h-8.27a7.14,7.14,0,0,0-7.13,7.12v6.58a7.15,7.15,0,0,0,7.13,7.13h117v-76c-5.41-11-12.15-20-17.92-24.87,5.61,2.71,12.05,8.15,17.92,15.25V933.43a106.71,106.71,0,0,0-21.76-16.33Z"/><text class="cls-5" transform="translate(816.64 993.35)">＄</text><path class="cls-3" d="M848.93,1043.58a10.77,10.77,0,0,1,7.22,7.75c21.61-4.32,20.68,6.59,12.53,20.11a74.38,74.38,0,0,0-6.57,14.25l-13.18.09v-5.55c10.23-13,7.59-25.38,0-32.14v-4.51Zm0,32.6a36.52,36.52,0,0,0,0-21.65Zm-23.4,9.65a72.88,72.88,0,0,0-7.7-15.67c-8.57-13.29-7.83-24.42,11.58-18.13,2.17-8.22,12.3-11.08,19.52-8.45v4.51a20.92,20.92,0,0,0-6.72-4,22.64,22.64,0,0,1,6.72,10.45v21.65a38,38,0,0,1-3.38,7.88,46.19,46.19,0,0,0,3.38-3.83v5.55C838.48,1085.85,825.61,1085.91,825.53,1085.83Z"/><path class="cls-3" d="M885.71,1218.42h32.08a7.14,7.14,0,0,0,7.13-7.12v-6.58a7.15,7.15,0,0,0-7.13-7.13h-8.71c2.78-27.68-1.94-54-23.37-75.22v10.44c16.7,20.22,28.69,54,3.19,76.83,11.78-21.4,6.41-47.59-3.19-67.21ZM824.49,1106s-52,24-47.53,91.55h-8.27a7.15,7.15,0,0,0-7.13,7.13v6.58a7.14,7.14,0,0,0,7.13,7.12h117v-76c-5.41-11-12.14-20-17.91-24.88,5.6,2.72,12,8.16,17.91,15.26v-10.44A105.91,105.91,0,0,0,864,1106Z"/><text class="cls-5" transform="translate(821.66 1182.28)">＄</text><polygon class="cls-6" points="364.97 1327.94 299.18 1366.21 298.94 1290.1 364.97 1327.94"/><rect class="cls-6" x="217.98" y="1316.63" width="93.85" height="21.02"/><rect class="cls-6" y="1286.63" width="174.35" height="6.5"/><rect class="cls-6" x="390" y="1286.63" width="517.17" height="6.5"/><circle class="cls-6" cx="471.36" cy="1390.6" r="69.5"/><circle class="cls-6" cx="89.36" cy="1390.6" r="69.5"/><circle class="cls-6" cx="653.36" cy="1390.6" r="69.5"/><circle class="cls-6" cx="838.36" cy="1387.6" r="69.5"/><text class="cls-7" transform="translate(45.57 1406.15)">初犯</text><text class="cls-7" transform="translate(427.57 1406.15)">初犯</text><text class="cls-7" transform="translate(610.57 1408.15)">二犯</text><text class="cls-7" transform="translate(794.57 1408.15)">三犯</text></g></g></svg>