<svg xmlns="http://www.w3.org/2000/svg" viewBox="0 0 1258.86 1005.54"><defs><style>.cls-1,.cls-5{font-size:35px;font-family:NotoSansCJKtc-Regular-B5pc-H, Noto Sans CJK TC;letter-spacing:0.02em;}.cls-1,.cls-4{fill:#fff;}.cls-2{fill:#fbb03b;}.cls-3{fill:#cc4040;}.cls-5,.cls-6{fill:#efa543;}.cls-7{fill:#c7cbcd;}.cls-8{fill:#9caba8;}.cls-9{fill:#2e465f;}.cls-10{fill:#e4462e;}.cls-11{fill:#263c51;}.cls-12{fill:#c5341e;}.cls-13{fill:#f3f6f7;}</style></defs><title>資產 4</title><g id="圖層_2" data-name="圖層 2"><g id="圖層_11" data-name="圖層 11"><text class="cls-1" transform="translate(2.56 33.49) rotate(-1)">2<tspan x="20.03" y="0.35">0</tspan><tspan x="40.06" y="0.7">1</tspan><tspan x="60.09" y="1.05">1</tspan><tspan x="80.12" y="1.3"> </tspan><tspan x="88.57" y="1.45"> </tspan><tspan x="97.02" y="1.59"> </tspan><tspan x="105.47" y="1.74"> </tspan></text><text class="cls-1" transform="translate(0.56 141.49) rotate(-1)">2<tspan x="20.03" y="0.35">0</tspan><tspan x="40.06" y="0.7">1</tspan><tspan x="60.09" y="1.05">2</tspan><tspan x="80.12" y="1.3"> </tspan><tspan x="88.57" y="1.45"> </tspan><tspan x="97.02" y="1.59"> </tspan><tspan x="105.47" y="1.74"> </tspan></text><text class="cls-1" transform="translate(2.56 248.49) rotate(-1)">2<tspan x="20.03" y="0.35">0</tspan><tspan x="40.06" y="0.7">1</tspan><tspan x="60.09" y="1.05">3</tspan><tspan x="80.12" y="1.3"> </tspan><tspan x="88.57" y="1.45"> </tspan><tspan x="97.02" y="1.59"> </tspan><tspan x="105.47" y="1.74"> </tspan></text><text class="cls-1" transform="translate(0.56 350.49) rotate(-1)">2<tspan x="20.03" y="0.35">0</tspan><tspan x="40.06" y="0.7">1</tspan><tspan x="60.09" y="1.05">4</tspan><tspan x="80.12" y="1.3"> </tspan><tspan x="88.57" y="1.45"> </tspan><tspan x="97.02" y="1.59"> </tspan><tspan x="105.47" y="1.74"> </tspan></text><text class="cls-1" transform="translate(2.56 452.49) rotate(-1)">2<tspan x="20.03" y="0.35">0</tspan><tspan x="40.06" y="0.7">1</tspan><tspan x="60.09" y="1.05">5</tspan><tspan x="80.12" y="1.3"> </tspan><tspan x="88.57" y="1.45"> </tspan><tspan x="97.02" y="1.59"> </tspan><tspan x="105.47" y="1.74"> </tspan></text><text class="cls-1" transform="translate(0.56 555.49) rotate(-1)">2<tspan x="20.03" y="0.35">0</tspan><tspan x="40.06" y="0.7">1</tspan><tspan x="60.09" y="1.05">6</tspan><tspan x="80.12" y="1.3"> </tspan><tspan x="88.57" y="1.45"> </tspan><tspan x="97.02" y="1.59"> </tspan><tspan x="105.47" y="1.74"> </tspan></text><text class="cls-1" transform="translate(2.56 661.49) rotate(-1)">2<tspan x="20.03" y="0.35">0</tspan><tspan x="40.06" y="0.7">1</tspan><tspan x="60.09" y="1.05">7</tspan><tspan x="80.12" y="1.3"> </tspan><tspan x="88.57" y="1.45"> </tspan><tspan x="97.02" y="1.59"> </tspan><tspan x="105.47" y="1.74"> </tspan></text><text class="cls-1" transform="translate(0.56 772.49) rotate(-1)">2<tspan x="20.03" y="0.35">0</tspan><tspan x="40.06" y="0.7">1</tspan><tspan x="60.09" y="1.05">8</tspan><tspan x="80.12" y="1.3"> </tspan><tspan x="88.57" y="1.45"> </tspan><tspan x="97.02" y="1.59"> </tspan><tspan x="105.47" y="1.74"> </tspan></text><rect class="cls-2" x="134.21" y="7.55" width="679.04" height="31.86"/><rect class="cls-2" x="134.21" y="113.11" width="808.93" height="30.34"/><rect class="cls-2" x="134.21" y="216.11" width="757.42" height="30.34"/><rect class="cls-2" x="134.21" y="318.11" width="727" height="30.34"/><rect class="cls-2" x="134.21" y="425.11" width="706.72" height="30.34"/><rect class="cls-2" x="134.21" y="524.11" width="678.03" height="30.34"/><rect class="cls-2" x="134.21" y="637.11" width="671.97" height="30.34"/><rect class="cls-3" x="135.21" y="752.11" width="584.61" height="30.34"/><rect class="cls-4" x="105.21" y="886.47" width="1153.65" height="8"/><rect class="cls-4" x="-334.29" y="441.08" width="886.47" height="4.3" transform="translate(-334.29 552.18) rotate(-90)"/><text class="cls-5" transform="translate(103.12 969.03) rotate(-1)">0</text><text class="cls-5" transform="translate(367.89 969.03) rotate(-1)">5<tspan x="20.03" y="0.35">0</tspan><tspan x="40.06" y="0.62">,</tspan><tspan x="50.4" y="0.88">0</tspan><tspan x="70.43" y="1.23">0</tspan><tspan x="90.46" y="1.58">0</tspan></text><text class="cls-5" transform="translate(709.87 969.03) rotate(-1)">1<tspan x="20.03" y="0.35">0</tspan><tspan x="40.06" y="0.7">0</tspan><tspan x="60.09" y="0.96">,</tspan><tspan x="70.43" y="1.23">0</tspan><tspan x="90.46" y="1.58">0</tspan><tspan x="110.49" y="1.93">0</tspan></text><text class="cls-5" transform="translate(1022.87 969.03) rotate(-1)">1<tspan x="20.03" y="0.35">5</tspan><tspan x="40.06" y="0.7">0</tspan><tspan x="60.09" y="0.96">,</tspan><tspan x="70.43" y="1.23">0</tspan><tspan x="90.46" y="1.58">0</tspan><tspan x="110.49" y="1.93">0</tspan></text><text/><rect class="cls-6" x="420.21" y="863.37" width="8" height="58.63"/><rect class="cls-6" x="763.21" y="863.37" width="8" height="58.63"/><rect class="cls-6" x="1084.21" y="864.84" width="8" height="58.63"/><polygon class="cls-7" points="759.45 753.78 764.5 753.78 764.5 776.93 759.45 776.93 759.45 753.78 759.45 753.78"/><polygon class="cls-8" points="759.45 753.78 764.5 753.78 764.5 761.98 759.45 761.98 759.45 753.78 759.45 753.78"/><polygon class="cls-7" points="720.88 753.78 725.93 753.78 725.93 776.93 720.88 776.93 720.88 753.78 720.88 753.78"/><polygon class="cls-8" points="720.88 753.78 725.93 753.78 725.93 761.98 720.88 761.98 720.88 753.78 720.88 753.78"/><path class="cls-9" d="M769.27,755.52S754.3,740,738,740l27.16,18.07,4.13-2.56Z"/><path class="cls-10" d="M698.46,745.2c5.9-5.73,29.67-5.15,41.41-5.15S767,755.5,767,755.5c28.9,0,30.91,8.31,30.91,8.31a64.45,64.45,0,0,1-2.58,17.74h-13a10.75,10.75,0,0,0-21.5,0H718.82a10.75,10.75,0,1,0-21.49,0H689.7s-.57-2.29-1.72-8.88,4.58-21.75,10.48-27.47Z"/><path class="cls-11" d="M771.52,771.53a10,10,0,1,1-10,10,10,10,0,0,1,10-10Z"/><path class="cls-9" d="M771.52,775.16a6.39,6.39,0,1,1-6.38,6.39,6.39,6.39,0,0,1,6.38-6.39Z"/><path class="cls-7" d="M771.52,776.51a5,5,0,1,1-5,5,5,5,0,0,1,5-5Z"/><path class="cls-11" d="M708.08,771.53a10,10,0,1,1-10,10,10,10,0,0,1,10-10Z"/><path class="cls-9" d="M708.08,775.16a6.39,6.39,0,1,1-6.39,6.39,6.39,6.39,0,0,1,6.39-6.39Z"/><path class="cls-7" d="M708.08,776.51a5,5,0,1,1-5,5,5,5,0,0,1,5-5Z"/><path class="cls-12" d="M790.45,762.79l-.3.49c-10-6.19-23.07-7.48-23.2-7.49l0-.29,2.29,0c4.23.66,13.59,2.57,21.18,7.27Z"/><path class="cls-13" d="M797.74,767.66s-6.08-.85-7-1.78-1.24-3.33-1.24-3.33l8.4,1.26c0,1.31,0,2.58-.13,3.81l0,0Z"/><path class="cls-9" d="M700.18,746.28c5.28-5.13,26.56-4.61,37.06-4.61S761.5,755.5,761.5,755.5s-1.11,2.58-5.5,2.58H695.31l-1-2.58a31.34,31.34,0,0,1,5.9-9.22Z"/><polygon class="cls-10" points="732.41 740.03 734.19 759.39 730.34 759.39 729.73 740.03 732.41 740.03 732.41 740.03"/><polygon class="cls-10" points="711.74 740.97 709.98 759.39 706.51 759.39 709.12 741.33 711.74 740.97 711.74 740.97"/><path class="cls-12" d="M732,778.72l.57-.05c0-.15-1.25-14.71-1.25-16.12a6.51,6.51,0,0,1,1.2-3l.06-.08v-.11L731.29,740l-.57,0L732,759.31a6.75,6.75,0,0,0-1.25,3.24c0,1.44,1.2,15.57,1.25,16.17Z"/><path class="cls-12" d="M705.92,769.56c0-.08.76-7.28.87-8.75a4.44,4.44,0,0,1,1.47-2.51l.08-.07,2.73-17.09-.57-.09-2.69,16.88a4.85,4.85,0,0,0-1.59,2.84c-.11,1.46-.87,8.65-.87,8.73l.57.06Z"/><path class="cls-12" d="M741.23,760.79h0c0,.55-.89,1-2,1h-2.51c-1.1,0-2-.44-2-1h6.49Z"/><path class="cls-12" d="M716.76,760.79h0c0,.55-.89,1-2,1h-2.51c-1.1,0-2-.44-2-1h6.49Z"/><path class="cls-12" d="M763.35,759.42c-.23,2,.2,9.16.58,14.52-.19.19-.37.39-.54.59-.38-5.42-.85-13.08-.61-15.17a31.46,31.46,0,0,1,1.62-6.26c.17.14.32.28.47.42a29.26,29.26,0,0,0-1.52,5.9Z"/><path class="cls-12" d="M793.29,772.52v6.19a3.1,3.1,0,1,1,0-6.19Z"/><text class="cls-1" transform="translate(669.26 33.49) rotate(-1)">1<tspan x="20.03" y="0.35">0</tspan><tspan x="40.06" y="0.7">3</tspan><tspan x="60.09" y="0.96">,</tspan><tspan x="70.43" y="1.23">6</tspan><tspan x="90.46" y="1.58">7</tspan><tspan x="110.49" y="1.93">0</tspan></text><text class="cls-1" transform="translate(787.26 140.49) rotate(-1)">1<tspan x="20.03" y="0.35">2</tspan><tspan x="40.06" y="0.7">4</tspan><tspan x="60.09" y="0.96">,</tspan><tspan x="70.43" y="1.23">6</tspan><tspan x="90.46" y="1.58">2</tspan><tspan x="110.49" y="1.93">0</tspan></text><text class="cls-1" transform="translate(739.26 244.49) rotate(-1)">1<tspan x="20.03" y="0.35">1</tspan><tspan x="40.06" y="0.7">8</tspan><tspan x="60.09" y="0.96">,</tspan><tspan x="70.43" y="1.23">8</tspan><tspan x="90.46" y="1.58">6</tspan><tspan x="110.49" y="1.93">4</tspan></text><text class="cls-1" transform="translate(705.26 345.49) rotate(-1)">1<tspan x="20.03" y="0.35">1</tspan><tspan x="40.06" y="0.7">5</tspan><tspan x="60.09" y="0.96">,</tspan><tspan x="70.43" y="1.23">2</tspan><tspan x="90.46" y="1.58">5</tspan><tspan x="110.49" y="1.93">3</tspan></text><text class="cls-1" transform="translate(703.26 452.49) rotate(-1)">1<tspan x="20.03" y="0.35">0</tspan><tspan x="40.06" y="0.7">7</tspan><tspan x="60.09" y="0.96">,</tspan><tspan x="70.43" y="1.23">3</tspan><tspan x="90.46" y="1.58">7</tspan><tspan x="110.49" y="1.93">2</tspan></text><text class="cls-1" transform="translate(669.26 553.49) rotate(-1)">1<tspan x="20.03" y="0.35">0</tspan><tspan x="40.06" y="0.7">4</tspan><tspan x="60.09" y="0.96">,</tspan><tspan x="70.43" y="1.23">7</tspan><tspan x="90.46" y="1.58">5</tspan><tspan x="110.49" y="1.93">6</tspan></text><text class="cls-1" transform="translate(658.26 665.49) rotate(-1)">1<tspan x="20.03" y="0.35">0</tspan><tspan x="40.06" y="0.7">3</tspan><tspan x="60.09" y="0.96">,</tspan><tspan x="70.43" y="1.23">4</tspan><tspan x="90.46" y="1.58">7</tspan><tspan x="110.49" y="1.93">6</tspan></text><text class="cls-1" transform="translate(517.26 778.49) rotate(-1)">1<tspan x="20.03" y="0.35">0</tspan><tspan x="40.06" y="0.7">1</tspan><tspan x="60.09" y="0.96">,</tspan><tspan x="70.43" y="1.23">2</tspan><tspan x="90.46" y="1.58">0</tspan><tspan x="110.49" y="1.93">2</tspan></text></g></g></svg>