<svg xmlns="http://www.w3.org/2000/svg" viewBox="0 0 1259.97 982.57"><defs><style>.cls-1,.cls-5{font-size:35px;font-family:MicrosoftJhengHeiRegular, Microsoft JhengHei;}.cls-1,.cls-4{fill:#fff;}.cls-2{fill:#cc4040;}.cls-3{fill:#fbb03b;}.cls-5,.cls-6{fill:#efa543;}.cls-7{fill:#c7cbcd;}.cls-8{fill:#9caba8;}.cls-9{fill:#2e465f;}.cls-10{fill:#e4462e;}.cls-11{fill:#263c51;}.cls-12{fill:#c5341e;}.cls-13{fill:#f3f6f7;}</style></defs><title>資產 1</title><g id="圖層_2" data-name="圖層 2"><g id="圖層_11" data-name="圖層 11"><text class="cls-1" transform="translate(2 35.17)"><tspan xml:space="preserve">2011    </tspan></text><text class="cls-1" transform="translate(0 143.17)"><tspan xml:space="preserve">2012    </tspan></text><text class="cls-1" transform="translate(2 250.17)"><tspan xml:space="preserve">2013    </tspan></text><text class="cls-1" transform="translate(0 352.17)"><tspan xml:space="preserve">2014    </tspan></text><text class="cls-1" transform="translate(2 454.17)"><tspan xml:space="preserve">2015    </tspan></text><text class="cls-1" transform="translate(0 557.17)"><tspan xml:space="preserve">2016    </tspan></text><text class="cls-1" transform="translate(2 663.17)"><tspan xml:space="preserve">2017    </tspan></text><text class="cls-1" transform="translate(0 774.17)"><tspan xml:space="preserve">2018    </tspan></text><rect class="cls-2" x="135.32" y="9.4" width="651.73" height="31.86"/><rect class="cls-3" x="135.32" y="114.96" width="808.93" height="30.34"/><rect class="cls-3" x="135.32" y="217.96" width="758.34" height="30.34"/><rect class="cls-3" x="135.32" y="319.96" width="727" height="30.34"/><rect class="cls-3" x="135.32" y="426.96" width="706.72" height="30.34"/><rect class="cls-3" x="135.32" y="525.96" width="678.03" height="30.34"/><rect class="cls-3" x="135.32" y="638.96" width="671.97" height="30.34"/><rect class="cls-2" x="136.32" y="753.96" width="584.61" height="30.34"/><rect class="cls-4" x="106.32" y="888.31" width="1153.65" height="8"/><rect class="cls-4" x="-333.18" y="442.93" width="886.47" height="4.3" transform="translate(-335.03 555.14) rotate(-90)"/><text class="cls-5" transform="translate(103.54 970.71)">0</text><text class="cls-5" transform="translate(368.94 970.71)">50,000</text><text class="cls-5" transform="translate(710.79 970.71)">100,000</text><text class="cls-5" transform="translate(1023.79 970.71)">150,000</text><text/><rect class="cls-6" x="421.32" y="865.22" width="8" height="58.63"/><rect class="cls-6" x="764.32" y="865.22" width="8" height="58.63"/><rect class="cls-6" x="1085.32" y="866.69" width="8" height="58.63"/><polygon class="cls-7" points="804.82 13.77 809.87 13.77 809.87 36.92 804.82 36.92 804.82 13.77 804.82 13.77"/><polygon class="cls-8" points="804.82 13.77 809.87 13.77 809.87 21.97 804.82 21.97 804.82 13.77 804.82 13.77"/><polygon class="cls-7" points="766.25 13.77 771.3 13.77 771.3 36.92 766.25 36.92 766.25 13.77 766.25 13.77"/><polygon class="cls-8" points="766.25 13.77 771.3 13.77 771.3 21.97 766.25 21.97 766.25 13.77 766.25 13.77"/><path class="cls-9" d="M814.64,15.51S799.67,0,783.36,0l27.15,18.07,4.13-2.56Z"/><path class="cls-10" d="M743.83,5.19C749.73-.54,773.51,0,785.24,0s27.11,15.46,27.11,15.46c28.91,0,30.91,8.31,30.91,8.31a64.56,64.56,0,0,1-2.57,17.73h-13a10.75,10.75,0,0,0-21.5,0H764.2a10.75,10.75,0,0,0-21.49,0h-7.63s-.58-2.29-1.72-8.87,4.58-21.75,10.47-27.47Z"/><path class="cls-11" d="M816.9,31.52a10,10,0,1,1-10,10,10,10,0,0,1,10-10Z"/><path class="cls-9" d="M816.9,35.15a6.39,6.39,0,1,1-6.39,6.38,6.38,6.38,0,0,1,6.39-6.38Z"/><path class="cls-7" d="M816.9,36.5a5,5,0,1,1-5,5,5,5,0,0,1,5-5Z"/><path class="cls-11" d="M753.45,31.52a10,10,0,1,1-10,10,10,10,0,0,1,10-10Z"/><path class="cls-9" d="M753.45,35.15a6.39,6.39,0,1,1-6.38,6.38,6.39,6.39,0,0,1,6.38-6.38Z"/><path class="cls-7" d="M753.45,36.5a5,5,0,1,1-5,5,5,5,0,0,1,5-5Z"/><path class="cls-12" d="M835.83,22.78l-.3.49c-10-6.19-23.07-7.48-23.21-7.5l0-.28,2.29,0c4.23.66,13.59,2.57,21.19,7.27Z"/><path class="cls-13" d="M843.12,27.65s-6.08-.86-7-1.79-1.24-3.32-1.24-3.32l8.39,1.26c0,1.31,0,2.58-.13,3.81v0Z"/><path class="cls-9" d="M745.55,6.27c5.28-5.13,26.56-4.61,37.07-4.61s24.26,13.83,24.26,13.83-1.11,2.58-5.5,2.58H740.69l-1-2.58a31.33,31.33,0,0,1,5.89-9.22Z"/><polygon class="cls-10" points="777.79 0.02 779.56 19.38 775.72 19.38 775.1 0.02 777.79 0.02 777.79 0.02"/><polygon class="cls-10" points="757.11 0.96 755.35 19.38 751.88 19.38 754.5 1.32 757.11 0.96 757.11 0.96"/><path class="cls-12" d="M777.35,38.71l.57-.05c0-.15-1.25-14.71-1.25-16.12a6.49,6.49,0,0,1,1.19-3l.07-.09v-.1L776.67,0l-.57,0,1.24,19.26a6.76,6.76,0,0,0-1.24,3.24c0,1.44,1.2,15.57,1.25,16.17Z"/><path class="cls-12" d="M751.29,29.54c0-.07.77-7.27.88-8.74a4.41,4.41,0,0,1,1.47-2.52l.08-.06,2.72-17.09L755.88,1l-2.69,16.88a4.8,4.8,0,0,0-1.59,2.83c-.11,1.47-.87,8.66-.88,8.73l.57.06Z"/><path class="cls-12" d="M786.6,20.78h0c0,.55-.89,1-2,1H782.1c-1.1,0-2-.44-2-1h6.49Z"/><path class="cls-12" d="M762.13,20.78h0c0,.55-.89,1-2,1h-2.51c-1.1,0-2-.44-2-1h6.49Z"/><path class="cls-12" d="M808.72,19.41c-.22,2,.21,9.16.58,14.52-.19.19-.36.39-.53.59-.39-5.42-.86-13.09-.61-15.17a30.62,30.62,0,0,1,1.62-6.26l.46.41a31,31,0,0,0-1.52,5.91Z"/><path class="cls-12" d="M838.67,32.51V38.7a3.1,3.1,0,1,1,0-6.19Z"/><polygon class="cls-7" points="760.55 755.63 765.6 755.63 765.6 778.77 760.55 778.77 760.55 755.63 760.55 755.63"/><polygon class="cls-8" points="760.55 755.63 765.6 755.63 765.6 763.83 760.55 763.83 760.55 755.63 760.55 755.63"/><polygon class="cls-7" points="721.98 755.63 727.03 755.63 727.03 778.77 721.98 778.77 721.98 755.63 721.98 755.63"/><polygon class="cls-8" points="721.98 755.63 727.03 755.63 727.03 763.83 721.98 763.83 721.98 755.63 721.98 755.63"/><path class="cls-9" d="M770.38,757.37s-15-15.51-31.29-15.51l27.16,18.06,4.13-2.55Z"/><path class="cls-10" d="M699.57,747c5.89-5.72,29.67-5.15,41.41-5.15s27.1,15.46,27.1,15.46c28.91,0,30.91,8.31,30.91,8.31a64.56,64.56,0,0,1-2.57,17.73h-13a10.75,10.75,0,0,0-21.5,0h-42a10.75,10.75,0,1,0-21.49,0h-7.63s-.58-2.29-1.72-8.87,4.58-21.75,10.48-27.48Z"/><path class="cls-11" d="M772.63,773.37a10,10,0,1,1-10,10,10,10,0,0,1,10-10Z"/><path class="cls-9" d="M772.63,777a6.39,6.39,0,1,1-6.38,6.38,6.38,6.38,0,0,1,6.38-6.38Z"/><path class="cls-7" d="M772.63,778.36a5,5,0,1,1-5,5,5,5,0,0,1,5-5Z"/><path class="cls-11" d="M709.18,773.37a10,10,0,1,1-10,10,10,10,0,0,1,10-10Z"/><path class="cls-9" d="M709.18,777a6.39,6.39,0,1,1-6.38,6.38,6.39,6.39,0,0,1,6.38-6.38Z"/><path class="cls-7" d="M709.18,778.36a5,5,0,1,1-5,5,5,5,0,0,1,5-5Z"/><path class="cls-12" d="M791.56,764.64l-.3.49c-10-6.19-23.07-7.49-23.2-7.5l0-.28c.79,0,1.55,0,2.3,0,4.23.66,13.58,2.56,21.18,7.27Z"/><path class="cls-13" d="M798.85,769.51s-6.08-.86-7-1.79-1.24-3.32-1.24-3.32l8.39,1.26c0,1.3,0,2.58-.12,3.81l0,0Z"/><path class="cls-9" d="M701.28,748.12c5.28-5.12,26.57-4.61,37.07-4.61s24.26,13.84,24.26,13.84-1.11,2.57-5.5,2.57H696.42l-1-2.57a31.39,31.39,0,0,1,5.89-9.23Z"/><polygon class="cls-10" points="733.52 741.88 735.29 761.24 731.45 761.24 730.83 741.88 733.52 741.88 733.52 741.88"/><polygon class="cls-10" points="712.84 742.82 711.08 761.24 707.62 761.24 710.23 743.18 712.84 742.82 712.84 742.82"/><path class="cls-12" d="M733.08,780.57l.57-.05c0-.15-1.25-14.71-1.25-16.12a6.46,6.46,0,0,1,1.2-3l.06-.09v-.1l-1.25-19.36-.57,0,1.24,19.26a6.76,6.76,0,0,0-1.24,3.25c0,1.43,1.2,15.56,1.25,16.17Z"/><path class="cls-12" d="M707,771.4c0-.07.77-7.27.88-8.74a4.45,4.45,0,0,1,1.47-2.52l.08-.07L712.17,743l-.56-.09-2.69,16.88a4.77,4.77,0,0,0-1.59,2.83c-.11,1.47-.87,8.66-.88,8.73l.57.06Z"/><path class="cls-12" d="M742.33,762.63h0c0,.55-.89,1-2,1h-2.52c-1.09,0-2-.45-2-1h6.48Z"/><path class="cls-12" d="M717.86,762.63h0c0,.55-.89,1-2,1h-2.51c-1.09,0-2-.45-2-1h6.48Z"/><path class="cls-12" d="M764.46,761.27c-.23,2,.2,9.16.57,14.52-.18.19-.36.39-.53.59-.39-5.42-.86-13.09-.61-15.18a30.69,30.69,0,0,1,1.62-6.25l.46.41a30.08,30.08,0,0,0-1.51,5.91Z"/><path class="cls-12" d="M794.4,774.36v6.2a3.1,3.1,0,0,1,0-6.2Z"/><text class="cls-1" transform="translate(580.18 35.17)">113,420</text><text class="cls-1" transform="translate(788.18 142.17)">124,620</text><text class="cls-1" transform="translate(730.18 246.17)">118,864</text><text class="cls-1" transform="translate(706.18 347.17)">115,253</text><text class="cls-1" transform="translate(704.18 454.17)">107,372</text><text class="cls-1" transform="translate(670.18 555.17)">104,756</text><text class="cls-1" transform="translate(659.18 667.17)">103,476</text><text class="cls-1" transform="translate(518.18 780.17)">101,202</text></g></g></svg>