<svg xmlns="http://www.w3.org/2000/svg" viewBox="0 0 1492.62 962.95"><defs><style>.cls-1,.cls-6{font-size:35px;font-family:MicrosoftJhengHeiRegular, Microsoft JhengHei;}.cls-1,.cls-5{fill:#fff;}.cls-2{fill:none;stroke:#fff;stroke-miterlimit:10;stroke-width:2px;}.cls-3,.cls-6{fill:#efa543;}.cls-4{fill:#cc4040;}.cls-7{fill:#454442;}.cls-8{fill:#292726;}.cls-9{fill:#e03931;}.cls-10{fill:#dcdbd9;}.cls-11{fill:#3e3c3a;}.cls-12{fill:#6c6b68;}.cls-13{fill:#e6625b;}.cls-14{fill:#cbcac7;}.cls-15{fill:#8f8d89;}</style></defs><title>資產 41</title><g id="圖層_2" data-name="圖層 2"><g id="圖層_11" data-name="圖層 11"><text class="cls-1" transform="translate(2.27 46.32)"><tspan xml:space="preserve">2013    </tspan></text><text class="cls-1" transform="translate(2.27 188.99)"><tspan xml:space="preserve">2014    </tspan></text><text class="cls-1" transform="translate(2.27 339.32)"><tspan xml:space="preserve">2015    </tspan></text><text class="cls-1" transform="translate(0.82 492.32)"><tspan xml:space="preserve">2016   </tspan></text><text class="cls-1" transform="translate(0 638.66)"><tspan xml:space="preserve">2017   </tspan></text><line class="cls-2" x1="745.5" y1="904.71" x2="745.5" y2="23.62"/><text class="cls-1" transform="translate(2.27 794.32)"><tspan xml:space="preserve">2018    </tspan></text><line class="cls-2" x1="405.5" y1="907.94" x2="405.5" y2="18.05"/><rect class="cls-3" x="121.5" y="15.87" width="732.43" height="35.3"/><rect class="cls-4" x="121.5" y="15.87" width="161.41" height="35.3"/><line class="cls-2" x1="1084.5" y1="906.34" x2="1084.5" y2="12.77"/><rect class="cls-5" x="114.2" y="901.42" width="1302.1" height="8"/><rect class="cls-5" x="-329.65" y="456.33" width="890.03" height="3.72" transform="translate(-342.75 573.87) rotate(-90.04)"/><text class="cls-6" transform="translate(126.73 953.81)">0</text><text class="cls-6" transform="translate(347.13 953.81)">20,000</text><text class="cls-6" transform="translate(694.13 953.81)">40,000</text><text class="cls-6" transform="translate(1052.13 953.81)">60,000</text><line class="cls-2" x1="1415.5" y1="906.34" x2="1415.5" y2="15.91"/><text class="cls-6" transform="translate(1383.13 953.81)">80,000</text><text/><text class="cls-1" transform="translate(548.51 45.99)">45,030</text><text class="cls-1" transform="translate(153.51 45.99)">16,818</text><rect class="cls-3" x="122.5" y="159.09" width="1102.33" height="35.3"/><rect class="cls-4" x="120.5" y="159.09" width="493.48" height="35.3"/><text class="cls-1" transform="translate(1101.51 188.32)">67,965</text><rect class="cls-3" x="121.5" y="308.55" width="1057.75" height="35.3"/><rect class="cls-4" x="121.5" y="308.55" width="440.94" height="35.3"/><text class="cls-1" transform="translate(1062.51 339.32)">64,828</text><rect class="cls-3" x="121.5" y="462.13" width="904.22" height="34.72"/><rect class="cls-4" x="121.5" y="462.13" width="380.25" height="34.72"/><text class="cls-1" transform="translate(908.51 491.66)">58,388</text><rect class="cls-3" x="121.5" y="608.9" width="874.45" height="35.3"/><rect class="cls-4" x="121.5" y="608.9" width="403.84" height="35.3"/><text/><rect class="cls-3" x="121.5" y="762.14" width="822.9" height="35.3"/><rect class="cls-4" x="120.5" y="762.14" width="444.42" height="35.3"/><text class="cls-1" transform="translate(822.51 791.66)">56,167</text><text class="cls-1" transform="translate(880.51 638.66)">58,332</text><text class="cls-1" transform="translate(614.39 237.99)">38.9%</text><text class="cls-1" transform="translate(319.51 187.99)">26,455</text><text class="cls-1" transform="translate(558.39 388.99)">39.9%</text><text class="cls-1" transform="translate(503.39 543.99)">41.3%</text><text class="cls-1" transform="translate(517.39 686.99)">42.4%</text><text class="cls-1" transform="translate(559.39 836.99)">46.2%</text><text class="cls-1" transform="translate(281.86 97.44)">37.3%</text><path class="cls-7" d="M381.26,53.36H289.57a11.31,11.31,0,0,1-11.31-11.31V39.62a4,4,0,0,1,4-4V17.49a9.22,9.22,0,0,1,9.22-9.22h36.76A19.74,19.74,0,0,1,342.2,14l9.14,9.15h16a11.59,11.59,0,0,1,10.76,7.27l2.61,6.47a6.21,6.21,0,0,1,6.2,6.21v4.61a5.62,5.62,0,0,1-5.62,5.61"/><path class="cls-5" d="M300.72,10h-8.24a8.5,8.5,0,0,0-8.5,8.49v6.42h16.74V10"/><path class="cls-5" d="M349.33,23.52v27h-34.7A13.49,13.49,0,0,0,301.14,37h-.42V10h27.74a16.53,16.53,0,0,1,11.42,4.57l9.45,9"/><path class="cls-7" d="M346.82,23.52l-6.88-6.88A16,16,0,0,0,328.62,12H292.53a6.84,6.84,0,0,0-6.84,6.84v4.72h61.13"/><path class="cls-8" d="M309.62,29.17a2.26,2.26,0,0,1-.88,1.86,3.5,3.5,0,0,1-2.19.65h-2.63v3.81h-1.25V26.67h3.88a3.59,3.59,0,0,1,2.2.61A2.23,2.23,0,0,1,309.62,29.17Zm-1.28,0c0-.91-.61-1.36-1.82-1.36h-2.6v2.71h2.6C307.73,30.52,308.34,30.07,308.34,29.17Z"/><path class="cls-8" d="M318.59,31.06a4.94,4.94,0,0,1-1,3.18,3.85,3.85,0,0,1-5.86,0,4.89,4.89,0,0,1-1-3.18,4.84,4.84,0,0,1,1-3.17,3.87,3.87,0,0,1,5.86,0A4.89,4.89,0,0,1,318.59,31.06Zm-1.28,0a3.77,3.77,0,0,0-.74-2.43,2.53,2.53,0,0,0-3.85,0,3.82,3.82,0,0,0-.72,2.43,3.73,3.73,0,0,0,.73,2.43,2.46,2.46,0,0,0,3.84,0A3.73,3.73,0,0,0,317.31,31.06Z"/><path class="cls-8" d="M326.89,35.49H319.8V26.67H321v7.67h5.86Z"/><path class="cls-8" d="M329.73,35.49h-1.27V26.67h1.27Z"/><path class="cls-8" d="M339,28.8l-1.13.45a2.38,2.38,0,0,0-2.39-1.51,2.61,2.61,0,0,0-2,.83,3.67,3.67,0,0,0-.91,2.61,3.36,3.36,0,0,0,.87,2.51,2.44,2.44,0,0,0,1.78.71,2.65,2.65,0,0,0,2.56-1.76l1.05.47a4.44,4.44,0,0,1-1.33,1.82,3.75,3.75,0,0,1-2.28.66,3.71,3.71,0,0,1-2.78-1.1,4.6,4.6,0,0,1-1.13-3.31,4.82,4.82,0,0,1,1.18-3.32,3.81,3.81,0,0,1,2.95-1.33A3.53,3.53,0,0,1,339,28.8Z"/><path class="cls-8" d="M346.71,35.49h-6.55V26.67h6.55v1.14h-5.33V30.4h4.83v1.16h-4.83v2.78h5.33Z"/><path class="cls-5" d="M377.14,28.63h-9v.26a8.1,8.1,0,0,0,8.1,8.1h4.48l-3.54-8.36Z"/><polygon class="cls-5" points="326.05 8.27 326.05 5.7 315.32 5.7 315.32 8.27 326.05 8.27 326.05 8.27"/><path class="cls-9" d="M326.05,5.7S325.56.61,320.68.34s-5.36,5.36-5.36,5.36h10.73"/><polygon class="cls-9" points="282.36 26.04 285.59 26.04 285.59 35.59 282.32 35.59 282.36 26.04 282.36 26.04"/><path class="cls-10" d="M289.57,53.36h91.69a5.62,5.62,0,0,0,5.62-5.61h0a5.62,5.62,0,0,1-5.62,5.61H289.57m0,0h0m0,0h0m0,0h0m0,0h0m0,0h0m0,0h0m0,0h0m0,0h0m0,0h0m-.11,0h0"/><path class="cls-11" d="M289.57,53.36h91.69a5.62,5.62,0,0,0,5.62-5.61V44s-1.23,1.6-5.69,1.6h0c-4.47,0-15.31-3.58-18.27-4.25-1.9-.43-6.16-2.15-10.59-2.15a14.38,14.38,0,0,0-3,.3v11h-34.7a13.45,13.45,0,0,0-5.15-10.6A21.79,21.79,0,0,0,303,41.57a50.47,50.47,0,0,1-18.23,4,11.51,11.51,0,0,1-3.45-.38,13.36,13.36,0,0,1-2.9-1.58,11.3,11.3,0,0,0,10.93,9.79h.27"/><path class="cls-10" d="M314.63,50.51h34.7v-11a10.89,10.89,0,0,0-4.25,1.85,24.2,24.2,0,0,1-13.61,4.7A12.66,12.66,0,0,1,325,44.48c-3.66-2.17-8.21-4.65-13.84-4.65-.56,0-1.12,0-1.7.08a13.45,13.45,0,0,1,5.15,10.6"/><path class="cls-5" d="M328.66,12h0m0,0h0"/><path class="cls-12" d="M332.74,23.52h9.88L331.28,12.18a16.25,16.25,0,0,0-2.62-.22h-7.48l11.56,11.56"/><polyline class="cls-12" points="324.29 23.52 329.94 23.52 318.37 11.96 312.72 11.96 324.29 23.52"/><polyline class="cls-12" points="305.77 23.52 315.65 23.52 304.08 11.96 294.21 11.96 305.77 23.52"/><path class="cls-12" d="M297.32,23.52H303L291.49,12.05a6.75,6.75,0,0,0-3.76,1.88l9.59,9.59"/><path class="cls-12" d="M373.9,27.38a6.35,6.35,0,0,0-.69-.68,9.28,9.28,0,0,0-2.14-1.4,8.09,8.09,0,0,0-1.64-.56,9.77,9.77,0,0,0-1.89-.17h0c-1.31,0-2.7,0-4.1,0h-2.08c-.69,0-1.36,0-2,0-1.31,0-2.53.06-3.57.1s-1.92.1-2.53.13l-1,.06,1,.07c.61,0,1.48.09,2.53.13s2.26.08,3.57.1c.66,0,1.33,0,2,0h2.08c1.4,0,2.79,0,4.1,0h.58a8.61,8.61,0,0,1,1.26.08,8.88,8.88,0,0,1,1.58.42,11,11,0,0,1,2.21,1.15c.5.35.77.58.77.58"/><path class="cls-13" d="M324.52,4.71a2.06,2.06,0,0,0-.06-.8,3.31,3.31,0,0,0-.82-1.55,3.7,3.7,0,0,0-.36-.33,2.48,2.48,0,0,0-.39-.27,1.81,1.81,0,0,0-.4-.19,1.36,1.36,0,0,0-.37-.13,1.92,1.92,0,0,0-.57-.08h-.22l.18.13.2.14a2.79,2.79,0,0,1,.25.17l.29.21c.09.08.2.15.3.25a3.85,3.85,0,0,1,.3.27,4.11,4.11,0,0,1,.29.3,2.06,2.06,0,0,1,.28.31c.1.1.17.22.26.32s.16.21.23.32l.2.29c.25.37.41.65.41.65"/><path class="cls-12" d="M279.51,40a4.61,4.61,0,0,1,.73-.62l.38-.25c.13-.09.29-.15.43-.24s.31-.16.48-.23.33-.15.51-.21l.52-.18c.18-.06.35-.12.52-.16l.49-.15c.16,0,.31-.08.45-.12l.68-.18.26-.09-.27,0a4.77,4.77,0,0,0-.68-.07h-.18a5.75,5.75,0,0,0-.88.07,5.24,5.24,0,0,0-1.7.55,4.27,4.27,0,0,0-.51.3,5.12,5.12,0,0,0-.43.36,2.7,2.7,0,0,0-.33.36,2.29,2.29,0,0,0-.38.64,1.42,1.42,0,0,0-.09.26"/><path class="cls-8" d="M325.71,8.27V5.7a5,5,0,1,0-10.06,0V8.27H315V5.7a5.7,5.7,0,1,1,11.4,0V8.27Z"/><polyline class="cls-8" points="326.05 6.03 315.32 6.03 315.32 5.36 326.05 5.36"/><path class="cls-8" d="M381.26,53.36v.34H289.57a11.66,11.66,0,0,1-11.65-11.65V39.62a4.36,4.36,0,0,1,4.36-4.36v.33H282V17.49a9.55,9.55,0,0,1,9.55-9.56h36.76a20,20,0,0,1,14.17,5.88l9.05,9h15.83a11.93,11.93,0,0,1,11.07,7.48L381,36.81l-.31.12V36.6a6.53,6.53,0,0,1,6.53,6.54v4.61a6,6,0,0,1-5.95,6V53a5.27,5.27,0,0,0,5.28-5.28V43.14a5.86,5.86,0,0,0-5.86-5.87h-.23l-2.69-6.69a11.27,11.27,0,0,0-10.45-7.06H351.2L342,14.28a19.39,19.39,0,0,0-13.7-5.68H291.5a8.89,8.89,0,0,0-8.88,8.89V35.93h-.34a3.69,3.69,0,0,0-3.69,3.69v2.43a11,11,0,0,0,11,11h91.69v.33Z"/><path class="cls-7" d="M286.86,51.86A12.46,12.46,0,1,0,299.32,39.4a12.46,12.46,0,0,0-12.46,12.46Z"/><path class="cls-14" d="M291.46,51.86A7.86,7.86,0,1,0,299.32,44a7.86,7.86,0,0,0-7.86,7.86Z"/><path class="cls-15" d="M293.06,51.86a6.26,6.26,0,1,0,6.26-6.26,6.26,6.26,0,0,0-6.26,6.26Z"/><path class="cls-14" d="M296.19,51.86a3.13,3.13,0,1,0,3.13-3.13,3.13,3.13,0,0,0-3.13,3.13Z"/><path class="cls-8" d="M286.86,51.86h.39a12.07,12.07,0,1,0,3.53-8.54,12.07,12.07,0,0,0-3.53,8.54h-.77A12.85,12.85,0,1,1,299.32,64.7a12.86,12.86,0,0,1-12.84-12.84Z"/><path class="cls-7" d="M353.58,51.86A12.46,12.46,0,1,0,366,39.4a12.46,12.46,0,0,0-12.46,12.46Z"/><path class="cls-14" d="M358.18,51.86A7.86,7.86,0,1,0,366,44a7.86,7.86,0,0,0-7.86,7.86Z"/><path class="cls-15" d="M359.78,51.86A6.26,6.26,0,1,0,366,45.6a6.26,6.26,0,0,0-6.26,6.26Z"/><path class="cls-14" d="M362.91,51.86A3.13,3.13,0,1,0,366,48.73a3.13,3.13,0,0,0-3.13,3.13Z"/><path class="cls-8" d="M353.58,51.86H354a12.09,12.09,0,1,0,3.54-8.54A12,12,0,0,0,354,51.86h-.77A12.85,12.85,0,1,1,366,64.7a12.86,12.86,0,0,1-12.85-12.84Z"/><path class="cls-8" d="M377.13,29h-9v-.33h.34a8,8,0,0,0,8,8h4.21v.67h-4.21a8.69,8.69,0,0,1-8.7-8.69v-.34h9.36V29Z"/><path class="cls-8" d="M346.82,23.52l-.24.24-6.88-6.88a15.66,15.66,0,0,0-11.08-4.59H292.53A6.52,6.52,0,0,0,286,18.8v4.39h60.8v.33l-.24.24.24-.24v.34H285.35V18.8a7.19,7.19,0,0,1,7.18-7.18h36.09a16.31,16.31,0,0,1,11.55,4.79l7.46,7.45h-.81v-.34Z"/><path class="cls-8" d="M349.33,23.52h.34V50.85H314.3v-.34a13.18,13.18,0,0,0-13.16-13.16h-.76V9.61h28.08a16.89,16.89,0,0,1,11.65,4.66l9.56,9.11v.14h-.34l-.23.25-9.45-9a16.22,16.22,0,0,0-11.19-4.48H301.05v26.4h.09A13.83,13.83,0,0,1,315,50.51h-.34v-.33H349V23.52h.33l-.23.25.23-.25Z"/><polyline class="cls-8" points="321.95 9.95 321.95 50.51 321.28 50.51 321.28 9.95"/><polygon class="cls-8" points="282.28 35.26 285.35 35.26 285.35 26.37 282.28 26.37 282.28 25.7 286.02 25.7 286.02 35.93 282.28 35.93 282.28 35.26 282.28 35.26"/><path class="cls-7" d="M710.26,195.36H618.57a11.31,11.31,0,0,1-11.31-11.31v-2.43a4,4,0,0,1,4-4v-18.1a9.22,9.22,0,0,1,9.22-9.22h36.76A19.74,19.74,0,0,1,671.2,156l9.14,9.15h16a11.59,11.59,0,0,1,10.76,7.27l2.61,6.47a6.21,6.21,0,0,1,6.2,6.21v4.61a5.62,5.62,0,0,1-5.62,5.61"/><path class="cls-5" d="M629.72,152h-8.24a8.5,8.5,0,0,0-8.5,8.49v6.42h16.74V152"/><path class="cls-5" d="M678.33,165.52v27h-34.7A13.49,13.49,0,0,0,630.14,179h-.42V152h27.74a16.53,16.53,0,0,1,11.42,4.57l9.45,9"/><path class="cls-7" d="M675.82,165.52l-6.88-6.88A16,16,0,0,0,657.62,154H621.53a6.84,6.84,0,0,0-6.84,6.84v4.72h61.13"/><path class="cls-8" d="M638.62,171.17a2.26,2.26,0,0,1-.88,1.86,3.5,3.5,0,0,1-2.19.65h-2.63v3.81h-1.25v-8.82h3.88a3.59,3.59,0,0,1,2.2.61A2.23,2.23,0,0,1,638.62,171.17Zm-1.28,0c0-.91-.61-1.36-1.82-1.36h-2.6v2.71h2.6C636.73,172.52,637.34,172.07,637.34,171.17Z"/><path class="cls-8" d="M647.59,173.06a4.94,4.94,0,0,1-1,3.18,3.85,3.85,0,0,1-5.86,0,5.45,5.45,0,0,1,0-6.35,3.87,3.87,0,0,1,5.86,0A4.89,4.89,0,0,1,647.59,173.06Zm-1.28,0a3.77,3.77,0,0,0-.74-2.43,2.53,2.53,0,0,0-3.85,0,3.82,3.82,0,0,0-.72,2.43,3.73,3.73,0,0,0,.73,2.43,2.46,2.46,0,0,0,3.84,0A3.73,3.73,0,0,0,646.31,173.06Z"/><path class="cls-8" d="M655.89,177.49H648.8v-8.82H650v7.67h5.86Z"/><path class="cls-8" d="M658.73,177.49h-1.27v-8.82h1.27Z"/><path class="cls-8" d="M668,170.8l-1.13.45a2.38,2.38,0,0,0-2.39-1.51,2.61,2.61,0,0,0-2,.83,3.67,3.67,0,0,0-.91,2.61,3.36,3.36,0,0,0,.87,2.51,2.44,2.44,0,0,0,1.78.71,2.65,2.65,0,0,0,2.56-1.76l1.05.47a4.44,4.44,0,0,1-1.33,1.82,3.75,3.75,0,0,1-2.28.66,3.71,3.71,0,0,1-2.78-1.1,4.6,4.6,0,0,1-1.13-3.31,4.82,4.82,0,0,1,1.18-3.32,3.81,3.81,0,0,1,2.95-1.33A3.53,3.53,0,0,1,668,170.8Z"/><path class="cls-8" d="M675.71,177.49h-6.55v-8.82h6.55v1.14h-5.33v2.59h4.83v1.16h-4.83v2.78h5.33Z"/><path class="cls-5" d="M706.14,170.63h-9v.26a8.1,8.1,0,0,0,8.1,8.1h4.48l-3.54-8.36Z"/><polygon class="cls-5" points="655.04 150.27 655.04 147.7 644.32 147.7 644.32 150.27 655.04 150.27 655.04 150.27"/><path class="cls-9" d="M655.05,147.7s-.49-5.09-5.37-5.36-5.36,5.36-5.36,5.36h10.73"/><polygon class="cls-9" points="611.36 168.04 614.59 168.04 614.59 177.59 611.32 177.59 611.36 168.04 611.36 168.04"/><path class="cls-10" d="M618.57,195.36h91.69a5.62,5.62,0,0,0,5.62-5.61h0a5.62,5.62,0,0,1-5.62,5.61H618.57m0,0h0m0,0h0m0,0h0m0,0h0m0,0h0m0,0h0m0,0h0m0,0h0m0,0h0m-.11,0h0"/><path class="cls-11" d="M618.57,195.36h91.69a5.62,5.62,0,0,0,5.62-5.61V186s-1.23,1.6-5.69,1.6h0c-4.47,0-15.31-3.58-18.27-4.25-1.9-.43-6.16-2.15-10.59-2.15a14.38,14.38,0,0,0-3,.3v11h-34.7a13.45,13.45,0,0,0-5.15-10.6,21.79,21.79,0,0,0-6.53,1.66,50.47,50.47,0,0,1-18.23,4,11.51,11.51,0,0,1-3.45-.38,13.36,13.36,0,0,1-2.9-1.58,11.3,11.3,0,0,0,10.93,9.79h.27"/><path class="cls-10" d="M643.63,192.51h34.7v-11a10.89,10.89,0,0,0-4.25,1.85,24.2,24.2,0,0,1-13.61,4.7,12.66,12.66,0,0,1-6.45-1.57c-3.66-2.17-8.21-4.65-13.84-4.65-.56,0-1.12,0-1.7.08a13.45,13.45,0,0,1,5.15,10.6"/><path class="cls-5" d="M657.66,154h0m0,0h0"/><path class="cls-12" d="M661.74,165.52h9.88l-11.34-11.34a16.25,16.25,0,0,0-2.62-.22h-7.48l11.56,11.56"/><polyline class="cls-12" points="653.29 165.52 658.94 165.52 647.37 153.96 641.72 153.96 653.29 165.52"/><polyline class="cls-12" points="634.77 165.52 644.65 165.52 633.08 153.96 623.21 153.96 634.77 165.52"/><path class="cls-12" d="M626.32,165.52H632l-11.48-11.47a6.75,6.75,0,0,0-3.76,1.88l9.59,9.59"/><path class="cls-12" d="M702.9,169.38a6.35,6.35,0,0,0-.69-.68,9.28,9.28,0,0,0-2.14-1.4,8.09,8.09,0,0,0-1.64-.56,9.77,9.77,0,0,0-1.89-.17h0c-1.31,0-2.7,0-4.1,0h-2.08c-.69,0-1.36,0-2,0-1.31,0-2.53.06-3.57.1s-1.92.1-2.53.13l-1,.06,1,.07c.61,0,1.48.09,2.53.13s2.26.08,3.57.1c.66,0,1.33,0,2,0h2.08c1.4,0,2.79,0,4.1,0h.58a8.61,8.61,0,0,1,1.26.08,8.88,8.88,0,0,1,1.58.42,11,11,0,0,1,2.21,1.15c.5.35.77.58.77.58"/><path class="cls-13" d="M653.52,146.71a2.06,2.06,0,0,0-.06-.8,3.31,3.31,0,0,0-.82-1.55,3.7,3.7,0,0,0-.36-.33,2.48,2.48,0,0,0-.39-.27,1.81,1.81,0,0,0-.4-.19,1.36,1.36,0,0,0-.37-.13,1.92,1.92,0,0,0-.57-.08h-.22l.18.13.2.14a2.79,2.79,0,0,1,.25.17l.29.21c.09.08.2.15.3.25a3.85,3.85,0,0,1,.3.27,4.11,4.11,0,0,1,.29.3,2.06,2.06,0,0,1,.28.31c.1.1.17.22.26.32s.16.21.23.32l.2.29c.25.37.41.65.41.65"/><path class="cls-12" d="M608.51,182a4.61,4.61,0,0,1,.73-.62l.38-.25c.13-.09.29-.15.43-.24s.31-.16.48-.23.33-.15.51-.21l.52-.18c.18-.06.35-.12.52-.16l.49-.15c.16,0,.31-.08.45-.12l.68-.18.26-.09-.27,0a4.77,4.77,0,0,0-.68-.07h-.18a5.75,5.75,0,0,0-.88.07,5.24,5.24,0,0,0-1.7.55,4.27,4.27,0,0,0-.51.3,5.12,5.12,0,0,0-.43.36,2.7,2.7,0,0,0-.33.36,2.29,2.29,0,0,0-.38.64,1.42,1.42,0,0,0-.09.26"/><path class="cls-8" d="M654.71,150.27V147.7a5,5,0,1,0-10.06,0v2.57H644V147.7a5.7,5.7,0,0,1,11.4,0v2.57Z"/><polyline class="cls-8" points="655.04 148.03 644.32 148.03 644.32 147.36 655.04 147.36"/><path class="cls-8" d="M710.26,195.36v.34H618.57a11.66,11.66,0,0,1-11.65-11.65v-2.43a4.36,4.36,0,0,1,4.36-4.36v.33H611v-18.1a9.55,9.55,0,0,1,9.55-9.56h36.76a20,20,0,0,1,14.17,5.88l9.05,9h15.83a11.93,11.93,0,0,1,11.07,7.48l2.61,6.48-.31.12v-.33a6.53,6.53,0,0,1,6.53,6.54v4.61a6,6,0,0,1-6,5.95V195a5.27,5.27,0,0,0,5.28-5.28v-4.61a5.86,5.86,0,0,0-5.86-5.87h-.23l-2.69-6.69a11.27,11.27,0,0,0-10.45-7.06H680.2L671,156.28a19.39,19.39,0,0,0-13.7-5.68H620.5a8.89,8.89,0,0,0-8.88,8.89v18.44h-.34a3.69,3.69,0,0,0-3.69,3.69v2.43a11,11,0,0,0,11,11h91.69v.33Z"/><path class="cls-7" d="M615.86,193.86a12.46,12.46,0,1,0,12.46-12.46,12.46,12.46,0,0,0-12.46,12.46Z"/><path class="cls-14" d="M620.46,193.86a7.86,7.86,0,1,0,7.86-7.86,7.86,7.86,0,0,0-7.86,7.86Z"/><path class="cls-15" d="M622.06,193.86a6.26,6.26,0,1,0,6.26-6.26,6.26,6.26,0,0,0-6.26,6.26Z"/><path class="cls-14" d="M625.19,193.86a3.13,3.13,0,1,0,3.13-3.13,3.13,3.13,0,0,0-3.13,3.13Z"/><path class="cls-8" d="M615.86,193.86h.39a12.07,12.07,0,1,0,3.53-8.54,12.07,12.07,0,0,0-3.53,8.54h-.77a12.85,12.85,0,1,1,12.84,12.84,12.86,12.86,0,0,1-12.84-12.84Z"/><path class="cls-7" d="M682.58,193.86A12.46,12.46,0,1,0,695,181.4a12.46,12.46,0,0,0-12.46,12.46Z"/><path class="cls-14" d="M687.18,193.86A7.86,7.86,0,1,0,695,186a7.86,7.86,0,0,0-7.86,7.86Z"/><path class="cls-15" d="M688.78,193.86A6.26,6.26,0,1,0,695,187.6a6.26,6.26,0,0,0-6.26,6.26Z"/><path class="cls-14" d="M691.91,193.86a3.13,3.13,0,1,0,3.13-3.13,3.13,3.13,0,0,0-3.13,3.13Z"/><path class="cls-8" d="M682.58,193.86H683a12.09,12.09,0,1,0,3.54-8.54,12,12,0,0,0-3.54,8.54h-.77A12.85,12.85,0,1,1,695,206.7a12.86,12.86,0,0,1-12.85-12.84Z"/><path class="cls-8" d="M706.13,171h-9v-.33h.34a8,8,0,0,0,8,8h4.21v.67h-4.21a8.69,8.69,0,0,1-8.7-8.69v-.34h9.36V171Z"/><path class="cls-8" d="M675.82,165.52l-.24.24-6.88-6.88a15.66,15.66,0,0,0-11.08-4.59H621.53A6.52,6.52,0,0,0,615,160.8v4.39h60.8v.33l-.24.24.24-.24v.34H614.35V160.8a7.19,7.19,0,0,1,7.18-7.18h36.09a16.31,16.31,0,0,1,11.55,4.79l7.46,7.45h-.81v-.34Z"/><path class="cls-8" d="M678.33,165.52h.34v27.33H643.3v-.34a13.18,13.18,0,0,0-13.16-13.16h-.76V151.61h28.08a16.89,16.89,0,0,1,11.65,4.66l9.56,9.11v.14h-.34l-.23.25-9.45-9a16.22,16.22,0,0,0-11.19-4.48H630.05v26.4h.09A13.83,13.83,0,0,1,644,192.51h-.34v-.33H678V165.52h.33l-.23.25.23-.25Z"/><polyline class="cls-8" points="650.95 151.95 650.95 192.51 650.28 192.51 650.28 151.95"/><polygon class="cls-8" points="611.28 177.26 614.35 177.26 614.35 168.37 611.28 168.37 611.28 167.7 615.02 167.7 615.02 177.93 611.28 177.93 611.28 177.26 611.28 177.26"/><text class="cls-1" transform="translate(273.51 336.99)">25,865</text><path class="cls-7" d="M656.26,343.36H564.57a11.31,11.31,0,0,1-11.31-11.31v-2.43a4,4,0,0,1,4-4v-18.1a9.22,9.22,0,0,1,9.22-9.22h36.76A19.74,19.74,0,0,1,617.2,304l9.14,9.15h16a11.59,11.59,0,0,1,10.76,7.27l2.61,6.47a6.21,6.21,0,0,1,6.2,6.21v4.61a5.62,5.62,0,0,1-5.62,5.61"/><path class="cls-5" d="M575.72,300h-8.24a8.5,8.5,0,0,0-8.5,8.49v6.42h16.74V300"/><path class="cls-5" d="M624.33,313.52v27h-34.7A13.49,13.49,0,0,0,576.14,327h-.42V300h27.74a16.53,16.53,0,0,1,11.42,4.57l9.45,9"/><path class="cls-7" d="M621.82,313.52l-6.88-6.88A16,16,0,0,0,603.62,302H567.53a6.84,6.84,0,0,0-6.84,6.84v4.72h61.13"/><path class="cls-8" d="M584.62,319.17a2.26,2.26,0,0,1-.88,1.86,3.5,3.5,0,0,1-2.19.65h-2.63v3.81h-1.25v-8.82h3.88a3.59,3.59,0,0,1,2.2.61A2.23,2.23,0,0,1,584.62,319.17Zm-1.28,0c0-.91-.61-1.36-1.82-1.36h-2.6v2.71h2.6C582.73,320.52,583.34,320.07,583.34,319.17Z"/><path class="cls-8" d="M593.59,321.06a4.94,4.94,0,0,1-1,3.18,3.85,3.85,0,0,1-5.86,0,5.45,5.45,0,0,1,0-6.35,3.87,3.87,0,0,1,5.86,0A4.89,4.89,0,0,1,593.59,321.06Zm-1.28,0a3.77,3.77,0,0,0-.74-2.43,2.53,2.53,0,0,0-3.85,0,3.82,3.82,0,0,0-.72,2.43,3.73,3.73,0,0,0,.73,2.43,2.46,2.46,0,0,0,3.84,0A3.73,3.73,0,0,0,592.31,321.06Z"/><path class="cls-8" d="M601.89,325.49H594.8v-8.82H596v7.67h5.86Z"/><path class="cls-8" d="M604.73,325.49h-1.27v-8.82h1.27Z"/><path class="cls-8" d="M614,318.8l-1.13.45a2.38,2.38,0,0,0-2.39-1.51,2.61,2.61,0,0,0-2,.83,3.67,3.67,0,0,0-.91,2.61,3.36,3.36,0,0,0,.87,2.51,2.44,2.44,0,0,0,1.78.71,2.65,2.65,0,0,0,2.56-1.76l1.05.47a4.44,4.44,0,0,1-1.33,1.82,3.75,3.75,0,0,1-2.28.66,3.71,3.71,0,0,1-2.78-1.1,4.6,4.6,0,0,1-1.13-3.31,4.82,4.82,0,0,1,1.18-3.32,3.81,3.81,0,0,1,2.95-1.33A3.53,3.53,0,0,1,614,318.8Z"/><path class="cls-8" d="M621.71,325.49h-6.55v-8.82h6.55v1.14h-5.33v2.59h4.83v1.16h-4.83v2.78h5.33Z"/><path class="cls-5" d="M652.14,318.63h-9v.26a8.1,8.1,0,0,0,8.1,8.1h4.48l-3.54-8.36Z"/><polygon class="cls-5" points="601.04 298.27 601.04 295.7 590.32 295.7 590.32 298.27 601.04 298.27 601.04 298.27"/><path class="cls-9" d="M601.05,295.7s-.49-5.09-5.37-5.36-5.36,5.36-5.36,5.36h10.73"/><polygon class="cls-9" points="557.36 316.04 560.59 316.04 560.59 325.59 557.32 325.59 557.36 316.04 557.36 316.04"/><path class="cls-10" d="M564.57,343.36h91.69a5.62,5.62,0,0,0,5.62-5.61h0a5.62,5.62,0,0,1-5.62,5.61H564.57m0,0h0m0,0h0m0,0h0m0,0h0m0,0h0m0,0h0m0,0h0m0,0h0m0,0h0m-.11,0h0"/><path class="cls-11" d="M564.57,343.36h91.69a5.62,5.62,0,0,0,5.62-5.61V334s-1.23,1.6-5.69,1.6h0c-4.47,0-15.31-3.58-18.27-4.25-1.9-.43-6.16-2.15-10.59-2.15a14.38,14.38,0,0,0-3,.3v11h-34.7a13.45,13.45,0,0,0-5.15-10.6,21.79,21.79,0,0,0-6.53,1.66,50.47,50.47,0,0,1-18.23,4,11.51,11.51,0,0,1-3.45-.38,13.36,13.36,0,0,1-2.9-1.58,11.3,11.3,0,0,0,10.93,9.79h.27"/><path class="cls-10" d="M589.63,340.51h34.7v-11a10.89,10.89,0,0,0-4.25,1.85,24.2,24.2,0,0,1-13.61,4.7,12.66,12.66,0,0,1-6.45-1.57c-3.66-2.17-8.21-4.65-13.84-4.65-.56,0-1.12,0-1.7.08a13.45,13.45,0,0,1,5.15,10.6"/><path class="cls-5" d="M603.66,302h0m0,0h0"/><path class="cls-12" d="M607.74,313.52h9.88l-11.34-11.34a16.25,16.25,0,0,0-2.62-.22h-7.48l11.56,11.56"/><polyline class="cls-12" points="599.29 313.52 604.94 313.52 593.37 301.96 587.72 301.96 599.29 313.52"/><polyline class="cls-12" points="580.77 313.52 590.65 313.52 579.08 301.96 569.21 301.96 580.77 313.52"/><path class="cls-12" d="M572.32,313.52H578l-11.48-11.47a6.75,6.75,0,0,0-3.76,1.88l9.59,9.59"/><path class="cls-12" d="M648.9,317.38a6.35,6.35,0,0,0-.69-.68,9.28,9.28,0,0,0-2.14-1.4,8.09,8.09,0,0,0-1.64-.56,9.77,9.77,0,0,0-1.89-.17h0c-1.31,0-2.7,0-4.1,0h-2.08c-.69,0-1.36,0-2,0-1.31,0-2.53.06-3.57.1s-1.92.1-2.53.13l-1,.06,1,.07c.61,0,1.48.09,2.53.13s2.26.08,3.57.1c.66,0,1.33,0,2,0h2.08c1.4,0,2.79,0,4.1,0h.58a8.61,8.61,0,0,1,1.26.08,8.88,8.88,0,0,1,1.58.42,11,11,0,0,1,2.21,1.15c.5.35.77.58.77.58"/><path class="cls-13" d="M599.52,294.71a2.06,2.06,0,0,0-.06-.8,3.31,3.31,0,0,0-.82-1.55,3.7,3.7,0,0,0-.36-.33,2.48,2.48,0,0,0-.39-.27,1.81,1.81,0,0,0-.4-.19,1.36,1.36,0,0,0-.37-.13,1.92,1.92,0,0,0-.57-.08h-.22l.18.13.2.14a2.79,2.79,0,0,1,.25.17l.29.21c.09.08.2.15.3.25a3.85,3.85,0,0,1,.3.27,4.11,4.11,0,0,1,.29.3,2.06,2.06,0,0,1,.28.31c.1.1.17.22.26.32s.16.21.23.32l.2.29c.25.37.41.65.41.65"/><path class="cls-12" d="M554.51,330a4.61,4.61,0,0,1,.73-.62l.38-.25c.13-.09.29-.15.43-.24s.31-.16.48-.23.33-.15.51-.21l.52-.18c.18-.06.35-.12.52-.16l.49-.15c.16,0,.31-.08.45-.12l.68-.18.26-.09-.27,0a4.77,4.77,0,0,0-.68-.07h-.18a5.75,5.75,0,0,0-.88.07,5.24,5.24,0,0,0-1.7.55,4.27,4.27,0,0,0-.51.3,5.12,5.12,0,0,0-.43.36,2.7,2.7,0,0,0-.33.36,2.29,2.29,0,0,0-.38.64,1.42,1.42,0,0,0-.09.26"/><path class="cls-8" d="M600.71,298.27V295.7a5,5,0,1,0-10.06,0v2.57H590V295.7a5.7,5.7,0,0,1,11.4,0v2.57Z"/><polyline class="cls-8" points="601.04 296.03 590.32 296.03 590.32 295.36 601.04 295.36"/><path class="cls-8" d="M656.26,343.36v.34H564.57a11.66,11.66,0,0,1-11.65-11.65v-2.43a4.36,4.36,0,0,1,4.36-4.36v.33H557v-18.1a9.55,9.55,0,0,1,9.55-9.56h36.76a20,20,0,0,1,14.17,5.88l9.05,9h15.83a11.93,11.93,0,0,1,11.07,7.48l2.61,6.48-.31.12v-.33a6.53,6.53,0,0,1,6.53,6.54v4.61a6,6,0,0,1-6,5.95V343a5.27,5.27,0,0,0,5.28-5.28v-4.61a5.86,5.86,0,0,0-5.86-5.87h-.23l-2.69-6.69a11.27,11.27,0,0,0-10.45-7.06H626.2L617,304.28a19.39,19.39,0,0,0-13.7-5.68H566.5a8.89,8.89,0,0,0-8.88,8.89v18.44h-.34a3.69,3.69,0,0,0-3.69,3.69v2.43a11,11,0,0,0,11,11h91.69v.33Z"/><path class="cls-7" d="M561.86,341.86a12.46,12.46,0,1,0,12.46-12.46,12.46,12.46,0,0,0-12.46,12.46Z"/><path class="cls-14" d="M566.46,341.86a7.86,7.86,0,1,0,7.86-7.86,7.86,7.86,0,0,0-7.86,7.86Z"/><path class="cls-15" d="M568.06,341.86a6.26,6.26,0,1,0,6.26-6.26,6.26,6.26,0,0,0-6.26,6.26Z"/><path class="cls-14" d="M571.19,341.86a3.13,3.13,0,1,0,3.13-3.13,3.13,3.13,0,0,0-3.13,3.13Z"/><path class="cls-8" d="M561.86,341.86h.39a12.07,12.07,0,1,0,3.53-8.54,12.07,12.07,0,0,0-3.53,8.54h-.77a12.85,12.85,0,1,1,12.84,12.84,12.86,12.86,0,0,1-12.84-12.84Z"/><path class="cls-7" d="M628.58,341.86A12.46,12.46,0,1,0,641,329.4a12.46,12.46,0,0,0-12.46,12.46Z"/><path class="cls-14" d="M633.18,341.86A7.86,7.86,0,1,0,641,334a7.86,7.86,0,0,0-7.86,7.86Z"/><path class="cls-15" d="M634.78,341.86A6.26,6.26,0,1,0,641,335.6a6.26,6.26,0,0,0-6.26,6.26Z"/><path class="cls-14" d="M637.91,341.86a3.13,3.13,0,1,0,3.13-3.13,3.13,3.13,0,0,0-3.13,3.13Z"/><path class="cls-8" d="M628.58,341.86H629a12.09,12.09,0,1,0,3.54-8.54,12,12,0,0,0-3.54,8.54h-.77A12.85,12.85,0,1,1,641,354.7a12.86,12.86,0,0,1-12.85-12.84Z"/><path class="cls-8" d="M652.13,319h-9v-.33h.34a8,8,0,0,0,8,8h4.21v.67h-4.21a8.69,8.69,0,0,1-8.7-8.69v-.34h9.36V319Z"/><path class="cls-8" d="M621.82,313.52l-.24.24-6.88-6.88a15.66,15.66,0,0,0-11.08-4.59H567.53A6.52,6.52,0,0,0,561,308.8v4.39h60.8v.33l-.24.24.24-.24v.34H560.35V308.8a7.19,7.19,0,0,1,7.18-7.18h36.09a16.31,16.31,0,0,1,11.55,4.79l7.46,7.45h-.81v-.34Z"/><path class="cls-8" d="M624.33,313.52h.34v27.33H589.3v-.34a13.18,13.18,0,0,0-13.16-13.16h-.76V299.61h28.08a16.89,16.89,0,0,1,11.65,4.66l9.56,9.11v.14h-.34l-.23.25-9.45-9a16.22,16.22,0,0,0-11.19-4.48H576.05v26.4h.09A13.83,13.83,0,0,1,590,340.51h-.34v-.33H624V313.52h.33l-.23.25.23-.25Z"/><polyline class="cls-8" points="596.95 299.95 596.95 340.51 596.28 340.51 596.28 299.95"/><polygon class="cls-8" points="557.28 325.26 560.35 325.26 560.35 316.37 557.28 316.37 557.28 315.7 561.02 315.7 561.02 325.93 557.28 325.93 557.28 325.26 557.28 325.26"/><text class="cls-1" transform="translate(256.51 489.99)">24,165</text><path class="cls-7" d="M598.26,501.36H506.57a11.31,11.31,0,0,1-11.31-11.31v-2.43a4,4,0,0,1,4-4v-18.1a9.22,9.22,0,0,1,9.22-9.22h36.76A19.74,19.74,0,0,1,559.2,462l9.14,9.15h16a11.59,11.59,0,0,1,10.76,7.27l2.61,6.47a6.21,6.21,0,0,1,6.2,6.21v4.61a5.62,5.62,0,0,1-5.62,5.61"/><path class="cls-5" d="M517.72,458h-8.24a8.5,8.5,0,0,0-8.5,8.49v6.42h16.74V458"/><path class="cls-5" d="M566.33,471.52v27h-34.7A13.49,13.49,0,0,0,518.14,485h-.42V458h27.74a16.53,16.53,0,0,1,11.42,4.57l9.45,9"/><path class="cls-7" d="M563.82,471.52l-6.88-6.88A16,16,0,0,0,545.62,460H509.53a6.84,6.84,0,0,0-6.84,6.84v4.72h61.13"/><path class="cls-8" d="M526.62,477.17a2.26,2.26,0,0,1-.88,1.86,3.5,3.5,0,0,1-2.19.65h-2.63v3.81h-1.25v-8.82h3.88a3.59,3.59,0,0,1,2.2.61A2.23,2.23,0,0,1,526.62,477.17Zm-1.28,0c0-.91-.61-1.36-1.82-1.36h-2.6v2.71h2.6C524.73,478.52,525.34,478.07,525.34,477.17Z"/><path class="cls-8" d="M535.59,479.06a4.94,4.94,0,0,1-1,3.18,3.85,3.85,0,0,1-5.86,0,5.45,5.45,0,0,1,0-6.35,3.87,3.87,0,0,1,5.86,0A4.89,4.89,0,0,1,535.59,479.06Zm-1.28,0a3.77,3.77,0,0,0-.74-2.43,2.53,2.53,0,0,0-3.85,0,3.82,3.82,0,0,0-.72,2.43,3.73,3.73,0,0,0,.73,2.43,2.46,2.46,0,0,0,3.84,0A3.73,3.73,0,0,0,534.31,479.06Z"/><path class="cls-8" d="M543.89,483.49H536.8v-8.82H538v7.67h5.86Z"/><path class="cls-8" d="M546.73,483.49h-1.27v-8.82h1.27Z"/><path class="cls-8" d="M556,476.8l-1.13.45a2.38,2.38,0,0,0-2.39-1.51,2.61,2.61,0,0,0-2,.83,3.67,3.67,0,0,0-.91,2.61,3.36,3.36,0,0,0,.87,2.51,2.44,2.44,0,0,0,1.78.71,2.65,2.65,0,0,0,2.56-1.76l1.05.47a4.44,4.44,0,0,1-1.33,1.82,3.75,3.75,0,0,1-2.28.66,3.71,3.71,0,0,1-2.78-1.1,4.6,4.6,0,0,1-1.13-3.31,4.82,4.82,0,0,1,1.18-3.32,3.81,3.81,0,0,1,2.95-1.33A3.53,3.53,0,0,1,556,476.8Z"/><path class="cls-8" d="M563.71,483.49h-6.55v-8.82h6.55v1.14h-5.33v2.59h4.83v1.16h-4.83v2.78h5.33Z"/><path class="cls-5" d="M594.14,476.63h-9v.26a8.1,8.1,0,0,0,8.1,8.1h4.48l-3.54-8.36Z"/><polygon class="cls-5" points="543.04 456.27 543.04 453.7 532.32 453.7 532.32 456.27 543.04 456.27 543.04 456.27"/><path class="cls-9" d="M543.05,453.7s-.49-5.09-5.37-5.36-5.36,5.36-5.36,5.36h10.73"/><polygon class="cls-9" points="499.36 474.04 502.59 474.04 502.59 483.59 499.32 483.59 499.36 474.04 499.36 474.04"/><path class="cls-10" d="M506.57,501.36h91.69a5.62,5.62,0,0,0,5.62-5.61h0a5.62,5.62,0,0,1-5.62,5.61H506.57m0,0h0m0,0h0m0,0h0m0,0h0m0,0h0m0,0h0m0,0h0m0,0h0m0,0h0m-.11,0h0"/><path class="cls-11" d="M506.57,501.36h91.69a5.62,5.62,0,0,0,5.62-5.61V492s-1.23,1.6-5.69,1.6h0c-4.47,0-15.31-3.58-18.27-4.25-1.9-.43-6.16-2.15-10.59-2.15a14.38,14.38,0,0,0-3,.3v11h-34.7a13.45,13.45,0,0,0-5.15-10.6,21.79,21.79,0,0,0-6.53,1.66,50.47,50.47,0,0,1-18.23,4,11.51,11.51,0,0,1-3.45-.38,13.36,13.36,0,0,1-2.9-1.58,11.3,11.3,0,0,0,10.93,9.79h.27"/><path class="cls-10" d="M531.63,498.51h34.7v-11a10.89,10.89,0,0,0-4.25,1.85,24.2,24.2,0,0,1-13.61,4.7,12.66,12.66,0,0,1-6.45-1.57c-3.66-2.17-8.21-4.65-13.84-4.65-.56,0-1.12,0-1.7.08a13.45,13.45,0,0,1,5.15,10.6"/><path class="cls-5" d="M545.66,460h0m0,0h0"/><path class="cls-12" d="M549.74,471.52h9.88l-11.34-11.34a16.25,16.25,0,0,0-2.62-.22h-7.48l11.56,11.56"/><polyline class="cls-12" points="541.29 471.52 546.94 471.52 535.37 459.96 529.72 459.96 541.29 471.52"/><polyline class="cls-12" points="522.77 471.52 532.65 471.52 521.08 459.96 511.21 459.96 522.77 471.52"/><path class="cls-12" d="M514.32,471.52H520l-11.48-11.47a6.75,6.75,0,0,0-3.76,1.88l9.59,9.59"/><path class="cls-12" d="M590.9,475.38a6.35,6.35,0,0,0-.69-.68,9.28,9.28,0,0,0-2.14-1.4,8.09,8.09,0,0,0-1.64-.56,9.77,9.77,0,0,0-1.89-.17h0c-1.31,0-2.7,0-4.1,0h-2.08c-.69,0-1.36,0-2,0-1.31,0-2.53.06-3.57.1s-1.92.1-2.53.13l-1,.06,1,.07c.61,0,1.48.09,2.53.13s2.26.08,3.57.1c.66,0,1.33,0,2,0h2.08c1.4,0,2.79,0,4.1,0h.58a8.61,8.61,0,0,1,1.26.08,8.88,8.88,0,0,1,1.58.42,11,11,0,0,1,2.21,1.15c.5.35.77.58.77.58"/><path class="cls-13" d="M541.52,452.71a2.06,2.06,0,0,0-.06-.8,3.31,3.31,0,0,0-.82-1.55,3.7,3.7,0,0,0-.36-.33,2.48,2.48,0,0,0-.39-.27,1.81,1.81,0,0,0-.4-.19,1.36,1.36,0,0,0-.37-.13,1.92,1.92,0,0,0-.57-.08h-.22l.18.13.2.14a2.79,2.79,0,0,1,.25.17l.29.21c.09.08.2.15.3.25a3.85,3.85,0,0,1,.3.27,4.11,4.11,0,0,1,.29.3,2.06,2.06,0,0,1,.28.31c.1.1.17.22.26.32s.16.21.23.32l.2.29c.25.37.41.65.41.65"/><path class="cls-12" d="M496.51,488a4.61,4.61,0,0,1,.73-.62l.38-.25c.13-.09.29-.15.43-.24s.31-.16.48-.23.33-.15.51-.21l.52-.18c.18-.06.35-.12.52-.16l.49-.15c.16,0,.31-.08.45-.12l.68-.18.26-.09-.27,0a4.77,4.77,0,0,0-.68-.07h-.18a5.75,5.75,0,0,0-.88.07,5.24,5.24,0,0,0-1.7.55,4.27,4.27,0,0,0-.51.3,5.12,5.12,0,0,0-.43.36,2.7,2.7,0,0,0-.33.36,2.29,2.29,0,0,0-.38.64,1.42,1.42,0,0,0-.09.26"/><path class="cls-8" d="M542.71,456.27V453.7a5,5,0,1,0-10.06,0v2.57H532V453.7a5.7,5.7,0,0,1,11.4,0v2.57Z"/><polyline class="cls-8" points="543.04 454.03 532.32 454.03 532.32 453.36 543.04 453.36"/><path class="cls-8" d="M598.26,501.36v.34H506.57a11.66,11.66,0,0,1-11.65-11.65v-2.43a4.36,4.36,0,0,1,4.36-4.36v.33H499v-18.1a9.55,9.55,0,0,1,9.55-9.56h36.76a20,20,0,0,1,14.17,5.88l9.05,9h15.83a11.93,11.93,0,0,1,11.07,7.48l2.61,6.48-.31.12v-.33a6.53,6.53,0,0,1,6.53,6.54v4.61a6,6,0,0,1-6,5.95V501a5.27,5.27,0,0,0,5.28-5.28v-4.61a5.86,5.86,0,0,0-5.86-5.87h-.23l-2.69-6.69a11.27,11.27,0,0,0-10.45-7.06H568.2L559,462.28a19.39,19.39,0,0,0-13.7-5.68H508.5a8.89,8.89,0,0,0-8.88,8.89v18.44h-.34a3.69,3.69,0,0,0-3.69,3.69v2.43a11,11,0,0,0,11,11h91.69v.33Z"/><path class="cls-7" d="M503.86,499.86a12.46,12.46,0,1,0,12.46-12.46,12.46,12.46,0,0,0-12.46,12.46Z"/><path class="cls-14" d="M508.46,499.86a7.86,7.86,0,1,0,7.86-7.86,7.86,7.86,0,0,0-7.86,7.86Z"/><path class="cls-15" d="M510.06,499.86a6.26,6.26,0,1,0,6.26-6.26,6.26,6.26,0,0,0-6.26,6.26Z"/><path class="cls-14" d="M513.19,499.86a3.13,3.13,0,1,0,3.13-3.13,3.13,3.13,0,0,0-3.13,3.13Z"/><path class="cls-8" d="M503.86,499.86h.39a12.07,12.07,0,1,0,3.53-8.54,12.07,12.07,0,0,0-3.53,8.54h-.77a12.85,12.85,0,1,1,12.84,12.84,12.86,12.86,0,0,1-12.84-12.84Z"/><path class="cls-7" d="M570.58,499.86A12.46,12.46,0,1,0,583,487.4a12.46,12.46,0,0,0-12.46,12.46Z"/><path class="cls-14" d="M575.18,499.86A7.86,7.86,0,1,0,583,492a7.86,7.86,0,0,0-7.86,7.86Z"/><path class="cls-15" d="M576.78,499.86A6.26,6.26,0,1,0,583,493.6a6.26,6.26,0,0,0-6.26,6.26Z"/><path class="cls-14" d="M579.91,499.86a3.13,3.13,0,1,0,3.13-3.13,3.13,3.13,0,0,0-3.13,3.13Z"/><path class="cls-8" d="M570.58,499.86H571a12.09,12.09,0,1,0,3.54-8.54,12,12,0,0,0-3.54,8.54h-.77A12.85,12.85,0,1,1,583,512.7a12.86,12.86,0,0,1-12.85-12.84Z"/><path class="cls-8" d="M594.13,477h-9v-.33h.34a8,8,0,0,0,8,8h4.21v.67h-4.21a8.69,8.69,0,0,1-8.7-8.69v-.34h9.36V477Z"/><path class="cls-8" d="M563.82,471.52l-.24.24-6.88-6.88a15.66,15.66,0,0,0-11.08-4.59H509.53A6.52,6.52,0,0,0,503,466.8v4.39h60.8v.33l-.24.24.24-.24v.34H502.35V466.8a7.19,7.19,0,0,1,7.18-7.18h36.09a16.31,16.31,0,0,1,11.55,4.79l7.46,7.45h-.81v-.34Z"/><path class="cls-8" d="M566.33,471.52h.34v27.33H531.3v-.34a13.18,13.18,0,0,0-13.16-13.16h-.76V457.61h28.08a16.89,16.89,0,0,1,11.65,4.66l9.56,9.11v.14h-.34l-.23.25-9.45-9a16.22,16.22,0,0,0-11.19-4.48H518.05v26.4h.09A13.83,13.83,0,0,1,532,498.51h-.34v-.33H566V471.52h.33l-.23.25.23-.25Z"/><polyline class="cls-8" points="538.95 457.95 538.95 498.51 538.28 498.51 538.28 457.95"/><polygon class="cls-8" points="499.28 483.26 502.35 483.26 502.35 474.37 499.28 474.37 499.28 473.7 503.02 473.7 503.02 483.93 499.28 483.93 499.28 483.26 499.28 483.26"/><text class="cls-1" transform="translate(256.51 636.99)">24,769</text><path class="cls-7" d="M615.26,646.36H523.57a11.31,11.31,0,0,1-11.31-11.31v-2.43a4,4,0,0,1,4-4v-18.1a9.22,9.22,0,0,1,9.22-9.22h36.76A19.74,19.74,0,0,1,576.2,607l9.14,9.15h16a11.59,11.59,0,0,1,10.76,7.27l2.61,6.47a6.21,6.21,0,0,1,6.2,6.21v4.61a5.62,5.62,0,0,1-5.62,5.61"/><path class="cls-5" d="M534.72,603h-8.24a8.5,8.5,0,0,0-8.5,8.49v6.42h16.74V603"/><path class="cls-5" d="M583.33,616.52v27h-34.7A13.49,13.49,0,0,0,535.14,630h-.42V603h27.74a16.53,16.53,0,0,1,11.42,4.57l9.45,9"/><path class="cls-7" d="M580.82,616.52l-6.88-6.88A16,16,0,0,0,562.62,605H526.53a6.84,6.84,0,0,0-6.84,6.84v4.72h61.13"/><path class="cls-8" d="M543.62,622.17a2.26,2.26,0,0,1-.88,1.86,3.5,3.5,0,0,1-2.19.65h-2.63v3.81h-1.25v-8.82h3.88a3.59,3.59,0,0,1,2.2.61A2.23,2.23,0,0,1,543.62,622.17Zm-1.28,0c0-.91-.61-1.36-1.82-1.36h-2.6v2.71h2.6C541.73,623.52,542.34,623.07,542.34,622.17Z"/><path class="cls-8" d="M552.59,624.06a4.94,4.94,0,0,1-1,3.18,3.85,3.85,0,0,1-5.86,0,5.45,5.45,0,0,1,0-6.35,3.87,3.87,0,0,1,5.86,0A4.89,4.89,0,0,1,552.59,624.06Zm-1.28,0a3.77,3.77,0,0,0-.74-2.43,2.53,2.53,0,0,0-3.85,0,3.82,3.82,0,0,0-.72,2.43,3.73,3.73,0,0,0,.73,2.43,2.46,2.46,0,0,0,3.84,0A3.73,3.73,0,0,0,551.31,624.06Z"/><path class="cls-8" d="M560.89,628.49H553.8v-8.82H555v7.67h5.86Z"/><path class="cls-8" d="M563.73,628.49h-1.27v-8.82h1.27Z"/><path class="cls-8" d="M573,621.8l-1.13.45a2.38,2.38,0,0,0-2.39-1.51,2.61,2.61,0,0,0-2,.83,3.67,3.67,0,0,0-.91,2.61,3.36,3.36,0,0,0,.87,2.51,2.44,2.44,0,0,0,1.78.71,2.65,2.65,0,0,0,2.56-1.76l1.05.47a4.44,4.44,0,0,1-1.33,1.82,3.75,3.75,0,0,1-2.28.66,3.71,3.71,0,0,1-2.78-1.1,4.6,4.6,0,0,1-1.13-3.31,4.82,4.82,0,0,1,1.18-3.32,3.81,3.81,0,0,1,2.95-1.33A3.53,3.53,0,0,1,573,621.8Z"/><path class="cls-8" d="M580.71,628.49h-6.55v-8.82h6.55v1.14h-5.33v2.59h4.83v1.16h-4.83v2.78h5.33Z"/><path class="cls-5" d="M611.14,621.63h-9v.26a8.1,8.1,0,0,0,8.1,8.1h4.48l-3.54-8.36Z"/><polygon class="cls-5" points="560.04 601.27 560.04 598.7 549.32 598.7 549.32 601.27 560.04 601.27 560.04 601.27"/><path class="cls-9" d="M560.05,598.7s-.49-5.09-5.37-5.36-5.36,5.36-5.36,5.36h10.73"/><polygon class="cls-9" points="516.36 619.04 519.59 619.04 519.59 628.59 516.32 628.59 516.36 619.04 516.36 619.04"/><path class="cls-10" d="M523.57,646.36h91.69a5.62,5.62,0,0,0,5.62-5.61h0a5.62,5.62,0,0,1-5.62,5.61H523.57m0,0h0m0,0h0m0,0h0m0,0h0m0,0h0m0,0h0m0,0h0m0,0h0m0,0h0m-.11,0h0"/><path class="cls-11" d="M523.57,646.36h91.69a5.62,5.62,0,0,0,5.62-5.61V637s-1.23,1.6-5.69,1.6h0c-4.47,0-15.31-3.58-18.27-4.25-1.9-.43-6.16-2.15-10.59-2.15a14.38,14.38,0,0,0-3,.3v11h-34.7a13.45,13.45,0,0,0-5.15-10.6,21.79,21.79,0,0,0-6.53,1.66,50.47,50.47,0,0,1-18.23,4,11.51,11.51,0,0,1-3.45-.38,13.36,13.36,0,0,1-2.9-1.58,11.3,11.3,0,0,0,10.93,9.79h.27"/><path class="cls-10" d="M548.63,643.51h34.7v-11a10.89,10.89,0,0,0-4.25,1.85,24.2,24.2,0,0,1-13.61,4.7,12.66,12.66,0,0,1-6.45-1.57c-3.66-2.17-8.21-4.65-13.84-4.65-.56,0-1.12,0-1.7.08a13.45,13.45,0,0,1,5.15,10.6"/><path class="cls-5" d="M562.66,605h0m0,0h0"/><path class="cls-12" d="M566.74,616.52h9.88l-11.34-11.34a16.25,16.25,0,0,0-2.62-.22h-7.48l11.56,11.56"/><polyline class="cls-12" points="558.29 616.52 563.94 616.52 552.37 604.96 546.72 604.96 558.29 616.52"/><polyline class="cls-12" points="539.77 616.52 549.65 616.52 538.08 604.96 528.21 604.96 539.77 616.52"/><path class="cls-12" d="M531.32,616.52H537l-11.48-11.47a6.75,6.75,0,0,0-3.76,1.88l9.59,9.59"/><path class="cls-12" d="M607.9,620.38a6.35,6.35,0,0,0-.69-.68,9.28,9.28,0,0,0-2.14-1.4,8.09,8.09,0,0,0-1.64-.56,9.77,9.77,0,0,0-1.89-.17h0c-1.31,0-2.7,0-4.1,0h-2.08c-.69,0-1.36,0-2,0-1.31,0-2.53.06-3.57.1s-1.92.1-2.53.13l-1,.06,1,.07c.61,0,1.48.09,2.53.13s2.26.08,3.57.1c.66,0,1.33,0,2,0h2.08c1.4,0,2.79,0,4.1,0h.58a8.61,8.61,0,0,1,1.26.08,8.88,8.88,0,0,1,1.58.42,11,11,0,0,1,2.21,1.15c.5.35.77.58.77.58"/><path class="cls-13" d="M558.52,597.71a2.06,2.06,0,0,0-.06-.8,3.31,3.31,0,0,0-.82-1.55,3.7,3.7,0,0,0-.36-.33,2.48,2.48,0,0,0-.39-.27,1.81,1.81,0,0,0-.4-.19,1.36,1.36,0,0,0-.37-.13,1.92,1.92,0,0,0-.57-.08h-.22l.18.13.2.14a2.79,2.79,0,0,1,.25.17l.29.21c.09.08.2.15.3.25a3.85,3.85,0,0,1,.3.27,4.11,4.11,0,0,1,.29.3,2.06,2.06,0,0,1,.28.31c.1.1.17.22.26.32s.16.21.23.32l.2.29c.25.37.41.65.41.65"/><path class="cls-12" d="M513.51,633a4.61,4.61,0,0,1,.73-.62l.38-.25c.13-.09.29-.15.43-.24s.31-.16.48-.23.33-.15.51-.21l.52-.18c.18-.06.35-.12.52-.16l.49-.15c.16,0,.31-.08.45-.12l.68-.18.26-.09-.27,0a4.77,4.77,0,0,0-.68-.07h-.18a5.75,5.75,0,0,0-.88.07,5.24,5.24,0,0,0-1.7.55,4.27,4.27,0,0,0-.51.3,5.12,5.12,0,0,0-.43.36,2.7,2.7,0,0,0-.33.36,2.29,2.29,0,0,0-.38.64,1.42,1.42,0,0,0-.09.26"/><path class="cls-8" d="M559.71,601.27V598.7a5,5,0,1,0-10.06,0v2.57H549V598.7a5.7,5.7,0,1,1,11.4,0v2.57Z"/><polyline class="cls-8" points="560.04 599.03 549.32 599.03 549.32 598.36 560.04 598.36"/><path class="cls-8" d="M615.26,646.36v.34H523.57a11.66,11.66,0,0,1-11.65-11.65v-2.43a4.36,4.36,0,0,1,4.36-4.36v.33H516v-18.1a9.55,9.55,0,0,1,9.55-9.56h36.76a20,20,0,0,1,14.17,5.88l9.05,9h15.83a11.93,11.93,0,0,1,11.07,7.48l2.61,6.48-.31.12v-.33a6.53,6.53,0,0,1,6.53,6.54v4.61a6,6,0,0,1-6,6V646a5.27,5.27,0,0,0,5.28-5.28v-4.61a5.86,5.86,0,0,0-5.86-5.87h-.23l-2.69-6.69a11.27,11.27,0,0,0-10.45-7.06H585.2L576,607.28a19.39,19.39,0,0,0-13.7-5.68H525.5a8.89,8.89,0,0,0-8.88,8.89v18.44h-.34a3.69,3.69,0,0,0-3.69,3.69v2.43a11,11,0,0,0,11,11h91.69v.33Z"/><path class="cls-7" d="M520.86,644.86a12.46,12.46,0,1,0,12.46-12.46,12.46,12.46,0,0,0-12.46,12.46Z"/><path class="cls-14" d="M525.46,644.86a7.86,7.86,0,1,0,7.86-7.86,7.86,7.86,0,0,0-7.86,7.86Z"/><path class="cls-15" d="M527.06,644.86a6.26,6.26,0,1,0,6.26-6.26,6.26,6.26,0,0,0-6.26,6.26Z"/><path class="cls-14" d="M530.19,644.86a3.13,3.13,0,1,0,3.13-3.13,3.13,3.13,0,0,0-3.13,3.13Z"/><path class="cls-8" d="M520.86,644.86h.39a12.07,12.07,0,1,0,3.53-8.54,12.07,12.07,0,0,0-3.53,8.54h-.77a12.85,12.85,0,1,1,12.84,12.84,12.86,12.86,0,0,1-12.84-12.84Z"/><path class="cls-7" d="M587.58,644.86A12.46,12.46,0,1,0,600,632.4a12.46,12.46,0,0,0-12.46,12.46Z"/><path class="cls-14" d="M592.18,644.86A7.86,7.86,0,1,0,600,637a7.86,7.86,0,0,0-7.86,7.86Z"/><path class="cls-15" d="M593.78,644.86A6.26,6.26,0,1,0,600,638.6a6.26,6.26,0,0,0-6.26,6.26Z"/><path class="cls-14" d="M596.91,644.86a3.13,3.13,0,1,0,3.13-3.13,3.13,3.13,0,0,0-3.13,3.13Z"/><path class="cls-8" d="M587.58,644.86H588a12.09,12.09,0,1,0,3.54-8.54,12,12,0,0,0-3.54,8.54h-.77A12.85,12.85,0,1,1,600,657.7a12.86,12.86,0,0,1-12.85-12.84Z"/><path class="cls-8" d="M611.13,622h-9v-.33h.34a8,8,0,0,0,8,8h4.21v.67h-4.21a8.69,8.69,0,0,1-8.7-8.69v-.34h9.36V622Z"/><path class="cls-8" d="M580.82,616.52l-.24.24-6.88-6.88a15.66,15.66,0,0,0-11.08-4.59H526.53A6.52,6.52,0,0,0,520,611.8v4.39h60.8v.33l-.24.24.24-.24v.34H519.35V611.8a7.19,7.19,0,0,1,7.18-7.18h36.09a16.31,16.31,0,0,1,11.55,4.79l7.46,7.45h-.81v-.34Z"/><path class="cls-8" d="M583.33,616.52h.34v27.33H548.3v-.34a13.18,13.18,0,0,0-13.16-13.16h-.76V602.61h28.08a16.89,16.89,0,0,1,11.65,4.66l9.56,9.11v.14h-.34l-.23.25-9.45-9a16.22,16.22,0,0,0-11.19-4.48H535.05v26.4h.09A13.83,13.83,0,0,1,549,643.51h-.34v-.33H583V616.52h.33l-.23.25.23-.25Z"/><polyline class="cls-8" points="555.95 602.95 555.95 643.51 555.28 643.51 555.28 602.95"/><polygon class="cls-8" points="516.28 628.26 519.35 628.26 519.35 619.37 516.28 619.37 516.28 618.7 520.02 618.7 520.02 628.93 516.28 628.93 516.28 628.26 516.28 628.26"/><text class="cls-1" transform="translate(261.51 791.99)">25,967</text><path class="cls-7" d="M662.26,797.36H570.57a11.31,11.31,0,0,1-11.31-11.31v-2.43a4,4,0,0,1,4-4v-18.1a9.22,9.22,0,0,1,9.22-9.22h36.76A19.74,19.74,0,0,1,623.2,758l9.14,9.15h16a11.59,11.59,0,0,1,10.76,7.27l2.61,6.47a6.21,6.21,0,0,1,6.2,6.21v4.61a5.62,5.62,0,0,1-5.62,5.61"/><path class="cls-5" d="M581.72,754h-8.24a8.5,8.5,0,0,0-8.5,8.49v6.42h16.74V754"/><path class="cls-5" d="M630.33,767.52v27h-34.7A13.49,13.49,0,0,0,582.14,781h-.42V754h27.74a16.53,16.53,0,0,1,11.42,4.57l9.45,9"/><path class="cls-7" d="M627.82,767.52l-6.88-6.88A16,16,0,0,0,609.62,756H573.53a6.84,6.84,0,0,0-6.84,6.84v4.72h61.13"/><path class="cls-8" d="M590.62,773.17a2.26,2.26,0,0,1-.88,1.86,3.5,3.5,0,0,1-2.19.65h-2.63v3.81h-1.25v-8.82h3.88a3.59,3.59,0,0,1,2.2.61A2.23,2.23,0,0,1,590.62,773.17Zm-1.28,0c0-.91-.61-1.36-1.82-1.36h-2.6v2.71h2.6C588.73,774.52,589.34,774.07,589.34,773.17Z"/><path class="cls-8" d="M599.59,775.06a4.94,4.94,0,0,1-1,3.18,3.85,3.85,0,0,1-5.86,0,5.45,5.45,0,0,1,0-6.35,3.87,3.87,0,0,1,5.86,0A4.89,4.89,0,0,1,599.59,775.06Zm-1.28,0a3.77,3.77,0,0,0-.74-2.43,2.53,2.53,0,0,0-3.85,0,3.82,3.82,0,0,0-.72,2.43,3.73,3.73,0,0,0,.73,2.43,2.46,2.46,0,0,0,3.84,0A3.73,3.73,0,0,0,598.31,775.06Z"/><path class="cls-8" d="M607.89,779.49H600.8v-8.82H602v7.67h5.86Z"/><path class="cls-8" d="M610.73,779.49h-1.27v-8.82h1.27Z"/><path class="cls-8" d="M620,772.8l-1.13.45a2.38,2.38,0,0,0-2.39-1.51,2.61,2.61,0,0,0-2,.83,3.67,3.67,0,0,0-.91,2.61,3.36,3.36,0,0,0,.87,2.51,2.44,2.44,0,0,0,1.78.71,2.65,2.65,0,0,0,2.56-1.76l1.05.47a4.44,4.44,0,0,1-1.33,1.82,3.75,3.75,0,0,1-2.28.66,3.71,3.71,0,0,1-2.78-1.1,4.6,4.6,0,0,1-1.13-3.31,4.82,4.82,0,0,1,1.18-3.32,3.81,3.81,0,0,1,2.95-1.33A3.53,3.53,0,0,1,620,772.8Z"/><path class="cls-8" d="M627.71,779.49h-6.55v-8.82h6.55v1.14h-5.33v2.59h4.83v1.16h-4.83v2.78h5.33Z"/><path class="cls-5" d="M658.14,772.63h-9v.26a8.1,8.1,0,0,0,8.1,8.1h4.48l-3.54-8.36Z"/><polygon class="cls-5" points="607.04 752.27 607.04 749.7 596.32 749.7 596.32 752.27 607.04 752.27 607.04 752.27"/><path class="cls-9" d="M607.05,749.7s-.49-5.09-5.37-5.36-5.36,5.36-5.36,5.36h10.73"/><polygon class="cls-9" points="563.36 770.04 566.59 770.04 566.59 779.59 563.32 779.59 563.36 770.04 563.36 770.04"/><path class="cls-10" d="M570.57,797.36h91.69a5.62,5.62,0,0,0,5.62-5.61h0a5.62,5.62,0,0,1-5.62,5.61H570.57m0,0h0m0,0h0m0,0h0m0,0h0m0,0h0m0,0h0m0,0h0m0,0h0m0,0h0m-.11,0h0"/><path class="cls-11" d="M570.57,797.36h91.69a5.62,5.62,0,0,0,5.62-5.61V788s-1.23,1.6-5.69,1.6h0c-4.47,0-15.31-3.58-18.27-4.25-1.9-.43-6.16-2.15-10.59-2.15a14.38,14.38,0,0,0-3,.3v11h-34.7a13.45,13.45,0,0,0-5.15-10.6,21.79,21.79,0,0,0-6.53,1.66,50.47,50.47,0,0,1-18.23,4,11.51,11.51,0,0,1-3.45-.38,13.36,13.36,0,0,1-2.9-1.58,11.3,11.3,0,0,0,10.93,9.79h.27"/><path class="cls-10" d="M595.63,794.51h34.7v-11a10.89,10.89,0,0,0-4.25,1.85,24.2,24.2,0,0,1-13.61,4.7,12.66,12.66,0,0,1-6.45-1.57c-3.66-2.17-8.21-4.65-13.84-4.65-.56,0-1.12,0-1.7.08a13.45,13.45,0,0,1,5.15,10.6"/><path class="cls-5" d="M609.66,756h0m0,0h0"/><path class="cls-12" d="M613.74,767.52h9.88l-11.34-11.34a16.25,16.25,0,0,0-2.62-.22h-7.48l11.56,11.56"/><polyline class="cls-12" points="605.29 767.52 610.94 767.52 599.37 755.96 593.72 755.96 605.29 767.52"/><polyline class="cls-12" points="586.77 767.52 596.65 767.52 585.08 755.96 575.21 755.96 586.77 767.52"/><path class="cls-12" d="M578.32,767.52H584l-11.48-11.47a6.75,6.75,0,0,0-3.76,1.88l9.59,9.59"/><path class="cls-12" d="M654.9,771.38a6.35,6.35,0,0,0-.69-.68,9.28,9.28,0,0,0-2.14-1.4,8.09,8.09,0,0,0-1.64-.56,9.77,9.77,0,0,0-1.89-.17h0c-1.31,0-2.7,0-4.1,0h-2.08c-.69,0-1.36,0-2,0-1.31,0-2.53.06-3.57.1s-1.92.1-2.53.13l-1,.06,1,.07c.61,0,1.48.09,2.53.13s2.26.08,3.57.1c.66,0,1.33,0,2,0h2.08c1.4,0,2.79,0,4.1,0h.58a8.61,8.61,0,0,1,1.26.08,8.88,8.88,0,0,1,1.58.42,11,11,0,0,1,2.21,1.15c.5.35.77.58.77.58"/><path class="cls-13" d="M605.52,748.71a2.06,2.06,0,0,0-.06-.8,3.31,3.31,0,0,0-.82-1.55,3.7,3.7,0,0,0-.36-.33,2.48,2.48,0,0,0-.39-.27,1.81,1.81,0,0,0-.4-.19,1.36,1.36,0,0,0-.37-.13,1.92,1.92,0,0,0-.57-.08h-.22l.18.13.2.14a2.79,2.79,0,0,1,.25.17l.29.21c.09.08.2.15.3.25a3.85,3.85,0,0,1,.3.27,4.11,4.11,0,0,1,.29.3,2.06,2.06,0,0,1,.28.31c.1.1.17.22.26.32s.16.21.23.32l.2.29c.25.37.41.65.41.65"/><path class="cls-12" d="M560.51,784a4.61,4.61,0,0,1,.73-.62l.38-.25c.13-.09.29-.15.43-.24s.31-.16.48-.23.33-.15.51-.21l.52-.18c.18-.06.35-.12.52-.16l.49-.15c.16,0,.31-.08.45-.12l.68-.18.26-.09-.27,0a4.77,4.77,0,0,0-.68-.07h-.18a5.75,5.75,0,0,0-.88.07,5.24,5.24,0,0,0-1.7.55,4.27,4.27,0,0,0-.51.3,5.12,5.12,0,0,0-.43.36,2.7,2.7,0,0,0-.33.36,2.29,2.29,0,0,0-.38.64,1.42,1.42,0,0,0-.09.26"/><path class="cls-8" d="M606.71,752.27V749.7a5,5,0,1,0-10.06,0v2.57H596V749.7a5.7,5.7,0,1,1,11.4,0v2.57Z"/><polyline class="cls-8" points="607.04 750.03 596.32 750.03 596.32 749.36 607.04 749.36"/><path class="cls-8" d="M662.26,797.36v.34H570.57a11.66,11.66,0,0,1-11.65-11.65v-2.43a4.36,4.36,0,0,1,4.36-4.36v.33H563v-18.1a9.55,9.55,0,0,1,9.55-9.56h36.76a20,20,0,0,1,14.17,5.88l9.05,9h15.83a11.93,11.93,0,0,1,11.07,7.48l2.61,6.48-.31.12v-.33a6.53,6.53,0,0,1,6.53,6.54v4.61a6,6,0,0,1-6,6V797a5.27,5.27,0,0,0,5.28-5.28v-4.61a5.86,5.86,0,0,0-5.86-5.87h-.23l-2.69-6.69a11.27,11.27,0,0,0-10.45-7.06H632.2L623,758.28a19.39,19.39,0,0,0-13.7-5.68H572.5a8.89,8.89,0,0,0-8.88,8.89v18.44h-.34a3.69,3.69,0,0,0-3.69,3.69v2.43a11,11,0,0,0,11,11h91.69v.33Z"/><path class="cls-7" d="M567.86,795.86a12.46,12.46,0,1,0,12.46-12.46,12.46,12.46,0,0,0-12.46,12.46Z"/><path class="cls-14" d="M572.46,795.86a7.86,7.86,0,1,0,7.86-7.86,7.86,7.86,0,0,0-7.86,7.86Z"/><path class="cls-15" d="M574.06,795.86a6.26,6.26,0,1,0,6.26-6.26,6.26,6.26,0,0,0-6.26,6.26Z"/><path class="cls-14" d="M577.19,795.86a3.13,3.13,0,1,0,3.13-3.13,3.13,3.13,0,0,0-3.13,3.13Z"/><path class="cls-8" d="M567.86,795.86h.39a12.07,12.07,0,1,0,3.53-8.54,12.07,12.07,0,0,0-3.53,8.54h-.77a12.85,12.85,0,1,1,12.84,12.84,12.86,12.86,0,0,1-12.84-12.84Z"/><path class="cls-7" d="M634.58,795.86A12.46,12.46,0,1,0,647,783.4a12.46,12.46,0,0,0-12.46,12.46Z"/><path class="cls-14" d="M639.18,795.86A7.86,7.86,0,1,0,647,788a7.86,7.86,0,0,0-7.86,7.86Z"/><path class="cls-15" d="M640.78,795.86A6.26,6.26,0,1,0,647,789.6a6.26,6.26,0,0,0-6.26,6.26Z"/><path class="cls-14" d="M643.91,795.86a3.13,3.13,0,1,0,3.13-3.13,3.13,3.13,0,0,0-3.13,3.13Z"/><path class="cls-8" d="M634.58,795.86H635a12.09,12.09,0,1,0,3.54-8.54,12,12,0,0,0-3.54,8.54h-.77A12.85,12.85,0,1,1,647,808.7a12.86,12.86,0,0,1-12.85-12.84Z"/><path class="cls-8" d="M658.13,773h-9v-.33h.34a8,8,0,0,0,8,8h4.21v.67h-4.21a8.69,8.69,0,0,1-8.7-8.69v-.34h9.36V773Z"/><path class="cls-8" d="M627.82,767.52l-.24.24-6.88-6.88a15.66,15.66,0,0,0-11.08-4.59H573.53A6.52,6.52,0,0,0,567,762.8v4.39h60.8v.33l-.24.24.24-.24v.34H566.35V762.8a7.19,7.19,0,0,1,7.18-7.18h36.09a16.31,16.31,0,0,1,11.55,4.79l7.46,7.45h-.81v-.34Z"/><path class="cls-8" d="M630.33,767.52h.34v27.33H595.3v-.34a13.18,13.18,0,0,0-13.16-13.16h-.76V753.61h28.08a16.89,16.89,0,0,1,11.65,4.66l9.56,9.11v.14h-.34l-.23.25-9.45-9a16.22,16.22,0,0,0-11.19-4.48H582.05v26.4h.09A13.83,13.83,0,0,1,596,794.51h-.34v-.33H630V767.52h.33l-.23.25.23-.25Z"/><polyline class="cls-8" points="602.95 753.95 602.95 794.51 602.28 794.51 602.28 753.95"/><polygon class="cls-8" points="563.28 779.26 566.35 779.26 566.35 770.37 563.28 770.37 563.28 769.7 567.02 769.7 567.02 779.93 563.28 779.93 563.28 779.26 563.28 779.26"/></g></g></svg>