<svg xmlns="http://www.w3.org/2000/svg" viewBox="0 0 2423.5 2896"><defs><style>.cls-1,.cls-2,.cls-4,.cls-5,.cls-8{fill:none;}.cls-1,.cls-2,.cls-4,.cls-8{stroke:#fff;}.cls-1,.cls-2,.cls-4,.cls-5,.cls-6,.cls-8{stroke-miterlimit:10;}.cls-1,.cls-2{stroke-width:135px;}.cls-2,.cls-4,.cls-5{stroke-linecap:round;}.cls-3{fill:#fff;}.cls-4{stroke-width:55px;}.cls-5{stroke:#ff6961;stroke-width:20px;}.cls-6{fill:#ff6961;stroke:#ea4f4b;}.cls-7{fill:#ea4f4b;}.cls-8{stroke-width:6px;}</style></defs><title>資產 7</title><g id="圖層_2" data-name="圖層 2"><g id="object"><circle class="cls-1" cx="1211.75" cy="1684.25" r="1144.25"/><line class="cls-2" x1="1210.71" y1="780.5" x2="1210.71" y2="540"/><line class="cls-2" x1="2115.5" y1="1683.21" x2="2356" y2="1683.21"/><line class="cls-2" x1="1212.79" y1="2588" x2="1212.79" y2="2828.5"/><line class="cls-2" x1="308" y1="1685.29" x2="67.5" y2="1685.29"/><circle class="cls-3" cx="1209.67" cy="1182.76" r="247.76"/><line class="cls-4" x1="1209.67" y1="1374.91" x2="1209.67" y2="1857.43"/><line class="cls-4" x1="1209.67" y1="1857.43" x2="998.74" y2="2247.5"/><line class="cls-4" x1="1209.67" y1="1857.43" x2="1420.59" y2="2247.5"/><line class="cls-4" x1="1238.56" y1="1512.15" x2="1459.6" y2="1684.07"/><line class="cls-4" x1="1185.11" y1="1512.15" x2="964.07" y2="1684.07"/><path class="cls-5" d="M1033.5,1013s178.66,18.17,357-4"/><polygon class="cls-6" points="1338.79 1311.24 1311.02 1022.39 1333.23 1042.82 1347.16 1012.83 1416.54 1284.98 1388.77 1355 1338.79 1311.24"/><polygon class="cls-6" points="1299.51 1025.77 1303.89 990.3 1347.74 981.96 1360.9 1015.34 1334.59 1048.71 1299.51 1025.77"/><polygon class="cls-7" points="1312.2 1034.76 1312.54 1038.23 1335.6 1055.05 1351.87 1031.29 1351.01 1027.89 1334.49 1048.41 1312.2 1034.76"/><line class="cls-8" x1="1308" y1="1071.5" x2="1372" y2="1092.5"/><line class="cls-8" x1="1317" y1="1117.5" x2="1381" y2="1138.5"/><line class="cls-8" x1="1319.5" y1="1161" x2="1397.5" y2="1187"/><line class="cls-8" x1="1323.5" y1="1206" x2="1412.5" y2="1235"/><line class="cls-8" x1="1327.5" y1="1250" x2="1422.5" y2="1281"/><rect class="cls-3" x="943.5" y="344" width="552" height="258" rx="32.72"/><path class="cls-3" d="M1054.5,0h330a249,249,0,0,1,249,249v0a0,0,0,0,1,0,0h-828a0,0,0,0,1,0,0v0A249,249,0,0,1,1054.5,0Z"/><path class="cls-3" d="M168.45,526.41H251.7A237.33,237.33,0,0,1,489,763.74v11.67a0,0,0,0,1,0,0H-68.88a0,0,0,0,1,0,0V763.74A237.33,237.33,0,0,1,168.45,526.41Z" transform="translate(-387.23 317.69) rotate(-42.96)"/></g></g></svg>