<svg xmlns="http://www.w3.org/2000/svg" viewBox="0 0 255 255"><defs><style>.cls-1,.cls-3{fill:#fff;}.cls-1,.cls-2{stroke:#fff;stroke-miterlimit:10;}.cls-2{fill:none;stroke-width:9px;}</style></defs><title>chart_6</title><g id="chart1" data-name="chart1_1"><g id="chart1-2" data-name="chart1_1"><path class="cls-1" d="M98.87,86.14,67.38,163.76h-13L84.7,92H44.21V81.24H98.87Z"/><path class="cls-1" d="M153.2,81.24l-39.79,96.21H102L141.7,81.24Z"/><path class="cls-1" d="M210.79,163.76H162.21V153.32h18.06V93.71l-18.54,5v-11l31.06-8.15v73.73h18Z"/><circle class="cls-2" cx="127.5" cy="127.5" r="123"/><path class="cls-3" d="M125,228.13H94.51V225h12.56V198.41h3.26v10.51h13.2V212h-13.2v13H125Z"/><path class="cls-3" d="M142,225a81.76,81.76,0,0,1-11.82,3.85l-.8-2.84c.69-.21,1.19-.34,1.5-.41V212.14h2.77v12.68a10.28,10.28,0,0,0,1.64-.47V209.73h-4.65V199.34h10.49v10.39h-2.83v4.51h3.33v2.87h-3.33v6.17c1-.3,2.17-.73,3.57-1.3Zm-3.94-18.23v-4.52h-4.45v4.52Zm22.4,6-1.66,2.73a32.87,32.87,0,0,1-7.94-3.81,47.48,47.48,0,0,1-7.83,3.88l-1.69-2.77a30.6,30.6,0,0,0,7-3.18,13.65,13.65,0,0,1-2.73-3.47c-.75.65-1.5,1.26-2.28,1.83l-1.84-2.36a21.94,21.94,0,0,0,6.68-7.38l2.94.87a9.69,9.69,0,0,1-.94,1.8h8.12l0,3a24.34,24.34,0,0,1-4.87,5.88A25.9,25.9,0,0,0,160.49,212.77ZM158.29,229h-3.2v-1.18h-8.18V229h-3.15V216.07h14.53Zm-3.2-4.12v-5.81h-8.18v5.81Zm-.2-21h-6.82l-.16.17a12.88,12.88,0,0,0,3,3.93A20.43,20.43,0,0,0,154.89,203.88Z"/></g></g></svg>
