<svg xmlns="http://www.w3.org/2000/svg" viewBox="0 0 930.32 1004.98"><defs><style>.cls-1{fill:gray;}.cls-2{fill:#604c3f;}.cls-3{fill:#444242;}.cls-4{fill:#afafaf;}.cls-5{fill:#fff;}.cls-6{fill:#f8c49a;}.cls-7{fill:#ad061c;}.cls-8{fill:#403127;}.cls-9{fill:#e0aa89;}.cls-10{fill:#4c7d00;}.cls-11{fill:#304905;}.cls-12{fill:#395506;}.cls-13{fill:#528300;}.cls-14{fill:#ceb332;}.cls-15{fill:#3d5e00;}.cls-16{fill:#273702;}.cls-17{fill:#496e00;}.cls-18{fill:#2e4103;}.cls-19{fill:#cebf74;}.cls-20{fill:#7aaf00;}.cls-21{fill:#4d6601;}.cls-22{fill:#84b600;}.cls-23{fill:#accc00;}.cls-24{fill:#291f3d;}.cls-25{fill:#170d30;}.cls-26{fill:#4b9f00;}.cls-27{fill:#79c500;}.cls-28{fill:#83ca00;}.cls-29{fill:#292754;}.cls-30{fill:#78d500;}.cls-31{fill:#82d900;}.cls-32{fill:#293274;}.cls-33{fill:#77e100;}.cls-34{fill:#81e400;}.cls-35{fill:#dcdddd;}.cls-36{fill:#ff7bac;opacity:0.2;}</style></defs><title>資產 7</title><g id="圖層_2" data-name="圖層 2"><g id="圖層_11" data-name="圖層 11"><path class="cls-1" d="M930.32,1005V487.38c-96.3-13.11-219-23.33-351.87-19.34-128.09,3.85-144,6.26-232.09,59.19s-181,57.14-213.18,39.27L33.29,697.16s22.12,39.4,85.64,61.94,268.41,8.2,268.41,8.2L377.1,1005Z"/><path class="cls-2" d="M498.28,96.74s-37.95,9.49-50.61,52.18,3.17,143.91,25.31,90.15,102.79-155,25.3-142.33Z"/><path class="cls-3" d="M481.81,695.58,461.1,740.66l43.5,92.2,73.85-305.63L541,464.05s-58.37,110.64-88.6,223.34l29.4,8.19Z"/><path class="cls-4" d="M541,445.61s-40,36.2-53.82,81.62S452.41,661,452.41,661l52.19,26.4L471.35,733l33.25,99.82s32.78-89.76,45.87-184.21-9.46-203-9.46-203Z"/><polygon class="cls-5" points="504.6 832.87 481.81 1004.98 635.27 1004.98 645.51 867.7 688.54 755.11 745.91 513.23 730.75 498.14 549.21 476.35 518.47 677.14 504.6 832.87 504.6 832.87"/><path class="cls-6" d="M586.84,80.92C497,76.38,466.65,125.2,438.18,215.34s-66.42,180.29-17.39,213.5,167.63,33.21,251.45-31.63,106-164.47,72.74-224.56S625.18,82.86,586.84,80.92Z"/><path class="cls-6" d="M504.6,450.76c28.47,0,39.93,49.48,44.28,99s61.63,74.42,101.3,44.61c31.5-23.67,62.73-55.48,80.57-96.18,0,0-29-79.91-25.55-131.54L504.6,450.76Z"/><path class="cls-2" d="M645.35,313.39s-14.23-.5,0-47.69,31.63-83.57,7.91-96.22S560,166.32,504.6,147.34,430.28,24,485.63,3.43,522,62,585.26,47.71s68,17.4,101.21,41.12,64.84-9.49,88.56,39.54S775,209,775,209s28.46,23.72,10.54,68c-19.78,48.85-53.89,28.47-62.73,113.86-5.47,52.89-75.91,34.79-77.49-77.49Z"/><path class="cls-7" d="M137.6,744.06c0,.15.23.14.62,0-.42-.24-.64-.25-.62,0Z"/><path class="cls-3" d="M47.43,714.16c2,1.17,8.38,7.28,16.31,15.3C77,739.73,95,750.61,118.93,759.1c7.57,2.69,17.18,4.85,28.19,6.57,73.15-37.27,84.06-118.52,57.95-158.49,0,0-146.51,103.21-157.64,107Z"/><path class="cls-4" d="M158.16,566.87c41,9.37,80.23,76.47,40.67,127.37s-62.69,70.22-114.74,56.67C14.37,732.75-2,687.39,10.31,635.33c9-38.26,147.85-68.46,147.85-68.46Z"/><path class="cls-6" d="M645.35,313.39s66.42-50.6,64.84-4.74S637.44,405.11,612.93,364l32.42-50.61Z"/><path class="cls-2" d="M443.17,298.08c-40.49-10.82-49.84,17.14-54.88,44.09s-25,73.39,0,103.44,183,9,212.14-19.12,14.71-81.4,44.92-113.1V265.7s-19,59.08-54.48,76.47c-13.14,6.43-27.55,12.3-40.48,17.13a41.63,41.63,0,0,1-50.84-18.36c-9.29-16.46-26.11-34.76-56.38-42.86Z"/><path class="cls-6" d="M187.66,454.15c-18.31,17.45-47.12,90.08-17.16,140.35C188.1,624,138.49,718.12,72.92,714S3.25,630,15.55,580.84s98.08-206.52,98.08-206.52l74,79.83Z"/><path class="cls-8" d="M452.41,368.9c-7.49,0-45.45-15.53-52.92,0s9.2,11.9,21.85,10.26,31.07-10.26,31.07-10.26Z"/><path class="cls-9" d="M162.15,426.64,78.82,440.25h0s26.06,65.51,83.75,65.13c6.14-23.68,16.71-43.24,25.09-51.23l-25.51-27.51Z"/><path class="cls-9" d="M253.74,465.91c-12.14,13.46-33.32,15.45-63.94,19.29s-55-6.06-68.4-39.78-11.34-68.7-11.34-68.7l100.28-24,43.4,113.23Z"/><path class="cls-3" d="M730.75,498.14,645.51,867.7l100.4-99.15-15.16-54.39,105.32-41.11s-22.62-138.5-44.58-200.17c-18.88-2.6-31-.32-50.7-3.11l-10,28.37Z"/><polygon class="cls-3" points="387.34 767.3 409.88 527.23 366.69 768.54 387.34 767.3 387.34 767.3"/><path class="cls-10" d="M224.48,452.08,94.61,507.33a24.93,24.93,0,0,0-3.25,2.06c-5.91,4.23-17.21,13.35-23.48,16L59.36,529c-15.19,6.46-31.82,1.53-37.15-11L2,470.46c-5.33-12.54,2.66-27.93,17.85-34.39l8.51-3.63c6.49-2.75,21.68-4.61,28.54-5.95a18.18,18.18,0,0,0,3-.77l129.87-55.26a33.58,33.58,0,0,1,15.74-13.4l8.52-3.62c11.71-5,24.27-3.17,31.86,3.66L362,326.58a8.5,8.5,0,0,1,3.54-.16l0-.05,3.25-1.38-1.15-2.7,7-3,0-.09a3.13,3.13,0,0,1,4.11,1.64l11.92,28A3.14,3.14,0,0,1,389,353l-7,3-.62-1.46-3.25,1.38a8.53,8.53,0,0,1-2.55,2.41L273,421.22c-.47,10.1-7.85,20.25-19.45,25.18L245,450a33.67,33.67,0,0,1-20.13,2.13l-.43-.08"/><path class="cls-11" d="M19.81,436.07a34.38,34.38,0,0,0-15,12.65,26.76,26.76,0,0,0-3.7,9.14,21.31,21.31,0,0,0,.33,9.76,37.17,37.17,0,0,0,1.77,4.62l2,4.59,4,9.18,8,18.37,4,9.19c.67,1.52,1.3,3.09,2,4.57.39.71.69,1.46,1.14,2.13a24,24,0,0,0,1.38,2c4,5.09,10.37,8,16.8,8.6a32.5,32.5,0,0,0,9.69-.53,19,19,0,0,0,2.37-.56c.77-.25,1.57-.41,2.32-.73l2.28-.87,2.3-1,4.6-2A38.74,38.74,0,0,0,70.33,523a97.38,97.38,0,0,0,8.26-5.46c2.69-1.94,5.35-4,8-6,1.34-1,2.67-2,4-3,.69-.49,1.37-1,2.12-1.45l.55-.35.64-.34c.43-.23.78-.35,1.17-.53l18.41-7.86,36.81-15.74c24.53-10.53,49.14-20.85,73.71-31.29l.32-.13.34.07a31.79,31.79,0,0,0,15.26-.37,49.34,49.34,0,0,0,7.33-2.72c2.41-1,4.95-2,7.27-3.13a33.06,33.06,0,0,0,12-9.55,25.66,25.66,0,0,0,5.51-14.07l0-.5.41-.26,52.92-32.11,26.5-16,13.25-8,6.63-4,3.32-2a8.67,8.67,0,0,0,2.81-2.51l0,0,0,0,3.26-1.34.09,0,0,.09.6,1.46-.1,0L389,353l-7,3.06-.08,0,0-.07-.63-1.45.13.05L378.12,356l.06,0a9,9,0,0,1-2.86,2.66L372,360.69l-6.56,4.1L352.36,373,326.1,389.37,273.5,422l.45-.76a27.29,27.29,0,0,1-5.8,15.21,35.2,35.2,0,0,1-12.69,10.18c-2.48,1.17-4.89,2.12-7.34,3.19a52.07,52.07,0,0,1-7.59,2.85,34,34,0,0,1-16.3.43l.67-.06c-24.56,10.47-49.06,21-73.65,31.41l-36.87,15.61L96,507.89c-.37.17-.81.33-1.11.49l-.47.25-.5.32c-.67.41-1.34.9-2,1.37-1.34,1-2.67,2-4,2.95-2.67,2-5.35,4-8.07,6s-5.49,3.86-8.46,5.55A38,38,0,0,1,66.7,527l-4.62,1.93-2.31,1-2.4.89c-.79.33-1.64.49-2.45.74a19.68,19.68,0,0,1-2.5.58,34.42,34.42,0,0,1-10.23.45,29.24,29.24,0,0,1-9.83-2.89,23.53,23.53,0,0,1-8-6.47c-.56-.66-1-1.43-1.47-2.14s-.79-1.53-1.19-2.29c-.45-1-.86-2-1.27-3-.23-.56-.46-1.11-.7-1.66l-3.87-9.23L8.17,486.42l-3.84-9.24-1.92-4.62a35.78,35.78,0,0,1-1.73-4.75A21.93,21.93,0,0,1,.5,457.75a26.77,26.77,0,0,1,3.91-9.25,34.38,34.38,0,0,1,15.4-12.43"/><path class="cls-12" d="M225,452.19h0a33.63,33.63,0,0,0,19.73-2,33.69,33.69,0,0,1-19.72,2"/><path class="cls-12" d="M244.73,450.15l.07,0-.07,0m.08,0,.07,0-.07,0m.1,0,.05,0-.05,0"/><path class="cls-13" d="M60.29,425.57v0l129.46-55.09.44-.66q2.43,4.23,4.89,8.87c-.43.46-.85.92-1.24,1.39l-.25.11c-1.18-2.56-2.36-5.09-3.52-7.59q-.45-.93-.87-1.86L60.29,425.57M213.1,424c.74,0,1.49-.08,2.27-.15q2,5.26,3.71,10.32-.86,0-1.68-.12l-.67-1.59c-.73-1.72-1.46-3.42-2.19-5.13L213.1,424"/><polyline class="cls-14" points="224.64 452.1 224.48 452.07 224.64 452.1"/><path class="cls-15" d="M18.25,507c6.11,7,19.73,8.37,32.93,2.75l8.51-3.62c6.2-2.64,17.63-10.84,23.73-14.81Q86.2,497.8,89,504.12c-6,4.17-17.27,13-23.5,15.61L57,523.35c-13.05,5.56-27,3.16-33.82-5.08a.54.54,0,0,0-.07-.13c-.7-1.48-1.33-3-2-4.57L18.25,507"/><path class="cls-16" d="M22.2,518,16,503.49A13,13,0,0,0,18.25,507l2.81,6.54c.67,1.52,1.3,3.09,2,4.57a.54.54,0,0,1,.07.13,18,18,0,0,1-2.75-4.52L22.2,518c5.33,12.53,22,17.45,37.16,11l8.52-3.62h0L59.36,529c-15.19,6.47-31.83,1.55-37.16-11"/><path class="cls-17" d="M23.13,518.27C30,526.51,43.9,528.91,57,523.35l8.51-3.62C71.69,517.08,83,508.29,89,504.12c.58,1.33,1.17,2.66,1.75,4l.16.38h0l-.22.16c-1.37,1-2.7,2-4,3-2.67,2-5.33,4-8,6A97.38,97.38,0,0,1,70.33,523a38.74,38.74,0,0,1-4.39,2.13l-4.6,2-2.3,1-2.28.87c-.75.32-1.55.48-2.32.73a19,19,0,0,1-2.37.56,32.5,32.5,0,0,1-9.69.53c-6.43-.65-12.78-3.51-16.8-8.6a24,24,0,0,1-1.38-2,20.27,20.27,0,0,1-1.07-2"/><path class="cls-18" d="M22.2,518l-1.82-4.29a18,18,0,0,0,2.75,4.52,20.27,20.27,0,0,0,1.07,2,24,24,0,0,0,1.38,2c4,5.09,10.37,8,16.8,8.6a32.5,32.5,0,0,0,9.69-.53,19,19,0,0,0,2.37-.56c.77-.25,1.57-.41,2.32-.73l2.28-.87,2.3-1,4.6-2A38.74,38.74,0,0,0,70.33,523a97.38,97.38,0,0,0,8.26-5.46c2.69-1.94,5.35-4,8-6,1.34-1,2.67-2,4-3l.22-.16c.15.32.29.64.43,1-5.94,4.24-17.18,13.3-23.42,15.95L59.36,529c-15.19,6.47-31.83,1.55-37.16-11"/><path class="cls-15" d="M223.16,446.92c-1.21-4.08-2.58-8.34-4.08-12.72a41,41,0,0,0,17.78-3.42l8.51-3.62c11.6-4.94,19.5-13.85,20.72-22.22L370,345.42a10.49,10.49,0,0,0,2.66-2.19l3.24-1.38.49,1.16,7-3c1.59-.68,2.44-2.25,1.9-3.51l3.72,8.72a3,3,0,0,1-1.73,3.93l-7,3-.58-1.36-3.24,1.38a9.12,9.12,0,0,1-2.59,2.34L271,416.42c-.69,9.59-8.23,19.37-19.83,24.31l-8.51,3.62a35.39,35.39,0,0,1-19.47,2.57"/><path class="cls-16" d="M244.72,450.16h0m.08,0h0m.08,0h0m.08,0,.08,0,8.52-3.62h0L245,450l-.08,0"/><path class="cls-19" d="M389,353h0m.05,0h0"/><path class="cls-17" d="M224.49,451c-.17-.41-.34-.83-.52-1.24-.26-.93-.53-1.86-.81-2.81a35.39,35.39,0,0,0,19.47-2.57l8.51-3.62c11.6-4.94,19.14-14.72,19.83-24.31l102.92-61.91a9.12,9.12,0,0,0,2.59-2.34l3.24-1.38.58,1.36,7-3a3,3,0,0,0,1.73-3.93l1.55,3.65A3.14,3.14,0,0,1,389,353H389l-7,2.88-.57-1.39,0-.09-.09,0L378,355.77l0,0,0,0a8.67,8.67,0,0,1-2.81,2.51l-3.32,2-6.63,4-13.25,8-26.5,16-52.92,32.11-.41.26,0,.5a25.66,25.66,0,0,1-5.51,14.07,33.06,33.06,0,0,1-12,9.55c-2.32,1.09-4.86,2.09-7.27,3.13a49.34,49.34,0,0,1-7.33,2.72,31.79,31.79,0,0,1-15.26.37l-.23,0"/><path class="cls-18" d="M225,452.18l0-.06c-.16-.37-.32-.77-.48-1.15h0l.23,0a31.79,31.79,0,0,0,15.26-.37,49.34,49.34,0,0,0,7.33-2.72c2.41-1,4.95-2,7.27-3.13a33.06,33.06,0,0,0,12-9.55,25.66,25.66,0,0,0,5.51-14.07l0-.5.41-.26,52.92-32.11,26.5-16,13.25-8,6.63-4,3.32-2a8.67,8.67,0,0,0,2.81-2.51l0,0,0,0,3.26-1.34.09,0,0,.09.57,1.39,7-2.88h0l-7,3-.62-1.46-3.24,1.38h0a8.69,8.69,0,0,1-2.56,2.41L273,421.22c-.47,10.1-7.85,20.24-19.45,25.18L245,450l-.08,0-.05,0h0l-.07,0h0l-.07,0h0a33.63,33.63,0,0,1-19.73,2"/><path class="cls-15" d="M222.78,446.85q-2.64-6.33-5.38-12.77.82.07,1.68.12c1.5,4.38,2.87,8.64,4.08,12.72l-.38-.07"/><path class="cls-17" d="M224,449.73c-.39-1-.79-1.92-1.19-2.88l.38.07c.28.95.55,1.88.81,2.81"/><path class="cls-20" d="M3.08,472.07c-1-8.37,7.92-18.85,21.56-24.65l8.51-3.63c6.39-2.71,20.72-5.72,27.54-7.49,1,2.59,2.05,5.2,3.1,7.84.38.94.75,1.88,1.13,2.84l2.2,5.43q3.6,8.88,7.43,18l.09.21h0q2.17,5.21,4.42,10.48l0,.11c-6.25,3.62-18,10.94-24.24,13.58l-8.51,3.62c-13.27,5.64-26.15,6.1-31.15,1.55l-6-14-4-9.18-2-4.59a.89.89,0,0,0-.08-.17m57.25-2.29c-2-3.88-3.7-7.95-5.77-11.85l-.19-.39c-5,1.88-10,3.8-13.17,5.16l-8.52,3.62a172.36,172.36,0,0,0-15.54,7.5c1.53,4,3,8,4.56,12,4.74-1.54,10.48-3.71,16.6-6.31l8.52-3.62c3.33-1.42,8.47-3.78,13.51-6.13"/><path class="cls-21" d="M13.54,497.69,3.82,474.83a10.26,10.26,0,0,1-.74-2.76.89.89,0,0,1,.08.17l2,4.59,4,9.18,6,14a6.54,6.54,0,0,1-1.66-2.3"/><path class="cls-20" d="M195.08,378.67a45.9,45.9,0,0,1,15.24-10.26l8.51-3.62c11.72-5,23.48-5,29.95-.83l114-35.44a11.58,11.58,0,0,1,3.4-.52v0l3.24-1.38-.68-1.61-.12-.26,7-3,0-.07c1.59-.68,3.26-.34,3.73.76l4.6,10.84c.38.87-.61,2.13-2.2,2.81l-7,3-.34-.81-3.24,1.38a13.25,13.25,0,0,1-2.77,1.91L262.75,397.09c-2.09,6.32-10.61,13.79-22.21,18.72L232,419.44a57.54,57.54,0,0,1-16.66,4.44c-1.94-5.16-4.06-10.46-6.35-15.84-4.51-10.59-9.24-20.5-13.94-29.37m61.37,2.24a41.42,41.42,0,0,0-2.81-5.52c-4.62.17-15,3.33-26.76,8.31l-6.31,2.68c1.83,4.42,3.57,8.88,5.33,13.33l6.6-2.81c11.6-4.93,21.14-10,24.68-12.9l.41-.19c-.35-1-.73-1.95-1.14-2.9M305.87,359c-.52-1.21-1.05-2.41-1.62-3.6l-39.79,15.71a59.56,59.56,0,0,1,2.76,5.68c.32.75.62,1.5.92,2.26l38.79-17.48c-.35-.87-.7-1.72-1.06-2.57m53.75-25.46L315,351.16q.67,1.5,1.32,3c.38.89.75,1.78,1.11,2.68l43.62-19.66c-.44-1.23-.93-2.43-1.44-3.63m20.85-8.49c-.09-.21-.86-.09-1.9.25.24,1.36.44,2.72.62,4.09,1.47-.65,2.57-1.32,2.48-1.54l-1.2-2.8"/><path class="cls-22" d="M193.59,380.17l.25-.11c.39-.47.81-.93,1.24-1.39,4.7,8.87,9.43,18.78,13.94,29.37,2.29,5.38,4.41,10.68,6.35,15.84-.78.07-1.53.12-2.27.15h0q-2.25-5.24-4.49-10.38h0l-.57-1.3c-.17-.4-.35-.79-.52-1.19s-.47-1.07-.7-1.61q-4.34-9.85-8.6-19.28h0l-.88-1.93q-1.89-4.14-3.75-8.17h0"/><path class="cls-23" d="M225.9,399.71c-1.76-4.45-3.5-8.91-5.33-13.33l6.31-2.68c11.71-5,22.14-8.14,26.76-8.31a41.42,41.42,0,0,1,2.81,5.52c.41.95.79,1.92,1.14,2.9l-.41.19c-3.54,2.91-13.08,8-24.68,12.9l-6.6,2.81"/><path class="cls-23" d="M21.7,485.84c-1.52-4-3-8-4.56-12a172.36,172.36,0,0,1,15.54-7.5l8.52-3.62c3.2-1.36,8.18-3.28,13.17-5.16l.19.39c2.07,3.9,3.73,8,5.77,11.85-5,2.35-10.18,4.71-13.51,6.13l-8.52,3.62c-6.12,2.6-11.86,4.77-16.6,6.31"/><path class="cls-23" d="M379.19,329.4c-.18-1.37-.38-2.73-.62-4.09,1-.34,1.81-.46,1.9-.25l1.2,2.8c.09.22-1,.89-2.48,1.54"/><path class="cls-23" d="M315,351.16l44.61-17.61c.51,1.2,1,2.4,1.44,3.63l-43.62,19.66c-.36-.9-.73-1.79-1.11-2.68s-.87-2-1.32-3"/><path class="cls-23" d="M264.46,371.12l39.79-15.71c.57,1.19,1.1,2.39,1.62,3.6.36.85.71,1.7,1.06,2.57l-38.79,17.48c-.3-.76-.6-1.51-.92-2.26a59.56,59.56,0,0,0-2.76-5.68"/><path class="cls-24" d="M91.72,510.42c-.29-.65-.56-1.3-.85-1.94l-.16-.38q-5.08-11.5-10.18-23.52l0-.1q-2.37-5.6-4.69-11.13L74,469C71,462,68.2,455,65.46,448.23q-.9-2.22-1.77-4.42-1.39-3.48-2.75-6.92c-1.13-2.82-2.22-5.64-3.3-8.41-.27-.66-.53-1.33-.78-2a16.68,16.68,0,0,0,3-.75l129.31-55q.42.93.87,1.86c1.26,2.7,2.53,5.44,3.8,8.2,1,2.11,1.95,4.24,2.93,6.4l2,4.33q4.53,10,9.11,20.47.94,2.19,1.9,4.36l4.76,11c.73,1.71,1.46,3.41,2.19,5.13q4,9.36,7.76,18.48c.16.38.32.78.48,1.15s.34.84.51,1.26l-133.76,57"/><path class="cls-25" d="M126.69,404c-27.84,11.85-53.14,20.68-69,24.49-.27-.66-.53-1.33-.78-2a16.68,16.68,0,0,0,3-.75l129.31-55q.42.93.87,1.86c-14,8.67-36.95,20.17-63.38,31.41Z"/><path class="cls-25" d="M91.72,510.42c-.29-.65-.56-1.3-.85-1.94l-.16-.38c10.89-8.32,34.63-20.94,63-33C185,461.77,212.8,453,225,452.12c.17.43.34.84.51,1.26l-133.76,57Z"/><polyline class="cls-26" points="79.1 481.24 79.1 481.24 79.11 481.24 79.11 481.24 79.1 481.24"/><path class="cls-27" d="M79.1,481.24l0-.11q-2.25-5.28-4.42-10.48h0c.37.9.75,1.8,1.13,2.7,1.09,2.62,2.2,5.25,3.31,7.88h0"/><path class="cls-28" d="M208.6,413.65h0q2.24,5.14,4.49,10.38h0l-3.32-7.69c-.39-.89-.79-1.79-1.18-2.69"/><path class="cls-29" d="M79.1,481.23h0c-1.11-2.63-2.22-5.26-3.31-7.88-.38-.9-.76-1.8-1.13-2.7l133.94-57c.39.9.79,1.8,1.18,2.69L213.1,424l-.55,0L82.68,479.31a38.41,38.41,0,0,0-3.58,1.92"/><path class="cls-27" d="M74.55,470.44q-3.83-9.13-7.43-18,2.84,7,5.8,14.11h0c.54,1.31,1.09,2.61,1.63,3.92"/><path class="cls-26" d="M60.69,436.3h0"/><path class="cls-27" d="M63.79,444.14c-1-2.64-2.09-5.25-3.1-7.84h0l.24.59c.77,2,1.56,3.93,2.35,5.92h0c.17.44.34.88.52,1.32"/><path class="cls-28" d="M193.59,380.17h0q1.86,4,3.75,8.17c-.33-.72-.66-1.43-1-2.15h0c-.83-1.82-1.65-3.62-2.48-5.41-.09-.2-.18-.41-.28-.61"/><path class="cls-29" d="M63.29,442.81c-.79-2-1.58-4-2.35-5.92l-.24-.59h0a27.42,27.42,0,0,0,3.27-1l129.62-55.15c.1.2.19.41.28.61.83,1.79,1.65,3.59,2.48,5.41L63.29,442.81"/><path class="cls-28" d="M207.54,411.15c.17.4.35.79.52,1.19-.18-.4-.35-.79-.52-1.19"/><path class="cls-27" d="M74.64,470.65l-.09-.21.09.21h0"/><path class="cls-28" d="M198.24,390.26h0q4.27,9.4,8.6,19.28c.23.54.47,1.07.7,1.61-.23-.54-.47-1.07-.71-1.61h0q-4.34-9.85-8.6-19.28h0m9.82,22.08.57,1.3h0l-.57-1.3"/><path class="cls-30" d="M74.64,470.65l-.09-.21c-.54-1.31-1.09-2.61-1.63-3.92h0L74,469l.7,1.69h0"/><path class="cls-31" d="M206.81,409.55h0c.23.54.47,1.07.7,1.61s.34.79.52,1.19l.57,1.3h0l-.72-1.67-1.07-2.43"/><path class="cls-32" d="M74.66,470.65,74,469l-1-2.45,133.87-57,1.07,2.43.72,1.67-133.94,57"/><path class="cls-27" d="M67.12,452.41,64.92,447c-.38-1-.75-1.9-1.13-2.84L64.93,447h0l2.2,5.43h0"/><path class="cls-28" d="M197.36,388.33l.88,1.93h0l-.88-1.93"/><path class="cls-30" d="M64.93,447l-1.14-2.84c-.18-.44-.35-.88-.52-1.32h0c.13.34.27.67.4,1L65,447h0"/><path class="cls-31" d="M196.35,386.19h0c.32.72.65,1.43,1,2.15l.87,1.93h0q-.72-1.56-1.41-3.09l-.45-1"/><path class="cls-32" d="M65,447l-1.26-3.16c-.13-.33-.27-.66-.4-1l133.06-56.62.45,1q.69,1.53,1.41,3.09L65,447"/><path class="cls-30" d="M67.12,452.41,64.92,447h0q1.08,2.7,2.19,5.43"/><path class="cls-31" d="M198.24,390.26h0q4.27,9.4,8.6,19.28h0q-4.34-9.85-8.61-19.28"/><path class="cls-33" d="M72.92,466.52h0q-3-7.12-5.8-14.11Q66,449.68,64.93,447h0l.51,1.26c2.42,6,4.92,12.1,7.48,18.28h0"/><path class="cls-34" d="M198.21,390.27h0q4.26,9.4,8.59,19.28h0q-4-9.19-8-18c-.19-.42-.38-.83-.56-1.24"/><path class="cls-4" d="M645.51,867.7l64.71-112.59V701.73L813.53,661s-11.29-122.58-22-157.71-77.61-63-77.61-63l16.87,57.89s-75,232.28-85.24,369.56Z"/><path class="cls-35" d="M529.18,607.18l-10.71,70L504.6,832.86,481.81,1005h21.67c20-108.7,15-327.84,25.7-397.8Z"/><ellipse class="cls-36" cx="564.17" cy="287.72" rx="12.82" ry="35.11" transform="translate(149.46 766.35) rotate(-76.11)"/><ellipse class="cls-36" cx="438.36" cy="257.1" rx="6.21" ry="12.97" transform="translate(83.46 620.84) rotate(-76.1)"/><path class="cls-6" d="M219.56,444.82c6.71-10.12,16.7-.27,30.84-.22s11.41,14.22,3.34,21.31-45.2-4.46-34.18-21.09Z"/><path class="cls-6" d="M199.1,350.36s-1.16-12.63,8.68-15.49c13.56-3.94,19.16,5.16,22.17,22.23,5.1,28.89-6.22,27.37-13.82,23.31-8-4.25-10.7-32.13-10.7-32.13l-6.33,2.08Z"/><path class="cls-6" d="M170.69,358.32s-2.17-17.15,8.29-24,22.16.69,23.26,12.37,8.58,39.76,1.94,44.23-18.88-.09-21.65-11.58A156.64,156.64,0,0,1,179,356.54l-8.27,1.78Z"/><path class="cls-6" d="M135.15,368.28s.76-12.35,8-19.76,17.86-8.26,26.4-3,7.17,19.16,8.06,33.62,7.66,21.27-3.79,23.71-16.89-4.59-19.38-15.39A196.79,196.79,0,0,1,150.8,365l-15.65,3.27Z"/><path class="cls-6" d="M109,375.61s-.2-10.47,9.63-14.81,16.31.58,23.67,11.3,15.79,11.33,15,16.6-6.85,10.09-18.8,7.42-24.87-21.8-24.87-21.8L109,375.61Z"/></g></g></svg>