<svg xmlns="http://www.w3.org/2000/svg" xmlns:xlink="http://www.w3.org/1999/xlink" viewBox="0 0 651.44 525.05"><defs><style>.cls-1{fill:none;}.cls-2{clip-path:url(#clip-path);}.cls-3{fill:#b35e47;}.cls-4{fill:#7f3f30;}.cls-5{fill:#c57059;}.cls-6{fill:#994f3a;}.cls-7{fill:#ffd942;}.cls-8{fill:#eebd00;}</style><clipPath id="clip-path" transform="translate(-168.44 -153.92)"><rect class="cls-1" x="124.44" y="124.44" width="619.53" height="619.53" transform="translate(-174.43 515.62) rotate(-52.62)"/></clipPath></defs><title>資產 5</title><g id="圖層_2" data-name="圖層 2"><g id="圖層_2-2" data-name="圖層 2"><g class="cls-2"><path class="cls-3" d="M566,319.2l217.8,1.44a36.3,36.3,0,0,1-.48,72.6l-217.8-1.44-36-36.55Z" transform="translate(-168.44 -153.92)"/></g><path class="cls-4" d="M565.54,391.8l-36-36.55,290.39,1.93a36.4,36.4,0,0,1-36.54,36.06Z" transform="translate(-168.44 -153.92)"/><path class="cls-5" d="M456.63,391.08l.48-72.59,108.9.72-.48,72.6Z" transform="translate(-168.44 -153.92)"/><path class="cls-6" d="M456.63,391.09l.24-36.3,108.9.72-.24,36.3Z" transform="translate(-168.44 -153.92)"/><path class="cls-7" d="M314.58,190.47l105.28.7C463.57,222.32,493.62,289,493.18,355S461.81,487.3,417.69,517.87l-105.27-.7C268.7,486,238.65,419.39,239.08,353.33S270.46,221,314.58,190.47Z" transform="translate(-168.44 -153.92)"/><path class="cls-8" d="M239.09,353.33,493.18,355c-.43,66.07-31.37,132.29-75.49,162.86l-105.27-.7C268.7,486,238.65,419.39,239.09,353.33Z" transform="translate(-168.44 -153.92)"/><path class="cls-6" d="M494.27,191.67a36.3,36.3,0,0,1-36.54,36.06l-181.5-1.21a36.3,36.3,0,1,1,.49-72.6l181.49,1.21a36.3,36.3,0,0,1,36.06,36.54Z" transform="translate(-168.44 -153.92)"/><path class="cls-4" d="M484.23,503.77a36.3,36.3,0,0,1-36.54,36.06l-181.5-1.21a36.3,36.3,0,1,1,.48-72.59l181.5,1.2a36.3,36.3,0,0,1,36.06,36.54Z" transform="translate(-168.44 -153.92)"/><path class="cls-6" d="M495.14,586v38.48A18,18,0,0,1,477,642.67H222.89a18,18,0,0,1-18.15-18.15V586A52.05,52.05,0,0,1,257,533.77H442.87A52.05,52.05,0,0,1,495.14,586Z" transform="translate(-168.44 -153.92)"/><path class="cls-4" d="M495.14,586v38.48A18,18,0,0,1,477,642.67h-127V533.77h92.93A52.05,52.05,0,0,1,495.14,586Z" transform="translate(-168.44 -153.92)"/><path class="cls-3" d="M495.14,606.37H204.74a36.41,36.41,0,0,0-36.3,36.3v18.15A18,18,0,0,0,186.59,679h326.7a18,18,0,0,0,18.15-18.15V642.67a36.4,36.4,0,0,0-36.3-36.3Z" transform="translate(-168.44 -153.92)"/><path class="cls-6" d="M531.44,642.67v18.15A18,18,0,0,1,513.29,679H349.94v-72.6h145.2a36.4,36.4,0,0,1,36.3,36.3Z" transform="translate(-168.44 -153.92)"/></g></g></svg>