<svg xmlns="http://www.w3.org/2000/svg" xmlns:xlink="http://www.w3.org/1999/xlink" viewBox="0 0 603.7 565.12"><defs><style>.cls-1{fill:none;}.cls-2{clip-path:url(#clip-path);}.cls-3{fill:#b35e47;}.cls-4{fill:#7f3f30;}.cls-5{fill:#c57059;}.cls-6{fill:#994f3a;}.cls-7{fill:#ffd942;}.cls-8{fill:#eebd00;}</style><clipPath id="clip-path" transform="translate(-82.34 -27.74)"><rect class="cls-1" x="38.34" y="38.34" width="619.53" height="619.53" transform="translate(-43.08 49.23) rotate(-7.62)"/></clipPath></defs><title>資產 4</title><g id="圖層_2" data-name="圖層 2"><g id="圖層_2-2" data-name="圖層 2"><g class="cls-2"><path class="cls-3" d="M522.63,360l153,155a36.3,36.3,0,1,1-51.68,51L471,411l.34-51.33Z" transform="translate(-82.34 -27.74)"/></g><path class="cls-4" d="M471,411l.34-51.33,204,206.7a36.4,36.4,0,0,1-51.34-.34Z" transform="translate(-82.34 -27.74)"/><path class="cls-5" d="M394.45,333.47l51.67-51L522.61,360l-51.67,51Z" transform="translate(-82.34 -27.74)"/><path class="cls-6" d="M394.45,333.47,420.29,308l76.49,77.51L470.94,411Z" transform="translate(-82.34 -27.74)"/><path class="cls-7" d="M435.86,91.17l73.95,74.94c8.89,52.93-17,121.3-64,167.7s-115.72,71.36-168.54,61.77l-73.94-74.93c-8.89-52.94,17-121.3,64-167.71S383.05,81.59,435.86,91.17Z" transform="translate(-82.34 -27.74)"/><path class="cls-8" d="M267.32,153,445.8,333.81c-47,46.41-115.72,71.36-168.54,61.77l-73.94-74.93c-8.89-52.94,17-121.3,64-167.7Z" transform="translate(-82.34 -27.74)"/><path class="cls-6" d="M562.08,219.08a36.3,36.3,0,0,1-51.34-.35L383.25,89.54a36.3,36.3,0,0,1,51.68-51L562.41,167.74a36.31,36.31,0,0,1-.33,51.34Z" transform="translate(-82.34 -27.74)"/><path class="cls-4" d="M334.28,432.67a36.31,36.31,0,0,1-51.34-.34L155.46,303.13a36.3,36.3,0,0,1,51.68-51L334.62,381.33a36.3,36.3,0,0,1-.34,51.34Z" transform="translate(-82.34 -27.74)"/><path class="cls-6" d="M409,499.93v38.48a18,18,0,0,1-18.15,18.15H136.79a18,18,0,0,1-18.15-18.15V499.93a52.05,52.05,0,0,1,52.27-52.27H356.77A52.05,52.05,0,0,1,409,499.93Z" transform="translate(-82.34 -27.74)"/><path class="cls-4" d="M409,499.93v38.48a18,18,0,0,1-18.15,18.15h-127V447.66h92.93A52.05,52.05,0,0,1,409,499.93Z" transform="translate(-82.34 -27.74)"/><path class="cls-3" d="M409,520.26H118.64a36.41,36.41,0,0,0-36.3,36.3v18.15a18,18,0,0,0,18.15,18.15h326.7a18,18,0,0,0,18.15-18.15V556.56a36.41,36.41,0,0,0-36.3-36.3Z" transform="translate(-82.34 -27.74)"/><path class="cls-6" d="M445.34,556.56v18.15a18,18,0,0,1-18.15,18.15H263.84v-72.6H409a36.41,36.41,0,0,1,36.3,36.3Z" transform="translate(-82.34 -27.74)"/></g></g></svg>