<svg xmlns="http://www.w3.org/2000/svg" xmlns:xlink="http://www.w3.org/1999/xlink" viewBox="0 0 72.85 83.69"><defs><style>.cls-1{fill:none;}.cls-2{clip-path:url(#clip-path);}.cls-3{fill:#b35e47;}.cls-4{fill:#7f3f30;}.cls-5{fill:#c57059;}.cls-6{fill:#994f3a;}.cls-7{fill:#ffd942;}.cls-8{fill:#eebd00;}</style><clipPath id="clip-path" transform="translate(-17.05)"><rect class="cls-1" width="89.9" height="89.9"/></clipPath></defs><title>資產 4</title><g id="圖層_2" data-name="圖層 2"><g id="圖層_11" data-name="圖層 11"><g class="cls-2"><path class="cls-3" d="M69.83,50l19,25.24a5.27,5.27,0,0,1-8.42,6.34l-19-25.24,1-7.38Z" transform="translate(-17.05)"/></g><path class="cls-4" d="M61.41,56.36l1-7.38L87.81,82.64a5.3,5.3,0,0,1-7.38-1Z" transform="translate(-17.05)"/><path class="cls-5" d="M51.9,43.74l8.41-6.34L69.82,50l-8.41,6.34Z" transform="translate(-17.05)"/><path class="cls-6" d="M51.9,43.74l4.21-3.17,9.51,12.62-4.21,3.17Z" transform="translate(-17.05)"/><path class="cls-7" d="M62.52,9.68l9.19,12.21C72,29.67,66.93,39,59.28,44.77s-18,8-25.43,5.65l-9.2-12.2c-.26-7.79,4.78-17.12,12.44-22.89s18-8,25.43-5.65Z" transform="translate(-17.05)"/><path class="cls-8" d="M37.09,15.33,59.28,44.77c-7.66,5.77-18,8-25.43,5.65l-9.2-12.2c-.26-7.79,4.78-17.12,12.44-22.89Z" transform="translate(-17.05)"/><path class="cls-6" d="M78.21,30.51a5.27,5.27,0,0,1-7.38-1L55,8.44A5.27,5.27,0,1,1,63.4,2.1l15.85,21a5.27,5.27,0,0,1-1,7.38Z" transform="translate(-17.05)"/><path class="cls-4" d="M41.34,56.85a5.27,5.27,0,0,1-7.38-1l-15.85-21a5.27,5.27,0,1,1,8.41-6.34l15.85,21a5.27,5.27,0,0,1-1,7.38Z" transform="translate(-17.05)"/></g></g></svg>