<svg xmlns="http://www.w3.org/2000/svg" xmlns:xlink="http://www.w3.org/1999/xlink" viewBox="0 0 557.36 761.82"><defs><style>.cls-1{fill:none;}.cls-2{fill:#ba3722;}.cls-29,.cls-3,.cls-35,.cls-37{isolation:isolate;font-family:NotoSansCJKtc-Regular-B5pc-H, Noto Sans CJK TC;}.cls-3{font-size:34.32px;}.cls-29,.cls-3,.cls-35,.cls-36{fill:#fff;}.cls-4{fill:#b24d65;}.cls-5{fill:#b47544;}.cls-6{fill:#be232d;}.cls-7{clip-path:url(#clip-path);}.cls-8{fill:#444d55;}.cls-9{fill:#fac30f;}.cls-10{fill:#dc1e28;}.cls-11{fill:#c8dce6;}.cls-12{fill:#545c64;}.cls-13{fill:#e6f0f5;}.cls-14{fill:#ff3746;}.cls-15{fill:#b0b5c0;}.cls-16{fill:#f7ba7a;}.cls-17{clip-path:url(#clip-path-2);}.cls-18{fill:#f1935d;}.cls-19{fill:#ee7b51;}.cls-20{fill:#f3f4f5;}.cls-21{fill:#524a5b;}.cls-22{fill:#e4e3e5;}.cls-23{fill:#665d6c;}.cls-24{fill:#eb5f5c;}.cls-25{fill:#ef9073;}.cls-26{fill:#e56e4a;}.cls-27{fill:#e05f41;}.cls-28,.cls-37{fill:#c9472d;}.cls-29{font-size:39.14px;}.cls-30{fill:#d6808a;}.cls-31{fill:#ce6f7d;}.cls-32{fill:#cc6478;}.cls-33{fill:#c65c70;}.cls-34{fill:#ba5669;}.cls-35{font-size:51.23px;}.cls-37{font-size:26.21px;}</style><clipPath id="clip-path"><rect class="cls-1" x="360.14" y="0.01" width="120.98" height="99.24"/></clipPath><clipPath id="clip-path-2"><rect class="cls-1" x="12.64" y="7.4" width="235.09" height="93.23"/></clipPath></defs><title>資產 2</title><g id="圖層_2" data-name="圖層 2"><g id="圖層_1-2" data-name="圖層 1"><g id="圖層_3" data-name="圖層 3"><rect class="cls-2" y="648.78" width="275.58" height="88.24"/><text class="cls-3" transform="translate(140.17 714.81) rotate(0.01)">.</text><text class="cls-3" transform="translate(140.16 723.81) rotate(0.01)">.</text><rect class="cls-4" x="275.87" y="646.82" width="280.7" height="90.45"/><text class="cls-3" transform="translate(421.16 716.85) rotate(0.01)">.</text><text class="cls-3" transform="translate(421.16 725.85) rotate(0.01)">.</text><path class="cls-5" d="M393.22,46.08H360.14v-26a3.57,3.57,0,0,1,3.55-3.54h26a3.54,3.54,0,0,1,3.54,3.54h0Z"/><path class="cls-6" d="M468.33,65.44l-7.26-43.56-19,1.12,7.25,43.54a3.54,3.54,0,0,0,4.59,2.79l10.9.29a3.55,3.55,0,0,0,3.5-4.13Z"/><g class="cls-7"><path class="cls-8" d="M437.41,16.55H428a3.55,3.55,0,0,1,0-7.09h9.45a3.55,3.55,0,0,1,.38,7.09h-.41Z"/><path class="cls-9" d="M461,0H454V26h7.09a3.53,3.53,0,0,0,3.54-3.52V3.56A3.55,3.55,0,0,0,461.08,0Z"/><path class="cls-10" d="M457.49,26H447.06a13.12,13.12,0,0,1-13.19-12.79A13,13,0,0,1,446.67,0h10.84Z"/></g><path class="cls-8" d="M470.48,80.35A3.56,3.56,0,0,1,474,83.9a15.36,15.36,0,1,1-30.72,0h0a3.54,3.54,0,0,1,3.54-3.54h23.67Z"/><path class="cls-11" d="M458.67,92.16a8.28,8.28,0,0,1-7.47-4.72h14.94A8.26,8.26,0,0,1,458.67,92.16Z"/><path class="cls-12" d="M406.21,80.34a3.55,3.55,0,0,1,3.55,3.55,15.36,15.36,0,0,1-30.72,0,3.56,3.56,0,0,1,3.54-3.54Z"/><path class="cls-13" d="M394.4,92.16a8.27,8.27,0,0,1-7.47-4.73h14.94A8.3,8.3,0,0,1,394.4,92.16Z"/><path class="cls-14" d="M458.67,61.45a22.5,22.5,0,0,0-22.17,18.9h-7.84V55.54a13,13,0,0,0-13-13H401.49a31.92,31.92,0,0,0-31.9,31.89v9.45a3.53,3.53,0,0,0,3.53,3.55H477.57a3.53,3.53,0,0,0,3.54-3.52v0a22.47,22.47,0,0,0-22.44-22.45Z"/><path class="cls-10" d="M458.67,61.45a22.5,22.5,0,0,0-22.17,18.9h-7.84V55.54a13,13,0,0,0-8-12v43.9h56.95a3.53,3.53,0,0,0,3.54-3.52v0a22.47,22.47,0,0,0-22.44-22.45Z"/><path class="cls-15" d="M393.22,49.62H363.69a3.55,3.55,0,0,1-.38-7.09h29.91Z"/><path class="cls-12" d="M420.39,49.63H389.68a3.53,3.53,0,0,1-3.55-3.53h0V41.35a13,13,0,0,1,13-13H420.4a10.64,10.64,0,0,1,.65,21.27c-.22,0-.43,0-.65,0Z"/><path class="cls-8" d="M431,39a10.64,10.64,0,0,0-10.4-10.63V49.62A10.64,10.64,0,0,0,431,39Z"/><path class="cls-16" d="M237.54,46.5c-7.64-4.71-32.26-10.72-66.82-10.73L152.47,14.48A20.24,20.24,0,0,0,137.08,7.4H82.44a24.31,24.31,0,0,0-15.83,5.85L45.07,31.7l-23,3.3a8.11,8.11,0,0,0-6.72,6L12.64,52l60.8,28.38H243.67V57.46a12.85,12.85,0,0,0-6.14-11Z"/><g class="cls-17"><path class="cls-18" d="M243.68,60.1c0-8.1-12.16-16.21-68.91-16.22H16.69a4,4,0,0,0-4,4V72.23l77,12.17h154V60.1Z"/><path class="cls-19" d="M243.67,76.32H53.61l-36-8a4.05,4.05,0,1,0-1.76,7.91L52.29,84.3a3.71,3.71,0,0,0,.88.1h190.5a4,4,0,1,0,0-8.1Z"/></g><path class="cls-20" d="M207.19,56a20.27,20.27,0,1,1-20.27,20.27A20.28,20.28,0,0,1,207.19,56Z"/><path class="cls-21" d="M207.2,60.1a16.21,16.21,0,1,0,16.21,16.21A16.21,16.21,0,0,0,207.2,60.1Zm0,40.53a24.32,24.32,0,1,1,24.32-24.32h0a24.36,24.36,0,0,1-24.32,24.32Z"/><path class="cls-22" d="M207.19,68.2a8.11,8.11,0,1,1-8.11,8.11,8.11,8.11,0,0,1,8.11-8.11Z"/><path class="cls-20" d="M53.17,56A20.27,20.27,0,1,1,32.9,76.29,20.28,20.28,0,0,1,53.17,56Z"/><path class="cls-21" d="M53.17,60.08A16.21,16.21,0,1,0,69.38,76.29,16.21,16.21,0,0,0,53.17,60.08Zm0,40.53A24.32,24.32,0,1,1,77.49,76.29h0a24.34,24.34,0,0,1-24.33,24.32Z"/><path class="cls-22" d="M53.17,68.18a8.11,8.11,0,1,1-8.11,8.11,8.11,8.11,0,0,1,8.11-8.11Z"/><path class="cls-19" d="M174.77,68.2H89.65a4.05,4.05,0,0,1-4-4.06h0a4.05,4.05,0,0,1,4-4h85.12a4,4,0,0,1,4,4h0a4,4,0,0,1-4,4Z"/><path class="cls-19" d="M243.67,68.21h-4a4.05,4.05,0,0,1-4-4.06h0a4,4,0,0,1,4-4.05h4.06a4.06,4.06,0,0,1,4,4.06h0a4.05,4.05,0,0,1-4.06,4Z"/><path class="cls-18" d="M45.07,31.7,66.61,13.24A24.31,24.31,0,0,1,82.44,7.39h54.64a20.27,20.27,0,0,1,15.39,7.07l18.25,21.3h-96a65.62,65.62,0,0,1-10.66-.88l-19-3.18Z"/><path class="cls-23" d="M132.62,14.37a8.1,8.1,0,0,0-6.23-2.92H89a8.11,8.11,0,0,0-5.73,2.38L71.06,26a5.78,5.78,0,0,0-1.67,4h0a5.72,5.72,0,0,0,5.71,5.73h71a2,2,0,0,0,2-1.95,2,2,0,0,0-.5-1.37Z"/><polygon class="cls-21" points="97.76 35.76 85.6 35.76 93.71 11.44 101.82 11.44 97.76 35.76 97.76 35.76"/><path class="cls-20" d="M239.33,47.94h-3.76a4.06,4.06,0,0,0,0,8.11h7.92A12.76,12.76,0,0,0,239.33,47.94Z"/><path class="cls-23" d="M152.47,14.47a20.86,20.86,0,0,0-3.23-3h-6.62a2,2,0,0,0-2.05,1.95,2,2,0,0,0,.5,1.37l15.06,18.09a8.14,8.14,0,0,0,6.23,2.91h8.36l-18.25-21.3Z"/><path class="cls-24" d="M12.64,47.91V52h8.11a4.06,4.06,0,0,0,0-8.11H16.69a4,4,0,0,0-4,4Z"/><rect class="cls-25" x="0.36" y="126.68" width="275.82" height="443.22"/><rect class="cls-19" x="0.34" y="266.78" width="275.26" height="443.22"/><rect class="cls-26" x="0.34" y="367.78" width="275.3" height="357.97"/><rect class="cls-27" x="0.33" y="465.78" width="275.26" height="256.8"/><rect class="cls-28" x="0.32" y="559.2" width="275.56" height="179.28"/><text class="cls-29" transform="translate(53.17 241.66) rotate(0.01)">罰3 - 12萬</text><text class="cls-3" transform="translate(100 332.62) rotate(0.01)">12萬</text><text class="cls-3" transform="translate(99.99 431.62) rotate(0.01)">21萬</text><text class="cls-3" transform="translate(99.98 522.62) rotate(0.01)">30萬</text><text class="cls-3" transform="translate(99.97 615.62) rotate(0.01)">39萬</text><text class="cls-3" transform="translate(130.18 674.81) rotate(0.01)">.</text><text class="cls-3" transform="translate(130.18 685.81) rotate(0.01)">.</text><text class="cls-3" transform="translate(130.18 695.81) rotate(0.01)">.</text><text class="cls-3" transform="translate(130.18 704.81) rotate(0.01)">.</text><rect class="cls-30" x="275.88" y="126.71" width="281.48" height="443.22"/><rect class="cls-31" x="275.9" y="266.52" width="281.44" height="443.52"/><rect class="cls-32" x="275.85" y="367.82" width="281.48" height="357.97"/><rect class="cls-33" x="275.65" y="465.82" width="281.44" height="259.14"/><rect class="cls-34" x="275.88" y="559.24" width="281.44" height="179.28"/><text class="cls-29" transform="translate(330.7 241.69) rotate(0.01)">罰 1.5 - 9萬</text><text class="cls-3" transform="translate(398.99 332.66) rotate(0.01)">9萬</text><text class="cls-3" transform="translate(392.98 431.66) rotate(0.01)">18萬</text><text class="cls-3" transform="translate(392.97 522.66) rotate(0.01)">27萬</text><text class="cls-3" transform="translate(392.96 615.66) rotate(0.01)">36萬</text><text class="cls-3" transform="translate(418.17 676.85) rotate(0.01)">.</text><text class="cls-3" transform="translate(418.17 687.85) rotate(0.01)">.</text><text class="cls-3" transform="translate(418.17 697.85) rotate(0.01)">.</text><text class="cls-3" transform="translate(418.17 706.85) rotate(0.01)">.</text><text class="cls-35" transform="translate(223.94 189.34) rotate(0.01)">初犯</text><circle class="cls-36" cx="278.99" cy="320.6" r="30.11" transform="translate(-60.58 576.16) rotate(-85.93)"/><text class="cls-37" transform="translate(253.3 330.96) rotate(0.01)">二犯</text><circle class="cls-36" cx="278.97" cy="418.6" r="30.11"/><text class="cls-37" transform="translate(253.29 428.96) rotate(0.01)">三犯</text><circle class="cls-36" cx="278.96" cy="509.6" r="30.11"/><text class="cls-37" transform="translate(253.28 519.96) rotate(0.01)">四犯</text><circle class="cls-36" cx="280.95" cy="603.61" r="30.11" transform="matrix(0.07, -1, 1, 0.07, -341.06, 841.06)"/><text class="cls-37" transform="translate(255.27 613.96) rotate(0.01)">五犯</text></g></g></g></svg>