<svg xmlns="http://www.w3.org/2000/svg" xmlns:xlink="http://www.w3.org/1999/xlink" viewBox="0 0 557.36 780.63"><defs><style>.cls-1{fill:none;}.cls-2{fill:#ba3722;}.cls-29,.cls-3,.cls-35,.cls-37{isolation:isolate;font-family:Microsoft JhengHei;}.cls-3{font-size:35.23px;}.cls-29,.cls-3,.cls-35,.cls-36{fill:#fff;}.cls-4{fill:#b24d65;}.cls-5{fill:#b47544;}.cls-6{fill:#be232d;}.cls-7{clip-path:url(#clip-path);}.cls-8{fill:#444d55;}.cls-9{fill:#fac30f;}.cls-10{fill:#dc1e28;}.cls-11{fill:#c8dce6;}.cls-12{fill:#545c64;}.cls-13{fill:#e6f0f5;}.cls-14{fill:#ff3746;}.cls-15{fill:#b0b5c0;}.cls-16{fill:#f7ba7a;}.cls-17{clip-path:url(#clip-path-2);}.cls-18{fill:#f1935d;}.cls-19{fill:#ee7b51;}.cls-20{fill:#f3f4f5;}.cls-21{fill:#524a5b;}.cls-22{fill:#e4e3e5;}.cls-23{fill:#665d6c;}.cls-24{fill:#eb5f5c;}.cls-25{fill:#ef9073;}.cls-26{fill:#e56e4a;}.cls-27{fill:#e05f41;}.cls-28,.cls-37{fill:#c9472d;}.cls-29{font-size:40.18px;}.cls-30{fill:#d6808a;}.cls-31{fill:#c66779;}.cls-32{fill:#c15972;}.cls-33{fill:#bc4b66;}.cls-34{fill:#9e4359;}.cls-35{font-size:52.6px;}.cls-37{font-size:26.91px;}</style><clipPath id="clip-path"><rect class="cls-1" x="360.14" y="0.01" width="120.98" height="101.89"/></clipPath><clipPath id="clip-path-2"><rect class="cls-1" x="12.64" y="7.6" width="235.09" height="95.71"/></clipPath></defs><title>資產 1</title><g id="圖層_2" data-name="圖層 2"><g id="圖層_1-2" data-name="圖層 1"><g id="圖層_1-2-2" data-name="圖層 1-2"><g id="圖層_3" data-name="圖層 3"><rect class="cls-2" y="666.07" width="275.58" height="90.59"/><text class="cls-3" transform="matrix(0.97, 0, 0, 1, 140.17, 733.86)">.</text><text class="cls-3" transform="matrix(0.97, 0, 0, 1, 140.16, 743.1)">.</text><rect class="cls-4" x="275.87" y="664.06" width="280.7" height="92.86"/><text class="cls-3" transform="matrix(0.97, 0, 0, 1, 421.16, 735.96)">.</text><text class="cls-3" transform="matrix(0.97, 0, 0, 1, 421.16, 745.2)">.</text><path class="cls-5" d="M393.22,47.31H360.14V20.62A3.62,3.62,0,0,1,363.69,17h26a3.59,3.59,0,0,1,3.54,3.64h0Z"/><path class="cls-6" d="M468.33,67.18l-7.26-44.72-19,1.15,7.25,44.7a3.56,3.56,0,0,0,4.07,3,4.39,4.39,0,0,0,.52-.13l10.9.3a3.61,3.61,0,0,0,3.55-3.65,3.81,3.81,0,0,0-.05-.59Z"/><g class="cls-7"><path class="cls-8" d="M437.41,17H428a3.65,3.65,0,0,1,0-7.28h9.45a3.65,3.65,0,0,1,.38,7.28h-.42Z"/><path class="cls-9" d="M461,0h-7V26.69h7.09a3.57,3.57,0,0,0,3.54-3.61h0V3.65A3.6,3.6,0,0,0,461.09,0H461Z"/><path class="cls-10" d="M457.49,26.69H447.06a13.28,13.28,0,0,1-13.19-13.13A13.19,13.19,0,0,1,446.66,0h10.85Z"/></g><path class="cls-8" d="M470.48,82.49A3.61,3.61,0,0,1,474,86.14a15.37,15.37,0,1,1-30.72,0h0a3.59,3.59,0,0,1,3.54-3.64h23.66Z"/><path class="cls-11" d="M458.67,94.62a8.28,8.28,0,0,1-7.47-4.85h14.94A8.26,8.26,0,0,1,458.67,94.62Z"/><path class="cls-12" d="M406.21,82.48a3.6,3.6,0,0,1,3.55,3.65,15.37,15.37,0,1,1-30.72,0,3.61,3.61,0,0,1,3.54-3.64Z"/><path class="cls-13" d="M394.4,94.62a8.29,8.29,0,0,1-7.47-4.86h14.94A8.29,8.29,0,0,1,394.4,94.62Z"/><path class="cls-14" d="M458.67,63.09a22.68,22.68,0,0,0-22.17,19.4h-7.84V57a13.18,13.18,0,0,0-13-13.35H401.49c-17.61,0-31.88,14.67-31.9,32.74v9.71a3.58,3.58,0,0,0,3.51,3.64H477.57a3.57,3.57,0,0,0,3.54-3.61h0c0-12.72-10.05-23-22.44-23.05Z"/><path class="cls-10" d="M458.67,63.09a22.68,22.68,0,0,0-22.17,19.4h-7.84V57a13.36,13.36,0,0,0-8-12.32V89.77h56.95a3.57,3.57,0,0,0,3.54-3.61h0c0-12.72-10-23-22.44-23Z"/><path class="cls-15" d="M393.22,50.94H363.69a3.65,3.65,0,0,1-.38-7.28h29.91Z"/><path class="cls-12" d="M420.39,51H389.68a3.57,3.57,0,0,1-3.55-3.6v0h0V42.45a13.17,13.17,0,0,1,13-13.34H420.4a10.92,10.92,0,0,1,.65,21.83h-.66Z"/><path class="cls-8" d="M431,40a10.79,10.79,0,0,0-10.4-10.91V50.94A10.79,10.79,0,0,0,431,40Z"/><path class="cls-16" d="M237.54,47.74c-7.64-4.84-32.26-11-66.82-11L152.47,14.87A20,20,0,0,0,137.08,7.6H82.44a23.88,23.88,0,0,0-15.83,6L45.07,32.54l-23,3.39a8.18,8.18,0,0,0-6.72,6.16l-2.71,11.3,60.8,29.13H243.67V59a13.26,13.26,0,0,0-6.14-11.29Z"/><g class="cls-17"><path class="cls-18" d="M243.68,61.7c0-8.31-12.16-16.64-68.91-16.65H16.69a4.06,4.06,0,0,0-4,4.11v25l77,12.49h154v-25Z"/><path class="cls-19" d="M243.67,78.35H53.61l-36-8.21a4,4,0,0,0-4.83,3.16,4.16,4.16,0,0,0,3.07,5h0l36.44,8.29a3.71,3.71,0,0,0,.88.1h190.5a4.16,4.16,0,0,0,0-8.32Z"/></g><path class="cls-20" d="M207.19,57.49c11.19,0,20.27,9.32,20.27,20.81s-9.08,20.81-20.27,20.81S186.92,89.8,186.92,78.3,196,57.5,207.19,57.49Z"/><path class="cls-21" d="M207.2,61.7a16.65,16.65,0,1,0,16.21,16.64A16.43,16.43,0,0,0,207.2,61.7Zm0,41.61c-13.43,0-24.32-11.18-24.32-25s10.89-25,24.32-25,24.32,11.17,24.32,25h0c0,13.78-10.9,25-24.32,25Z"/><path class="cls-22" d="M207.19,70a8.33,8.33,0,1,1-8.11,8.32A8.22,8.22,0,0,1,207.19,70Z"/><path class="cls-20" d="M53.17,57.49c11.19,0,20.27,9.32,20.27,20.81S64.36,99.11,53.17,99.11,32.91,89.81,32.9,78.32A20.55,20.55,0,0,1,53.17,57.49Z"/><path class="cls-21" d="M53.17,61.68A16.65,16.65,0,1,0,69.38,78.32,16.43,16.43,0,0,0,53.17,61.68Zm0,41.61c-13.43,0-24.32-11.18-24.32-25s10.89-25,24.32-25,24.32,11.17,24.32,25h0c0,13.79-10.9,25-24.33,25Z"/><path class="cls-22" d="M53.17,70a8.33,8.33,0,1,1-8.11,8.32A8.22,8.22,0,0,1,53.17,70Z"/><path class="cls-19" d="M174.77,70H89.65a4.11,4.11,0,0,1-4-4.17h0a4.11,4.11,0,0,1,4-4.11h85.12a4.06,4.06,0,0,1,4,4.11h0a4.06,4.06,0,0,1-4,4.11Z"/><path class="cls-19" d="M243.67,70h-4a4.11,4.11,0,0,1-4-4.17h0a4.06,4.06,0,0,1,4-4.16h4.11a4.12,4.12,0,0,1,4,4.17h0A4.11,4.11,0,0,1,243.67,70Z"/><path class="cls-18" d="M45.07,32.54,66.61,13.59a23.88,23.88,0,0,1,15.83-6h54.64a20,20,0,0,1,15.39,7.26l18.25,21.86h-96a63.47,63.47,0,0,1-10.66-.9l-19-3.27Z"/><path class="cls-23" d="M132.62,14.75a8,8,0,0,0-6.23-3H89a8,8,0,0,0-5.73,2.44L71.06,26.69a6.07,6.07,0,0,0-1.67,4.11h0a5.79,5.79,0,0,0,5.71,5.88h71a2,2,0,0,0,2-2,2.12,2.12,0,0,0-.5-1.41Z"/><polygon class="cls-21" points="97.76 36.71 85.6 36.71 93.71 11.74 101.82 11.74 97.76 36.71 97.76 36.71"/><path class="cls-20" d="M239.33,49.22h-3.76a4.17,4.17,0,0,0,0,8.32h7.92A13.19,13.19,0,0,0,239.33,49.22Z"/><path class="cls-23" d="M152.47,14.86a20.44,20.44,0,0,0-3.23-3.08h-6.62a2,2,0,0,0-2.05,2h0a2.09,2.09,0,0,0,.5,1.4l15.06,18.58a8,8,0,0,0,6.23,3h8.36L152.47,14.88Z"/><path class="cls-24" d="M12.64,49.19v4.2h8.11a4.18,4.18,0,0,0,0-8.33H16.69a4.06,4.06,0,0,0-4,4.11Z"/><rect class="cls-25" x="0.36" y="130.06" width="275.82" height="455.03"/><rect class="cls-19" x="0.34" y="273.89" width="275.26" height="455.03"/><rect class="cls-26" x="0.34" y="377.58" width="275.3" height="367.51"/><rect class="cls-27" x="0.33" y="478.19" width="275.26" height="263.64"/><rect class="cls-28" x="0.32" y="574.1" width="275.56" height="184.06"/><text class="cls-29" transform="matrix(0.97, 0, 0, 1, 53.17, 248.1)">罰3 - 12萬</text><text class="cls-3" transform="matrix(0.97, 0, 0, 1, 100, 341.48)">12萬</text><text class="cls-3" transform="matrix(0.97, 0, 0, 1, 99.99, 443.12)">21萬</text><text class="cls-3" transform="matrix(0.97, 0, 0, 1, 99.98, 536.55)">30萬</text><text class="cls-3" transform="matrix(0.97, 0, 0, 1, 99.97, 632.03)">39萬</text><text class="cls-3" transform="matrix(0.97, 0, 0, 1, 130.18, 692.8)">.</text><text class="cls-3" transform="matrix(0.97, 0, 0, 1, 130.18, 704.09)">.</text><text class="cls-3" transform="matrix(0.97, 0, 0, 1, 130.18, 714.36)">.</text><text class="cls-3" transform="matrix(0.97, 0, 0, 1, 130.18, 723.6)">.</text><rect class="cls-30" x="275.88" y="130.09" width="281.48" height="455.03"/><rect class="cls-31" x="275.9" y="273.62" width="281.44" height="455.34"/><rect class="cls-32" x="275.85" y="377.62" width="281.48" height="367.51"/><rect class="cls-33" x="275.65" y="478.24" width="281.44" height="266.05"/><rect class="cls-34" x="275.88" y="574.15" width="281.44" height="184.06"/><text class="cls-29" transform="matrix(0.97, 0, 0, 1, 330.7, 248.13)">罰 1.5 - 9萬</text><text class="cls-3" transform="matrix(0.97, 0, 0, 1, 398.99, 341.53)">9萬</text><text class="cls-3" transform="matrix(0.97, 0, 0, 1, 392.98, 443.16)">18萬</text><text class="cls-3" transform="matrix(0.97, 0, 0, 1, 392.97, 536.59)">27萬</text><text class="cls-3" transform="matrix(0.97, 0, 0, 1, 392.96, 632.07)">36萬</text><text class="cls-3" transform="matrix(0.97, 0, 0, 1, 418.17, 694.89)">.</text><text class="cls-3" transform="matrix(0.97, 0, 0, 1, 418.17, 706.18)">.</text><text class="cls-3" transform="matrix(0.97, 0, 0, 1, 418.17, 716.45)">.</text><text class="cls-3" transform="matrix(0.97, 0, 0, 1, 418.17, 725.69)">.</text><text class="cls-35" transform="matrix(0.97, 0, 0, 1, 223.94, 194.39)">初犯</text><ellipse class="cls-36" cx="279.01" cy="329.17" rx="30.11" ry="30.91"/><text class="cls-37" transform="matrix(0.97, 0, 0, 1, 253.3, 339.78)">二犯</text><ellipse class="cls-36" cx="278.97" cy="429.76" rx="30.11" ry="30.91"/><text class="cls-37" transform="matrix(0.97, 0, 0, 1, 253.29, 440.39)">三犯</text><ellipse class="cls-36" cx="278.96" cy="523.18" rx="30.11" ry="30.91"/><text class="cls-37" transform="matrix(0.97, 0, 0, 1, 253.28, 533.82)">四犯</text><ellipse class="cls-36" cx="282.22" cy="618.42" rx="30.18" ry="30.99"/><text class="cls-37" transform="matrix(0.97, 0, 0, 1, 255.27, 630.32)">五犯</text></g></g></g></g></svg>
