<svg xmlns="http://www.w3.org/2000/svg" viewBox="0 0 168.38 1098.1"><defs><style>.cls-1{font-size:52.65px;}.cls-1,.cls-3,.cls-4{fill:#fff;}.cls-1,.cls-3,.cls-5{font-family:Microsoft JhengHei;}.cls-2{fill:#fbb03b;fill-rule:evenodd;}.cls-3{font-size:44.55px;letter-spacing:-0.12em;}.cls-5{font-size:43.76px;}</style></defs><title>chart_15</title><g id="chart1" data-name="chart1_1"><g id="chart2" data-name="chart2_1"><text class="cls-1" transform="translate(24.41 46.34)">36萬</text><path class="cls-2" d="M87.37,117a10.76,10.76,0,0,1,7.21,7.75c21.62-4.32,20.69,6.59,12.54,20.11a74.81,74.81,0,0,0-6.58,14.25l-13.17.09v-5.55c10.22-13,7.59-25.38,0-32.14V117Zm0,32.6a36.52,36.52,0,0,0,0-21.65ZM64,159.25a72.88,72.88,0,0,0-7.7-15.67c-8.57-13.29-7.83-24.42,11.57-18.14C70,117.23,80.15,114.37,87.37,117v4.51a21,21,0,0,0-6.72-4A22.64,22.64,0,0,1,87.37,128V149.6A37.49,37.49,0,0,1,84,157.48a46.37,46.37,0,0,0,3.39-3.83v5.55C76.92,159.27,64.05,159.33,64,159.25Z"/><path class="cls-2" d="M124.15,291.84h32.08a7.14,7.14,0,0,0,7.12-7.12v-6.58a7.14,7.14,0,0,0-7.12-7.13h-8.71c2.78-27.68-1.94-54-23.37-75.22v10.44c16.7,20.22,28.69,54,3.19,76.83,11.78-21.4,6.4-47.59-3.19-67.22ZM62.93,179.46s-52,24-47.53,91.55H7.13A7.15,7.15,0,0,0,0,278.14v6.58a7.14,7.14,0,0,0,7.13,7.12h117v-76c-5.41-11-12.15-20-17.92-24.87,5.61,2.71,12,8.16,17.92,15.26V195.79a106,106,0,0,0-21.76-16.33Z"/><text class="cls-3" transform="translate(60.1 255.7)">＄</text><path class="cls-2" d="M92.39,305.93a10.77,10.77,0,0,1,7.22,7.76c21.61-4.33,20.68,6.59,12.53,20.1a74.61,74.61,0,0,0-6.57,14.26l-13.18.09v-5.56c10.23-13,7.59-25.38,0-32.13v-4.52Zm0,32.6a36.52,36.52,0,0,0,0-21.65ZM69,348.18a72.88,72.88,0,0,0-7.7-15.67c-8.57-13.29-7.83-24.42,11.58-18.13,2.17-8.21,12.3-11.07,19.52-8.45v4.52a20.74,20.74,0,0,0-6.72-4,22.55,22.55,0,0,1,6.72,10.44v21.65A38,38,0,0,1,89,346.41a46.19,46.19,0,0,0,3.38-3.83v5.56C81.94,348.2,69.07,348.27,69,348.18Z"/><path class="cls-2" d="M129.17,480.77h32.08a7.14,7.14,0,0,0,7.13-7.12v-6.58a7.15,7.15,0,0,0-7.13-7.13h-8.71c2.78-27.68-1.94-54-23.37-75.22v10.44c16.7,20.22,28.69,54,3.19,76.83,11.78-21.4,6.41-47.59-3.19-67.21ZM68,368.39s-52,24-47.53,91.55H12.15A7.15,7.15,0,0,0,5,467.07v6.58a7.14,7.14,0,0,0,7.13,7.12h117v-76c-5.41-11-12.14-20-17.91-24.88,5.6,2.72,12,8.16,17.91,15.26V384.72a105.91,105.91,0,0,0-21.75-16.33Z"/><text class="cls-3" transform="translate(65.12 444.63)">＄</text><path class="cls-2" d="M92.39,484.2A10.76,10.76,0,0,1,99.61,492c21.61-4.32,20.68,6.59,12.53,20.1a74.61,74.61,0,0,0-6.57,14.26l-13.18.09v-5.56c10.23-13,7.59-25.37,0-32.13V484.2Zm0,32.59a36.49,36.49,0,0,0,0-21.64ZM69,526.44a72.69,72.69,0,0,0-7.7-15.66c-8.57-13.29-7.83-24.43,11.58-18.14,2.17-8.21,12.3-11.07,19.52-8.44v4.51a20.74,20.74,0,0,0-6.72-4,22.64,22.64,0,0,1,6.72,10.45v21.64A37.52,37.52,0,0,1,89,524.67a43.16,43.16,0,0,0,3.38-3.83v5.56C81.94,526.47,69.07,526.53,69,526.44Z"/><path class="cls-2" d="M129.17,659h32.08a7.15,7.15,0,0,0,7.13-7.13v-6.58a7.15,7.15,0,0,0-7.13-7.13h-8.71c2.78-27.68-1.94-54-23.37-75.22v10.44c16.7,20.23,28.69,54,3.19,76.84,11.78-21.41,6.41-47.6-3.19-67.22ZM68,546.65s-52,24-47.53,91.55H12.15A7.15,7.15,0,0,0,5,645.33v6.58A7.15,7.15,0,0,0,12.15,659h117V583c-5.41-11-12.14-20-17.91-24.87,5.6,2.71,12,8.15,17.91,15.25V563a106.27,106.27,0,0,0-21.75-16.33Z"/><text class="cls-3" transform="translate(65.12 622.9)">＄</text><path class="cls-2" d="M92.39,679.41a10.76,10.76,0,0,1,7.22,7.75c21.61-4.32,20.68,6.59,12.53,20.1a74.61,74.61,0,0,0-6.57,14.26l-13.18.09v-5.56c10.23-13,7.59-25.37,0-32.13v-4.51Zm0,32.59a36.49,36.49,0,0,0,0-21.64ZM69,721.65A72.69,72.69,0,0,0,61.29,706c-8.57-13.29-7.83-24.43,11.58-18.14,2.17-8.21,12.3-11.07,19.52-8.44v4.51a20.74,20.74,0,0,0-6.72-4,22.64,22.64,0,0,1,6.72,10.45V712A37.52,37.52,0,0,1,89,719.88a43.16,43.16,0,0,0,3.38-3.83v5.56C81.94,721.68,69.07,721.74,69,721.65Z"/><path class="cls-2" d="M129.17,854.25h32.08a7.15,7.15,0,0,0,7.13-7.13v-6.58a7.15,7.15,0,0,0-7.13-7.13h-8.71c2.78-27.68-1.94-54-23.37-75.22v10.44c16.7,20.23,28.69,54,3.19,76.84,11.78-21.41,6.41-47.6-3.19-67.22ZM68,741.86s-52,24-47.53,91.55H12.15A7.15,7.15,0,0,0,5,840.54v6.58a7.15,7.15,0,0,0,7.13,7.13h117v-76c-5.41-11-12.14-20-17.91-24.87,5.6,2.71,12,8.15,17.91,15.25V758.19a106.27,106.27,0,0,0-21.75-16.33Z"/><text class="cls-3" transform="translate(65.12 818.11)">＄</text><circle class="cls-4" cx="78.85" cy="1028.6" r="69.5"/><text class="cls-5" transform="translate(36.06 1046.15)">二犯</text></g></g></svg>
