<svg xmlns="http://www.w3.org/2000/svg" viewBox="0 0 168.38 703.18"><defs><style>.cls-1{font-size:52.65px;}.cls-1,.cls-3,.cls-4{fill:#fff;}.cls-1,.cls-3,.cls-5{font-family:Microsoft JhengHei;}.cls-2{fill:#fbb03b;fill-rule:evenodd;}.cls-3{font-size:44.55px;letter-spacing:-0.12em;}.cls-5{font-size:43.76px;}</style></defs><title>chart_14</title><g id="chart1" data-name="chart1_1"><g id="chart2" data-name="chart2_1"><text class="cls-1" transform="translate(26.79 46.34)">18萬</text><path class="cls-2" d="M87.37,103.74a10.76,10.76,0,0,1,7.21,7.76c21.62-4.33,20.69,6.59,12.54,20.1a75,75,0,0,0-6.58,14.26L87.37,146v-5.56c10.22-13,7.59-25.38,0-32.13v-4.52Zm0,32.6a36.52,36.52,0,0,0,0-21.65ZM64,146a72.88,72.88,0,0,0-7.7-15.67C47.7,117,48.44,105.9,67.84,112.19,70,104,80.15,101.12,87.37,103.74v4.52a20.85,20.85,0,0,0-6.72-4,22.55,22.55,0,0,1,6.72,10.44v21.65A37.49,37.49,0,0,1,84,144.22a46.37,46.37,0,0,0,3.39-3.83V146C76.92,146,64.05,146.08,64,146Z"/><path class="cls-2" d="M124.15,278.58h32.08a7.14,7.14,0,0,0,7.12-7.12v-6.58a7.14,7.14,0,0,0-7.12-7.13h-8.71c2.78-27.68-1.94-54-23.37-75.22V193c16.7,20.22,28.69,54,3.19,76.83,11.78-21.4,6.4-47.59-3.19-67.21ZM62.93,166.2s-52,24-47.53,91.55H7.13A7.15,7.15,0,0,0,0,264.88v6.58a7.14,7.14,0,0,0,7.13,7.12h117v-76c-5.41-11.05-12.15-20-17.92-24.88,5.61,2.72,12,8.16,17.92,15.26V182.53a106,106,0,0,0-21.76-16.33Z"/><text class="cls-3" transform="translate(60.1 242.44)">＄</text><path class="cls-2" d="M92.39,282a10.76,10.76,0,0,1,7.22,7.75c21.61-4.32,20.68,6.59,12.53,20.1a74.61,74.61,0,0,0-6.57,14.26l-13.18.09v-5.56c10.23-13,7.59-25.37,0-32.13V282Zm0,32.59a36.49,36.49,0,0,0,0-21.64ZM69,324.25a72.69,72.69,0,0,0-7.7-15.66c-8.57-13.29-7.83-24.42,11.58-18.14,2.17-8.21,12.3-11.07,19.52-8.44v4.51a20.74,20.74,0,0,0-6.72-4A22.64,22.64,0,0,1,92.39,293V314.6A37.52,37.52,0,0,1,89,322.48a43.16,43.16,0,0,0,3.38-3.83v5.56C81.94,324.28,69.07,324.34,69,324.25Z"/><path class="cls-2" d="M129.17,456.85h32.08a7.15,7.15,0,0,0,7.13-7.13v-6.58a7.15,7.15,0,0,0-7.13-7.13h-8.71c2.78-27.67-1.94-54-23.37-75.22v10.44c16.7,20.23,28.69,54,3.19,76.84,11.78-21.41,6.41-47.6-3.19-67.22ZM68,344.46s-52,24-47.53,91.55H12.15A7.15,7.15,0,0,0,5,443.14v6.58a7.15,7.15,0,0,0,7.13,7.13h117v-76c-5.41-11.05-12.14-20-17.91-24.87,5.6,2.71,12,8.15,17.91,15.25V360.79a106.27,106.27,0,0,0-21.75-16.33Z"/><text class="cls-3" transform="translate(65.12 420.71)">＄</text><circle class="cls-4" cx="78.25" cy="633.68" r="69.5"/><text class="cls-5" transform="translate(34.46 649.22)">初犯</text></g></g></svg>
