<svg xmlns="http://www.w3.org/2000/svg" viewBox="0 0 163.35 430.49"><defs><style>.cls-1{fill:#fbb03b;fill-rule:evenodd;}.cls-2{font-size:44.55px;}.cls-2,.cls-3{fill:#fff;}.cls-2,.cls-4{font-family:Microsoft JhengHei;}.cls-4{font-size:43.76px;}</style></defs><title>chart_12</title><g id="chart1" data-name="chart1_1"><g id="chart2" data-name="chart2_1"><path class="cls-1" d="M87.37.94A10.77,10.77,0,0,1,94.58,8.7c21.62-4.32,20.69,6.59,12.54,20.1a75,75,0,0,0-6.58,14.26l-13.17.09V37.59c10.22-13,7.59-25.38,0-32.13V.94Zm0,32.6a36.52,36.52,0,0,0,0-21.65ZM64,43.19a72.69,72.69,0,0,0-7.7-15.66C47.7,14.24,48.44,3.1,67.84,9.39,70,1.18,80.15-1.68,87.37.94V5.46a20.85,20.85,0,0,0-6.72-4,22.6,22.6,0,0,1,6.72,10.44V33.54A37,37,0,0,1,84,41.42a46.37,46.37,0,0,0,3.39-3.83v5.56C76.92,43.21,64.05,43.28,64,43.19Z"/><path class="cls-1" d="M124.15,175.79h32.08a7.14,7.14,0,0,0,7.12-7.13v-6.58a7.14,7.14,0,0,0-7.12-7.13h-8.71c2.78-27.68-1.94-54-23.37-75.22V90.17c16.7,20.23,28.69,54,3.19,76.84,11.78-21.41,6.4-47.6-3.19-67.22ZM62.93,63.4s-52,24-47.53,91.55H7.13A7.15,7.15,0,0,0,0,162.08v6.58a7.15,7.15,0,0,0,7.13,7.13h117v-76c-5.41-11.05-12.15-20-17.92-24.88,5.61,2.72,12,8.16,17.92,15.26V79.73A106,106,0,0,0,102.39,63.4Z"/><text class="cls-2" transform="translate(47.23 139.65)">9萬</text><circle class="cls-3" cx="75.1" cy="360.99" r="69.5"/><text class="cls-4" transform="translate(31.31 376.54)">初犯</text></g></g></svg>
