<svg xmlns="http://www.w3.org/2000/svg" viewBox="0 0 173.4 1457.1"><defs><style>.cls-1{font-size:52.65px;}.cls-1,.cls-3,.cls-4{fill:#fff;}.cls-1,.cls-3,.cls-5{font-family:Microsoft JhengHei;}.cls-2{fill:#fbb03b;fill-rule:evenodd;}.cls-3{font-size:44.55px;letter-spacing:-0.12em;}.cls-5{font-size:43.76px;}</style></defs><title>chart_16</title><g id="chart1" data-name="chart1_1"><g id="chart2" data-name="chart2_1"><text class="cls-1" transform="translate(25.4 46.34)">54萬</text><path class="cls-2" d="M87.37,111.47a10.74,10.74,0,0,1,7.21,7.75c21.62-4.32,20.69,6.59,12.54,20.1a75,75,0,0,0-6.58,14.26l-13.17.09v-5.56c10.22-13,7.59-25.37,0-32.13v-4.51Zm0,32.6a36.52,36.52,0,0,0,0-21.65ZM64,153.72a72.88,72.88,0,0,0-7.7-15.67c-8.57-13.29-7.83-24.42,11.57-18.14,2.18-8.21,12.31-11.07,19.53-8.44V116a20.85,20.85,0,0,0-6.72-4,22.64,22.64,0,0,1,6.72,10.45v21.65A37.19,37.19,0,0,1,84,151.94a43.33,43.33,0,0,0,3.39-3.83v5.56C76.92,153.74,64.05,153.8,64,153.72Z"/><path class="cls-2" d="M124.15,286.31h32.08a7.14,7.14,0,0,0,7.12-7.13V272.6a7.14,7.14,0,0,0-7.12-7.12h-8.71c2.78-27.68-1.94-54-23.37-75.23v10.44c16.7,20.23,28.69,54,3.19,76.84,11.78-21.41,6.4-47.6-3.19-67.22ZM62.93,173.92s-52,24-47.53,91.56H7.13A7.14,7.14,0,0,0,0,272.6v6.58a7.15,7.15,0,0,0,7.13,7.13h117v-76c-5.41-11.05-12.15-20-17.92-24.87,5.61,2.71,12,8.15,17.92,15.25V190.25a106.71,106.71,0,0,0-21.76-16.33Z"/><text class="cls-3" transform="translate(60.1 250.17)">＄</text><path class="cls-2" d="M92.39,300.4a10.77,10.77,0,0,1,7.22,7.75c21.61-4.32,20.68,6.59,12.53,20.11a74.38,74.38,0,0,0-6.57,14.25l-13.18.09v-5.55c10.23-13,7.59-25.38,0-32.14V300.4Zm0,32.6a36.52,36.52,0,0,0,0-21.65ZM69,342.65A72.88,72.88,0,0,0,61.29,327c-8.57-13.29-7.83-24.42,11.58-18.13,2.17-8.22,12.3-11.08,19.52-8.45v4.51a20.92,20.92,0,0,0-6.72-4,22.64,22.64,0,0,1,6.72,10.45V333A38,38,0,0,1,89,340.88a46.19,46.19,0,0,0,3.38-3.83v5.55C81.94,342.67,69.07,342.73,69,342.65Z"/><path class="cls-2" d="M129.17,475.24h32.08a7.14,7.14,0,0,0,7.13-7.12v-6.58a7.15,7.15,0,0,0-7.13-7.13h-8.71c2.78-27.68-1.94-54-23.37-75.22v10.44c16.7,20.22,28.69,54,3.19,76.83,11.78-21.4,6.41-47.59-3.19-67.21ZM68,362.86s-52,24-47.53,91.55H12.15A7.15,7.15,0,0,0,5,461.54v6.58a7.14,7.14,0,0,0,7.13,7.12h117v-76c-5.41-11.05-12.14-20-17.91-24.88,5.6,2.72,12,8.16,17.91,15.26V379.19a105.91,105.91,0,0,0-21.75-16.33Z"/><text class="cls-3" transform="translate(65.12 439.1)">＄</text><path class="cls-2" d="M92.39,478.66a10.77,10.77,0,0,1,7.22,7.76c21.61-4.33,20.68,6.59,12.53,20.1a74.61,74.61,0,0,0-6.57,14.26l-13.18.09v-5.56c10.23-13,7.59-25.38,0-32.13v-4.52Zm0,32.6a36.52,36.52,0,0,0,0-21.65ZM69,520.91a72.88,72.88,0,0,0-7.7-15.67c-8.57-13.29-7.83-24.42,11.58-18.13C75,478.9,85.17,476,92.39,478.66v4.52a20.74,20.74,0,0,0-6.72-4,22.55,22.55,0,0,1,6.72,10.44v21.65A38,38,0,0,1,89,519.14a46.19,46.19,0,0,0,3.38-3.83v5.56C81.94,520.93,69.07,521,69,520.91Z"/><path class="cls-2" d="M129.17,653.5h32.08a7.14,7.14,0,0,0,7.13-7.12V639.8a7.15,7.15,0,0,0-7.13-7.13h-8.71c2.78-27.68-1.94-54-23.37-75.22v10.44c16.7,20.22,28.69,54,3.19,76.83,11.78-21.4,6.41-47.59-3.19-67.21ZM68,541.12s-52,24-47.53,91.55H12.15A7.15,7.15,0,0,0,5,639.8v6.58a7.14,7.14,0,0,0,7.13,7.12h117v-76c-5.41-11-12.14-20-17.91-24.88,5.6,2.72,12,8.16,17.91,15.26V557.45a105.91,105.91,0,0,0-21.75-16.33Z"/><text class="cls-3" transform="translate(65.12 617.36)">＄</text><path class="cls-2" d="M92.39,673.87a10.77,10.77,0,0,1,7.22,7.76c21.61-4.33,20.68,6.59,12.53,20.1A74.61,74.61,0,0,0,105.57,716l-13.18.09v-5.56c10.23-13,7.59-25.38,0-32.13v-4.52Zm0,32.6a36.52,36.52,0,0,0,0-21.65ZM69,716.12a72.88,72.88,0,0,0-7.7-15.67c-8.57-13.29-7.83-24.42,11.58-18.13,2.17-8.21,12.3-11.07,19.52-8.45v4.52a20.74,20.74,0,0,0-6.72-4,22.55,22.55,0,0,1,6.72,10.44v21.65A38,38,0,0,1,89,714.35a46.19,46.19,0,0,0,3.38-3.83v5.56C81.94,716.14,69.07,716.21,69,716.12Z"/><path class="cls-2" d="M129.17,848.71h32.08a7.14,7.14,0,0,0,7.13-7.12V835a7.15,7.15,0,0,0-7.13-7.13h-8.71c2.78-27.68-1.94-54-23.37-75.22V763.1c16.7,20.22,28.69,54,3.19,76.84,11.78-21.41,6.41-47.6-3.19-67.22ZM68,736.33s-52,24-47.53,91.55H12.15A7.15,7.15,0,0,0,5,835v6.58a7.14,7.14,0,0,0,7.13,7.12h117v-76c-5.41-11.05-12.14-20-17.91-24.88,5.6,2.72,12,8.16,17.91,15.26V752.66a105.91,105.91,0,0,0-21.75-16.33Z"/><text class="cls-3" transform="translate(65.12 812.57)">＄</text><path class="cls-2" d="M92.39,854.65a10.76,10.76,0,0,1,7.22,7.75c21.61-4.32,20.68,6.59,12.53,20.1a74.61,74.61,0,0,0-6.57,14.26l-13.18.09v-5.56c10.23-13,7.59-25.37,0-32.13v-4.51Zm0,32.6a36.52,36.52,0,0,0,0-21.65ZM69,896.9a72.88,72.88,0,0,0-7.7-15.67c-8.57-13.29-7.83-24.42,11.58-18.14,2.17-8.21,12.3-11.07,19.52-8.44v4.51a20.74,20.74,0,0,0-6.72-4,22.64,22.64,0,0,1,6.72,10.45v21.65A37.67,37.67,0,0,1,89,895.12a43.16,43.16,0,0,0,3.38-3.83v5.56C81.94,896.92,69.07,897,69,896.9Z"/><path class="cls-2" d="M129.17,1029.49h32.08a7.15,7.15,0,0,0,7.13-7.13v-6.58a7.14,7.14,0,0,0-7.13-7.12h-8.71c2.78-27.68-1.94-54-23.37-75.23v10.44c16.7,20.23,28.69,54,3.19,76.84,11.78-21.41,6.41-47.6-3.19-67.22ZM68,917.1s-52,24-47.53,91.56H12.15A7.14,7.14,0,0,0,5,1015.78v6.58a7.15,7.15,0,0,0,7.13,7.13h117v-76c-5.41-11-12.14-20-17.91-24.87,5.6,2.71,12,8.15,17.91,15.25V933.43a106.63,106.63,0,0,0-21.75-16.33Z"/><text class="cls-3" transform="translate(65.12 993.35)">＄</text><path class="cls-2" d="M97.41,1043.58a10.77,10.77,0,0,1,7.22,7.75c21.61-4.32,20.68,6.59,12.53,20.11a74.38,74.38,0,0,0-6.57,14.25l-13.18.09v-5.55c10.23-13,7.59-25.38,0-32.14v-4.51Zm0,32.6a36.52,36.52,0,0,0,0-21.65ZM74,1085.83a72.88,72.88,0,0,0-7.7-15.67c-8.57-13.29-7.82-24.42,11.58-18.13,2.17-8.22,12.3-11.08,19.52-8.45v4.51a20.92,20.92,0,0,0-6.72-4,22.64,22.64,0,0,1,6.72,10.45v21.65a38,38,0,0,1-3.38,7.88,46.19,46.19,0,0,0,3.38-3.83v5.55C87,1085.85,74.09,1085.91,74,1085.83Z"/><path class="cls-2" d="M134.19,1218.42h32.08a7.14,7.14,0,0,0,7.13-7.12v-6.58a7.15,7.15,0,0,0-7.13-7.13h-8.71c2.78-27.68-1.94-54-23.37-75.22v10.44c16.7,20.22,28.69,54,3.19,76.83,11.78-21.4,6.41-47.59-3.19-67.21ZM73,1106s-52,24-47.53,91.55H17.17a7.15,7.15,0,0,0-7.13,7.13v6.58a7.14,7.14,0,0,0,7.13,7.12h117v-76c-5.4-11-12.14-20-17.91-24.88,5.6,2.72,12.05,8.16,17.91,15.26v-10.44A105.91,105.91,0,0,0,112.44,1106Z"/><text class="cls-3" transform="translate(70.15 1182.28)">＄</text><circle class="cls-4" cx="86.84" cy="1387.6" r="69.5"/><text class="cls-5" transform="translate(43.06 1408.15)">三犯</text></g></g></svg>
