<svg xmlns="http://www.w3.org/2000/svg" viewBox="0 0 629.34 303.1"><defs><style>.cls-1{fill:#f8c6a6;}.cls-2{fill:#f8c8a9;}.cls-3{fill:#443431;}.cls-4{fill:#524542;}.cls-5{fill:#a9dbed;}.cls-6{fill:#f3a37a;}.cls-7{fill:#ebf7fd;}.cls-8{fill:#84bae5;}</style></defs><title>chart_1</title><g id="chart1" data-name="chart1_1"><g id="圖層_1-2" data-name="圖層 1"><path class="cls-1" d="M212.84,81.49c-3.52-6.14-7.65-9.71-12.45-8.6-17.11,4-17.53-8.93-17.53-8.93s-13.39-4-14.51-10.68,8.89,0,10.28-5.94,9.2,1.17,12.09-5.43,7.1-3.76,14.3,2c2.74,2.19,10.46,12.15,19.74,25.84-4,3.94-7.91,7.89-11.92,11.78Z"/><path class="cls-2" d="M516.54,285s18.86-17.93,23.7-13.19c11.3,11.07,39.91,8.42,41.38,17.34s-50.36,16-55,13.45S516.54,285,516.54,285Z"/><path class="cls-2" d="M605.61,150.23s-13.31-22.36-7.61-26c13.29-8.57,17-37,26.06-36.52s4.5,52.66.94,56.64-19.39,5.91-19.39,5.91Z"/><path class="cls-3" d="M271.25,275.33,283.72,282a54.72,54.72,0,0,0,50.26.57L461.91,218.2l147.86-57.8-12.52-46.57-152,60.2L323.44,229.65l-25.65-10.71-26.54,56.39Z"/><path class="cls-3" d="M304.45,191.2l113.32-41.38a27.38,27.38,0,0,1,30,7L549.51,267.06l-36.69,29.13-83.44-88.7L321.75,241.22l-22.47-14.63,5.17-35.39Z"/><path class="cls-4" d="M446.57,174.23a1.53,1.53,0,0,0-.08-.7,1.38,1.38,0,0,0-1.78-.77c-18.95,7.5-106.91,48.81-107.79,49.23a1.36,1.36,0,1,0,1.16,2.47c.89-.41,88.77-41.69,107.63-49.16a1.35,1.35,0,0,0,.86-1.07Z"/><path class="cls-4" d="M490.49,209.11a1.24,1.24,0,0,0-.06-.63,1.36,1.36,0,0,0-1.73-.86l-27.23,9.29-8,4a1.37,1.37,0,1,0,1.23,2.44l7.79-3.92,27.05-9.21a1.36,1.36,0,0,0,.91-1.1Z"/><path class="cls-5" d="M162.56,257.34l51.23,27.47s37.3,18,47.92,15.54,19.67-13.67,19.67-13.67l13.3.41,9.77-95.89L290.92,194a24.34,24.34,0,0,0-18.8-11.87c-6.38-.66-14.41-1.31-21.1-1.81,5.26-1.54,9.88-3,13.63-4.29a21,21,0,0,0,14.18-20.94,21.92,21.92,0,0,0-3.53-10.56L224.37,63.34,202.76,76.42,207,84.07a10.36,10.36,0,0,0-1.91,12.86l29.18,49.59-53.41,4.6A27.35,27.35,0,0,0,158,167.72L135.1,221.81a18.8,18.8,0,0,0,7.53,23.38l19.93,12.15Z"/><path class="cls-2" d="M158.53,193c-2,2.68-3.83,4.89-7.41,4.9-6.6,0-11.81-5.27-18.37-5.08-3.07.08-6.07.87-9.12,1.28-4.72.63-9.23-.62-13.72-2-20.21-6.23-53.21-35-34-59s47.5-4.5,59.31,6c4.57,4.06,9.19,8.76,12.19,14.27a22.92,22.92,0,0,1,2.9,9.11c.25,3.49-1.19,6.58-1.29,10-.15,4.64,5.17,6.94,8.3,9.34,4.05,3.11,4.2,7.15,1.18,11.21Z"/><path class="cls-2" d="M101.09,183.06a8.77,8.77,0,1,1-12.27,1.76,8.77,8.77,0,0,1,12.27-1.76Z"/><path class="cls-2" d="M140.72,128.57a8.76,8.76,0,1,1-12.27,1.75,8.76,8.76,0,0,1,12.27-1.75Z"/><path class="cls-6" d="M132.64,164.73a1,1,0,0,0-1.78-.69,10.59,10.59,0,0,1-11.58,6.48.94.94,0,0,0-1.1.79,1,1,0,0,0,.78,1.11,12.53,12.53,0,0,0,13.68-7.67v0Z"/><path class="cls-3" d="M105.68,164.45a1.09,1.09,0,0,0,0,.31,1,1,0,0,0,1.12.77,5.52,5.52,0,0,0,3.7-8.35,1,1,0,0,0-1.63,1,3.6,3.6,0,0,1-2.41,5.45,1,1,0,0,0-.79.8Z"/><path class="cls-3" d="M116.71,147.45a.88.88,0,0,0-.07.29,1,1,0,0,0,.89,1,5.55,5.55,0,0,0,4.73-2.08,5.61,5.61,0,0,0,.93-5.08,1,1,0,1,0-1.83.57,3.71,3.71,0,0,1-.61,3.33,3.67,3.67,0,0,1-3.08,1.35,1,1,0,0,0-1,.6Z"/><path class="cls-6" d="M100.89,187.85a.94.94,0,0,0-.1-.87,5.37,5.37,0,0,0-9.58,4.6,1,1,0,0,0,1.2.63,1,1,0,0,0,.64-1.2,3.45,3.45,0,0,1,6.15-3,1,1,0,0,0,1.33.26,1,1,0,0,0,.36-.46Z"/><path class="cls-6" d="M146.85,178.94a1,1,0,0,0-1.77-.74,26.47,26.47,0,0,1-8.74,10.43,1,1,0,0,0-.23,1.33,1,1,0,0,0,1.33.23A28.49,28.49,0,0,0,146.82,179l0-.07Z"/><path class="cls-3" d="M106.75,151.55a.9.9,0,0,0,0-.49,1,1,0,0,0-1.1-.79,10.11,10.11,0,0,0-8.1,12.83,1,1,0,0,0,1.84-.54,8.19,8.19,0,0,1,6.57-10.4.93.93,0,0,0,.74-.61Z"/><path class="cls-3" d="M121.54,135.81a.74.74,0,0,0,0-.25,1,1,0,0,0-.86-1,9.46,9.46,0,0,0-10.28,10.24,1,1,0,1,0,1.9-.17,7.56,7.56,0,0,1,8.2-8.17,1,1,0,0,0,1-.61Z"/><path class="cls-6" d="M127.38,158.34a2.67,2.67,0,0,0-.37-2.7,3.84,3.84,0,0,0-2.71-1.08l-8.53-.78a1,1,0,0,0-.17,1.91l8.52.77a2.41,2.41,0,0,1,1.43.42c.26.3.08,1-.34,1.36a5.17,5.17,0,0,1-2.35.88,1,1,0,0,0,.39,1.88,6.78,6.78,0,0,0,3.23-1.32,3.38,3.38,0,0,0,.9-1.34Z"/><path class="cls-3" d="M62.94,164.47a19.1,19.1,0,0,1-4.27-20.86c5.69-14.29,16.64-21.79,28-26.67,10.78-4.62,22.64-3.8,31.91,6,.45.46-9.78,16.71-31.73,33.65,0,0,12.28,12.2,6.43,18.79,0,0,13,6.34,11.59,8.33s-10.2-3.69-13.13-1.3c0,0-4.42,2.9-4.49,6,0,0-32.86-12.52-24.32-23.92Z"/><path class="cls-3" d="M118.59,123s13.32,14,12.89,15.33-18-9.85-18-9.85l5.09-5.48Z"/><path class="cls-7" d="M108.59,235.35a314.51,314.51,0,0,1-50.68-36.23,314.77,314.77,0,0,1-42.5-45.56S.16,156.44,0,150.18s15.37-6.78,15.37-6.78S32,112.27,65.19,74.47s61.89-58.33,61.89-58.33S125.57.68,131.8,0s5.36,14.84,5.36,14.84A315,315,0,0,1,187.84,51.1a314.43,314.43,0,0,1,42.5,45.55s15.25-2.88,15.41,3.39-15.37,6.77-15.37,6.77-16.63,31.13-49.82,68.94-61.89,58.32-61.89,58.32,1.51,15.47-4.72,16.13-5.36-14.85-5.36-14.85Z"/><path class="cls-2" d="M215.16,157.36l-21.41-42.29s-12.89-6.4-14.52-9-2-13.18-.3-13.52c0,0-5.53-6.17-5.6-7.24s11.4-1.83,18.07-1.31,16.19,23.45,16.19,23.45l27.86,34.1-20.29,15.84Z"/><path class="cls-5" d="M151.66,212.06l78.52-12.86L201,149.61a10.35,10.35,0,0,1,1.91-12.86h0l-4.21-7.65L220.31,116l51.25,81.69A21,21,0,0,1,274,214.58h0a20.88,20.88,0,0,1-13.38,14.1c-20,6.77-64.73,19.74-99.42,13.92l-9.51-30.54Z"/><path class="cls-8" d="M275.32,214.78a1.35,1.35,0,0,0-1-1.51,1.37,1.37,0,0,0-1.69.94,19.54,19.54,0,0,1-12.51,13.18c-18.07,6.12-63.88,19.71-98.75,13.86a1.37,1.37,0,0,0-1.58,1.12v0a1.37,1.37,0,0,0,1.13,1.54c35.49,6,81.82-7.78,100.08-14a22.26,22.26,0,0,0,14.27-15,1.13,1.13,0,0,0,0-.18Z"/><path class="cls-8" d="M275.9,212.09a22.37,22.37,0,0,0-3.17-15.1l-7.87-12.54a1.37,1.37,0,1,0-2.32,1.45l7.87,12.54a19.58,19.58,0,0,1,2.25,15.77,1.37,1.37,0,1,0,2.63.75,22.23,22.23,0,0,0,.61-2.87Z"/><path class="cls-8" d="M235.34,138a1.35,1.35,0,0,0-.19-.93l-13.68-21.8a1.37,1.37,0,0,0-2.32,1.45l13.68,21.81a1.37,1.37,0,0,0,1.89.43,1.35,1.35,0,0,0,.62-1Z"/><path class="cls-8" d="M231.53,199.4a1.38,1.38,0,0,0-.17-.89l-29.18-49.59a9,9,0,0,1,1.66-11.16,1.37,1.37,0,0,0,.27-1.67l-3.57-6.5L221,117.19a1.37,1.37,0,0,0,.46-1.88,1.36,1.36,0,0,0-1.88-.46L198,127.93a1.38,1.38,0,0,0-.49,1.83l3.72,6.76a11.76,11.76,0,0,0-1.4,13.78L228,198.17l-76.54,12.54a1.36,1.36,0,1,0,.44,2.69l78.52-12.85a1.37,1.37,0,0,0,1-.77,1.27,1.27,0,0,0,.11-.38Z"/></g></g></svg>
