<svg xmlns="http://www.w3.org/2000/svg" viewBox="0 0 182.8 381.48"><defs><style>.cls-1{isolation:isolate;}.cls-2{fill:#f3f3f4;}.cls-3{fill:#bcbdc0;}.cls-4{fill:#d43830;}.cls-5{fill:#efc47f;}.cls-12,.cls-6{fill:#494849;}.cls-11,.cls-7{fill:#e6e7e8;}.cls-8{fill:#7f8083;}.cls-11,.cls-12,.cls-8{mix-blend-mode:multiply;}.cls-9{fill:#403f40;}.cls-10{fill:#97989b;}.cls-12{opacity:0.41;}</style></defs><title>chart_5</title><g class="cls-1"><g id="chart1" data-name="chart1_1"><g id="chart2" data-name="chart2_1"><path class="cls-2" d="M14.93,335.78c0,19.59,37.3,39.17,37.3,39.17s14,6.53,39.17,6.53S130.57,375,130.57,375s37.3-19.58,37.3-39.17V292a63.19,63.19,0,0,0-2.8-17.72s2.8-216.35,2.8-234.07S153,10.32,143.62,4.72,100.72.06,91.4.06,48.5-.87,39.17,4.72,14.93,22.44,14.93,40.16s2.79,234.07,2.79,234.07A63.4,63.4,0,0,0,14.93,292Z"/><path class="cls-3" d="M14.93,335.78c0,19.59,37.3,39.17,37.3,39.17s14,6.53,39.17,6.53S130.57,375,130.57,375s37.3-19.58,37.3-39.17V292a63.19,63.19,0,0,0-2.8-17.72v-.62l-.48.16s-3.73,6.53-6.52,32.64,0,37.3-8.4,45.69-13.05,16.79-25.18,16.79H58.29c-12.12,0-16.78-8.39-25.18-16.79s-5.59-19.58-8.39-45.69-6.53-32.64-6.53-32.64l-.47-.16v.62A63.4,63.4,0,0,0,14.93,292Z"/><path class="cls-4" d="M148,7.59c4.29,12.13,13.81,25.57,13.81,25.57h5.26C164.4,21.59,155.54,13,148,7.59Z"/><path class="cls-5" d="M129.63,370.29v5.06c.62-.25.94-.4.94-.4s22.48-11.8,32.53-26.25c.53-9,.47-18.66-3.62-6.39C153,361.9,129.63,370.29,129.63,370.29Z"/><path class="cls-3" d="M136.6,294.42c-.06,7.91-.26,22.74-.9,36.23-.94,19.59-6.53,30.78-6.53,30.78,12.3-18.45,12.56-55.9,12.27-68.5C139.89,293.46,138.27,294,136.6,294.42Z"/><path class="cls-6" d="M23.32,278c0,15.86,44.76,22.31,68.08,22.31s68.08-6.45,68.08-22.31c0-1.61.41-23,.83-37.43l-9.22-30.14c0,.28,0,.43,0,.43s-10.26,12-59.68,12-59.69-12-59.69-12v-.43l-9.22,30.14C22.91,254.91,23.32,276.35,23.32,278Z"/><path class="cls-4" d="M34.79,7.59C30.51,19.72,21,33.16,21,33.16H15.73C18.4,21.59,27.26,13,34.79,7.59Z"/><path class="cls-7" d="M91.4,222.79c29.24,0,44.77-4.19,52.58-7.61a66.34,66.34,0,0,1-.82-10.42c0-11.19-2.8-152.67-2.8-152.67H42.44s-2.8,141.48-2.8,152.67a66.34,66.34,0,0,1-.82,10.42C46.63,218.6,62.16,222.79,91.4,222.79Z"/><path class="cls-5" d="M53.16,370.29v5.06c-.61-.25-.93-.4-.93-.4s-22.48-11.8-32.54-26.25c-.52-9-.46-18.66,3.63-6.39C29.85,361.9,53.16,370.29,53.16,370.29Z"/><path class="cls-3" d="M46.2,294.42c.06,7.91.26,22.74.9,36.23.93,19.59,6.53,30.78,6.53,30.78-12.3-18.45-12.56-55.9-12.27-68.5C42.91,293.46,44.53,294,46.2,294.42Z"/><path class="cls-8" d="M23.79,277.5l7.92-66.68s-.93-160.4-.93-166S31.71,29,43.84,25.24,91.4,20.77,91.4,20.77s35.44.74,47.56,4.47S152,39.23,152,44.82s-.94,166-.94,166L159,277.5s2.8-63.42,2.8-132.43-7.46-115.64-7.46-115.64S149.68,21,141.29,17.31,112.38,12.5,91.4,12.5s-41.5,1.08-49.89,4.81S28.45,29.43,28.45,29.43,21,76.06,21,145.07,23.79,277.5,23.79,277.5Z"/><path class="cls-9" d="M161.76,161.24l-10.34-8.74c0,4.88-.06,9.63-.08,14.19l10.27,11.44C161.67,172.6,161.72,167,161.76,161.24Z"/><path class="cls-9" d="M159.19,74.7l-7.41,14.14c0,3.51,0,7.13-.06,10.84L159.91,85C159.68,81.4,159.44,78,159.19,74.7Z"/><path class="cls-9" d="M21,161.24l10.34-8.74c0,4.88.05,9.63.08,14.19L21.19,178.13C21.12,172.6,21.07,167,21,161.24Z"/><path class="cls-9" d="M23.61,74.7,31,88.84c0,3.51,0,7.13.07,10.84L22.89,85C23.12,81.4,23.36,78,23.61,74.7Z"/><path class="cls-10" d="M129.17,375.53v-4.85c-3.5,1.41-16.82,6.14-38.24,6.14s-34.73-4.73-38.23-6.14v4.47c2.59,1.1,16.16,6.33,38.7,6.33C112,381.48,125.05,377.13,129.17,375.53Z"/><path class="cls-10" d="M164.14,256.94c19.54-.79,18.65-26.07,18.65-26.07l-18.65,5.33Z"/><rect class="cls-6" x="157.61" y="243.93" width="6.53" height="8.39" transform="translate(321.75 496.24) rotate(180)"/><path class="cls-10" d="M18.66,256.94C-.88,256.15,0,230.87,0,230.87l18.65,5.33Z"/><rect class="cls-6" x="18.66" y="243.93" width="6.53" height="8.39"/><path class="cls-11" d="M42.44,52.09s-2.8,141.48-2.8,152.67a66.34,66.34,0,0,1-.82,10.42c-5.39-2.37-7.11-4.36-7.11-4.36v-.43l-9.22,30.14c.42,14.38.83,35.82.83,37.43,0,15.86,44.76,22.31,68.08,22.31a194.7,194.7,0,0,0,35.39-3.55c-1.53-94.11-17.15-179.56-42-244.63Z"/><path class="cls-12" d="M91.4,222.79c-49.43,0-59.69-12-59.69-12v-.43l-9.22,30.14c.42,14.38.83,35.82.83,37.43,0,15.86,44.76,22.31,68.08,22.31a191.62,191.62,0,0,0,25.56-1.9c-1.58-27.81-7.22-53.62-15.89-75.75C98,222.72,94.81,222.79,91.4,222.79Z"/></g></g></g></svg>
